<svg xmlns="http://www.w3.org/2000/svg" version="1" width="15" height="336"><path d="M1 84l-1 21v9c2 9 5 11 5 14-5 1-5 2-5 5 1 2 4 3 6 2 1-2-1 0-3-2-1-5 3-3 4-3 3 3 5 12-1 13l1-2c-5-7-12 6 1 6 1 0-13 11-6 20 2 3-4 3-1 11 1 6 6 9 6 11-2 1-5 0-6 4-1 5 8 8 5 0 4 0 6 6 3 11l-2 2c-2 1-4 1-4-1-1-1 1-1 2-2l-1-2c-3 0-4 3-3 5 1 4 4 2 5 3l-3 7c-5 12-2 34 2 47l2 7c0 2-3 0-3-2v-3H3v5c0 2 2 2 3 3 1 5-4 4-1 8 2 4 1 54 1 54 0 2 1 1 2 1v-49c0-5 1-5 2-7 2-3-4-5-1-8 4-4 3-12 0-18l-3-7c3 0 5 1 7-1 2-3-3-7-6-4l-2 2c-5-5-1-13 1-15 0 8 8 8 7 1 0-2-2-1-1 0v2l-3 1c-5-3 4-12 5-29 1-6 0-5-1-9-2-7-15-16-10-23l1-1 4 5c1 1 3 2 3 5-5-2-5 1-5 3 2 4 12 1 6-11 1-4 3-2 0-9 6-10-3-14-5-10-1 1-1 4 2 3h1c1 0 2 3-3 5l-3 5-2-4c-1-4 2-8 4-11 10-11 10-17 5-33-1-3-3-7-3-11-1-3 2-5 3-4 2 1-1 4 1 4 1 1 3-3 1-5-1-2-4-2-6 0-1 2 0 5-1 4H5c-1-3-4-8 1-13l2 1c4 2 7-2 6-4-2-2-5-2-7 0-1-5 1-6 3-13 5-13-1-14-2-14l2-6 1-2-2-2L8 0C4-4 7 50 6 54c-1 2-4 2-1 5l1 3-2 3c-4 4-1 6 0 4v-1l2-2c0 6-3 8-5 18m5-11l2-6c1-1 1 1 1 1 1 4-1 8-2 11l-2 8v5l-2 3H2v-7l4-15m-4 33l1 1 1 4 7 16c1 3 2 7 1 10l-1 4 1-4-4-9-3-6c-2-5-3-10-3-16m3 110l4-8 3-6v4l-2 9-7 15H2c0-5 1-9 3-14m-3 28c2 0 3 2 3 4 0 5 3 10 4 15v7l-1-1-1-6-3-10-2-9m6 34v2c-1 1-2 0-2-1l2-1M7 57v-1c2 0 2 3 0 3v-2m1 186h3v2H7l1-2M8 92h3v1l-3-1zM-142 158z"/></svg>