<?xml version="1.0" encoding="UTF-8" standalone="no"?>
<svg
   version="1"
   viewBox="0 0 14.506015 336.46155"
   width="14.506015"
   height="336.46155"
>

  <path
     d="m 14,84.211553 v 29.999997 c -0.784089,10.10429 -4.343387,10.9909 -5,14 6,1 5,2 5,5 0,2 -3,3 -5,2 -2,-2 1,0 3,-2 0,-5 -4,-3 -4,-3 -4,3 -6,12 0,13 v -2 c 4,-7 11,6 -1,6 -2,0 12,11 6,20 -3,3 3,3 1,11 -2,6 -6,9 -7,11 3,1 5,0 7,4 1,5 -8,8 -6,0 -4,0 -6,6 -3,11 l 3,2 c 1,1 4,1 4,-1 l -2,-2 v -2 c 3,0 5,3 4,5 -2,4 -4,2 -5,3 l 3,7 c 4,12 2,34 -3,47 l -1,7 c 0,2 3,0 3,-2 l -1,-3 h 2 v 5 l -4,3 c -1,5 4,4 2,8 -3,4 -1,54 -1,54 -1,2 -2,1 -3,1 l 1,-49 c 0,-5 -1,-5 -2,-7 -2,-3 3,-5 1,-8 -5,-4 -3,-12 0,-18 l 2,-7 c -2,0 -5,1 -6,-1 -3,-3 2,-7 5,-4 l 2,2 c 5,-5 2,-13 -1,-15 1,8 -8,8 -7,1 0,-2 2,-1 2,0 v 2 l 2,1 c 5,-3 -4,-12 -5,-29 0,-6 0,-5 2,-9 2,-7 14,-16 10,-23 l -2,-1 -3,5 c -2,1 -3,2 -3,5 5,-2 5,1 4,3 -2,4 -11,1 -5,-11 -2,-4 -3,-2 0,-9 -7.000002,-10 2,-14 5,-10 1,1 0,4 -2,3 H 4 c -1,0 -1,3 3,5 2,1 3,2 3,5 l 2,-4 c 1,-4 -1,-8 -4,-11 -10,-11 -9,-17 -5,-33 l 4,-11 c 0,-3 -3,-5 -4,-4 -1,1 2,4 0,4 -1,1 -4,-3 -2,-5 2,-2 5,-2 6,0 1,2 1,5 2,4 h 1 c 1,-3 3,-8 -2,-13 l -2,1 c -4,2 -6,-2 -5,-4 2,-2 5,-2 7,0 1,-5 -1,-5.999997 -4,-12.999997 -4,-13 1,-14 2,-14 1,-2 0,-4 -1,-6 -1,0 -2,-1 -1,-2 l 2,-2 V 0.21155284 C 11,-3.7884472 7,50.211553 9,54.211553 c 0,2 3,2 1,5 l -2,3 3,3 c 4,4 1,6 0,4 l -1,-1 -1,-2 c 0,6 3,8 5,18 m -6,-11 -1,-6 c -1,-1 -1,1 -2,1 -1,4 1,8 3,11 l 2,7.999997 -1,5 2,3 h 1 v -7 C 12,83.211553 10,78.211553 8,73.211553 m 4,32.999997 v 1 l -2,4 c -2,5 -5,10 -6,16 -2,3 -2,7 -2,10 l 1,4 v -4 c 0,-4 2,-6 4,-9 l 3,-6 c 2,-5 3,-10 2,-16 m -2,110 -4,-8 -3,-6 H 2 v 4 l 3,9 6,15 h 1 c 1,-5 0,-9 -2,-14 m 2,28 c -1,0 -3,2 -2,4 l -5,15 c -1,2 -1,5 1,7 l 1,-1 1,-6 3,-10 1,-9 m -5,34 v 2 l 1,-1 -1,-1 M 8,57.211553 v -1 c -2,0 -2,3 -1,3 l 1,-2 M 6,243.21155 H 4 v 2 h 3 l -1,-2 m 1,-151 H 3 l 1,1 z"
     id="path1901" />
</svg>
