<?xml version="1.0" encoding="UTF-8" standalone="no"?>
<svg
   version="1"
   viewBox="0 0 14.506015 336.46155"
   sodipodi:docname="card-side-right.svg"
   width="14.506015"
   height="336.46155">

  <path
     d="m 0.50601456,84.211553 v 29.999997 c 0.78408904,10.10429 4.34338704,10.9909 5.00000004,14 -6.00000004,1 -5.00000004,2 -5.00000004,5 0,2 3.00000004,3 5.00000004,2 2,-2 -1,0 -3,-2 0,-5 4,-3 4,-3 4.0000004,3 6.0000004,12 0,13 v -2 c -4,-7 -11,6 1,6 2,0 -12,11 -6,20 3,3 -3,3 -1.00000004,11 2.00000004,6 6.00000004,9 7.00000004,11 -3,1 -5,0 -7.00000004,4 -1,5 8.00000004,8 6.00000004,0 4.0000004,0 6.0000004,6 3,11 l -3,2 c -1,1 -4,1 -4,-1 l 2,-2 v -2 c -3,0 -5.00000004,3 -4.00000004,5 2.00000004,4 4.00000004,2 5.00000004,3 l -3,7 c -4,12 -2.00000004,34 3,47 l 1,7 c 0,2 -3,0 -3,-2 l 1,-3 h -2 v 5 l 4,3 c 1,5 -4,4 -2,8 3,4 1,54 1,54 1,2 2,1 3,1 l -1,-49 c 0,-5 1,-5 2,-7 2.0000004,-3 -3,-5 -1,-8 5.0000004,-4 3.0000004,-12 0,-18 l -2,-7 c 2,0 5.0000004,1 6.0000004,-1 3,-3 -2,-7 -5.0000004,-4 l -2,2 c -5.00000004,-5 -2,-13 1,-15 -1,8 8.0000004,8 7.0000004,1 0,-2 -2,-1 -2,0 v 2 l -2.0000004,1 c -5,-3 4.0000004,-12 5.0000004,-29 0,-6 0,-5 -2,-9 -2,-7 -14.0000004,-16 -10.0000004,-23 l 2,-1 3,5 c 2,1 3.0000004,2 3.0000004,5 -5.0000004,-2 -5.0000004,1 -4.0000004,3 2,4 11.0000004,1 5.0000004,-11 2,-4 3,-2 0,-9 7.000002,-10 -2.0000004,-14 -5.0000004,-10 -1,1 0,4 2,3 h 2.0000004 c 1,0 1,3 -3.0000004,5 -2,1 -3,2 -3,5 l -2,-4 c -1,-4 1,-8 4,-11 10.0000004,-11 9.0000004,-17 5.0000004,-33 l -4.0000004,-11 c 0,-3 3.0000004,-5 4.0000004,-4 1,1 -2.0000004,4 0,4 1,1 4,-3 2,-5 -2,-2 -5.0000004,-2 -6.0000004,0 -1,2 -1,5 -2,4 h -1 c -1,-3 -3,-8 2,-13 l 2,1 c 4.0000004,2 6.0000004,-2 5.0000004,-4 -2,-2 -5.0000004,-2 -7.0000004,0 -1,-5 1,-5.999997 4.0000004,-12.999997 4,-13 -1.0000004,-14 -2.0000004,-14 -1,-2 0,-4 1,-6 1.0000004,0 2.0000004,-1 1.0000004,-2 l -2.0000004,-2 V 0.21155284 c -5,-4.00000004 -1,50.00000016 -3,54.00000016 0,2 -3,2 -1,5 l 2,3 -3,3 c -4.00000004,4 -1,6 0,4 l 1,-1 1,-2 c 0,6 -3,8 -5.00000004,18 m 6.00000004,-11 1,-6 c 1,-1 1,1 2,1 1.0000004,4 -1,8 -3,11 l -2,7.999997 1,5 -2,3 h -1 v -7 c 0,-4.999997 2,-9.999997 4,-14.999997 m -4,32.999997 v 1 l 2,4 c 2,5 5,10 6.0000004,16 2,3 2,7 2,10 l -1,4 v -4 c 0,-4 -2.0000004,-6 -4.0000004,-9 l -3,-6 c -2,-5 -3,-10 -2,-16 m 2,110 4,-8 3.0000004,-6 h 1 v 4 l -3.0000004,9 -6,15 h -1 c -1,-5 0,-9 2,-14 m -2,28 c 1,0 3,2 2,4 l 5,15 c 1.0000004,2 1.0000004,5 -1,7 l -1,-1 -1,-6 -3,-10 -1,-9 m 5,34 v 2 l -1,-1 1,-1 m -1,-220.999997 v -1 c 2,0 2,3 1,3 l -1,-2 m 2,185.999997 h 2.0000004 v 2 H 7.5060146 l 1,-2 m -1,-151 h 4.0000004 l -1,1 z"
     id="path1901" />
</svg>
