<svg xmlns="http://www.w3.org/2000/svg" width="192.8" height="159.5" viewBox="0 0 51 42.2"><g stroke="#323200" stroke-width=".4" fill-rule="evenodd"><path d="M25.4.1c-.6.1-.6 1.2 0 1.4 1 .3.9-1.6 0-1.4M23.8 1.4c-.2.3 0 .6.4.6l-.1-.6h-.3M13.2 4.5c.2.1.2.5.3.7.3 0 .5 0 .7-.2.3-.7-.9-1.3-1-.5M18 4.8c0 .2.2.3.6.3.6-.9-.9-1.2-.7-.3" fill="#19110f" stroke-width=".184264"/><path d="M17 4.4c-.6.2-.6 1.3 0 1.4 1 0 1.2-1.7 0-1.4M10.6 6c0 .3.2.6.3.8 1 .1.4-1.6-.3-.8M14.1 7c0-.4 0-.6-.2-.8-1.2-.1-.3 1.6.2.8M16 7.2l.1-.4c-.1-.2-.5-.2-.6 0l.1.4h.5M12.2 8c.3 0 .5-.2.5-.5-.2-.7-1.2 0-.5.5M15 8.6c0 .3.4.4.4.7.3.1.6 0 .8 0 .2.8 1.9 1.3 2.9.8-.6-.2-1.3 0-1.8-.2s-.7-.7-1-.9C16.6 8 15 7.6 15 8.6" fill="#19110f" stroke-width=".184264"/><path d="M2.7 24c0-1 .4-2.2.6-3.5.3-1.7.6-3 1.4-3.9 1 0 1.7.2 2.4.5.1.7.3 1.3.7 1.8-1.5 2.8-2.7 5.8-4 8.6-.4-1.1-1.2-1.8-1.1-3.5zM47 17.5l-.8-.2-4.4-6.5.1-.7c0-.5-.5-.7-.5-1 0-.8 1.6-2 2.2-2.3l2.4 3.7c.7 1.3 1.5 2.6 1.8 4 .2 1 0 2.6-.8 3zm1.8 3.7c-.2-.5-.5-1.1-.5-1.6 0-1 1-2 1.4-2.8.2-.5.4-1.2.4-1.9 0-.8-.5-1.7-.8-2.4-1.1-2.3-2.5-4.2-3.5-6.4-.8-.6-1.4-2-2.8-1.8-.5.1-1.2.7-1.7 1-.7.5-1.2 1-1.8 1.2-.5-.2-.9-.5-1.4-.3-.8-1-1.3-2.1-2.5-2.7-1-2.2-5.1-2-7.8-1.3-1.9.5-3 .8-5.2 1-1.6 0-2.5 0-2.1 1.5.3 1 1 1.6 2.4 1.6-.8.3-1.5.1-2.5.2-1.4 0-3-.1-3.4.8-.7 1.7 1.3 2.7 3 2.7-.6.4-1.3.7-2 .9-1.2-.6-3-.4-4.3 0-2-.9-2.4.7-3 2l-1.3 2.3c-1 .3-1.4-.4-2.1-.6l-1-.3c-.8-.2-2-.4-2.6-.1-.8.4-1 1-1.3 2-.5 1.1-.8 2-1.1 3.4C1 21.1-.1 23.4 0 24.8c.3 1.7 2.1 2.7 2.2 4.3l-.2 1.4c-.5 1.2-1 2.6-1.1 4-.1 2.4 1.6 3.1 3.2 4 1.3.8 2.4 1.6 3.7 2.1l2.8.7c1.2.3 2.9 1 4.3.7.8-.2 1.3-1.6 1.7-2.5l1.2-3 1-3.2 1.3-3c1.7-4 3.2-8.1 4.6-12.3.6.1 1.3 0 1.8-.1 2.3 3.8 4.1 8 6.4 11.9.8 1.3 1.6 2.8 2.6 3.5a4 4 0 0 0 1.7.8c.9 0 1.4-.5 2.2-.8 3.2-1.4 5.7-3 8.3-4.9 1-.7 2.2-1.5 2.8-2.5.8-1.3 0-2-.7-3l-1-1.7" fill="#19110f" stroke-width=".184264"/><path d="M25.5.5c.2 0 .3.2.3.5l-.4.2c-.1-.2-.2-.7.1-.7M19.4 8.3l.4.2c.5-.4-.5-.9-.4-.2zm3.4-.3c-.3 0-.7 0-.9.3 1.2.2 3 .4 3.5-.6-.7.3-1.7.2-2.6.3zM25.7 9c.3-.3.5-1.1.5-1.7-.3.3-1 1.3-.5 1.7zm.2.6c.3-.2.4-.7.6-1l.3-1.4c-.4.7-.8 1.5-.9 2.4zm-1-3.2h.6c.1-.7-.8-.5-.5 0zm4.4-.6c.4.1.8-.1.8-.5-.3-.2-.8 0-.8.5zM23 4.7c.1.1.2.2.4.1 0-.1.1-.2 0-.4-.1 0-.5 0-.4.3zm2 0h.2c.2 0 .2-.2.2-.4a.2.2 0 0 0-.4.4zm1 0h.6c.2-.6-.7-.7-.6 0zM34.3 3c-.1.4-.4 1-.3 1.4.4-.3.2-1 .6-1.3.3.3-.3.6-.2 1.1.5 0 .4-.5.5-.8.3.1.6.4.7.7-1.2 1-2.7 1.9-4 2.8l.2-2a3 3 0 0 1 1.5-.5v.8c.4-.4.5-1.3.4-2-.2.3-.2.7-.3 1-2-.4-2.2 1.7-3.6 2.1-.3.6-.2 1.5-.6 2 0-.5.3-1 0-1.3-.3.3-.3 1-.4 1.5-.2.2-.6.2-.8.5 0-.5.4-1 .3-1.5-.4.2-.2 1.5-.9 1.7.2-.8.6-1.4.6-2.2-.6.6-.3 2.2-1.3 2.5.2-.8.6-1.4.7-2.3.1 0 .4 0 .4-.2 0-.4-.5-.7-.7-.3 0 .3.1.3.3.4-.3.8-.8 1.7-1 2.5-.4 0-1 .5-1.4.5-.3 0-.4-.3-.6-.4-1.2-.5-2.4.4-3.2.8l-1.8 1c-.3 0-.4-.3-.6-.3a7.5 7.5 0 0 0 3.4-2.4c-.4-.3-.7.3-1 .5C20 9.2 17.9 9 17.7 8c0-.5.4-1 .8-1.1 1.1-.3 2.5.2 3.9.1 1-.1 2.4-1 2.8-1.9-.4 0-1 .3-1.3.5-1.6.4-4-1.2-2.6-2.3 4.3 1.2 8.8-2.2 13-.4M13.5 4.4c.3 0 .4.2.4.5h-.1c-.2 0-.4-.3-.3-.5M17 4.7c.2 0 .4 0 .4.2.3 1-1.3.1-.4-.2M47.8 19.4l-.5-.8c.6-.9 1.8-1.6 1.7-3.2-.1-2-1.2-3.4-2.2-5-.4-1-.8-1.6-1.3-2.4-.4-.6-1-1.8-1.5-2-.5-.4-1.3-.5-1.7 0l1 .1c-.9.5-1.6 1.2-2 2.2-.5-.3-.8-.9-1.2-1.3 1-.5 2-1 2.8-1.8.3 0 .6-.2 1-.1 1.4 1 2.3 2.9 3.3 4.8.4.8 1 1.7 1.4 2.7.4.9 1 2 1 3-.2 1.7-1.6 2.2-1.8 3.8M11 6.1h.1c.1.2 0 .5-.2.5V6" fill="#fff" stroke-width=".184264"/><path d="M30.8 6.1c0 .4 0 1.3-.4 1.4.1-.4 0-1.1.4-1.4M29.8 8l.1-1.3c.2 0 .3-.2.4 0-.2.4-.1 1-.5 1.2M39.1 7.4h.1c1.2.4 1.7 1.6 2.3 2.7-.2 0-.4-.3-.6-.5C40.3 9 39.8 8 39 7.4M12.3 7.5c.2 0 0 .2 0 .2-.2 0 0-.1 0-.2M36.7 8v.4c-.3 0-.3-.4 0-.3M15.7 8.6s.1.3 0 .4c-.3 0-.2-.3 0-.4M38.7 9.4c-.2.1-.4.4-.5.2l.5-.2M38 9.6h.1c0 .2-.3.4-.5.5-1.3.7-3 1-4.8 1.1-1 .2-2 .4-3 .4 2.8-.6 6-.9 8.2-2M32.6 11.9l-.3.6c-.6-.1-.1-1.2.3-.6M28.5 11.8c-.2 0-.5.4-.7.1l.7-.1M23.8 11.8l.4.5c-.6.4-1.5.3-2.3.1.5-.3 1.2-.4 1.9-.6M27.1 12c-.6.7-1.5.9-2.7.8.8-.4 1.7-.6 2.7-.7M30 12.4c.3 0 .4.3.4.7-.4 0-.6-.4-.4-.7M8 16.6c.2 0 .4 0 .4-.2-.2-.1-.4 0-.4.2zm1.3-.7L8 18.3c-.3-.4-.1-1-.1-1.5-.1-.1-.2.2-.3 0-.6-.9-3-1.8-3.9-.6-.5.8-1 2.4-1.3 3.5 0 .4 0 1-.4 1.1.2-1.6.8-3.7 1.7-4.8.8-1.2 2.5-.2 3.8 0 0-.3-.7-.4-1.1-.5-.6-.2-1.3-.5-2.1-.4-.8.2-1 1.1-1.5 1.8 0-.7.5-1.3.8-1.9a2 2 0 0 1 1.5-.4c.6.1 1 .6 1.7.8.7.3 1.5.4 2.4.5M21.7 15.4c-.2.3-.6.3-.8.5l-.4-.1c.4-.2.7-.6 1.2-.4M38.6 15.3c.2 0 .3.1.3.3h-.3v-.3M22.2 15.7a2 2 0 0 0-.7.5l-.4-.2c.3-.1.9-.7 1.1-.3M22.7 15.8c-.3.2-.5.6-1 .5.3-.2.7-.5 1-.5M23.8 15.8c-.3.3-.8.4-1 .8h-.5c.4-.4.8-.7 1.5-.8M36.2 32.3c-1.2-.7-2-2-2.6-3.2-1.5-2.5-2.8-5-4.2-7.7l-1-2c-.3-.6-.8-1.2-.9-2h.2c2.7 5 5.4 10.4 8.5 15M9 33.3c1 .9 2.5 1.7 4.4 1.6.4 0 1 0 1.2-.5-3.4.5-5.7-1-7-2.9.1.7.7 1.3 1.4 1.8zm7.2-3.5c-.3.2.1.7.4.4 0-.3-.2-.4-.4-.4zm-2.1-1v-.5c-.4-.1-.4.5 0 .4zm-.5-4.7c.7 0 1.2-.4 1-1-.6-.6-1.5.4-1 1zm3.6-1c-.3-.9-1.7.2-1 .9.7 0 1.1-.5 1-1zm-7.6-.8c.2.2.2.3.4.3.7-.4-.3-1.1-.4-.3zm1.2-.1c.2.1.4 0 .4-.2-.1-.2-.5-.1-.4.2zm2-.5c.7 0 .6-1.2 0-1-.7.2-.5 1 0 1zm3-1.5c-1.2.2-2.3-.8-3 0 1 0 2 .4 3.1.4-.2.4-.1 1.1.5 1v.2c.7 0 1-1.7.2-1.8 0 .4.3 1.2-.2 1.5-.5-.3-.1-1 0-1.4-.2 0-.3.2-.4.3 0-.2-.2 0-.2-.2zm1.9-.3c0 .7 1.3.5 1-.4-.5-.4-1 0-1 .4zm1.8 8.2c-1.1 3.1-2.3 6.5-3.7 9.3 1.1-1.1 1.5-2.7 2-4.3 1.8-4.6 3.8-9.1 5.3-13.8 0 0 .5 0 .3-.2-1.3 0-2.2.5-3.2 1-.7.3-1.4.4-2 .8 2 0 2.9-1.3 4.8-1.6l-3.5 8.8zm-12-5.4c-.6 1-1.2 2.3-1.7 3.6-.3.8-.3 1.5-.9 2 .1.1.3-.3.4-.1 0 .8-.6 1.4-1.1 1.5 0-.5.5-.6.7-1-.1-.1-.2.2-.4.2C6 25.5 7.5 22.4 9 19c.8-.3 1.8.3 2.5-.1-.5-.3-1.5-.4-2.3-.3l.2-.5c.8.5 2.1 0 3.3 0l1.7.2c2.8.2 5.6-.1 7.9-.4-2.7 1.1-7 .5-10.1.8 2 0 4.5.4 6.8.3 1.2 0 2.5-.4 3.6-.8.5-.1.8-.4 1.5-.3l-.2.5-1.9 4.7c-.6 1.8-1 3.8-1.9 5.6a64 64 0 0 0-2 5c-.5 1.4-.8 3.3-1.6 4.4l-.8.8c-.3.2-.5.6-1 .5-.2 0 0 0 0-.2-1.7.6-3.2-.6-4.6-1 6.2-1 7.7-6.6 9.7-11.8-.9 1.3-1.3 3-2 4.6-1.6 3.1-3.5 5.7-7.2 6.8-.9-.5-1.6-1-2.3-1.7V36H8c-.8-.9-2-2.2-2.4-3.7-.2-.7-.5-1.7-.1-2.2 0-.1-.2 0-.2-.2.3-2.8 1.4-4.8 2.3-7" fill="#fff" stroke-width=".184264"/><path d="M18.1 19.6c.1.1.3.2.2.3H18l.1-.3M2.2 21c.1.1 0 .5-.3.6 0-.4.2-.5.3-.7M13 21v.3h-.3c0-.2.1-.4.3-.2M1.6 21.6c0 .3-.2.4-.3.6-.1-.2 0-.6.3-.6M2 21.9c0 .1 0 .5-.2.6 0-.2 0-.5.2-.6M1 23.3c-.2-.4.2-.8.4-1 .3.5-.3.7-.5 1M16.8 23c0 .5-.3.6-.5.6 0-.3.2-.7.5-.5M1.4 23.2c.2.5-.4.6-.6 1-.2-.6.4-.7.6-1M14.3 23.2c0 .3-.2.5-.5.6-.1-.3.1-.7.5-.6M1.5 24l.1.2c-.1.4-.5.5-.7.8l-.1-.3.7-.7M1.7 24.9c0 .4-.3.4-.5.7-.1 0 0-.2-.2-.2l.7-.5M49.9 25.6c-1 1.5-2.5 2.3-4 3.2l.1-.5c1.3-1 2.6-1.8 3.7-2.9l.2.2M1.7 26.2c-.2 0-.2-.2-.3-.3.4-.7.8 0 .3.3M2.1 26.2c.3.8 1.2 1.7.9 2.6-.2-1-.7-1.6-1.1-2.2l.2-.4M45.6 28.5v.6c-.3 0-.5.3-.7.4 0-.6.3-.7.7-1M44.6 29.7l-.4.2c-.1-.5.6-1 .4-.2M43.9 29.7v.4c-.2.2-.6.3-.8.6-.2-.2 0-.4 0-.6l.8-.4M3.7 31.2c0-.7.7-1 1.2-1.5.3.8-.9 1-1.2 1.5M42.7 30.3c.2.1 0 .3 0 .6l-.4.3c-.2-.1 0-.3 0-.6l.4-.3M42 30.3c0 .2-.3.3-.5.4 0-.2.3-.3.5-.4M41.2 30.7c0 .3-.3.5-.6.6 0-.4.4-.4.6-.6M41.9 30.8c.1.4-.2.8-.5.9V31l.5-.3M40.2 31.2c.1.3-.2.6-.5.7-.1-.5.3-.5.5-.7M41 31.9l-.5.2c-.3-.5.8-1.1.5-.2M39 32.3c-.1 0 0-.3 0-.4.5-.4.4.3 0 .4M39.6 32.4v-.3l.4-.2c.3.2-.1.5-.4.5M2.9 33.7c0-.5.5-.7.9-1L5 32c.2 0 0 .2.2.2l-2.3 1.6M38.5 32c.2.3 0 .7 0 1v-1M39.3 32.6l-.3.2v-.4c.1-.1.4-.2.3.2M38.1 32.3v.5h-.3v-.4h.3M5.2 32.5c.1 0 0 .3.2.4-1 .5-1.7 1-2.5 1.6V34l2.3-1.4M37.3 32.6c.2 0 0 .2.1.3l-.5-.1c0-.2.3-.1.4-.2M5.4 33l.8 1.6c-.7.3-1.4.7-2 1.2l-.4-.2c.6-.6 1.7-.6 2.1-1.4-.5 0-1 .3-1.4.5-.4.2-.8.7-1.2.6.3-.4.8-.6 1.2-.8.4-.3 1-.5 1.1-1-1 .2-1.7 1.2-2.5 1.5l-.1-.3c.7-.6 1.7-1 2.4-1.6M2.5 33.6v1.1c-.3-.1-.4-.3-.4-.8l.4-.3M6.5 35c-.4.3-1.1.5-1.4 1-.2 0-.3-.1-.4 0 .4-.5 1.2-.7 1.6-1.2l.2.1M6.8 35.4c-.3.3-.8.5-1.1.9l-.5-.2.8-.5c.3-.1.6-.5.8-.2M2.6 35.4c.2.1 0 .4 0 .7v-.7M7.2 36c-.4 0-.7.7-1.3.4.4-.2 1-1 1.3-.5M3.1 35.9l.4.1c-.1.3-.3.5-.3.9-.3 0 0-.7 0-1M7.4 36l.2.3-.5.5c-.2 0-.2-.2-.4-.1.1-.3.5-.4.7-.6M8 36.8c-.2 0-.4.3-.6.1 0-.2.6-.6.7-.1M10.3 38c0 .1-.3 0-.4.2-.8-.3-1.6-.6-2.2-1l.5-.4c.6.5 1.2 1 2 1.1M29.4 9.5c0 .4.3.7.6.4 0-.3-.3-.6-.6-.4zm3.3.3c.4 0 .7-.2.8-.5-.3.1-.7.2-.8.5zm2.1-.8c-.9-.4-.1 1 0 0zm-1.2-.3l.1-.5c-.5-.5-.8.6 0 .5zm3-1c-.8 0 0 1.8.5.8 0-.5-.2-.8-.5-.8zm-1.3.4c0-.3-.2-.5-.5-.4-.8.4.4 1.2.5.4zm.5-3.2c-.7 1.6-3 2.3-4.3 3.5.8-.1 1.6-.7 2.3-1.2 1-.7 2-1.2 2.5-2.2.9 1.3 2 2.5 2.7 3.8-.3-.1-.5-.5-.7-.8-.6-.8-1.1-1.7-1.9-2.4.6 1.2 1.4 2.1 2 3.3-.8.1-1.5.7-2.3 1-.8.4-1.8.5-2.7.7-1.8.5-3.9.5-5.6 1-.8-.6-2 0-2.8.3l-.1-.5c1.2-.4 2.3-.6 3.2-1.3l.7-.6 2-1c1.7-1.1 3.5-2.2 5-3.6M31.5 5.3c0 .5-.1 1.5-.5 1.9 0-.7 0-1.6.5-1.9M25 10.5c.2-.2.5-.3.8-.3.7-.2 1.6-.5 2.2-.9.1.2-.3.3-.6.4-.6.3-1.5.7-2.4.8M48 22.4c0 1.8-.2 3.8-1.5 4.4.3-1 .8-2.6.3-3.7-.2.2 0 .6-.1.9 0 1.2-.6 2.4-1 3.3l-.4.3c1-2.4.4-6-.5-8.3-.9-2.4-2.3-4.6-3.8-6.5-.8-1-1.8-1.7-2.3-2.8.2 0 .2-.1.3-.2a86 86 0 0 1 8.1 12.3c0-.6-.3-1.2-.6-1.8-1.7-3.6-4.4-6.8-6.6-10l-.4-.7c.4 0 .6.4.8.7 2.4 3 4.6 6.4 7 9.7l1 2c.4.5 1 1.5 1 2 0 1-.7 1.5-1.3 1.8.3-.8.6-2.5 0-3.4" fill="#fff" stroke-width=".184264"/><path d="M33.6 21.3l-1.7-1c.3.6 1 1.1 1.7 1zm4.1-2.4c.5 0 .4-1.1-.2-.9-.4.2-.2 1 .2 1zm-4.2-1c.6 0 .5-.8 0-.7-.2 0 0 .4 0 .6zm-2.4-.5c0-.3-.3-.5-.6-.4-1 .3.5 1.5.6.4zm.6-.7l.2-.1c0-.8-.8 0-.2 0zm1.5-.3c.1 0 .1-.3 0-.2-.1 0-.1.3 0 .2zm1.7-.8c0-.3-.2-.3-.4-.3-.5.3.3.9.4.3zm4.3 0c.2-1-1.7-.5-.8.4.4.1.8 0 .8-.3zm-6.6-.7h.4c0-.4-.5-.4-.4 0zm2.2-.2c.5 0 .4-.6.1-.8-.7-.1-.5.7-.1.8zm-3.6-1.2c.3.1.7.6.2.8l-.3-.3v-.5c-.7.2-.3 1.2.3 1.1 1 0 .6-1.8-.2-1zm-1.8 6c1.2 2.7 2.7 5 4.6 7 .4.6.7 1.1 1.2 1.5 1 .8 2.2 1.5 3.4 2-1 0-1.9-.3-2.7-.6 1 .7 2.8 1.3 4.6 1-1.3.8-2.6 1.3-4 1.8-3.1-4.7-5.8-9.8-8.6-14.8 1.2-.9 3-2 2-4h.9c.4-1.3-1.5-1.7-1.1-.3a4 4 0 0 0-2-.4l.2-.5c1.1-.4 2.6-.4 3.8-.5v.7c.1 1.1 1.7.2 1.2-.8 2.2-.2 4-.6 5.6-1.4l3.8 6c1.2 2.1 2.6 4 2.7 7.1v1.4c0 .7-.6 1.4-.9 2-.6 1-1 2-2.2 2.5-2.1.7-4-.1-5.5-1.1-1-.7-2-1.5-2.7-2.5-1.6-2-3-4-4.2-6" fill="#fff" stroke-width=".184264"/><path d="M26.6 15.2h.2c.2 0 .3-.2.4-.5-.3 0-.6.1-.6.5zm1.7-.1h.1c.3 0 .5-.1.4-.4-.2-.3-.7 0-.5.4zm-2.5-.5l-1.6-.4c.3.4 1.1.8 1.6.4zm.8-.1c.4 0 1.3 0 1.4-.4-.4-.2-1.2 0-1.4.4zm-6.2-.5c-.2-.5-.7.2-.2.3.1 0 .2-.1.2-.3zm.5-.2c0 .1.4.1.4 0 0-.2-.4-.2-.4 0zm-6.8-1.9c.8 0 1.7.7 2.3.3-.8 0-1.7-1-2.3-.3zm-.3 0v-.4c-.4 0-.4.2-.6.3 0-.1.1-.3 0-.4H13v.4c.3 0 .5.4.8 0zm8.4-1h.5c.1-.5-.6-.3-.5 0zm2.4 4.3l-1.5.3c0-.2.4-.7 0-.9-.4 0-.5.6-.2.8-.8 0-1.5-.5-2.4-.6-.1.2.3.3.4.4-.4.3-.8.6-1.3.2.2-.3.7-.3.9-.6-.7-.4-1 .7-1.8.3.2-.3.7-.2 1-.5-.6-.3-1 .3-1.5.3 0-.3.6-.2.7-.5-.6-.3-.8.5-1.3.2.2-.2.7-.3.8-.7-.5 0-.7.4-1 .6-1.8-1-3.8-1.7-5.2-3 0-.2.2-.2.3-.4 2 .3 4.9-.6 6.2.7-.6.3-1.4.4-2 .6.8.8 2.4-.4 3.2 0V12c1-.8 2.7-2.3 4.4-1.5 0 .3-.5.2-.6.5-1 .2-1.9.7-2.8 1-.8.5-1.8.6-2.8 1 0 .1.2 0 .4 0 0 .2-.6.1-1 .1.7 1 2.7.2 3.4-.3 1.6.7 4 .4 5.8.2 1 0 2.7 0 2.9.8.1.5-.2 1-.3 1.4-.8.4-1.2 1.2-2.4 1.3.3-.3.9-.5.9-1.2-.2 0-.3 0-.4.2-.3-.2-.7.2-1 .3-.1 0 0-.2-.2-.2s0 .3-.1.4c-.8.2-1.2 1-2.3.8.7-.6 1.8-.8 2.5-1.5-.9.2-1.5.6-2.1 1-.4.2-.6.5-1.2.4.6-.7 1.6-1 2.4-1.6-.2-.2-.6 0-.8.2-.2 0 .1 0 0-.2M10.3 17.5c.3.3 1.2.1 1.4-.1-.4 0-1.2-.2-1.4.1zm1.8-.2v.2c.2.1.5 0 .5-.2h-.5zm5.1 0c.2.3.9.1.9-.2-.3-.1-.8 0-.9.2zm-5.7-.6c1 .7 3.7 1.4 5 .4-1.9.4-3.7 0-5-.6v.2zm3.9-.7h.3c.1-.3-.4-.3-.3 0zm-.7 0c.4 0 .4-.9 0-.7-.3.2-.3.6 0 .6zm-1.5-.9c0 .2.5.3.5 0 0-.2-.1-.3-.3-.3 0 .2-.2.2-.2.3zm.1-1.8c2.1 2 5.2 3 8.3 4-2.7.6-6 .8-9 .5-1 0-2 .2-3 0l2.3-5.4c.3 0 .5.4.9.5 0-.3-.8-.6-.8-.9.2 0 .2.2.3.2 1.5 1.5 4 2.5 5.8 3.5-1.9-.5-3.1-1.7-4.8-2.4M18.3 15.8l.7.2-.7-.2" fill="#fff" stroke-width=".184264"/><path d="M27.3 15.7c-.4.6-1.2 1.2-2.2 1.2.1-.1.3-.2.5 0 0-.3.3-.6.6-.5.2-.4.8-.4 1-.7M1.7 20.7l-.1.5c-.1-.1 0-.4.1-.5M44.9 26.2c.1.4-.2.9-.5 1l.5-1M45.7 28l-.6.4c.2-.2.5-.2.6-.4M44.7 28.7l-.2.2.2-.2M3.8 29.7l-.1.5c-.1-.1.1-.3.1-.5M4.9 30.6v.4l-1.6 1.1c0-.7 1-1 1.6-1.5" fill="#fff" stroke-width=".184264"/><path d="M3.4 30.9c0 .2-.1.7-.4.8.4.2 0 .6-.2.9.4 0 .8-.4 1.1-.7l1.1-.6c0 .5-.6.7-1 1-.6.4-1.3.7-1.8 1.2.1-1 .7-1.7 1-2.5l.2-.1M3.7 37.2l.2-.9c1.9.6 3.3 2 5.2 2.7l2.5.8c.8.3 1.5.8 2.4.8-1 .2-1.9-.2-2.7-.4-2.6-.7-5-2-7-3.3.8 1.1 2.4 2 4 2.6 1.6.7 3.3 1.4 5 1.7.5 0 1 0 1.5-.3-.9 1-2.7 0-4-.4-1.5-.4-3.2-.6-4.4-1.3-.4-.3-.8-.8-1.3-1l-1.4-1" fill="#fff" stroke-width=".184264"/></g></svg>