<?xml version="1.0" encoding="UTF-8" standalone="no"?>
<svg
   xmlns:dc="http://purl.org/dc/elements/1.1/"
   xmlns:cc="http://creativecommons.org/ns#"
   xmlns:rdf="http://www.w3.org/1999/02/22-rdf-syntax-ns#"
   xmlns:svg="http://www.w3.org/2000/svg"
   xmlns="http://www.w3.org/2000/svg"
   xmlns:sodipodi="http://sodipodi.sourceforge.net/DTD/sodipodi-0.dtd"
   xmlns:inkscape="http://www.inkscape.org/namespaces/inkscape"
   width="161.73825"
   height="145.36067"
   viewBox="0 0 42.836614 38.477827"
   version="1.1"
   id="svg15582"
   sodipodi:docname="wino1a.svg"
   inkscape:version="0.92.3 (2405546, 2018-03-11)">
  <metadata
     id="metadata15588">
    <rdf:RDF>
      <cc:Work
         rdf:about="">
        <dc:format>image/svg+xml</dc:format>
        <dc:type
           rdf:resource="http://purl.org/dc/dcmitype/StillImage" />
        <dc:title></dc:title>
      </cc:Work>
    </rdf:RDF>
  </metadata>
  <defs
     id="defs15586" />
  <sodipodi:namedview
     pagecolor="#ffffff"
     bordercolor="#666666"
     borderopacity="1"
     objecttolerance="10"
     gridtolerance="10"
     guidetolerance="10"
     inkscape:pageopacity="0"
     inkscape:pageshadow="2"
     inkscape:window-width="1920"
     inkscape:window-height="1017"
     id="namedview15584"
     showgrid="false"
     fit-margin-bottom="-34"
     fit-margin-top="0"
     fit-margin-left="0"
     fit-margin-right="0"
     inkscape:zoom="1.5089515"
     inkscape:cx="81.179979"
     inkscape:cy="66.970878"
     inkscape:window-x="-8"
     inkscape:window-y="-8"
     inkscape:window-maximized="1"
     inkscape:current-layer="svg15582" />
  <g
     id="g16179">
    <path
       d="m 4.6006373,16.650278 c 0.8,1 1.7,2 2.1,3.2 1,3.4 0.5,7.4 1,11.8 -1.6,0 -3,0.1 -4.2,0.6 -0.5,0.2 -1.4,0.7 -1.4,1.4 -0.1,1.2 1.3,1.8 2.5,2.1 2.4,0.8 5.7999997,0.9 8.2999997,0.1 1,-0.2 2.6,-1 2.4,-2.2 -0.2,-0.9 -1.6,-1.3 -2.5,-1.5 l -3.3999997,-0.5 -0.1,-5.4 c 0,-1.9 -0.1,-3.8 0.2,-5.3 0.5999997,-2.2 1.9999997,-4 3.5999997,-5.6 0.7,-0.8 1.2,-1.7 1.8,-2.7 0.5,-1.1 1,-2.1 1.2,-3.3999996 0,-1.4 0,-2.6 -0.5,-3.7 0,-0.3 -0.4,-0.7 -0.7,-1.2 l -0.6,-1.4 c -0.5,-0.6 -1.2,-1.7 -1.9,-2.1 a 12,12 0 0 0 -5.2999997,-0.8 14,14 0 0 0 -3.8,0.7 12.2,12.2 0 0 0 -3.20000003,6.5 c -0.4,2.8999996 0.90000003,4.7999996 2.00000003,6.4999996 l 2.4,3 z"
       class="fil0"
       id="path15534"
       inkscape:connector-curvature="0"
       style="clip-rule:evenodd;fill:#382d2d;fill-rule:evenodd;stroke:#323200;stroke-width:0.05334;image-rendering:optimizeQuality;shape-rendering:geometricPrecision;text-rendering:geometricPrecision" />
    <path
       d="m 11.000637,1.2502784 -5.9999997,-0.1 c 1.5,-0.4 4.5,-0.3 5.9999997,0.1 z m 0.1,0.6 c -1.2999997,0.4 -3.2999997,0.3 -4.9999997,0.3 0.4,0.3 1,0.2 1.5,0.2 1.6,0 3.3999997,0 4.2999997,-0.6 1.3,0.5 2,1.8 2.7,3.2 1.1,2 1,5.7999996 -0.4,7.3999996 0.2,-0.8 0.7,-1.7 0.9,-2.7999996 0.1,-0.2 -0.2,0 -0.2,-0.2 0.1,-2.7 -0.3,-4.8 -1.6,-6.1 0.3,0.8 0.8,1.4 1,2.3 -1.4,-0.4 -3.6,-0.5 -5.6999997,-0.6 -2.5,0.1 -5.5,0.1 -7,0.7 -0.1,0 -0.3,0.1 -0.4,0 0.4,-1.6 1.4,-3 2.3,-4.1 2.3,0.3 5,0.6 7.6999997,0.4 z"
       class="fil1"
       id="path15536"
       inkscape:connector-curvature="0"
       style="clip-rule:evenodd;fill:#fefefe;fill-rule:evenodd;stroke:#323200;stroke-width:0.05334;image-rendering:optimizeQuality;shape-rendering:geometricPrecision;text-rendering:geometricPrecision" />
    <path
       d="m 14.300637,5.8502784 c -0.6,0.6 -1.7,0.9 -2.7,1 -2.1999997,0.4 -4.7999997,0.2 -6.9999997,0 -1.1,-0.1 -2.3,0 -3,-0.7 0.8,-0.8 2.4,-0.7 3.7,-0.8 1.1,-0.2 2.5,0 3.7,0 1.9999997,0.1 3.7999997,0 5.2999997,0.5 z"
       class="fil1"
       id="path15538"
       inkscape:connector-curvature="0"
       style="clip-rule:evenodd;fill:#fefefe;fill-rule:evenodd;stroke:#323200;stroke-width:0.05334;image-rendering:optimizeQuality;shape-rendering:geometricPrecision;text-rendering:geometricPrecision" />
    <path
       d="m 3.1006373,7.4502784 h -0.2 l 0.1,0.1 c 1,0.7 3.2,0.8 5.2,0.8 1.3,0 2.5999997,0 3.4999997,-0.3 0.3,-0.1 0.7,-0.2 0.8,-0.4 -2.5999997,0.6 -6.9999997,0.5 -9.4999997,-0.2 z m 11.3999997,-1.1 c 0.1,1.4 0.4,2.7 0,3.7999996 -0.2,0.7 -1.1,1.7 -1.8,2.2 -2,1.4 -5.9999997,2.1 -7.9999997,0.1 l -0.1,-0.2 c -0.6,-0.2 -1.1,-1.5 -1.6,-2.1 l 0.2,0.5 c -0.4,0.1 -0.6,0.4 -1,0.6 -0.3,-0.6 0.5,-0.8 0.7,-1.2 -0.3,0 -0.5,0.6 -1,0.7 -0.4,-0.7 0.8,-0.9999996 1,-1.4999996 -0.5,0 -0.8,0.6 -1.2,0.7999996 -0.5,-0.6999996 0.4,-0.9999996 0.6,-1.3999996 -0.3,0 -0.6,0.6 -0.9,0.6 -0.2,-0.7 0,-1.7 0,-2.5 1.9,0.6 4.8,1 7.5,0.9 2.0999997,-0.1 4.2999997,-0.4 5.4999997,-1.3 z"
       class="fil1"
       id="path15540"
       inkscape:connector-curvature="0"
       style="clip-rule:evenodd;fill:#fefefe;fill-rule:evenodd;stroke:#323200;stroke-width:0.05334;image-rendering:optimizeQuality;shape-rendering:geometricPrecision;text-rendering:geometricPrecision" />
    <path
       d="m 1.1006373,6.4502784 c 0,0 0,0.2 0.2,0.2 -0.3,0.9 -0.2,2.2 -0.1,3 0.2,0.2 0.5,0.8999996 0,0.9999996 -0.40000003,-1.0999996 -0.30000003,-2.9999996 -0.1,-4.1999996 z"
       class="fil1"
       id="path15542"
       inkscape:connector-curvature="0"
       style="clip-rule:evenodd;fill:#fefefe;fill-rule:evenodd;stroke:#323200;stroke-width:0.05334;image-rendering:optimizeQuality;shape-rendering:geometricPrecision;text-rendering:geometricPrecision" />
    <path
       d="m 1.5006373,11.250278 -0.2,-0.4 c 0.2,-0.5 0.6,0.2 0.2,0.4 z m 1.7,-0.5 0.3,0.6 c -0.3,0.2 -0.5,0.5 -0.9,0.6 l -0.2,-0.4 z m -1.2,0.6 c 0,0.2 -0.2,0.3 -0.3,0.3 -0.3,-0.2 0.2,-0.7 0.3,-0.3 z m 1.6,0.2 c 0.2,0 0.1,0.3 0.3,0.3 l -0.9,0.7 -0.2,-0.3 c 0.2,-0.4 0.6,-0.4 0.8,-0.7 z m -1.5,0.2 c 0.2,0.2 0.4,0.6 0,0.7 l -0.2,-0.5 z m 1.9,0.3 c 0.2,0 0.2,0.3 0.4,0.4 l -0.9,0.8 -0.3,-0.4 c 0.2,-0.3 0.6,-0.4 0.8,-0.8 z m -1.4,0.4 0.1,0.3 c 0,0.1 0,0.2 -0.2,0.2 -0.1,-0.2 -0.3,-0.4 0,-0.5 z m 10.9999997,0.1 c 0,0.8 -1,1.8 -1.8,2.4 z m -9.0999997,0.1 c 0.2,0 0.2,0.2 0.4,0.3 l -1,0.8 a 0.6,0.6 0 0 1 -0.2,-0.3 c 0.2,-0.4 0.6,-0.5 0.8,-0.8 z m -1.7,0.4 c 0.2,0.1 0.3,0.3 0.3,0.5 v 0.1 c -0.3,0 -0.5,-0.3 -0.3,-0.5 z m 2.2,0 c 0.3,0.1 0.3,0.3 0.5,0.4 l -1,0.9 c -0.8,-0.4 0.2,-0.8 0.5,-1.2 z m 6.0999997,0.5 c -0.5,0.8 -1.2999997,1.6 -1.9999997,2.4 h -0.6 c 0.5,-0.6 1.3,-1 1.6999997,-1.7 -0.3999997,0.1 -0.7999997,0.4 -1.1999997,0.8 -0.4,0.4 -0.8,1 -1.6,0.7 0.8,-0.6 1.7,-1 2.3,-1.8 0.5999997,0 0.9999997,-0.2 1.4999997,-0.4 z m -4.5999997,0.3 -1.3,1 a 0.7,0.7 0 0 1 -0.5,-0.3 c 0.6,-0.3 1,-1.3 1.8,-0.7 z m -3.2,-0.1 c 0.2,0 0.4,0.4 0,0.4 0,-0.1 -0.3,-0.3 0,-0.4 z m 4.3,0.3 c -0.3,0 -0.6,0.4 -1,0.3 -0.1,0.3 -0.5,0.6 -0.9,0.9 -0.1,0 -0.1,-0.2 -0.3,-0.1 0.7,-0.4 1.1,-1.4 2.2,-1.1 z m 1.7,0 -1.3,0.8 c -0.4,0.3 -0.7,0.9 -1.3,0.8 0.5,-0.6 1.4,-0.9 1.8,-1.5 -1,0.1 -1.5,1 -2.4,1.3 0.6,-0.5 1.3,-0.8 1.7,-1.4 z m -5.2,0.6 v 0.4 c -0.2,-0.2 -0.4,-0.3 -0.4,-0.5 0.2,-0.4 0.4,0 0.6,0.2 z m 0.2,0.2 0.4,0.3 c 0,0.2 -0.1,0.3 -0.2,0.3 -0.3,0 -0.2,-0.3 -0.4,-0.3 z m 1,0.7 c 0,0.2 -0.2,0.3 -0.4,0.4 -0.1,0 -0.1,-0.2 -0.3,-0.2 0.2,-0.3 0.5,-0.4 0.7,-0.2 z m 0.4,0.3 c 0,0.2 -0.3,0.4 -0.5,0.3 0,-0.2 0.3,-0.3 0.5,-0.3 z m 2.7,0.7 c -0.1,0.4 -0.7,0.4 -1.2,0.4 0.3,-0.3 0.6,-0.6 1.2,-0.4 z m 1,0 -0.8,0.2 c 0,-0.2 0.5,-0.2 0.8,-0.2 z m 1.1999997,0.7 c -0.5,1 -1.5999997,1.9 -3.1999997,1.4 -0.3,-0.4 -0.6,-0.8 -0.7,-1.2 a 7,7 0 0 0 3.8999997,-0.2 z m -4.4999997,0.1 h 0.4 c 0,0.4 0.2,0.6 0.3,0.9 l -0.8,-1 z m 0.9,1.5 c 0,-0.1 0,0 0.1,0 1.8,3.2 1.4,9.4 1.3,14.2 l -0.3,-7.4 c -0.2,-2.6 -0.2,-5 -1.1,-6.8 z"
       class="fil1"
       id="path15544"
       inkscape:connector-curvature="0"
       style="clip-rule:evenodd;fill:#fefefe;fill-rule:evenodd;stroke:#323200;stroke-width:0.05334;image-rendering:optimizeQuality;shape-rendering:geometricPrecision;text-rendering:geometricPrecision" />
    <path
       d="m 7.5006373,19.050278 c 0.6,0 1.8,0.2 2.1,-0.3 h 0.1 c -0.9,2 -0.8,4.8 -1,7.3 v 0.1 c 0,-2.7 -0.2,-5.3 -1.2,-7 z m 1.3,12 c 0.2,0.2 0,0.8 0,1.3 0,0.3 0.3,0.8 0,0.8 z m 1,1 c 0,0 -0.3,0.2 -0.4,0.1 0,-0.2 0.3,0 0.4,0 z m 0.6999997,0 c -0.3,0.4 -0.6999997,0.5 -0.9999997,0.7 0.1,-0.4 0.5999997,-0.4 0.9999997,-0.6 z m 0.6,0.2 c -0.4,0.4 -1,0.5 -1.3999997,1 l -0.1,-0.1 c 0.4999997,-0.4 0.9999997,-0.7 1.5999997,-0.9 z m 0.7,0.2 c -0.4,0.4 -1.2,0.5 -1.5,1 l -0.3999997,-0.1 c 0.5999997,-0.3 1.1999997,-0.8 1.9999997,-0.9 z m 0.6,0.2 -0.5,0.2 c 0.1,-0.1 0.3,-0.4 0.5,-0.2 z m 0.3,0 1,0.4 c -0.1,0.2 -0.3,0.3 -0.5,0.2 v -0.2 -0.1 h -0.6 z m -1.1,0.4 c -0.3,0.2 -0.6,0.5 -1,0.6 0.2,-0.3 0.6,-0.5 1,-0.6 z m 0.8,0.2 -1,0.7 -0.4,-0.2 c 0.5,-0.2 0.9,-0.6 1.4,-0.5 z m 1.9,0.2 c 0,0.2 -0.3,0.3 -0.5,0.3 l -0.1,-0.2 c 0.1,-0.2 0.4,-0.4 0.6,-0.1 z m -0.2,-21.9 c 0,0.4 -0.5,0.6 -0.7,0.9 -0.8,0.8 -1.5,2 -2.2,3 l -0.8,0.2 c 0.3,-0.6 1,-1 1.4,-1.5 z m -2,1.5 z m -6.4999997,3.4 c 0.2,-0.3 0.5,-0.5 0.8,-0.3 0,0.2 -0.3,0.2 -0.4,0.4 0.2,0.2 0.5,-0.2 0.7,-0.3 l 0.6,0.1 c -0.1,0.3 -0.4,0.4 -0.5,0.6 a 4,4 0 0 1 -1.2,-0.5 z"
       class="fil1"
       id="path15546"
       inkscape:connector-curvature="0"
       style="clip-rule:evenodd;fill:#fefefe;fill-rule:evenodd;stroke:#323200;stroke-width:0.05334;image-rendering:optimizeQuality;shape-rendering:geometricPrecision;text-rendering:geometricPrecision" />
    <path
       d="m 7.1006373,33.850278 c 0.1,0.4 0.7,0.6 1.2,0.5 -0.4,-0.1 -0.9,-0.5 -1.2,-0.5 z m 5.9999997,-0.4 c -0.6,0.4 -1.3,1 -2.5,1 -1.8999997,0.2 -4.4999997,0 -6.1999997,-0.2 -0.8,-0.1 -1.3,-0.2 -1.4,-1 1.2,-0.7 2.8,-1 4.6,-1 -0.4,1.1 -2,1.1 -3.2,1.4 1,0.2 2.6,0 3.3,-0.5 0.2,0.6 1,0.8 1.6,0.3 0.5,0.3 0.9999997,0.7 1.7999997,0.6 0.2,0 -0.3,0.1 -0.3,0.4 h 0.1 l 1.2,-0.6 c 0.3,-0.2 0.7,-0.5 1,-0.4 z m 0.4,0.3 c 0,0.3 -0.4,0.1 -0.6,0.3 0,0 0.3,-0.3 0.6,-0.3 z m -10.6999997,0.6 c 2.4,1.4 7.4999997,1.2 10.6999997,0.6 -1.6,1 -4.1999997,1 -6.6999997,0.7 -1.7,-0.2 -3.1,-0.3 -4,-1.3 z"
       class="fil1"
       id="path15548"
       inkscape:connector-curvature="0"
       style="clip-rule:evenodd;fill:#fefefe;fill-rule:evenodd;stroke:#323200;stroke-width:0.05334;image-rendering:optimizeQuality;shape-rendering:geometricPrecision;text-rendering:geometricPrecision" />
    <g
       transform="translate(0.10063727,0.0502784)"
       id="g15578"
       style="clip-rule:evenodd;fill-rule:evenodd;stroke:#323200;stroke-width:2.0999999;image-rendering:optimizeQuality;shape-rendering:geometricPrecision;text-rendering:geometricPrecision">
      <path
         d="m 27.7,8 c 0.5,-1 -1,-0.7 -1.5,-0.7 -1,0 -2,-0.3 -3.1,-0.5 -2,-0.3 -4,2.1 -4.2,4 0,0.5 -0.2,1.3 0,1.7 0.2,0.8 1,1.3 1.2,2.2 -1.2,-0.1 -2.5,-1.5 -3.6,-1.2 -0.6,0.5 -1.2,1 -1.8,1.1 -0.5,0.2 -0.9,0.1 -1.2,0.5 -0.4,0.3 -0.6,0.7 -0.8,1 a 9.6,9.6 0 0 0 -1.3,5.2 c 0.3,0.1 0.6,-0.2 1,0 0.3,0.1 0.4,0.6 0.8,0.6 1,1.3 0.8,2.7 1.3,4 0.2,0 0.4,-0.5 0.6,-0.4 0.8,0.6 0.7,1.5 1.3,2 0.5,-0.1 0.4,-0.6 0.5,-1 0.2,-0.7 0.9,-2.3 1.6,-2.4 -0.8,1 -0.9,1.9 -0.3,2.8 -0.7,0.6 -0.8,1.5 -0.8,2 -2.3,-1.7 -4.5,2.7 -2.9,4.3 1.7,1.6 4,-1 4,-2.7 0.6,0.8 1.6,1.2 2.3,1.4 v 1 c 0.4,1.5 3.6,5.1 5,2.7 1.2,1.7 4,2.5 4.7,0.4 0.2,-0.5 -0.1,-1 0,-1.5 0.3,0.2 0.7,0.3 1,0.3 0,2.1 4.2,5 5.6,2.5 l 0.3,-0.8 c 1,0.3 1.9,-0.2 2.5,-1.3 1,0.3 2,0.2 2.6,-0.9 1,-1.8 -1.8,-5 -3.8,-4.4 -0.1,-0.5 -0.4,-1 -0.8,-1.5 1,-1.2 1.3,-3 0.3,-4 -0.6,-0.6 -1.8,-1 -2.5,-0.7 -0.5,-0.5 -1.3,-1 -1.5,-1.4 1,0.3 2.4,0.4 3.1,-0.8 0.9,-1.4 -0.9,-4.1 -2.7,-3.9 -0.8,0.1 -1.5,0.7 -2.1,1.5 l -0.6,-0.5 c 2,-0.7 1.5,-3 0.4,-4.1 0.4,-0.4 1,-0.9 1,-1.4 -1,-0.6 -1.8,-1.3 -2.3,-2.2 V 10.4 C 29.6,9.6 29,8.4 27.8,7.9 Z"
         class="fil0"
         id="path15550"
         inkscape:connector-curvature="0"
         style="fill:#382d2d;stroke-width:0.05334" />
      <path
         d="m 16.4,17.7 0.3,-2.4 c -0.4,0.8 -0.4,1.6 -0.3,2.4 z m -0.5,-0.1 c 0.2,-0.8 0.2,-1.6 0.2,-2.3 -0.4,0.8 -0.3,1.5 -0.2,2.3 z m -0.4,0 0.2,-2 a 3,3 0 0 0 -0.2,2 z m 1.7,-3.3 c 0.8,0.4 1.4,1 2.1,1.6 -0.2,0.3 -0.5,0.4 -0.8,0.6 v -1 c -0.4,0.6 0,1.1 -0.5,1.7 -0.1,-0.7 0.2,-1.5 0,-2.2 -0.2,0.8 -0.3,1.6 -0.2,2.4 l -0.3,0.5 c 0,-1 0.3,-2 0,-3 l -0.2,2.4 c 0,0.2 0.1,0.6 -0.1,0.7 -0.3,-1 0.2,-2 0,-3 -0.4,1 -0.3,2 -0.3,3 -1.1,0.3 -2.6,-0.8 -3.7,-1.1 l 0.7,-1 c 0.3,-0.2 0.7,0 1,-0.2 l 0.7,-0.5 0.6,-0.3 c 0.4,-0.2 0.6,-0.6 1,-0.6 z m -0.6,5.9 c -1,0.3 -2,0.9 -3,1.6 0.1,-0.8 0.4,-1.6 0.8,-2.4 0.7,0 1.4,0.5 2.2,0.8 z m 3.8,-11.3 1.4,2.6 c -0.3,1.2 0.5,2.2 -0.4,3.4 -0.2,-1 -1.7,-1.5 -2,-2.4 -0.1,-0.3 0,-1.1 0,-1.6 0.2,-0.7 0.5,-1.4 1,-2 z"
         class="fil1"
         id="path15552"
         inkscape:connector-curvature="0"
         style="fill:#fefefe;stroke-width:0.05334" />
      <path
         d="m 17.3,18.2 c -0.2,0.5 -0.2,1 -0.5,1.5 -0.2,0.3 -0.7,0.5 -1,0.8 -0.7,0.7 -1.1,1.5 -1.4,2.3 -0.2,-0.2 -0.3,-0.7 -0.6,-1 -0.1,-0.2 -0.4,-0.2 -0.6,-0.4 -0.2,-0.2 -0.3,-0.6 -0.5,-0.7 -0.2,-0.1 -0.6,0 -0.8,0 1.5,-2 3.6,-2.4 5.4,-2.4 z M 23.8,7.7 c 1,0 2.2,0.4 3.2,0.2 0.1,0.2 0.4,0.7 0.8,0.7 -0.7,0.5 -1.3,1 -2,2 -0.6,0.9 -0.6,2 -1.7,2.8 0.5,0.1 0.8,-0.2 1.3,-0.2 1.3,0 2.7,1.5 4,2.2 -0.5,0.1 -1.3,1 -1.7,1.8 -1.6,-1.2 -3.4,-2.9 -4.9,-2.7 1.2,-0.1 2.7,1.3 4,2.4 l 0.8,0.7 c 0.2,0.3 0.2,0.8 0.3,1 -1.5,-0.4 -2.9,-1 -4.2,-0.4 -1,-0.8 -1.7,-1.6 -2.3,-2.4 0.1,-1.1 1.3,-1.9 2.1,-2.3 -0.4,-0.1 -1,0.3 -1.4,0.7 C 22,12.1 21.8,10 23.8,7.7 Z"
         class="fil1"
         id="path15554"
         inkscape:connector-curvature="0"
         style="fill:#fefefe;stroke-width:0.05334" />
      <path
         d="m 21,19 c 0.2,-0.4 0.2,-1 0,-1.5 -0.2,0.5 -0.2,1 0,1.4 z m -0.4,-0.1 c 0.3,-0.4 0.2,-1.1 0,-1.6 a 2,2 0 0 0 0,1.6 z M 21,16 l 1.3,1.6 c 0.3,1.6 -0.8,3.5 -1.1,5 -0.4,-0.2 -0.8,-0.1 -1.2,-0.4 -0.8,-1 -0.6,-2.3 -1.1,-3.4 0,1.1 0,2.3 0.8,3.4 -0.3,0.4 -0.9,0.5 -1.1,1.1 -0.4,0 -0.8,-0.4 -1,-0.8 -0.5,-0.4 -1,-0.9 -1,-1.4 -0.1,-1.2 1.4,-4.3 3,-4.8 0.5,0 1,0 1.3,-0.3 z"
         class="fil1"
         id="path15556"
         inkscape:connector-curvature="0"
         style="fill:#fefefe;stroke-width:0.05334" />
      <path
         d="m 16.6,20.2 c -0.5,2 -0.2,3.9 -0.3,5.8 -0.3,-0.3 -0.8,-1.3 -1.5,-1 -0.2,-0.6 -0.1,-1.2 -0.4,-1.8 0.5,-1 1.2,-2.3 2.2,-3 z m 0,1.3 1.4,1.8 c -0.8,0.7 -1,1.7 -1.4,2.5 0,-1.4 -0.2,-2.8 0,-4.3 z M 28.2,8.8 c 0.5,0.6 1,1 1.7,1.5 -0.3,0.2 -0.7,0.3 -1,0.6 -0.6,0.6 -1,1.5 -1.7,1.9 -0.7,0.4 -1.8,0 -2.5,0.4 1,-1.7 1.7,-3.7 3.5,-4.4 z m 2,5.9 c 0.2,0 0.3,0 0.3,-0.2 l -0.1,-0.2 -0.3,0.3 z m -3.9,-1.5 c 1.8,-0.3 3.7,0.7 5.6,0.8 -0.4,0.5 -1,0.7 -1.5,1.3 -1.3,-0.1 -2.8,-1.6 -4.1,-2.1 z M 22.6,18 c 0.4,0.2 0.8,0.7 1.2,1 0.4,1.6 -1,3.3 -1.2,5 -0.3,-0.3 -0.5,-0.8 -1,-1.1 0,-1.6 1.3,-3.4 1,-5 z"
         class="fil1"
         id="path15558"
         inkscape:connector-curvature="0"
         style="fill:#fefefe;stroke-width:0.05334" />
      <path
         d="m 27.5,13 c 0.8,-0.8 1.8,-2.5 2.8,-2.4 0.3,1 1.2,2 2.2,2.7 -0.3,0.3 -0.8,0.2 -1.2,0.1 l -3.8,-0.5 z m -8,10 h 0.8 v 0.6 l -1.2,0.1 z m 0.7,1.3 c -0.1,0.2 -0.4,0.2 -0.7,0.5 -0.4,0.4 -0.5,1 -0.3,1.5 l -0.6,0.3 c -0.9,-0.9 0.6,-2.8 1.6,-2.3 z M 24,18.5 c 1.4,-0.3 2.8,0.5 4.2,1 v 0.6 c -0.2,0.6 0.3,1.3 0.3,2 -0.8,-0.5 -1.5,-0.1 -2.2,-0.4 -0.7,-1 -1.1,-2.2 -2.2,-3.2 z m -9,11.8 c 0.5,-1 1.5,-1.7 2.3,-1 0.4,0.4 0.4,1.4 0.2,1.9 -0.2,0.9 -1.5,2.4 -2.5,1.7 -0.7,-0.5 -0.5,-1.8 0,-2.6 z m 5.9,-6.8 0.9,1 -0.4,0.5 C 20.6,24.6 21,24 20.8,23.5 Z m 3.1,-4 c 1.2,0.9 1.7,2.2 2,3.3 -0.5,0.9 -0.8,1.7 -0.9,2.6 -0.7,-0.7 -1.3,-0.7 -2,-0.5 -0.6,-1.7 1,-3.7 1,-5.5 z m -2.9,3.8 c 0.5,0 0.8,0.7 0.9,1 z m -0.9,1.4 c 0.6,0.2 0.1,1.3 0.2,1.7 -0.2,-0.6 0,-1.2 -0.2,-1.7 z m 0.4,5.9 c 0.5,0 2,-0.5 1.5,-1.3 -0.4,0 -0.6,0.6 -0.9,0.7 -0.6,0.4 -1.2,0 -1.9,-0.1 0.3,0.4 0.9,0.7 1.4,0.7 z M 18.3,28 c 0.2,0 0.3,0.5 0.6,0.7 1,1 2.5,1.4 3,0.1 0.2,-0.2 0,0.2 0.3,0.2 0.2,0.1 0.2,-0.2 0.3,-0.2 0.3,0.5 0.5,1 0.2,1.6 -1.3,2.3 -5.5,-0.3 -4.4,-2.5 z"
         class="fil1"
         id="path15560"
         inkscape:connector-curvature="0"
         style="fill:#fefefe;stroke-width:0.05334" />
      <path
         d="m 19.4,26.8 0.2,2 C 19.4,28.7 19.3,28.6 19.5,28.4 19.4,27.9 19,27.3 19.4,26.8 Z m 1.3,-1.4 c 0.1,-0.2 0.3,0.1 0.4,0.2 l -0.1,1 c -0.4,-0.3 0,-0.9 -0.3,-1.2 z M 20.2,27 c 0.2,0 0.2,0.3 0.2,0.5 v 0.6 c 0.1,0.4 0.3,1 0,1.1 -0.2,0 0,-0.1 0,-0.2 -0.2,-0.7 -0.1,-1.4 -0.3,-2 z m 8.7,-10.4 c 0.6,0.9 1.6,0.5 2.1,1 0,-0.2 0.2,-0.2 0.4,-0.3 v 0.5 c 0.8,-0.9 0.4,-1.8 0,-2.6 L 31.6,15 c 1,0.8 1.3,3 -0.2,3 -0.6,0.1 -1,-0.3 -1.7,-0.4 -0.1,-0.5 -0.8,-0.5 -1,-0.8 z"
         class="fil1"
         id="path15562"
         inkscape:connector-curvature="0"
         style="fill:#fefefe;stroke-width:0.05334" />
      <path
         d="m 29.1,16.2 0.1,0.3 H 29.1 Z M 29.3,16 h 0.3 v 0.8 c -0.1,-0.2 0,-0.5 -0.2,-0.8 z M 21,27 c 0.3,0.4 0,1.2 0,1.7 0,0.2 0.3,0.4 0,0.5 -0.2,0 -0.2,-0.6 -0.2,-1 0,-0.3 0,-0.7 -0.2,-1 0.2,0 0.3,-0.1 0.3,-0.2 z m 9,-11 c 0.2,0.1 0.1,0.8 0.1,1 -0.3,-0.2 -0.3,-0.9 -0.2,-1 z m -8.7,11.3 c 0.3,0.2 0.4,0.8 0.8,1.1 -0.1,0.3 -0.5,0.4 -0.7,0.6 z m 1.6,-1.8 c 0.1,0.7 -0.3,1.6 -0.2,2.4 -0.4,-0.1 -0.2,-0.7 -0.2,-1 l 0.3,-1.3 v -0.1 z m 5.6,-7.1 h 0.3 v 0.4 z m 2.1,-2.4 0.2,1.1 c -0.4,0 -0.6,-1 -0.2,-1.2 z m 0.5,-0.6 c 0.2,0.6 0.7,1.3 0,1.8 0,-0.6 -0.4,-1.3 0,-1.8 z m -6.1,13 h -0.1 c 0.1,0.5 0.5,0 0,0 z m -0.9,-2.9 c -0.3,1 -0.4,2 -0.4,3 0.5,-0.8 0.3,-2.1 0.8,-3 0,0.8 -0.3,1.7 -0.1,2.4 0.4,-0.6 0.2,-1.5 0.4,-2.2 0.5,0.1 0.1,0.6 0.3,0.8 0.2,0 0,-0.3 0.1,-0.5 0.6,0.6 0.3,1.3 0.2,2 0.6,-0.4 0.6,-1.3 0.4,-1.8 0.3,-0.2 0.7,0 1,0 0.4,0.8 0.3,1.7 -0.6,2.5 -0.7,0.6 -2,0.2 -2.8,-0.2 0.2,-1 0.4,-2 0.4,-2.8 -0.6,0.8 -0.4,1.8 -0.7,2.7 -0.4,-0.3 -0.1,-1 0,-1.3 l 0.2,-1.5 c 0.2,-0.2 0.5,-0.2 0.9,0 z m 5.4,-7.2 c 0.1,0.6 -0.2,1.2 -0.3,1.8 0,-0.5 0,-1.3 0.3,-1.8 z m -2.9,4 c 0.6,-0.2 1.3,0 2,0.4 0,0.5 0,1 0.2,1.5 -0.4,0.4 -0.3,0.7 -0.4,1.1 -0.8,-1 -1.3,-2 -1.8,-3 z m 3.2,-3.9 c 0,0 0.1,0.1 0.2,0 l -0.4,2.2 c -0.2,-0.6 0.2,-1.5 0.2,-2.2 z m -3.7,4.7 0.5,1 1.3,1.5 -0.3,0.4 a 2,2 0 0 0 -2,-0.3 c -0.3,-0.8 0,-1.7 0.5,-2.6 z m 4.2,-4.6 c 0,0 0.1,0.1 0.2,0 0,1.1 -0.5,2.2 -0.6,3.3 -0.1,0 -0.2,0.2 -0.4,0 0.5,-1 0.4,-2.3 0.8,-3.3 z m 0.5,0.3 h 0.1 l -0.2,1.6 c -0.1,0.5 0,1.2 -0.5,1.4 z m 0.3,0.2 0.3,0.2 c -0.3,0.8 0.2,1.8 -0.7,2.4 0.1,-0.9 0.4,-1.7 0.4,-2.5 z M 25.8,33 26,32.6 25.8,32.5 c -0.2,0 -0.2,0.3 0,0.4 z M 27,30.2 c 0.2,0.6 0,1.4 -0.3,2 -0.2,0.3 -0.5,0.4 -0.3,0.7 0.8,-0.1 1,-1.2 1,-1.8 0,-0.4 -0.1,-0.7 -0.3,-1 v 0.1 z m -1.7,2.5 0.2,-0.2 -0.3,-0.2 c -0.2,0.1 0,0.4 0.1,0.4 z m 1.4,-3.5 c 1.4,0.6 2.2,2 1.6,3.1 -1.2,2.1 -4.1,0.6 -5,-1.3 0.2,-0.6 0.4,-1 0.3,-1.5 1.1,0.3 2.2,0.5 3.2,-0.3 z"
         class="fil1"
         id="path15564"
         inkscape:connector-curvature="0"
         style="fill:#fefefe;stroke-width:0.05334" />
      <path
         d="m 32,19.8 c 0.4,0.5 0.5,1.2 0.5,1.9 -1,0 -2.1,0.7 -2.6,1.8 l -0.6,-0.3 v -1 c 0.8,0 2,-0.2 2.6,-1.3 0.2,-0.3 0.1,-0.7 0,-1 z M 22,31.9 v 0.9 c -0.1,-0.1 -0.4,-0.9 0,-1 z m 0.8,-0.6 v 2.3 l -0.3,-0.2 c 0.4,-0.6 -0.2,-1.5 0.3,-2 z m 0.2,0.4 c 0.2,0 0.1,0.2 0.2,0.3 l -0.1,1.9 c -0.2,-0.7 0,-1.5 -0.1,-2.2 z M 29.4,24 c 0.1,0 0.4,0 0.4,0.2 -0.1,0 -0.4,0 -0.4,-0.2 z"
         class="fil1"
         id="path15566"
         inkscape:connector-curvature="0"
         style="fill:#fefefe;stroke-width:0.05334" />
      <path
         d="m 22,33.5 c 0.9,0.8 2.1,1.4 2.8,0.7 -0.3,-0.2 -0.3,-0.5 -0.2,-0.8 0.9,0.2 1,1.8 0.2,2.4 -1.1,0 -2.3,-1.5 -2.7,-2.3 z m 11.9,-14.7 -0.3,1.8 z m -4.7,10.6 c 0.3,-0.6 0.3,-1.2 0.4,-1.9 -0.3,0.7 -0.5,1.3 -0.4,2 z m 2.1,-1.7 c 0,1.2 -1.6,2.3 -2.6,2 0.3,-1 0.5,-1.7 0.5,-2.5 -0.4,0.6 -0.4,1.7 -0.7,2.3 -0.3,-0.4 0,-0.9 0.2,-1.3 L 28.9,27 c 0.1,-0.1 0.5,-0.3 0.3,-0.5 0.6,0.5 0.5,1.3 0.8,2 0,-0.9 0,-1.9 -1,-2.5 l 0.1,-1.1 c 0.9,0.2 0.7,0.8 1,1.4 0.3,0.6 0.6,1 1.2,1.4 z m 3.2,-9.1 c -0.4,0.8 -0.3,1.7 -0.6,2.3 0,-0.7 0.4,-1.5 0.2,-2.2 0.1,-0.1 0.2,-0.2 0.4,-0.1 z m -6.3,8.1 h 0.1 c -0.3,0.8 -0.3,1.6 -0.5,2.2 -0.2,-0.4 0,-0.8 0.1,-1.1 z m 6.4,-8 0.3,0.1 c -0.4,0.8 -0.3,1.6 -0.4,2.3 0,0.1 -0.1,0 -0.2,0 -0.2,-0.7 0.4,-1.6 0.3,-2.4 z"
         class="fil1"
         id="path15568"
         inkscape:connector-curvature="0"
         style="fill:#fefefe;stroke-width:0.05334" />
      <path
         d="m 35.2,20.8 c 0.1,-0.4 0.2,-0.7 0,-1 z m -0.4,-2.3 c 1.3,0.2 2.6,2.1 1.4,3 -0.7,0.5 -2,0.3 -2.9,0 v -0.6 c 0.2,0.1 0.3,0.3 0.3,0.4 0.6,0 1.4,0.5 1.7,-0.3 -0.2,-0.2 -0.4,0.2 -0.6,0 0.3,-0.6 0.2,-1.5 0.4,-2 l 0.5,0.7 c 0.1,-0.4 -0.2,-0.8 -0.8,-1.2 z m -3.1,4.2 c 0.1,-0.1 0.1,0 0.2,0 L 31.2,26 c -0.3,-0.3 0,-0.6 0,-0.9 0.3,-0.7 0.4,-1.6 0.5,-2.4 z m -3.2,4.1 h 0.1 c 0,0.8 -0.3,1.5 -0.5,2.3 -0.1,-0.3 0,-0.8 0.2,-1.1 z m -1.1,1.6 c 0.2,0 0,0.2 0,0.3 -0.3,0 0,-0.2 0,-0.3 z m -3.5,4.5 c 0.6,0.2 0.4,0.8 0.4,1.2 h -0.4 z m 1.9,1.1 c 0.8,0.2 1.7,0 2.4,-0.5 1.4,0.6 2.2,2.4 0.8,3 -0.4,0.3 -1.3,0 -1.8,-0.2 -1,-0.5 -1.4,-1.5 -1.4,-2.3 z m 4.4,-3.7 c 0.2,0.3 0,0.8 0,1.2 v 1.2 c -0.3,-0.8 0,-1.6 0,-2.4 z m 0.5,-0.1 c 0.2,0 0,0.4 0,0.6 l -0.1,2.3 c -0.2,-0.4 -0.1,-1 0,-1.4 v -1.4 h 0.1 z m 1.6,-2 c 0.2,0.5 0,1 0,1.6 -0.3,-0.5 -0.1,-1 0,-1.6 z m 3.7,-4 c 2,-0.1 2.6,2.5 1.2,3.6 l -0.6,-0.4 c 0.6,-1.2 0,-2.2 -0.6,-3.2 z m -3.6,5.7 0.1,-0.1 c 0.2,0 0,0.1 0.1,0.2 z m 1.6,-1.3 -0.2,1.1 0.1,-1 z m 0.5,0.1 -0.2,1.6 c -0.2,-0.5 0,-1.2 0.2,-1.6 z M 35,28.6 c 0.2,0.5 -0.4,1.4 -0.1,2 0.4,-0.6 0.2,-1.4 0.6,-2.2 0,0.9 -0.3,1.8 -0.2,2.6 -0.2,0 -0.5,-0.3 -0.8,-0.5 0.3,-0.6 0.2,-1.2 0.5,-1.9 z M 36,28 c 0.1,0.2 0,0.3 0.2,0.3 -0.4,0.9 -0.3,2 -0.5,3 -0.3,-0.2 -0.1,-0.5 -0.1,-0.8 l 0.2,-2.3 0.1,-0.1 z m -2.9,6.4 c 0.1,0.4 0,0.8 0.2,1.3 -0.3,-0.3 -0.2,-1 -0.2,-1.3 z m 0.5,-0.5 c 0,0.7 0.2,1.6 0.1,2.2 -0.3,-0.7 -0.1,-1.3 -0.3,-2 z M 37,33 c 0.2,0.7 1.2,1.6 2.1,2 -0.4,0.8 -1.3,1.4 -1.8,1 -0.2,-0.1 -0.2,-0.6 -0.3,-1 a 5,5 0 0 0 -1.7,-1.4 c 0,-0.3 -0.1,-0.5 0.1,-0.8 0.6,0.2 1.1,0.1 1.6,0.2 z m 4.2,-1 c -0.2,1 -1.2,1.5 -2,1.7 0.8,0.5 1.8,-0.1 2.4,-1.1 0.5,0.9 0,2 -1,2.1 -1,0.1 -3.2,-1.5 -3.2,-2.5 0.1,-1.9 2.4,-2.2 3.8,-0.3 z M 20.5,8.7 c 0.9,-1 1.8,-1.4 2.9,-1.1 A 6.7,6.7 0 0 0 21.8,11 c -0.3,-0.7 -1,-1.5 -1.3,-2.3 z m 0.2,5.8 c 0.2,0.2 0.4,0.6 0.4,0.9 -0.7,1.2 -2,0.1 -3,-0.8 0.7,0.2 1.4,1 2,1 0.4,-0.3 1,-0.7 0.6,-1 z m -0.9,12.3 c 0.3,0 0,0.4 0.1,0.6 l 0.2,1.7 -0.2,-0.7 z m 2.5,-1.9 c 0.4,0.7 -0.1,1.7 -0.2,2.3 -0.1,-0.6 0.4,-1.4 0.2,-2 -0.3,0.3 -0.4,0.9 -0.4,1.3 -0.2,-0.4 0,-1 0.5,-1.6 z m 9.3,-5.5 0.3,0.2 -0.4,1.3 z M 21.2,32.7 c 0.2,0 0.1,0.4 0.3,0.5 -0.2,0 -0.2,-0.3 -0.3,-0.5 z M 33.4,19.2 v 1.1 c -0.2,-0.2 0,-0.8 0,-1.1 z m -10,13.1 c 0.4,0.5 0.3,1.2 0.2,1.8 -0.3,-0.1 -0.2,-0.6 -0.2,-0.8 z m 7.3,-8 V 25 c -0.3,0 0,-0.5 0,-0.7 z"
         class="fil1"
         id="path15570"
         inkscape:connector-curvature="0"
         style="fill:#fefefe;stroke-width:0.05334" />
      <path
         d="m 35.2,25.7 c -0.4,0 -0.2,0.4 -0.4,0.7 -0.4,0.8 -1.1,0.8 -1.8,0.7 0.7,1.1 3,-0.3 2.2,-1.4 z m -0.7,-1 c 0,-0.3 0,-0.4 -0.3,-0.6 H 34 c 0,0.2 0.1,0.4 0.4,0.6 z m -0.8,1.4 c 0,-0.6 0.2,-1 0,-1.6 -0.2,0.6 -0.1,1 0,1.6 z m -0.9,-2.4 c -0.2,1 -0.4,1.9 -0.3,2.8 0.3,-1 0.6,-2 0.3,-2.8 z m -1.1,3.2 c 0.1,0.2 0.2,0 0.3,-0.2 0.4,0.1 1,0.2 1.1,-0.2 -0.2,-0.2 -0.7,0.1 -1,-0.1 0.3,-1.1 0.5,-2.2 0.4,-3.3 l 0.9,0.9 h -0.2 c 0,0.8 -0.2,1.6 -0.1,2.3 a 6,6 0 0 0 0.2,-2.2 c 0.1,-0.1 0.2,0.1 0.2,0.1 0.1,-0.5 -0.5,-1 -1.1,-1.3 0,0.6 -0.2,1.2 -0.3,1.7 l -0.4,1.7 c -0.3,-0.2 -0.1,-0.7 0,-1 0.2,-0.9 0.4,-1.9 0.4,-2.8 1.6,-0.1 4.5,3 3.8,4.4 -0.7,1.3 -1.8,1.1 -2.8,0.8 -1,-0.2 -2.1,-0.7 -2.5,-1.8 0.2,0.3 1,0.6 1,1 z m -2.5,3.5 h 0.3 c 0,0.5 -0.2,1.1 0,1.7 -0.4,-0.4 0.1,-1.2 -0.3,-1.7 z m 0.7,0 c 0,0.7 -0.2,1.4 0,2 -0.3,-0.4 -0.2,-1.5 0,-2 z"
         class="fil1"
         id="path15572"
         inkscape:connector-curvature="0"
         style="fill:#fefefe;stroke-width:0.05334" />
      <path
         d="m 31.5,30.6 c 0.7,0.4 0.2,1.2 0.5,1.8 0.2,-0.8 0.4,-1.8 -0.8,-2.5 1.7,0.6 3,2.6 1.4,3.9 -1,0.8 -2.5,0.2 -3.7,-1 l 0.2,-0.4 c 0.9,1 2.7,1.5 3.2,0.2 -0.5,0.2 -1,0.7 -1.4,0.4 l 0.3,-2.8 c 0.4,0.4 0.1,1 0.1,1.4 v 1.3 a 7,7 0 0 0 0.3,-2.3 z M 33,29 c 0.3,1.1 2.6,3.6 3.7,2.2 0,-0.2 -0.2,0 -0.3,0 0,-0.7 0.3,-1.4 0,-2 v 1.2 c -0.1,0.3 0,0.8 -0.4,0.9 0,-1 0.3,-2 0.2,-2.8 L 37,30 c 0.2,-0.7 -0.3,-1.6 -0.7,-2.3 a 4,4 0 0 1 1.7,2.5 c -0.8,0.3 -1.3,1.3 -1.1,2 -1,0.2 -2.6,-0.5 -3.4,-1.7 L 33.1,29 Z m 2.3,5.9 c -0.2,0.6 0,1 0.2,1.6 a 3,3 0 0 0 -0.2,-1.6 z m 0.3,0.6 c 0.3,-0.3 -0.2,-0.9 -0.4,-1.2 1.6,0.6 2,3 0.5,3.4 -1.4,0.3 -3.8,-1.5 -3.7,-3 0.2,0.6 0.9,1 1,1.5 0.3,0 0.7,0.3 1,0.5 0.5,0 1,0.2 1.4,-0.2 0,-0.3 -0.3,0 -0.5,-0.2 0,-0.7 0,-1.4 -0.2,-2.1 -0.4,0.6 0.1,1.6 0,2.2 -0.2,-0.3 -0.3,-0.8 -0.3,-1.2 0,-0.4 0,-0.9 -0.2,-1.2 -0.3,0.8 0.2,1.7 0,2.4 C 34,36.1 34,35.6 34,35.1 v -1.3 c 0.8,0.1 1.3,1 1.6,1.7 z"
         class="fil1"
         id="path15574"
         inkscape:connector-curvature="0"
         style="fill:#fefefe;stroke-width:0.05334" />
      <path
         d="M 32.7,34.6 V 35 c 0,0 -0.1,-0.3 0,-0.4 z M 40,47.1 V 47 l 0.3,0.1 c 0,0 0,0.2 -0.2,0.3 0,-0.1 0,-0.2 -0.2,-0.3 z"
         class="fil1"
         id="path15576"
         inkscape:connector-curvature="0"
         style="fill:#fefefe;stroke-width:0.05334" />
    </g>
  </g>
</svg>
