<?xml version="1.0" encoding="UTF-8" standalone="no"?>
<svg
   xmlns:dc="http://purl.org/dc/elements/1.1/"
   xmlns:cc="http://creativecommons.org/ns#"
   xmlns:rdf="http://www.w3.org/1999/02/22-rdf-syntax-ns#"
   xmlns:svg="http://www.w3.org/2000/svg"
   xmlns="http://www.w3.org/2000/svg"
   xmlns:sodipodi="http://sodipodi.sourceforge.net/DTD/sodipodi-0.dtd"
   xmlns:inkscape="http://www.inkscape.org/namespaces/inkscape"
   width="36.041855"
   height="58.301105"
   viewBox="0 0 36.041856 58.301105"
   version="1.1"
   id="svg14927"
   sodipodi:docname="wino1.svg"
   inkscape:version="0.92.3 (2405546, 2018-03-11)">
  <metadata
     id="metadata14933">
    <rdf:RDF>
      <cc:Work
         rdf:about="">
        <dc:format>image/svg+xml</dc:format>
        <dc:type
           rdf:resource="http://purl.org/dc/dcmitype/StillImage" />
        <dc:title></dc:title>
      </cc:Work>
    </rdf:RDF>
  </metadata>
  <defs
     id="defs14931" />
  <sodipodi:namedview
     pagecolor="#ffffff"
     bordercolor="#666666"
     borderopacity="1"
     objecttolerance="10"
     gridtolerance="10"
     guidetolerance="10"
     inkscape:pageopacity="0"
     inkscape:pageshadow="2"
     inkscape:window-width="1920"
     inkscape:window-height="1017"
     id="namedview14929"
     showgrid="false"
     fit-margin-top="0"
     fit-margin-left="0"
     fit-margin-right="0"
     fit-margin-bottom="0"
     inkscape:zoom="1.0712664"
     inkscape:cx="68.126276"
     inkscape:cy="-51.823332"
     inkscape:window-x="-8"
     inkscape:window-y="-8"
     inkscape:window-maximized="1"
     inkscape:current-layer="svg14927" />
  <g
     id="g14925"
     style="clip-rule:evenodd;fill-rule:evenodd;image-rendering:optimizeQuality;shape-rendering:geometricPrecision;text-rendering:geometricPrecision"
     transform="translate(0.026278,-0.02556414)">
    <g
       id="g14909"
       style="stroke:#323200;stroke-width:2.79999995">
      <path
         d="m 4.8,57.7 c 0.7,-1.6 0.7,-3.6 2,-4.8 1.2,0.4 2.4,1 3.5,1 l 0.3,-0.4 c 0.7,0.5 1,-0.1 1.5,-0.4 1,0.3 0.2,1.4 1.3,1.8 0.6,0 0.7,-1 1.2,-1 0.6,0.2 0.2,1.3 0.5,1.7 0.3,0.3 1,0.5 1.3,0.4 0.3,-0.2 0.5,-0.6 0.9,-0.6 0.4,0.3 0,1 0.6,1.2 0.4,0 0.8,-0.2 1.2,-0.4 0.3,0.2 0,0.8 0.4,0.9 0.3,0 0.5,-0.7 0.4,-1 0,-0.3 -0.3,-1 -0.8,-1 -0.5,-0.2 -0.5,0.5 -1.2,0.4 0,-0.4 -0.2,-0.8 -0.8,-1 -0.5,0 -0.7,0.6 -1,0.5 -0.5,-0.1 -0.5,-0.9 -0.8,-1.3 -0.6,-0.7 -1.5,-0.6 -2,0 0.2,-0.7 -0.1,-1.3 -0.8,-1.5 -0.4,0 -1,0.3 -1.4,0.1 0,-0.1 0.2,-0.3 0,-0.4 C 10.4,51.2 9.3,50.7 8.2,50.2 8.7,49.3 8.4,48.5 8.8,47.6 9.2,46.6 10.1,46.2 10,45.3 9.3,44.6 8,44 6.8,43.6 6.3,43.4 5.6,43.2 5.3,43.5 c -0.5,1 -0.7,2.2 -1,3 -0.6,1.2 -1.7,2 -2,3.2 -0.4,0.7 -0.6,1.5 -0.8,2.2 -0.2,1 -0.3,2.2 -1,3.3 -0.1,0.3 -0.5,0.6 -0.5,1 0,0.6 1,1.1 1.7,1.4 1.2,0.4 2.3,0.3 3.1,0 z"
         class="fil0"
         id="path14903"
         inkscape:connector-curvature="0"
         style="fill:#382d2d;stroke-width:0.052556" />
      <path
         d="M 4,56.6 A 2,2 0 0 0 3.6,55.2 c 0,0.5 0.1,1 0.3,1.4 z m 0.8,-8.9 c -0.5,1 -1.3,1.7 -1.7,2.7 l -0.7,2.5 c -0.2,0.4 -0.5,0.8 -0.5,1.3 0.9,-1.4 0.8,-2.6 1.6,-4 0.7,-1.2 2.3,-2.8 2,-4.1 -0.3,0.4 -0.4,1.1 -0.7,1.7 z m 0.7,-3 c 0.4,0.5 1.1,0.8 1.8,1 -0.8,1.7 -0.2,3.1 -0.8,4.7 0,0.3 -0.2,0.9 -0.5,1 0,0.7 -0.6,1 -1,1.6 0.2,0 0.3,-0.3 0.5,-0.4 0.2,0.2 0.4,0.5 0.4,0.8 -0.2,0 -0.3,-0.4 -0.5,-0.6 -0.2,0.3 0.4,0.6 0.3,1 L 5.2,53.1 C 4.8,53.4 4.8,54.2 4.6,54.7 4.1,54.4 3.6,54 3,54.1 l 0.7,0.6 0.7,0.7 v 0.5 C 4.2,56 4.2,55.6 4.1,55.6 c 0,0.4 0.2,0.7 0,1.2 L 3.7,56.7 C 3.5,56.1 3.5,55.5 3.2,55 3.1,55.6 3.4,56 3.5,56.6 3.1,56.1 3.2,55.5 2.8,55 2.7,55.4 3.1,56 3.1,56.4 2.8,56.1 2.9,55.6 2.6,55.2 l 0.2,1 -1.9,-0.6 c 1.2,-1.8 0.9,-4 1.8,-5.7 0.2,-0.6 0.6,-1 1,-1.5 0.5,-0.6 1.2,-1.2 1.5,-2.2 l 0.3,-1.4 z m 0.3,-0.9 c -0.1,0 0,0.1 0,0.2 H 5.6 c 0,0 0,-0.3 0.2,-0.2 z M 0.5,56.3 2,56.6 Z M 6,44.6 C 6.5,44.7 7.3,45 7.5,45.4 6.9,45.2 6.5,44.9 6.1,44.6 Z M 0.8,56.7 c 0.9,0.2 1.8,0.1 2.7,0.7 C 2.7,57.4 1.7,57 0.8,56.7 Z M 6.5,44 v 0.3 C 6.3,44.3 6.4,44 6.5,44 Z m 0.3,0.1 h 0.1 l -0.1,0.3 z m 0.4,0.5 v -0.3 l 0.3,0.1 -0.1,0.3 z m 0.4,0.2 0.2,-0.3 c 0.2,0 0,0.3 0,0.4 H 7.6 Z m 0.2,0.7 0.4,0.2 z M 8.2,44.7 8.1,45.1 V 44.7 Z M 7.5,46.3 7.6,46 c 0.3,0.2 0.8,0.4 0.9,0.7 -0.3,0 -0.7,-0.3 -1,-0.4 z m -0.1,0.2 1,0.6 -0.2,0.5 C 8,47.4 7.8,47 7.5,46.9 c 0,0.4 0.5,0.6 0.6,0.9 L 8,48 7.5,47.5 c 0,0.2 0.3,0.4 0.5,0.6 L 7.9,48.5 C 7.7,48.3 7.6,48 7.3,47.9 c 0,0.4 0.7,0.6 0.5,1.2 -0.2,-0.3 -0.3,-0.6 -0.7,-0.9 0,-0.5 0,-1.1 0.3,-1.8 z m 0.9,-1.3 c 0,-0.1 0.2,-0.1 0.2,-0.3 l 0.3,0.2 -0.2,0.3 z M 7,48.6 c 0.3,0.3 0.9,0.7 0.8,1.2 L 7,48.9 Z m 0.6,1.7 C 7.3,50.1 7.3,49.7 7,49.5 v -0.3 c 0.3,0 0.4,0.6 0.7,0.8 v 0.3 z"
         class="fil1"
         id="path14905"
         inkscape:connector-curvature="0"
         style="fill:#fefefe;stroke-width:0.052556" />
      <path
         d="m 5.6,52.5 0.1,-0.2 c 0.2,0.2 0.5,0.4 0.4,0.7 z M 5,54 c 0.2,0 0.2,0.2 0.3,0.3 C 5.2,54.3 5,54.1 5.1,53.9 Z M 5.8,52.2 6,52 c 0,0.2 0.4,0.4 0.3,0.7 C 6.1,52.6 6.1,52.2 5.8,52.2 Z M 7,49.7 7.5,50.5 v 0.3 L 6.8,50 6.9,49.7 Z m 1.4,-3.4 h 0.4 c -0.1,0.2 -0.2,0 -0.4,0 z m 0.5,-1.1 0.3,0.1 v 0.3 H 8.8 C 8.8,45.4 9,45.3 8.9,45.2 Z M 6,51.9 6.1,51.7 c 0.2,0.2 0.4,0.4 0.4,0.7 C 6.3,52.2 6.3,52 6,51.9 Z M 6.3,51.4 6.5,51 7,51.6 C 7,51.2 6.5,51.1 6.6,50.8 l 0.5,0.6 c 0,0.3 -0.2,0.4 -0.3,0.7 L 6.3,51.5 Z M 6.8,50.3 C 7,50.4 7.1,50.8 7.3,51 v 0.2 C 7.1,50.9 6.7,50.7 6.7,50.3 Z m -2.2,5.4 c 0.4,0.3 0,1 0,1.4 -0.3,-0.1 -0.1,-0.5 0,-0.7 z m 3,-4 0.4,0.5 c -0.2,0 -0.6,-0.3 -0.4,-0.5 z m 0.1,-0.3 c 0.2,0.2 0.4,0.3 0.4,0.5 C 8,51.8 7.6,51.7 7.7,51.4 Z M 7.9,51 c 0,0.2 0.3,0.3 0.3,0.6 C 8.1,51.4 7.8,51.3 7.9,51.1 Z M 8,50.9 v -0.1 c 0.2,0 0.3,0.2 0.2,0.4 L 8,51 Z m 1.7,0.7 c 0,0.3 -0.3,0.6 -0.4,0.9 l -1,-0.2 c 0.2,-0.4 0,-0.8 0.2,-1.2 0.4,0 0.8,0.4 1.2,0.5 z m -1.4,1.1 0.8,0.1 -0.2,0.3 c -0.2,0 -0.4,0 -0.6,-0.2 z m 0.9,0.5 c 0,-0.1 0.2,-0.1 0.2,-0.3 L 9.7,53 9.6,53.3 H 9.2 Z M 9.6,52.5 10,51.8 9.9,52.6 H 9.6 Z m 0.8,-0.5 0.2,0.1 c -0.1,0.2 -0.1,0.6 -0.3,0.5 -0.2,-0.1 0.2,-0.4 0,-0.6 z m -0.5,1.4 c 0,-0.2 0,-0.5 0.3,-0.4 -0.1,0.2 -0.1,0.5 -0.3,0.4 z M 10.8,53 c 0.2,-0.2 0.5,0 0.6,0 0,0.3 -0.4,0 -0.6,0 z m 1.2,-0.2 0.1,-0.2 c 0.3,0.1 0.5,0.2 0.6,0.4 L 12,52.7 Z m 2.3,0.7 c -0.4,0 -0.5,0.6 -0.8,0.8 -0.2,-0.4 0.4,-1 0.8,-0.8 z m 1.1,1.3 c 0.1,0 0.4,0.7 0.8,0.5 -0.2,0.3 -0.8,-0.2 -0.8,-0.5 z m 2.6,1.1 h 0.5 L 18.3,56 Z m 1.1,-0.4 c 0.2,0.1 0.4,0.3 0.3,0.5 z m -13.9,-2 0.1,0.3 c 0,0 -0.2,-0.2 -0.1,-0.3 z M 5,54.3 5.1,54.6 4.9,54.3 Z m 7.5,-1.7 c 0.2,0 0.3,0.2 0.4,0.3 z"
         class="fil1"
         id="path14907"
         inkscape:connector-curvature="0"
         style="fill:#fefefe;stroke-width:0.052556" />
    </g>
    <path
       class="fil0"
       d="m 35.4,29.3 c -0.2,-3 0,-6.7 -0.9,-9 C 34,18.8 33,17.8 32,16.7 31.3,16 30,15.2 29.8,14.5 c -0.4,-1 -0.4,-2.6 -0.5,-4 0,-1.4 -0.4,-2.8 -0.1,-4.1 0,-0.5 0.4,-1 0.5,-1.5 0.2,-1.4 0,-2.8 0.1,-4.2 C 29,0 27.6,0 26.2,0.1 c -0.8,0 -2.2,0.4 -2.7,1 -0.5,0.8 -0.4,3 0,4 0.1,0.6 0.5,0.8 0.6,1.2 0.2,1 0,3 0,4.4 0,1.6 0.2,3.3 0,4.4 -0.4,1 -1.7,1.4 -2.5,2.3 -0.8,0.8 -1.6,2 -2,3.2 -0.6,1.6 -0.5,3.6 -0.5,5.5 v 4.1 c 0.3,5.5 0.3,11 0.6,16.4 0.2,4.4 0,8.1 2.3,10.1 1.3,1.2 3.9,1.5 6.4,1.6 2.4,0 5,-0.3 6.1,-1.5 1.5,-1.5 1.3,-5.7 1.4,-8.4 0.2,-3.4 0,-6.7 0,-9.6 z"
       id="path14911"
       inkscape:connector-curvature="0"
       style="fill:#382d2d;stroke:#323200;stroke-width:0.05334" />
    <path
       class="fil1"
       d="m 26,3 h 0.6 c 0,0.4 -0.2,0.4 -0.5,0.4 V 3.1 Z m 3,0.3 V 4 C 28.7,4.3 28.3,4.4 27.8,4.5 V 3.8 l 1.1,-0.4 z m -4.8,0.3 0.4,0.1 V 4.4 C 24.2,4.4 24.2,4 24.2,3.6 Z m 2.9,0.2 c 0.3,0 0.3,0.8 -0.1,0.7 z M 25,3.9 c 0.4,0 0.7,0 0.7,0.3 0,0.4 -0.3,0.3 -0.6,0.3 V 3.9 Z M 26.6,4 c 0,0.4 -0.1,0.5 -0.5,0.5 0,-0.5 0,-0.6 0.5,-0.5 z m 2.3,0.8 c 0,0.4 -0.8,0.2 -1,0.5 -0.3,-0.5 0.7,-0.3 1,-0.5 z m -4.5,0.1 c 0.2,0 0.3,0.3 0.3,0.6 -0.4,0 -0.3,-0.3 -0.3,-0.6 z M 25.2,5 h 0.4 V 5.5 H 25.2 Z M 26,5 26.6,5.1 V 5.5 H 26 Z m 1,0 h 0.2 c 0,0.3 0,0.5 -0.2,0.5 z m 1.2,1.1 0.2,3.4 c 0,0.8 0.4,1.8 -0.1,2.2 C 27.8,10.1 28,8 27.8,6.2 Z m -1,0.2 c 0.6,1.5 0.1,4 0.7,5.4 -0.8,0.2 -1.7,0.3 -2.7,0.2 l 0.1,-5.5 z m 1.3,5.7 c 0.3,0 0.2,0.5 0.2,0.7 -0.8,0.3 -2.6,0.5 -3.5,0.1 0.8,-0.3 2,-0.3 2.8,-0.5 l 0.1,0.3 c 0,-0.2 0.2,-0.5 0.4,-0.6 z M 21,21.2 c 0.2,0 0.5,-0.3 0.3,-0.6 -0.4,0 -0.5,0.4 -0.4,0.6 z m 8,-6.5 c -0.7,1 -2.7,0.5 -3.8,0.5 0.1,0.8 2,0.6 3.2,0.6 1,1.7 2,3.4 2.8,5.2 -2.7,0.9 -6.2,0.7 -9.1,0.1 -0.2,0 0.2,0.1 0,0.3 h -0.9 c 0.3,0.7 1.8,1.3 2.9,1.5 1,0 2.1,-0.1 3.2,0 0,1.1 0.1,2.3 0.4,3.2 L 27,26.3 26.8,23.2 c -0.4,0.7 -0.2,2.4 0,3 A 16,16 0 0 1 20.1,25.5 C 20.1,23.1 20,21.3 21,20 l 1.4,-1.5 2,-2.1 c 0.5,-0.5 0.7,-1.6 0.8,-2.6 1.5,0.2 2.4,0 3.6,-0.4 l 0.2,1.2 z m 3,5.2 c 0.3,0.1 0.3,0.5 0.5,0.7 -0.2,0.2 -0.4,-0.5 -0.5,-0.7 z m 1.8,1.7 H 34 c 0.1,0.5 0.2,1 0.1,1.6 0,0.3 -0.1,0.5 0,0 -0.2,-0.5 -0.1,-1.1 -0.3,-1.6 z m -0.2,0.1 v 1.2 c -0.2,-0.2 0,-0.8 -0.2,-1 0,-0.2 0.2,0 0.2,-0.2 z M 32.8,22 H 33 c -0.1,1.3 0.2,2.6 0,3.8 -0.1,-1.1 -0.4,-2.9 -0.2,-3.8 z m -0.7,0.2 h 0.2 l 0.1,3.6 C 32.1,24.9 31.9,23 32.1,22.2 Z m -0.8,0.1 h 0.2 l 0.2,3.5 c -0.3,-1 -0.3,-2.3 -0.4,-3.5 z"
       id="path14913"
       inkscape:connector-curvature="0"
       style="fill:#fefefe;stroke:#323200;stroke-width:0.05334" />
    <path
       class="fil1"
       d="M 31,22.4 V 26 h -0.6 c 0,-1.2 -0.2,-2.3 -0.3,-3.4 0.3,0 0.4,-0.1 0.8,0 z m -1.2,0.2 0.2,3.3 c -0.3,0 -0.4,0.1 -0.8,0 0,-1.1 -0.2,-2.1 -0.3,-3.2 0.2,-0.2 0.6,0 1,-0.1 z m -1.3,0.1 c 0,0.9 0,2.3 0.4,3.2 -0.3,0 -0.4,0.3 -0.8,0.3 0,-1.2 -0.3,-2.2 -0.4,-3.5 z m -8.4,3.6 1.1,0.4 c 0,0.3 0.2,0.6 0.1,1 l -1.1,-0.5 -0.1,-0.8 z m 13.9,0 c 0.3,0 0.2,0.3 0.4,0.3 0,0.3 -0.6,0 -0.3,-0.3 z m -0.3,0.3 c 0,0.5 -0.8,0.5 -1.2,0.6 -0.5,0 -1,0.2 -1.4,0.3 v -0.6 c 0.8,0 2,-0.4 2.7,-0.3 z m -12,0.1 c 0.2,0 0.2,0.2 0.4,0.1 v 1 c -0.4,-0.1 -0.3,-0.6 -0.4,-1 z m 0.8,0.1 H 23 v 1 c -0.7,0.2 -0.5,-0.5 -0.5,-1 z m 7.7,0 h 0.3 l -0.1,0.8 c -0.3,0 -0.3,-0.6 -0.2,-0.8 z m -0.5,0.1 v 1 c -2,0.2 -3.8,0 -6.2,0 v -1 c 2.2,0.2 4,0 6.2,0 z m 4.8,0.3 v 0.1 c 0.4,5.8 0.7,11.9 0.4,17.9 -0.2,-5.9 -0.7,-12 -0.7,-17.8 z"
       id="path14915"
       inkscape:connector-curvature="0"
       style="fill:#fefefe;stroke:#323200;stroke-width:0.05334" />
    <path
       class="fil1"
       d="m 33.2,39.3 c -0.1,3.6 -3.6,3.9 -5.3,5.9 2.6,-1.2 5.5,-2.5 5.5,-6 L 33.3,39 Z M 20.8,32 c 0.4,0.6 1,1.2 1.2,2 0.6,2.5 -1.2,5.9 0.2,8.1 0.5,0.8 1.3,1.6 2.2,2 -1.1,-1.6 -2.4,-2.6 -2.4,-5.2 0,-1.1 0.5,-2.3 0.5,-3.4 0,-1.4 -0.6,-2.3 -1.2,-3.5 0.3,-0.7 1.2,-1.5 1,-2 z m 12,7.7 c 0.1,-1.6 -0.8,-3.3 -0.5,-5 0.1,-0.5 0.8,-1.2 0.8,-1.8 0.2,-1.4 -1.3,-3.7 -2.2,-3 -0.8,-0.2 -1.4,0.4 -2.3,0.6 -1.8,0.3 -3.5,-0.3 -5,-0.7 -0.4,0.5 -2,1.3 -2,2.3 0,0.3 0.4,1 0.7,1.3 0.4,0.8 0.8,1.2 0.6,2.4 -0.1,1.3 -0.7,2.4 -0.5,3.8 a 5.2,5.2 0 0 0 2.7,3.8 c 1,0.5 1.4,0.5 2.3,1.3 2,-1.3 5,-2 5.3,-5 z m 0.9,-12 h 0.1 c 0,6.2 0.4,12 0.4,18 -3.9,1 -10.6,1.2 -13.5,-0.7 -0.5,-5.4 -0.3,-11.4 -0.5,-17 3.7,1 10.1,1 13.5,-0.4 z"
       id="path14917"
       inkscape:connector-curvature="0"
       style="fill:#fefefe;stroke:#323200;stroke-width:0.05334" />
    <path
       class="fil1"
       d="m 29.8,33.7 c -0.6,0.4 -1.5,0 -1.5,-0.6 0,-0.1 0.3,-0.1 0.3,-0.4 -0.7,0 -0.9,0.4 -1.3,0.7 -0.3,-0.7 -1,-1.2 -2.2,-1 -0.4,0.5 -0.7,1.1 -1,1.8 0.5,-0.6 1.6,0 1.6,-1 0,-0.3 -0.6,-0.2 -0.7,-0.3 1,-1 2.7,0.6 1.9,1.8 -1,-0.6 -2,0.5 -1.7,1.6 -0.8,0.1 -1.4,0.6 -1.2,1.7 0.2,0.4 1,0.4 1.3,0.2 0,0.5 0.4,0.6 0.7,0.9 -0.5,0.4 -0.4,1.6 0.5,1.5 0,1 1.2,0.8 1.6,0.3 1,0.2 0.8,-0.8 1.6,-0.8 0.2,-0.3 0.3,-0.5 0.3,-1 0.8,-0.1 0.7,-1.2 0.2,-1.6 0.1,-0.2 0.2,-0.3 0.1,-0.6 -0.1,-0.3 -0.2,-0.7 -0.6,-0.8 -0.2,-0.5 -0.3,-1 -1,-1 l -0.5,-0.6 h -0.6 c 0,-0.6 0,-1 0.4,-1.2 0,1.2 1.9,1.2 2.3,0.4 0.2,0.2 0.8,0.2 0.8,-0.1 -0.1,-0.2 -0.5,0 -0.6,-0.2 0.2,-0.1 0.2,-0.6 0.2,-1 -0.9,-0.7 -1.8,0.6 -1,1.3 z m 2.9,-1.1 c -0.4,0.8 -1,1.6 -1,2.8 0,1.7 0.7,3.1 0.4,4.6 -0.5,2 -2.4,2.5 -4.2,3.6 -3,-1 -5.2,-2.6 -4.7,-6.2 0,-1 0.6,-1.7 0.4,-2.8 0,-0.8 -0.6,-1.5 -1,-2.2 0.6,-0.5 1,-1.3 1.6,-1.8 2,1.5 5.4,0.7 7,-0.6 a 12,12 0 0 1 1.5,2.6 z"
       id="path14919"
       inkscape:connector-curvature="0"
       style="fill:#fefefe;stroke:#323200;stroke-width:0.05334" />
    <path
       class="fil1"
       d="m 30,32.6 h 0.2 c 0.1,0.1 0.1,0.6 -0.2,0.6 z m -2.2,2.3 c 0.5,0 0.5,0.3 0.5,0.6 -0.3,0 -0.3,-0.2 -0.6,-0.1 z m -1.2,0.3 V 36 c -0.3,0 -0.5,0.3 -0.8,0.1 -0.4,-0.6 0.1,-1.4 0.8,-1 z M 27.1,35 c 0.4,0 0.1,0.7 0.4,0.7 0,0.3 -0.2,0.3 -0.2,0.4 -0.2,-0.1 0,-0.7 -0.1,-1 z m 1.6,0.6 c 0.6,-0.1 0.7,0.9 0.3,1 -0.6,0 -0.5,-0.7 -0.3,-1 z M 28,37.3 c -0.5,-0.1 -0.7,-1.1 -0.1,-1.3 0.5,0 0.5,1.1 0.1,1.3 z m -1.1,-0.8 c 0.4,0.3 0.4,1.2 -0.2,1.2 -0.4,0 -0.4,-0.5 -0.4,-1 0.2,0 0.5,0 0.6,-0.2 z m 2.8,0.1 c 0.3,0 0.3,0.4 0.3,0.7 -0.2,0 -0.4,0 -0.5,0.2 l -0.1,-0.4 c 0,-0.2 0.3,-0.3 0.3,-0.5 z m -4,0.2 c 0,0.8 -0.5,1 -1.3,1.1 -0.2,-0.7 0.5,-1.4 1.3,-1.1 z m 2.9,0.4 h 0.3 c 0,0.7 0,1.2 -0.6,1.2 -0.2,-0.7 0.1,-0.7 0.3,-1.2 z m -2.7,0.5 c 0.3,0.2 0.3,0.5 0.8,0.5 l -0.4,0.5 c -0.6,0 -0.8,-0.7 -0.4,-1 z m 3.9,0 c 0.5,0.1 0.5,1.3 -0.2,1 -0.3,-0.2 -0.2,-1 0.2,-1 z m -2,0.3 c 0,0.5 0,0.9 -0.5,0.9 -0.2,-0.4 0,-1 0.5,-0.8 z m 1.2,0.7 c 0.3,0 0.2,0.5 0.7,0.5 l -0.4,0.7 c 0,-0.4 -0.2,-0.8 -0.4,-1.2 z m -0.6,0.2 c 0.6,0.3 0.5,1.6 -0.1,1.5 -0.6,0 -0.6,-1.3 0,-1.5 z M 26.7,39 c 0.1,0.5 0.3,1.4 -0.5,1.2 -0.3,-0.4 0,-1 0.5,-1.1 z m 0.5,0.4 h 0.3 c -0.4,0.7 0.6,1.5 -0.5,1.6 l -0.1,-0.2 c 0,-0.5 0.5,-0.7 0.3,-1.4 z M 20.8,46 c 0.9,0.4 2.2,0.7 3.4,1 0.2,0 0.8,-0.2 0.8,0.3 -1.2,0.2 -3.2,-0.3 -4.2,-0.7 z m 13.5,0.3 c -0.1,0.5 -0.8,0.4 -1.1,0.6 0,-0.6 0.8,-0.4 1.1,-0.6 z m -1.8,0.4 c 0,0.3 0.2,0.3 0,0.5 l -0.4,0.2 c 0,-0.3 -0.2,-0.3 0,-0.6 h 0.4 z M 31.6,47 v 0.6 c -0.9,0 -1.7,0.2 -2.6,0.3 0.8,-0.3 1.5,-1.1 2.6,-0.9 z m -6.1,0 h 0.4 v 0.6 c -0.4,0 -0.4,-0.2 -0.4,-0.5 z m 1,0 h 2.2 c -0.6,0.3 -1.3,0.6 -2.2,0.6 z m 7.4,5.4 c -0.2,-1.5 0,-3.2 -0.4,-4.5 0.2,-0.1 0.4,-0.1 0.5,-0.3 0.2,1.2 0.3,3.7 -0.1,4.8 z M 20.8,47.8 c 1.3,0.2 2.9,0.7 4.4,0.8 h 1.1 c 0.5,0 1,0.5 1.6,0.5 l 2.3,-0.2 c 0,1 0.3,2 0,2.8 -0.5,-0.1 -0.3,-0.9 -0.4,-1.5 -0.2,0.3 0,1.2 -0.1,1.5 -1,0 -0.4,-1.6 -0.8,-2.2 -0.2,0.6 0,1.4 0,2.2 -2.1,0.3 -4.5,0.3 -6.2,1 2,0.2 4.1,-0.6 6.2,-0.2 l 0.1,2.4 c -2.2,-0.1 -5,0 -6.6,-0.7 -1.3,-0.5 -1.2,-1.1 -1.4,-3 -0.1,-1 -0.3,-2 -0.2,-3.4 z M 33,48.1 c 0.3,1 0,2.8 0,3.9 -0.3,-1 -0.3,-2.8 -0.3,-3.8 h 0.2 z m -1,0.3 c 0.2,0.9 0.4,2.6 0,3.4 -0.3,-0.9 -0.2,-2.2 -0.3,-3.3 h 0.2 z m -1.3,0.4 H 31 c 0.2,0.7 0.3,2 0.1,3 -0.6,-0.5 -0.3,-1.9 -0.4,-2.8 z"
       id="path14921"
       inkscape:connector-curvature="0"
       style="fill:#fefefe;stroke:#323200;stroke-width:0.05334" />
    <path
       class="fil1"
       d="m 29.3,52.4 h 0.4 c 0,0.8 0.3,1.8 0.1,2.6 -0.8,-0.2 -0.4,-2 -0.5,-2.6 z m 0.9,0 h 0.2 c -0.2,1 0.3,2.6 -0.2,2.9 v -3 z m 0.7,0 h 0.2 c 0.2,0.8 0.3,2.5 0,3.3 -0.3,-0.8 -0.1,-2.2 -0.2,-3.3 z m 1.1,0.3 c 0.4,0.4 0.4,2.4 0,2.9 z m 0.9,0.3 c 0.4,0.2 0.2,2 0.1,2.2 -0.4,-0.4 0,-1.5 -0.1,-2.2 z m 0.9,0.6 c 0.2,0.3 0.6,1.2 0,1.2 z M 21.3,54 c 1.3,1 3.1,1.2 5.2,1.3 -0.1,0.3 -0.4,0.3 -0.5,0.5 -1.9,-0.3 -4,-0.3 -4.7,-1.7 z m 8.6,1.2 c 0,0.4 -0.2,0.6 -0.4,0.6 -0.1,-0.4 0,-0.5 0.4,-0.6 z M 29,55.4 c -0.2,0.2 -0.4,0.4 -0.8,0.5 0,-0.2 0.4,-0.4 0,-0.4 0.2,-0.2 0.7,-0.2 0.8,-0.1 z m -1,0 c -0.4,0.1 -0.5,0.4 -1,0.4 0,-0.3 0.4,-0.5 1,-0.4 z m 5.8,0.4 c 0.1,0.3 -0.6,0.6 -1,0.6 0,-0.5 0.8,-0.3 1,-0.6 z M 22.3,56 c 0.9,0 1.8,0.6 3,0.5 l 0.1,0.4 a 5,5 0 0 1 -3,-1 z m 10,0.4 c 0,0.3 -0.3,0.4 -0.6,0.4 v -0.4 z m -0.8,0.4 c -0.2,0.2 -0.6,0.2 -1,0.2 0.2,0 0.7,-0.8 1,-0.2 z m -5.1,-0.1 v 0.4 h -0.8 c 0.2,-0.2 0.5,-0.6 0.8,-0.4 z m 1.1,0 -0.2,0.4 h -0.6 c 0.2,-0.2 0.4,-0.4 0.9,-0.4 z m 1,0 v 0.5 h -0.8 c 0.2,-0.2 0.4,-0.5 0.8,-0.5 z m 1,0 c -0.1,0.3 -0.4,0.5 -0.9,0.5 0.3,-0.3 0.5,-0.5 1,-0.5 z m -0.8,-41 0.6,-0.2 0.7,1.5 c -0.4,-0.1 -1.2,-0.6 -1.3,-1.3 z m 1.5,0.5 c 0.6,0.3 1.3,1.3 1.5,2.4 -0.7,-0.6 -1,-1.7 -1.5,-2.4 z m -0.5,1.3 c 1.1,0.4 1.7,2.3 2,3.4 -0.6,-0.3 -0.7,-1 -1,-1.7 z m 2.4,0.7 c 0.6,0.3 1,1.4 1.5,2.1 0,0.2 -0.4,0 -0.4,0.2 -0.5,-0.6 -0.7,-1.6 -1.1,-2.3 z"
       id="path14923"
       inkscape:connector-curvature="0"
       style="fill:#fefefe;stroke:#323200;stroke-width:0.05334" />
  </g>
</svg>
