<svg xmlns="http://www.w3.org/2000/svg" version="1" width="87" height="370" viewBox="0 0 87 336.370"><path d="M50 174c-4 1-3-2-6-2s-3 4-5 5c-4-1-6-2-6-6 4-2 6-1 8-4 4-8-13-12-15-1-1 10 10 12 15 17-26 9-31-34-5-31 13-13 18-46 8-67 13 17 10 54-2 69 3 3 7 5 8 10 18-22 9-69-6-89 19 21 30 76 6 99zM50 207l-4 14c10 16 11 48 2 66 5-19 3-51-8-64-7-1-14-2-18-6-9-12 2-34 19-28-2 6-9 5-12 9-4 6-2 17 6 17 11 1 8-15-3-11 0-5 4-6 7-8 1 2 8 5 9 0 29 18 17 81-2 101 7-14 18-39 16-63-1-11-6-20-12-27z" fill="#fff"/><path d="M78 186c-5 3-10 6-13 10-5-2-12-9-18-5 2 3 6 4 9 6s7 4 9 7c25 33-6 84-23 105 11-7 25-1 24 10-1 6-5 10-13 10-1-17-17-7-23 1-5 7-8 16-8 23 4 0 9 2 7 8-8 4-13-3-14-11-3-21 24-48 14-68-4-1-4 4-7 2-6-6-2-19 5-20 12-3 16 11 15 22 14-33-25-51-27-78 0-10 4-16 10-21-6-5-11-12-10-23 3-26 35-39 28-73-2 5 0 11-3 15-7 12-29 1-20-15 3 3 10 10 12 0 0-7-6-19-9-28-5-12-11-25-8-41 0-5 3-11 7-11s6 3 6 6c-1 4-3 1-7 4 1 6 3 15 8 22 6 8 24 18 23 0 24 4 7 37-10 20 12 18 31 38 31 69 0 14-4 29-12 38-4 5-10 7-14 12 5 5 13-4 17-5 3 4 7 8 14 9zm-16 48c2 24-9 49-16 63 19-20 31-83 2-101-1 5-8 2-9 0-3 2-7 3-7 8 11-4 14 12 3 11-8 0-10-11-6-17 3-4 10-3 12-9-17-6-28 16-19 28 4 4 11 5 18 6 11 13 13 45 8 64 9-18 8-50-2-66l4-14c6 7 11 16 12 27zM44 75c15 20 24 67 6 89-1-5-5-7-8-10 12-15 15-52 2-69 10 21 5 54-8 67-26-3-21 40 5 31-5-5-16-7-15-17 2-11 19-7 15 1-2 3-4 2-8 4 0 4 2 5 6 6 2-1 2-5 5-5s2 3 6 2c24-23 13-78-6-99z"/></svg>
