<svg xmlns="http://www.w3.org/2000/svg" version="1" width="87" height="370" viewBox="0 0 87 336.370"><path d="M9 186c5 3 9 6 12 10 5-2 12-9 19-5-3 3-7 4-10 6l-9 7c-24 33 7 84 23 105-11-7-24-1-23 10 0 6 5 10 13 10 0-17 16-7 22 1 6 7 8 16 8 23-4 0-9 2-6 8 8 4 13-3 14-11 2-21-24-48-14-68 4-1 4 4 6 2 7-6 2-19-4-20-12-3-17 11-16 22-13-33 26-51 27-78 1-10-3-16-10-21 6-5 11-12 10-23-3-26-35-39-27-73 2 5 0 11 2 15 7 12 29 1 20-15-2 3-10 10-11 0-1-7 5-19 9-28 4-12 10-25 8-41-1-5-4-11-8-11s-5 3-5 6c1 4 3 1 7 4-1 6-3 15-8 22-7 8-24 18-24 0-24 4-6 37 11 20-12 18-32 38-32 69 1 14 5 29 12 38 5 5 11 7 15 12-5 5-13-4-18-5-3 4-7 8-13 9zm16 48c-3 24 8 49 15 63-19-20-31-83-2-101 1 5 8 2 10 0 3 2 6 3 6 8-10-4-14 12-2 11 8 0 10-11 6-17-3-4-11-3-12-9 16-6 28 16 18 28-3 4-11 5-17 6-12 13-14 45-8 64-10-18-8-50 2-66-3-4-4-10-4-14-6 7-11 16-12 27zM42 75c-14 20-24 67-5 89 1-5 5-7 7-10-12-15-15-52-2-69-10 21-4 54 8 67 26-3 22 40-4 31 5-5 16-7 14-17-1-11-18-7-14 1 1 3 4 2 8 4-1 4-3 5-6 6-3-1-2-5-5-5-4 0-3 3-6 2-25-23-14-78 5-99z"/></svg>
