<?xml version="1.0" encoding="UTF-8" standalone="no"?>
<!-- Created with Inkscape (http://www.inkscape.org/) -->

<svg
   xmlns:dc="http://purl.org/dc/elements/1.1/"
   xmlns:cc="http://creativecommons.org/ns#"
   xmlns:rdf="http://www.w3.org/1999/02/22-rdf-syntax-ns#"
   xmlns:svg="http://www.w3.org/2000/svg"
   xmlns="http://www.w3.org/2000/svg"
   xmlns:sodipodi="http://sodipodi.sourceforge.net/DTD/sodipodi-0.dtd"
   xmlns:inkscape="http://www.inkscape.org/namespaces/inkscape"
   width="135.4055mm"
   height="134.05911mm"
   viewBox="0 0 135.4055 134.05911"
   version="1.1"
   id="svg30629"
   inkscape:version="0.92.3 (2405546, 2018-03-11)"
   sodipodi:docname="cocktail1.svg">
  <defs
     id="defs30623" />
  <sodipodi:namedview
     id="base"
     pagecolor="#ffffff"
     bordercolor="#666666"
     borderopacity="1.0"
     inkscape:pageopacity="0.0"
     inkscape:pageshadow="2"
     inkscape:zoom="0.35"
     inkscape:cx="-199.82989"
     inkscape:cy="161.91147"
     inkscape:document-units="mm"
     inkscape:current-layer="layer1"
     showgrid="false"
     fit-margin-top="0"
     fit-margin-left="0"
     fit-margin-right="0"
     fit-margin-bottom="0"
     inkscape:window-width="1920"
     inkscape:window-height="1017"
     inkscape:window-x="-8"
     inkscape:window-y="-8"
     inkscape:window-maximized="1" />
  <metadata
     id="metadata30626">
    <rdf:RDF>
      <cc:Work
         rdf:about="">
        <dc:format>image/svg+xml</dc:format>
        <dc:type
           rdf:resource="http://purl.org/dc/dcmitype/StillImage" />
        <dc:title></dc:title>
      </cc:Work>
    </rdf:RDF>
  </metadata>
  <g
     inkscape:label="Layer 1"
     inkscape:groupmode="layer"
     id="layer1"
     transform="translate(-35.862731,-57.613303)">
    <g
       id="g30213"
       style="fill:#323200;fill-opacity:1"
       transform="matrix(0.26458333,0,0,0.26458333,-580.36555,-246.77218)">
      <g
         style="fill:#323200;fill-opacity:1"
         transform="matrix(4.0146743,0,0,-3.0291483,2588.3694,1386.7039)"
         id="g985">
        <path
           inkscape:connector-curvature="0"
           id="path987"
           style="fill:#323200;fill-opacity:1;fill-rule:nonzero;stroke:none"
           d="m 0,0 c -0.016,-0.007 -0.032,-0.011 -0.047,-0.017 0.009,-0.004 0.018,-0.008 0.028,-0.011 z" />
      </g>
      <g
         style="fill:#323200;fill-opacity:1"
         transform="matrix(4.0146743,0,0,-3.0291483,2824.3163,1632.3263)"
         id="g989">
        <path
           inkscape:connector-curvature="0"
           id="path991"
           style="fill:#323200;fill-opacity:1;fill-rule:nonzero;stroke:none"
           d="m 0,0 c -1.062,2.13 -2.091,4.194 -3.267,6.553 0.406,0.505 0.828,1.029 1.377,1.71 0.099,-1.116 0.175,-1.965 0.269,-3.017 0.82,0.364 1.382,0.613 2.211,0.982 C 0.278,5.125 0.033,4.256 -0.255,3.241 0.444,3.117 0.915,3.033 1.419,2.944 0.983,2.038 0.55,1.142 0,0 m -4.669,-6.258 c -3.54,-0.376 -7.116,-0.607 -10.672,-0.554 -2.038,0.03 -4.089,0.656 -6.091,1.176 -1.351,0.35 -2.574,1.035 -2.577,2.956 2.509,2.668 4.811,5.533 7.539,7.908 3.042,2.647 6.664,3.922 10.588,1.719 2.56,-1.437 4.113,-3.712 4.677,-6.802 -0.194,-0.372 -0.452,-0.867 -0.737,-1.413 0.3,-0.327 0.598,-0.652 0.871,-0.951 -0.215,-2.089 -1.524,-3.818 -3.598,-4.039 m -21.923,3.885 c -0.282,-0.223 -0.658,-0.329 -1.12,-0.553 -0.196,0.692 -0.349,1.233 -0.441,1.555 -0.932,0.282 -1.744,0.527 -2.556,0.773 l 0.029,-0.032 c -2.689,0.366 -4.922,1.898 -6.132,4.031 -1.719,3.032 -2.763,6.457 -2.091,10.125 0.435,2.378 1.673,3.513 4.101,3.541 0.845,0.009 1.727,0.111 2.53,-0.083 4.534,-1.096 9.177,-0.478 13.746,-0.965 0.702,-0.075 1.408,-0.203 2.089,-0.392 1.225,-0.34 1.569,-1.236 1.409,-2.418 -0.573,-4.223 -2.466,-7.801 -5.536,-10.687 -1.881,-1.769 -4,-3.285 -6.028,-4.895 m -7.032,0.009 c -4.686,-1.128 -9.4,-2 -14.262,-1.717 -2.008,0.116 -4.025,0.066 -6.034,0.166 -0.609,0.03 -1.205,0.308 -1.806,0.473 0.003,0.002 0.025,0.022 0.025,0.022 -0.058,0.009 -0.11,0.016 -0.154,0.022 0.037,-0.013 0.079,-0.028 0.125,-0.045 -0.343,-0.245 -0.688,-0.673 -1.027,-0.668 -2.601,0.035 -5.201,0.148 -7.799,0.28 -0.261,0.014 -0.508,0.318 -0.761,0.488 0.01,0.16 0.02,0.32 0.03,0.48 1.029,0.063 2.137,0.4 3.075,0.137 3.086,-0.866 6,10e-4 8.974,0.591 -2.122,0.951 -4.373,0.348 -6.609,0.458 0.757,1.279 3.235,2.766 4.993,2.888 2.466,0.171 4.944,0.187 7.413,0.339 0.975,0.06 1.94,0.307 2.909,0.469 -0.021,0.203 -0.043,0.405 -0.064,0.608 -3.121,0.035 -6.243,0.07 -9.364,0.105 l -0.018,0.466 c 3.562,1.769 7.657,0.327 11.378,1.625 -0.173,1.132 -0.912,0.837 -1.599,0.806 -2.639,-0.117 -5.28,-0.186 -8.134,-0.28 0.055,0.881 0.083,1.342 0.108,1.748 3.01,-0.034 5.853,-0.066 9.017,-0.101 1.277,-1.626 2.75,-3.502 4.472,-5.694 -2.423,-0.496 -4.576,-0.937 -6.729,-1.377 0.004,-0.151 0.007,-0.301 0.011,-0.451 0.323,-0.102 0.652,-0.308 0.968,-0.29 1.814,0.103 3.679,0.034 5.425,0.449 2.499,0.595 4.506,-0.425 6.962,-1.381 -0.72,-0.296 -1.108,-0.516 -1.525,-0.616 m -11.387,14.082 c 0.227,-0.584 0.253,-1.247 0.392,-1.987 -2.303,0.026 -4.074,0.046 -6.03,0.068 -0.059,0.958 -0.15,1.713 -0.143,2.468 0.041,4.865 0.113,9.73 0.156,14.595 0.023,2.667 0.007,2.672 2.109,4.604 0.443,-0.245 0.928,-0.513 1.631,-0.902 -0.034,-3.037 -0.053,-6.077 -0.105,-9.117 -0.059,-3.394 0.767,-6.596 1.99,-9.729 m -12.677,27.944 c -1.027,0.397 -1.817,1.409 -2.835,2.243 0.397,0.481 0.684,0.827 1.103,1.334 -0.774,0.089 -1.333,0.153 -1.952,0.223 -0.324,0.394 -0.647,0.787 -1.035,1.26 0.324,0.338 0.605,0.631 1.023,1.068 -0.747,0.123 -1.302,0.214 -1.863,0.307 -0.352,0.512 -0.679,0.988 -0.994,1.447 0.806,0.688 1.547,1.321 2.287,1.954 -1.115,-0.234 -2.23,-0.468 -3.345,-0.701 -0.056,0.18 -0.111,0.361 -0.167,0.541 0.552,0.344 1.103,0.688 1.93,1.203 -0.989,0.011 -1.715,0.019 -2.588,0.029 -0.316,0.583 -0.604,1.116 -0.896,1.655 0.984,0.506 1.798,0.924 2.85,1.465 -1.319,0.519 -2.415,-0.785 -3.528,0.418 1.044,0.6 1.944,1.118 2.845,1.636 -0.041,0.094 -0.081,0.188 -0.122,0.282 -0.901,-0.199 -1.802,-0.398 -2.837,-0.626 -0.066,0.539 -0.103,0.84 -0.159,1.302 0.95,0.295 1.846,0.574 3.018,0.938 -1.015,0.477 -1.781,0.838 -2.79,1.312 0.528,0.793 0.934,1.402 1.382,2.075 -0.586,0.162 -1.281,0.354 -2.106,0.582 0.085,1.08 0.16,2.033 0.247,3.14 1.172,0.43 2.299,0.843 3.425,1.257 l -0.03,0.312 c -0.939,-0.085 -1.878,-0.17 -2.974,-0.27 0.013,1.121 0.023,2.053 0.035,3.091 0.887,0.143 1.628,0.261 2.817,0.452 -0.963,0.38 -1.53,0.604 -2.316,0.913 0.272,0.971 0.541,1.933 0.803,2.871 1.948,0.459 3.747,0.882 5.546,1.306 -0.01,0.147 -0.02,0.295 -0.029,0.442 -1.482,0.016 -2.965,0.033 -4.689,0.052 0.128,0.81 0.212,1.338 0.296,1.862 1.905,0.547 3.683,1.057 5.461,1.567 -0.005,0.12 -0.011,0.24 -0.016,0.36 -1.486,0.017 -2.971,0.033 -4.457,0.05 -0.026,0.17 -0.052,0.34 -0.078,0.511 1.493,1.672 3.81,0.808 5.608,1.544 -0.624,0.212 -1.242,0.557 -1.875,0.587 -0.886,0.042 -1.784,-0.162 -2.897,-0.285 0.101,0.764 0.18,1.366 0.31,2.348 0.346,-0.503 0.52,-0.756 0.765,-1.111 2.235,0.149 3.836,1.759 5.718,2.761 -0.981,-0.153 -1.963,-0.292 -2.939,-0.47 -0.812,-0.148 -1.615,-0.346 -2.786,-0.602 0.239,0.91 0.39,1.485 0.469,1.784 2.869,2.145 5.836,2.871 9.071,2.754 0.759,-0.028 1.539,0.239 2.293,0.433 3.127,0.802 6.284,0.837 9.713,0.528 -1.053,-1.824 -2.307,-2.67 -4.298,-2.649 -2.263,0.025 -4.532,-0.208 -6.793,-0.396 -0.47,-0.039 -0.917,-0.369 -1.343,-0.785 3.022,-0.235 6.004,0.917 9.202,0.308 -1.281,-2.794 -4.177,-1.441 -5.954,-2.556 0.015,-0.163 0.031,-0.325 0.047,-0.488 0.935,-0.054 1.87,-0.109 3.129,-0.183 -0.541,-0.72 -0.875,-1.252 -1.295,-1.705 -1.583,-1.709 -1.51,-3.682 0.42,-4.939 4.052,-2.641 8.607,-4.012 13.342,-4.727 0.944,-0.143 2.007,0.43 3.002,0.717 0.606,0.175 1.187,0.435 1.829,0.675 0.607,-0.86 1.12,-1.586 1.816,-2.572 -0.032,-2.856 0.029,-5.964 -0.127,-9.06 -0.176,-3.509 -0.909,-6.954 -2.045,-10.266 -1.659,-4.835 -4.767,-8.407 -9.638,-10.326 -1.85,-0.728 -3.639,-1.622 -5.424,-2.505 -1.885,-0.934 -3.835,-1.221 -5.859,-0.682 -2.261,0.603 -4.549,1.163 -6.723,2.005 m -1.666,55.384 c 2.67,1.003 5.255,2.319 8.287,1.432 0.298,-0.087 0.681,0.123 1.025,0.191 2.504,0.499 5.008,0.997 7.512,1.495 -1.351,-0.049 -2.702,-0.143 -4.052,-0.127 -0.627,0.008 -1.252,0.232 -2.065,0.395 0.382,1.128 0.647,1.908 0.983,2.901 3.783,-0.261 7.49,0.838 11.412,0.004 -0.049,-0.702 -0.086,-1.24 -0.122,-1.77 -2.172,-0.498 -4.182,-0.959 -6.192,-1.419 1.99,0.189 3.981,0.378 6.202,0.589 0.145,-0.768 0.291,-1.546 0.446,-2.367 -3.257,-1.373 -6.49,-1.319 -9.67,-0.889 -1.857,0.251 -3.46,0.254 -4.585,-0.838 -1.687,-0.129 -3.047,-0.233 -4.406,-0.338 -0.005,-0.218 -0.01,-0.437 -0.014,-0.656 0.832,-0.079 1.688,-0.06 2.488,-0.265 0.728,-0.186 1.393,-0.616 1.909,-0.855 0.697,0.636 1.509,1.377 2.455,2.239 4.116,-1.059 8.199,-0.126 12.276,0.519 0.148,-1.654 0.148,-1.654 -3.024,-4.069 -7.816,-0.743 -15.193,-1.445 -22.956,-2.183 0.714,2.053 1.379,3.962 2.091,6.011 m -1.231,19.388 c -0.634,1.786 -1.317,3.709 -2.088,5.882 3.212,0.764 6.116,-0.105 9.028,-0.149 2.884,-0.043 5.775,0.397 8.73,0.63 0.811,-2.041 -0.34,-3.318 -1.092,-4.68 -4.792,-0.553 -9.524,-1.1 -14.578,-1.683 m 5.4,10.329 c 0.391,-0.859 0.807,-1.774 1.219,-2.679 -2.047,-1.057 -7.384,-0.466 -8.688,0.849 1.265,1.099 3.095,1.556 7.469,1.83 m 4.639,0.85 c 1.02,-0.239 5.216,-0.404 6.264,-0.724 -0.562,-0.342 -0.85,-0.517 -1.073,-0.653 0.359,-0.223 0.718,-0.446 1.205,-0.749 -0.329,-0.59 -0.596,-1.069 -0.916,-1.642 -1.904,0.021 -3.703,0.041 -5.673,0.063 -0.18,1.031 -0.377,2.155 -0.579,3.309 0.283,0.145 0.531,0.273 0.772,0.396 m 15.523,-12.515 c -3.081,-0.786 -6.105,-1.84 -9.611,-0.803 0.44,0.973 0.818,1.81 1.216,2.691 2.951,-0.447 5.887,-0.052 8.395,-1.888 m -7.627,6.409 c 0.29,0.666 1.133,1.487 1.778,1.532 2.31,0.162 4.64,0.022 7.377,-0.009 -0.436,-2.109 -0.851,-4.116 -1.304,-6.307 -2.195,0.31 -4.196,0.593 -6.197,0.875 -0.015,-0.093 -0.03,-0.186 -0.046,-0.278 -0.727,0.25 -1.454,0.501 -2.32,0.8 0.222,1.163 0.267,2.362 0.712,3.387 m 3.147,6.109 c 2.198,-0.797 5.778,-0.564 7.301,-1.398 -0.518,-0.624 -0.99,-1.193 -1.5,-1.807 -2.29,-0.139 -4.594,-0.278 -7.421,-0.45 0.678,1.53 1.151,2.596 1.62,3.655 m -6.129,-17.551 c 0.009,0.804 0.018,1.617 0.03,2.715 3.346,0.928 6.667,0.407 10.345,-0.003 -1.236,-1.651 -6.949,-2.982 -10.375,-2.712 m 9.146,-1.003 c -2.468,-2.068 -5.567,-1.387 -8.412,-1.789 -0.528,-0.075 -1.137,0.419 -1.656,0.978 3.314,1.134 6.545,2.169 10.068,0.811 m -10.666,4.684 c -4.208,-0.567 -8.157,-1.098 -12.296,-1.655 -0.294,0.986 -0.562,1.886 -0.906,3.039 3.741,1.048 7.288,1.995 11.151,1.7 0.143,-0.601 0.731,-0.718 0.923,-0.124 0.632,0.084 1.248,0.165 2.41,0.319 -0.534,-1.365 -0.922,-2.358 -1.282,-3.279 m -10.961,-6.908 c -0.364,1.444 -0.631,2.501 -0.875,3.47 1.481,1.904 8.247,3.14 11.808,2.249 -0.262,-0.831 -0.525,-1.665 -0.853,-2.702 -3.175,-0.95 -6.518,-1.951 -10.08,-3.017 m 3.786,-0.132 c 1.94,1.738 4.169,1.101 6.054,1.708 -1.423,-2.195 -3.648,-1.513 -6.054,-1.708 m 4.655,-5.981 c -2.625,-1.723 -5.591,-1.582 -8.457,-2.052 -0.863,1.102 -0.26,2.112 0.069,3.398 2.054,0.443 4.176,0.902 6.297,1.36 0.002,0.058 0.004,0.117 0.006,0.175 -1.987,0.022 -3.975,0.045 -6.151,0.069 -0.062,0.52 -0.127,1.056 -0.235,1.961 2.988,0.119 5.788,0.23 8.889,0.354 -0.424,-0.973 -0.793,-1.817 -1.126,-2.58 0.239,-0.906 0.466,-1.767 0.708,-2.685 m 2.544,5.371 c 3.471,0.404 6.942,0.806 10.639,1.235 0.077,-0.916 0.127,-1.523 0.192,-2.299 -0.729,-0.264 -1.365,-0.653 -2.027,-0.705 -2.65,-0.21 -5.308,-0.328 -7.964,-0.453 -0.687,-0.033 -1.356,0.06 -1.232,1.038 -0.435,0.582 -0.677,1.1 0.392,1.184 m 14.555,-18.158 c -1.724,-0.271 -3.014,-0.473 -4.305,-0.676 -0.045,0.108 -0.09,0.217 -0.135,0.325 0.895,0.585 1.789,1.17 2.736,1.789 -1.295,0.522 -2.025,0.105 -4.475,-2.557 -1.291,-0.118 -2.791,-0.256 -4.291,-0.394 -0.105,0.225 -0.211,0.45 -0.317,0.675 0.771,0.735 1.543,1.47 2.331,2.221 1.347,2.479 4.119,3.36 6.248,5.518 0.825,-2.577 1.479,-4.622 2.208,-6.901 m 2.94,-11.271 c -2.723,-2.967 -10.311,-1.323 -13.5,0.797 0.023,0.014 0.047,0.028 0.069,0.042 -0.034,-0.007 -0.069,-0.014 -0.103,-0.021 v 0 c 0,0 0,0 0,0 l 0.024,-0.027 c -1.857,0.459 -3.572,1.173 -4.842,2.605 0.09,2.828 2.18,5.413 4.374,5.283 -0.155,-0.544 -0.3,-1.055 -0.597,-2.095 3.442,3.152 7.448,2.863 11.149,3.444 1.2,-1.231 -0.187,-1.672 -0.29,-2.117 -1.181,-0.706 -2.123,-1.269 -3.065,-1.831 0.097,-0.194 0.195,-0.387 0.293,-0.58 1.376,0.582 2.753,1.163 4.412,1.864 0.696,-2.469 1.404,-4.98 2.076,-7.364 m 1.204,-55.093 c 0.076,0.63 0.134,1.107 0.192,1.584 0.101,0.087 0.203,0.173 0.305,0.26 0.464,-0.747 0.928,-1.494 1.562,-2.515 0.69,1.182 1.092,1.87 1.585,2.714 0.283,-0.861 0.5,-1.52 0.766,-2.33 0.54,0.25 0.977,0.453 1.427,0.662 0.524,-0.475 1.074,-0.971 1.68,-1.519 -0.483,-1.545 -1.863,-1.012 -2.921,-1.101 -1.094,-0.092 -2.203,0.002 -3.579,0.017 -1.965,0.916 -1.965,0.916 -2.792,2.813 0.635,-0.209 1.133,-0.374 1.775,-0.585 M 4.111,4.562 C 4.003,4.745 3.992,4.764 3.884,4.947 3.039,4.843 2.199,4.74 1.267,4.625 1.419,5.68 2.974,6.39 1.742,7.805 1,7.573 0.178,7.317 -0.803,7.011 c 0.012,1.028 0.023,2.005 0.034,2.982 -0.237,0.1 -0.252,0.106 -0.489,0.205 -1.024,-1.029 -2.05,-2.059 -3.148,-3.162 -3.502,2.172 -7.099,2.3 -10.979,0.29 0.387,1.683 0.474,3.032 1.003,4.177 1.373,2.971 -0.449,5.187 -3.892,5.529 -0.462,0.046 -0.915,0.17 -1.49,0.28 0.491,1.034 0.861,1.813 1.325,2.79 -0.995,0.079 -1.674,0.134 -2.372,0.19 0.052,0.894 0.099,1.693 0.177,3.014 -1.153,-0.81 -1.899,-1.333 -2.677,-1.88 -0.457,0.913 -0.857,1.71 -1.257,2.508 -0.217,0.002 -0.257,0.002 -0.474,0.005 l -1.395,-2.649 c -0.977,0.737 -1.865,1.407 -2.944,2.222 -0.28,-0.877 -0.426,-1.333 -0.562,-1.757 -0.915,0.266 -1.743,0.506 -2.571,0.747 -0.134,-0.167 -0.146,-0.181 -0.28,-0.347 0.367,-0.663 0.749,-1.318 1.099,-1.99 0.334,-0.642 0.636,-1.302 1.07,-2.197 -1.681,0.019 -2.968,0.056 -4.254,0.043 -2.507,-0.026 -4.586,-1.643 -4.89,-4.145 -0.2,-1.647 -0.016,-3.366 0.194,-5.028 0.161,-1.268 0.631,-2.496 0.964,-3.742 -0.088,-0.036 -0.176,-0.071 -0.264,-0.107 -0.805,0.736 -1.61,1.472 -2.222,2.032 -0.459,1.137 -0.854,2.024 -1.178,2.936 -0.533,1.504 -1.244,2.99 -1.48,4.545 -0.396,2.617 -0.345,5.302 -0.728,7.922 -0.466,3.181 0.311,5.974 1.664,8.836 1.771,3.747 5.397,5.529 8.064,8.311 0.65,0.678 1.505,1.159 2.039,1.56 1.833,3.671 3.557,7.124 5.32,10.654 0.136,0.783 0.239,1.689 0.456,2.568 1.013,4.113 0.658,8.265 0.213,12.379 -0.294,2.724 -0.688,5.439 -1.253,8.12 -0.773,3.674 -1.258,7.454 -2.253,11.086 -0.722,2.635 -1.845,5.157 -2.63,7.776 -1.056,3.525 -1.978,6.963 -1.434,10.855 0.893,6.4 2.04,12.695 4.131,18.988 -0.448,0.649 -0.957,1.389 -1.595,2.315 -1.722,0.02 -5.271,0.34 -7.669,0.466 0.042,0.652 0.066,1.251 0.231,1.808 1.129,3.804 2.327,7.588 3.496,11.38 0.98,3.175 1.912,6.364 2.952,9.519 0.408,1.237 0.975,2.465 2.526,2.705 4.502,0.696 8.992,1.491 13.509,2.07 5.098,0.653 10.22,1.114 15.573,1.684 0.091,0.411 0.182,0.826 0.28,1.275 0.282,1.286 -0.83,2.556 -2.113,2.264 -0.007,-0.001 -0.014,-0.003 -0.021,-0.004 -2.137,-0.514 -14.29,-2.161 -17.84,-2.918 -4.746,-0.578 -9.286,-1.131 -13.756,-1.675 -0.934,-3.216 -1.868,-6.368 -2.761,-9.531 -0.545,-1.932 -0.753,-4.01 -1.594,-5.795 -1.676,-3.559 -2.677,-7.304 -3.694,-11.061 -0.562,-2.073 -2.365,-2.244 -6.07,-0.718 -0.926,0.381 -1.947,-0.299 -1.939,-1.3 v -0.008 c -0.394,0.112 -0.793,0.224 -1.257,0.356 -2.764,9.764 -5.526,19.516 -8.272,29.216 -1.749,0.238 -1.796,0.216 -3.208,-1.371 2.45,-9.443 5.851,-18.528 8.182,-28.172 -2.192,-0.403 -3.978,-0.727 -5.763,-1.059 -3.489,-0.65 -4.578,-2.526 -3.618,-5.676 1.283,-4.21 2.456,-8.459 3.486,-12.738 0.802,-3.328 0.814,-6.694 -0.183,-10.05 -0.895,-3.011 -1.486,-6.115 -2.415,-9.114 -1.116,-3.605 -2.524,-7.12 -3.665,-10.718 -1.115,-3.516 -2.407,-7.034 -2.965,-10.653 -0.519,-3.366 -0.311,-6.873 -0.143,-10.304 0.074,-1.5 0.749,-3.004 1.323,-4.438 0.616,-1.535 1.377,-3.019 2.169,-4.474 0.451,-0.828 0.977,-1.613 1.586,-2.333 1.149,-1.355 2.424,-2.6 3.629,-3.908 0.697,-0.756 1.307,-1.596 2.044,-2.308 1.304,-1.26 2.756,-2.375 3.989,-3.697 0.901,-0.965 1.549,-2.165 2.284,-3.222 0.474,-3.166 0.958,-6.367 1.428,-9.57 0.047,-0.32 0.009,-0.652 0.02,-0.978 0.07,-1.95 0.136,-3.901 0.215,-5.851 0.116,-2.88 -0.459,-5.481 -2.299,-7.864 -2.375,-3.075 -5.501,-5.102 -8.765,-6.993 -0.983,-0.569 -2.073,-0.953 -3.401,-1.551 -1.071,-1.409 -1.025,-1.914 0.113,-3.487 0.862,-1.191 2.047,-1.534 3.372,-1.679 7.183,-0.783 14.328,-1.799 21.61,-0.721 5.453,0.807 10.925,1.313 15.538,4.06 1.004,-1.042 1.797,-2.328 2.948,-2.944 1.518,-0.812 3.286,-1.311 5.003,-1.568 4.211,-0.63 8.447,-0.508 12.648,0.225 2.553,0.446 4.32,2.219 4.851,4.742 0.093,0.441 0.199,0.879 0.301,1.33 1.019,0.594 2.003,1.168 3.199,1.865 C 2.664,0.798 2.225,1.068 1.782,1.341 2.609,2.485 3.36,3.524 4.111,4.562" />
      </g>
      <g
         style="fill:#323200;fill-opacity:1"
         transform="matrix(4.0146743,0,0,-3.0291483,2596.5702,1373.6116)"
         id="g993">
        <path
           inkscape:connector-curvature="0"
           id="path995"
           style="fill:#323200;fill-opacity:1;fill-rule:nonzero;stroke:none"
           d="m 0,0 c -0.023,-0.012 -0.046,-0.027 -0.069,-0.039 0.035,0.005 0.069,0.01 0.104,0.016 z" />
      </g>
      <g
         style="fill:#323200;fill-opacity:1"
         transform="matrix(4.0146743,0,0,-3.0291483,2603.9705,1450.2312)"
         id="g997">
        <path
           inkscape:connector-curvature="0"
           id="path999"
           style="fill:#323200;fill-opacity:1;fill-rule:nonzero;stroke:none"
           d="M 0,0 C -0.072,1.217 0.139,2.472 0.391,3.674 0.486,4.124 1.035,4.477 1.392,4.871 1.445,4.848 1.493,4.828 1.53,4.812 1.5,4.835 1.461,4.864 1.418,4.897 L 1.414,4.893 C 1.415,4.894 1.416,4.895 1.417,4.896 L 1.391,4.872 C 1.505,5.451 1.464,6.135 1.769,6.584 2.236,7.271 2.941,7.795 3.846,8.683 9.5,8.712 22.108,1.778 21.198,-0.861 c -2.034,-5.901 -5.489,-10.903 -9.908,-15.26 -0.636,-0.627 -2.959,-1.548 -2.588,-1.806 -0.818,-0.647 -1.547,-1.223 -2.24,-1.771 -0.409,0.133 -0.745,0.135 -0.88,0.301 -2.205,2.721 -4.537,5.352 -4.75,9.147 C 0.639,-6.828 0.204,-3.421 0,0 m 6.079,-21.143 c 5.487,2.885 9.362,7.045 12.414,11.956 1.572,2.53 2.694,5.34 4.004,8.032 0.511,1.05 0.24,1.986 -0.389,2.933 -2.177,3.274 -5.617,4.494 -9.076,5.719 -1.96,0.694 -3.94,1.36 -5.828,2.221 -2.013,0.918 -4.332,0.47 -5.813,-1.141 -2.678,-2.91 -3.428,-6.325 -2.935,-10.124 0.402,-3.098 0.987,-6.183 1.186,-9.293 0.235,-3.696 2.761,-6.181 4.419,-9.119 0.32,-0.566 1.28,-0.771 2.018,-1.184" />
      </g>
      <g
         style="fill:#323200;fill-opacity:1"
         transform="matrix(4.0146743,0,0,-3.0291483,2623.0626,1394.4052)"
         id="g1001">
        <path
           inkscape:connector-curvature="0"
           id="path1003"
           style="fill:#323200;fill-opacity:1;fill-rule:nonzero;stroke:none"
           d="m 0,0 c -0.006,0.134 -0.012,0.268 -0.018,0.401 l -8,0.09 C -8.006,0.288 -7.995,0.086 -7.983,-0.117 -5.315,-0.265 -2.649,-0.38 0,0" />
      </g>
      <g
         style="fill:#323200;fill-opacity:1"
         transform="matrix(4.0146743,0,0,-3.0291483,2623.5617,1386.5897)"
         id="g1005">
        <path
           inkscape:connector-curvature="0"
           id="path1007"
           style="fill:#323200;fill-opacity:1;fill-rule:nonzero;stroke:none"
           d="M 0,0 C -1.97,0.206 -3.956,0.885 -5.87,-0.498 -3.904,-0.52 -1.939,-0.542 0.027,-0.564 0.018,-0.376 0.009,-0.188 0,0" />
      </g>
      <g
         style="fill:#323200;fill-opacity:1"
         transform="matrix(4.0146743,0,0,-3.0291483,2576.1215,1482.3223)"
         id="g1009">
        <path
           inkscape:connector-curvature="0"
           id="path1011"
           style="fill:#323200;fill-opacity:1;fill-rule:nonzero;stroke:none"
           d="M 0,0 C 0.207,-0.041 0.129,-0.025 0.002,0 0.044,0.006 0.077,0.01 0.102,0.013 0.081,0.01 0.054,0.007 0.002,0 -0.025,0.006 -0.053,0.011 -0.083,0.017 L -0.084,0.019 C -0.1,0.005 -0.116,-0.009 -0.132,-0.023 c 0.023,0.005 0.047,0.01 0.07,0.015 C -0.04,-0.005 -0.021,-0.003 0,0" />
      </g>
      <g
         style="fill:#323200;fill-opacity:1"
         transform="matrix(4.0146743,0,0,-3.0291483,2728.718,1611.8423)"
         id="g1013">
        <path
           inkscape:connector-curvature="0"
           id="path1015"
           style="fill:#323200;fill-opacity:1;fill-rule:nonzero;stroke:none"
           d="M 0,0 C -0.528,-0.958 -1.215,-1.961 -0.267,-3.624 0.421,-2.157 0.94,-1.05 1.459,0.057 1.341,0.196 1.223,0.334 1.105,0.473 0.725,0.322 0.153,0.277 0,0" />
      </g>
      <g
         style="fill:#323200;fill-opacity:1"
         transform="matrix(4.0146743,0,0,-3.0291483,2746.0534,1612.9858)"
         id="g1017">
        <path
           inkscape:connector-curvature="0"
           id="path1019"
           style="fill:#323200;fill-opacity:1;fill-rule:nonzero;stroke:none"
           d="m 0,0 c -1.578,-0.134 -2.239,-1.051 -2.048,-3.373 0.977,1.168 1.733,2.071 2.489,2.974 C 0.294,-0.266 0.147,-0.133 0,0" />
      </g>
      <g
         style="fill:#323200;fill-opacity:1"
         transform="matrix(4.0146743,0,0,-3.0291483,2753.008,1591.2956)"
         id="g1021">
        <path
           inkscape:connector-curvature="0"
           id="path1023"
           style="fill:#323200;fill-opacity:1;fill-rule:nonzero;stroke:none"
           d="M 0,0 C -1.179,-1.796 -1.23,-2.283 -0.447,-3.416 0.679,-1.814 0.769,-1.272 0,0" />
      </g>
      <g
         style="fill:#323200;fill-opacity:1"
         transform="matrix(4.0146743,0,0,-3.0291483,2727.3836,1594.4704)"
         id="g1025">
        <path
           inkscape:connector-curvature="0"
           id="path1027"
           style="fill:#323200;fill-opacity:1;fill-rule:nonzero;stroke:none"
           d="M 0,0 C -0.63,-1.416 -1.079,-2.559 -0.317,-3.834 0.41,-2.697 0.983,-1.553 0,0" />
      </g>
      <g
         style="fill:#323200;fill-opacity:1"
         transform="matrix(4.0146743,0,0,-3.0291483,2738.7704,1584.9546)"
         id="g1029">
        <path
           inkscape:connector-curvature="0"
           id="path1031"
           style="fill:#323200;fill-opacity:1;fill-rule:nonzero;stroke:none"
           d="M 0,0 C -0.123,-1.371 -0.224,-2.5 -0.326,-3.629 -0.183,-3.645 -0.041,-3.661 0.101,-3.677 1.368,-1.722 1.415,-1.105 0,0" />
      </g>
      <g
         style="fill:#323200;fill-opacity:1"
         transform="matrix(4.0146743,0,0,-3.0291483,2717.0365,1635.1404)"
         id="g1033">
        <path
           inkscape:connector-curvature="0"
           id="path1035"
           style="fill:#323200;fill-opacity:1;fill-rule:nonzero;stroke:none"
           d="M 0,0 C 1.52,0.613 2.221,1.266 1.935,2.728 0.443,2.491 0.327,1.433 0,0" />
      </g>
      <g
         style="fill:#323200;fill-opacity:1"
         transform="matrix(4.0146743,0,0,-3.0291483,2701.6684,1613.545)"
         id="g1037">
        <path
           inkscape:connector-curvature="0"
           id="path1039"
           style="fill:#323200;fill-opacity:1;fill-rule:nonzero;stroke:none"
           d="m 0,0 c -0.01,-0.928 -0.021,-1.857 -0.031,-2.785 0.202,0.01 0.405,0.02 0.607,0.03 C 0.62,-1.835 1.484,-0.886 0,0" />
      </g>
      <g
         style="fill:#323200;fill-opacity:1"
         transform="matrix(4.0146743,0,0,-3.0291483,2688.866,1610.4785)"
         id="g1041">
        <path
           inkscape:connector-curvature="0"
           id="path1043"
           style="fill:#323200;fill-opacity:1;fill-rule:nonzero;stroke:none"
           d="m 0,0 c -0.039,-1.005 -0.281,-2.048 0.431,-2.918 0.181,0.024 0.361,0.049 0.542,0.073 -0.07,0.977 -0.14,1.954 -0.21,2.931 C 0.508,0.057 0.254,0.029 0,0" />
      </g>
      <g
         style="fill:#323200;fill-opacity:1"
         transform="matrix(4.0146743,0,0,-3.0291483,2702.4279,1593.2488)"
         id="g1045">
        <path
           inkscape:connector-curvature="0"
           id="path1047"
           style="fill:#323200;fill-opacity:1;fill-rule:nonzero;stroke:none"
           d="M 0,0 C -0.011,-0.945 -0.02,-1.759 -0.029,-2.573 1.064,-1.022 1.064,-1.022 0,0" />
      </g>
      <g
         style="fill:#323200;fill-opacity:1"
         transform="matrix(4.0146743,0,0,-3.0291483,2674.5007,1592.6917)"
         id="g1049">
        <path
           inkscape:connector-curvature="0"
           id="path1051"
           style="fill:#323200;fill-opacity:1;fill-rule:nonzero;stroke:none"
           d="m 0,0 c 0.187,-0.87 0.374,-1.739 0.56,-2.609 0.202,0.041 0.403,0.081 0.605,0.122 C 1.204,-1.573 1.249,-0.658 0,0" />
      </g>
      <g
         style="fill:#323200;fill-opacity:1"
         transform="matrix(4.0146743,0,0,-3.0291483,2714.5767,1612.4869)"
         id="g1053">
        <path
           inkscape:connector-curvature="0"
           id="path1055"
           style="fill:#323200;fill-opacity:1;fill-rule:nonzero;stroke:none"
           d="M 0,0 C 0.078,-1.077 0.128,-1.76 0.178,-2.443 1.117,-1.198 1.117,-1.198 0,0" />
      </g>
      <g
         style="fill:#323200;fill-opacity:1"
         transform="matrix(4.0146743,0,0,-3.0291483,2716.6784,1589.0522)"
         id="g1057">
        <path
           inkscape:connector-curvature="0"
           id="path1059"
           style="fill:#323200;fill-opacity:1;fill-rule:nonzero;stroke:none"
           d="M 0,0 C -0.075,-1.09 -0.129,-1.861 -0.182,-2.631 -0.018,-2.646 0.147,-2.661 0.311,-2.676 0.702,-1.907 1.32,-1.143 0,0" />
      </g>
      <g
         style="fill:#323200;fill-opacity:1"
         transform="matrix(4.0146743,0,0,-3.0291483,2690.3293,1591.9156)"
         id="g1061">
        <path
           inkscape:connector-curvature="0"
           id="path1063"
           style="fill:#323200;fill-opacity:1;fill-rule:nonzero;stroke:none"
           d="m 0,0 c -0.221,-0.008 -0.443,-0.015 -0.664,-0.023 0.074,-0.818 0.147,-1.637 0.221,-2.455 0.139,0.011 0.277,0.021 0.416,0.032 C -0.018,-1.63 -0.009,-0.815 0,0" />
      </g>
      <g
         style="fill:#323200;fill-opacity:1"
         transform="matrix(4.0146743,0,0,-3.0291483,2683.8745,1589.1661)"
         id="g1065">
        <path
           inkscape:connector-curvature="0"
           id="path1067"
           style="fill:#323200;fill-opacity:1;fill-rule:nonzero;stroke:none"
           d="M 0,0 C 0.433,0.632 0.801,1.168 1.239,1.808 -0.458,1.846 -0.514,1.759 0,0" />
      </g>
      <g
         style="fill:#323200;fill-opacity:1"
         transform="matrix(4.0146743,0,0,-3.0291483,2677.3683,1609.9924)"
         id="g1069">
        <path
           inkscape:connector-curvature="0"
           id="path1071"
           style="fill:#323200;fill-opacity:1;fill-rule:nonzero;stroke:none"
           d="m 0,0 c 0.238,-0.686 0.476,-1.372 0.714,-2.057 0.213,0.074 0.425,0.148 0.638,0.223 C 1.103,-1.149 0.853,-0.464 0.604,0.221 0.403,0.147 0.201,0.074 0,0" />
      </g>
      <g
         style="fill:#323200;fill-opacity:1"
         transform="matrix(4.0146743,0,0,-3.0291483,2758.3078,1624.4611)"
         id="g1073">
        <path
           inkscape:connector-curvature="0"
           id="path1075"
           style="fill:#323200;fill-opacity:1;fill-rule:nonzero;stroke:none"
           d="m 0,0 c -1.167,-0.868 -2.304,-1.782 -3.386,-2.753 -0.105,-0.094 0.198,-0.642 0.325,-0.993 1.325,1.041 2.652,2.083 4.175,3.28 C 0.538,-0.215 0.122,0.091 0,0" />
      </g>
      <g
         style="fill:#323200;fill-opacity:1"
         transform="matrix(4.0146743,0,0,-3.0291483,2750.2568,1648.3205)"
         id="g1077">
        <path
           inkscape:connector-curvature="0"
           id="path1079"
           style="fill:#323200;fill-opacity:1;fill-rule:nonzero;stroke:none"
           d="M 0,0 C 1.541,0.61 2.791,1.105 4.192,1.659 2.328,3.005 1.039,2.483 0,0" />
      </g>
      <g
         style="fill:#323200;fill-opacity:1"
         transform="matrix(4.0146743,0,0,-3.0291483,2767.2019,1648.7615)"
         id="g1081">
        <path
           inkscape:connector-curvature="0"
           id="path1083"
           style="fill:#323200;fill-opacity:1;fill-rule:nonzero;stroke:none"
           d="M 0,0 C 1.149,0.175 2.379,-0.435 3.362,0.695 1.545,1.946 0.495,1.745 0,0" />
      </g>
      <g
         style="fill:#323200;fill-opacity:1"
         transform="matrix(4.0146743,0,0,-3.0291483,2790.3814,1636.0915)"
         id="g1085">
        <path
           inkscape:connector-curvature="0"
           id="path1087"
           style="fill:#323200;fill-opacity:1;fill-rule:nonzero;stroke:none"
           d="M 0,0 C 1.398,0.273 2.419,0.473 3.579,0.699 2.128,2.27 1.456,2.159 0,0" />
      </g>
      <g
         style="fill:#323200;fill-opacity:1"
         transform="matrix(4.0146743,0,0,-3.0291483,2777.1591,1616.077)"
         id="g1089">
        <path
           inkscape:connector-curvature="0"
           id="path1091"
           style="fill:#323200;fill-opacity:1;fill-rule:nonzero;stroke:none"
           d="m 0,0 c -0.729,-0.363 -1.314,-0.943 -0.985,-2.206 1.006,0.634 1.836,1.157 2.667,1.679 -0.04,0.242 -0.08,0.483 -0.121,0.725 C 1.036,0.142 0.443,0.221 0,0" />
      </g>
      <g
         style="fill:#323200;fill-opacity:1"
         transform="matrix(4.0146743,0,0,-3.0291483,2750.9646,1635.2543)"
         id="g1093">
        <path
           inkscape:connector-curvature="0"
           id="path1095"
           style="fill:#323200;fill-opacity:1;fill-rule:nonzero;stroke:none"
           d="m 0,0 c -0.407,-0.069 -0.815,-0.138 -1.222,-0.207 -0.003,0.007 -0.007,0.016 -0.01,0.024 -0.013,-0.011 -0.027,-0.022 -0.041,-0.033 l 0.051,0.008 c -0.704,-0.411 -1.986,-0.375 -1.382,-2.13 1.052,0.693 1.952,1.287 2.853,1.881 C 0.166,-0.305 0.083,-0.152 0,0" />
      </g>
      <g
         style="fill:#323200;fill-opacity:1"
         transform="matrix(4.0146743,0,0,-3.0291483,2773.2504,1629.9417)"
         id="g1097">
        <path
           inkscape:connector-curvature="0"
           id="path1099"
           style="fill:#323200;fill-opacity:1;fill-rule:nonzero;stroke:none"
           d="M 0,0 C -1.728,-0.046 -2.013,-0.217 -2.459,-1.474 -0.94,-1.714 -0.35,-1.36 0,0" />
      </g>
      <g
         style="fill:#323200;fill-opacity:1"
         transform="matrix(4.0146743,0,0,-3.0291483,2792.7035,1647.9094)"
         id="g1101">
        <path
           inkscape:connector-curvature="0"
           id="path1103"
           style="fill:#323200;fill-opacity:1;fill-rule:nonzero;stroke:none"
           d="m 0,0 c 1.003,0.073 2.006,0.145 3.009,0.218 0,0.15 10e-4,0.3 10e-4,0.45 C 1.672,1.515 1.18,1.469 0,0" />
      </g>
      <g
         style="fill:#323200;fill-opacity:1"
         transform="matrix(4.0146743,0,0,-3.0291483,2794.7586,1624.9364)"
         id="g1105">
        <path
           inkscape:connector-curvature="0"
           id="path1107"
           style="fill:#323200;fill-opacity:1;fill-rule:nonzero;stroke:none"
           d="M 0,0 C -0.13,0.136 -0.259,0.273 -0.389,0.409 L -1.821,-0.919 C -0.632,-1.222 -0.149,-0.786 0,0" />
      </g>
      <g
         style="fill:#323200;fill-opacity:1"
         transform="matrix(4.0146743,0,0,-3.0291483,2654.7408,1393.6651)"
         id="g1117">
        <path
           inkscape:connector-curvature="0"
           id="path1119"
           style="fill:#323200;fill-opacity:1;fill-rule:nonzero;stroke:none"
           d="M 0,0 C 1.375,1.054 2.694,2.063 4.238,3.246 1.598,3.238 0.834,2.632 0,0" />
      </g>
      <g
         style="fill:#323200;fill-opacity:1"
         transform="matrix(4.0146743,0,0,-3.0291483,2700.0757,1404.9248)"
         id="g1121">
        <path
           inkscape:connector-curvature="0"
           id="path1123"
           style="fill:#323200;fill-opacity:1;fill-rule:nonzero;stroke:none"
           d="M 0,0 C -1.496,-0.109 -2.928,-0.213 -4.589,-0.334 -3.239,-1.786 -1.331,-1.609 0,0" />
      </g>
      <g
         style="fill:#323200;fill-opacity:1"
         transform="matrix(4.0146743,0,0,-3.0291483,2670.5109,1398.8201)"
         id="g1125">
        <path
           inkscape:connector-curvature="0"
           id="path1127"
           style="fill:#323200;fill-opacity:1;fill-rule:nonzero;stroke:none"
           d="m 0,0 c -0.669,0.089 -1.337,0.179 -1.776,0.238 -1.129,-0.69 -2.056,-1.256 -2.977,-1.818 1.604,0.328 3.208,0.656 4.811,0.983 C 0.039,-0.398 0.019,-0.199 0,0" />
      </g>
      <g
         style="fill:#323200;fill-opacity:1"
         transform="matrix(4.0146743,0,0,-3.0291483,2694.519,1397.3489)"
         id="g1129">
        <path
           inkscape:connector-curvature="0"
           id="path1131"
           style="fill:#323200;fill-opacity:1;fill-rule:nonzero;stroke:none"
           d="M 0,0 C -0.032,0.157 -0.065,0.314 -0.097,0.47 -0.964,0.308 -1.832,0.145 -2.699,-0.017 -2.677,-0.195 -2.656,-0.372 -2.635,-0.549 -1.66,-0.76 -0.715,-0.847 0,0" />
      </g>
      <g
         style="fill:#323200;fill-opacity:1"
         transform="matrix(4.0146743,0,0,-3.0291483,2664.8903,1390.9474)"
         id="g1133">
        <path
           inkscape:connector-curvature="0"
           id="path1135"
           style="fill:#323200;fill-opacity:1;fill-rule:nonzero;stroke:none"
           d="m 0,0 c -0.166,-0.044 -0.308,-0.182 -0.46,-0.276 0.043,-0.153 0.086,-0.305 0.129,-0.458 0.639,0.22 1.278,0.441 1.916,0.661 -0.043,0.13 -0.087,0.26 -0.13,0.39 C 0.969,0.214 0.48,0.126 0,0" />
      </g>
      <g
         style="fill:#323200;fill-opacity:1"
         transform="matrix(4.0146743,0,0,-3.0291483,2672.014,1364.7568)"
         id="g1137">
        <path
           inkscape:connector-curvature="0"
           id="path1139"
           style="fill:#323200;fill-opacity:1;fill-rule:nonzero;stroke:none"
           d="M 0,0 C 0.944,0.706 1.792,1.34 2.64,1.974 0.864,2.186 0.113,1.52 0,0" />
      </g>
      <g
         style="fill:#323200;fill-opacity:1"
         transform="matrix(4.0146743,0,0,-3.0291483,2642.7739,1459.3971)"
         id="g1141">
        <path
           inkscape:connector-curvature="0"
           id="path1143"
           style="fill:#323200;fill-opacity:1;fill-rule:nonzero;stroke:none"
           d="M 0,0 C 0.015,1.371 0.031,2.742 0.046,4.114 -0.093,4.125 -0.233,4.135 -0.372,4.146 -1.039,2.844 -0.815,1.461 -0.58,0.076 -0.387,0.051 -0.193,0.025 0,0" />
      </g>
      <g
         style="fill:#323200;fill-opacity:1"
         transform="matrix(4.0146743,0,0,-3.0291483,2666.5865,1470.3614)"
         id="g1145">
        <path
           inkscape:connector-curvature="0"
           id="path1147"
           style="fill:#323200;fill-opacity:1;fill-rule:nonzero;stroke:none"
           d="m 0,0 c 0.631,1.44 1.263,2.881 1.894,4.321 -0.2,0.085 -0.4,0.171 -0.6,0.256 C -0.005,3.425 -0.192,1.775 -0.605,0.226 -0.403,0.151 -0.202,0.075 0,0" />
      </g>
      <g
         style="fill:#323200;fill-opacity:1"
         transform="matrix(4.0146743,0,0,-3.0291483,2658.4331,1471.3628)"
         id="g1149">
        <path
           inkscape:connector-curvature="0"
           id="path1151"
           style="fill:#323200;fill-opacity:1;fill-rule:nonzero;stroke:none"
           d="M 0,0 C -1.925,-0.664 -2.425,-1.944 -1.809,-4.298 -1.166,-2.77 -0.664,-1.578 0,0" />
      </g>
      <g
         style="fill:#323200;fill-opacity:1"
         transform="matrix(4.0146743,0,0,-3.0291483,2665.4444,1444.4746)"
         id="g1153">
        <path
           inkscape:connector-curvature="0"
           id="path1155"
           style="fill:#323200;fill-opacity:1;fill-rule:nonzero;stroke:none"
           d="M 0,0 C -1.519,-0.386 -1.845,-1.575 -0.902,-3.712 -0.611,-2.517 -0.321,-1.321 0,0" />
      </g>
      <g
         style="fill:#323200;fill-opacity:1"
         transform="matrix(4.0146743,0,0,-3.0291483,2631.4429,1491.0844)"
         id="g1157">
        <path
           inkscape:connector-curvature="0"
           id="path1159"
           style="fill:#323200;fill-opacity:1;fill-rule:nonzero;stroke:none"
           d="M 0,0 C -1.735,-0.449 -2.042,-1.502 -0.917,-3.23 -0.589,-2.074 -0.309,-1.09 0,0" />
      </g>
      <g
         style="fill:#323200;fill-opacity:1"
         transform="matrix(4.0146743,0,0,-3.0291483,2627.8726,1441.7326)"
         id="g1161">
        <path
           inkscape:connector-curvature="0"
           id="path1163"
           style="fill:#323200;fill-opacity:1;fill-rule:nonzero;stroke:none"
           d="M 0,0 C -0.085,-1.307 -0.151,-2.313 -0.216,-3.319 -0.072,-3.341 0.073,-3.363 0.218,-3.385 1.077,-1.707 1.079,-1.399 0,0" />
      </g>
      <g
         style="fill:#323200;fill-opacity:1"
         transform="matrix(4.0146743,0,0,-3.0291483,2616.6251,1472.0007)"
         id="g1165">
        <path
           inkscape:connector-curvature="0"
           id="path1167"
           style="fill:#323200;fill-opacity:1;fill-rule:nonzero;stroke:none"
           d="M 0,0 C 0.203,-1.429 0.353,-2.486 0.503,-3.544 1.454,-1.839 1.375,-1.261 0,0" />
      </g>
      <g
         style="fill:#323200;fill-opacity:1"
         transform="matrix(4.0146743,0,0,-3.0291483,2629.9807,1477.6095)"
         id="g1169">
        <path
           inkscape:connector-curvature="0"
           id="path1171"
           style="fill:#323200;fill-opacity:1;fill-rule:nonzero;stroke:none"
           d="m 0,0 c 0.146,0.009 0.292,0.018 0.438,0.027 0.01,0.908 0.02,1.816 0.03,2.724 C -0.737,1.866 -0.443,0.936 0,0" />
      </g>
      <g
         style="fill:#323200;fill-opacity:1"
         transform="matrix(4.0146743,0,0,-3.0291483,2618.1118,1452.3528)"
         id="g1173">
        <path
           inkscape:connector-curvature="0"
           id="path1175"
           style="fill:#323200;fill-opacity:1;fill-rule:nonzero;stroke:none"
           d="M 0,0 C -0.159,0.022 -0.317,0.044 -0.476,0.066 -1.208,-0.858 -0.924,-1.737 -0.029,-2.601 -0.019,-1.734 -0.01,-0.867 0,0" />
      </g>
      <g
         style="fill:#323200;fill-opacity:1"
         transform="matrix(4.0146743,0,0,-3.0291483,2617.6585,1441.6044)"
         id="g1177">
        <path
           inkscape:connector-curvature="0"
           id="path1179"
           style="fill:#323200;fill-opacity:1;fill-rule:nonzero;stroke:none"
           d="M 0,0 C 0.058,0.846 0.116,1.691 0.174,2.536 -0.025,2.549 -0.224,2.561 -0.423,2.573 -0.906,1.758 -1.074,0.917 -0.467,0.01 -0.311,0.007 -0.156,0.003 0,0" />
      </g>
      <g
         style="fill:#323200;fill-opacity:1"
         transform="matrix(4.0146743,0,0,-3.0291483,2638.0217,1430.4378)"
         id="g1181">
        <path
           inkscape:connector-curvature="0"
           id="path1183"
           style="fill:#323200;fill-opacity:1;fill-rule:nonzero;stroke:none"
           d="m 0,0 c -0.24,0.025 -0.479,0.051 -0.719,0.076 -0.054,-0.7 -0.108,-1.401 -0.162,-2.102 0.18,-0.017 0.36,-0.035 0.54,-0.052 C -0.227,-1.385 -0.114,-0.693 0,0" />
      </g>
      <g
         style="fill:#323200;fill-opacity:1"
         transform="matrix(4.0146743,0,0,-3.0291483,2610.1185,1435.6564)"
         id="g1185">
        <path
           inkscape:connector-curvature="0"
           id="path1187"
           style="fill:#323200;fill-opacity:1;fill-rule:nonzero;stroke:none"
           d="M 0,0 H -0.001 C 0.051,-0.039 0.073,-0.056 0,0" />
      </g>
      <g
         style="fill:#323200;fill-opacity:1"
         transform="matrix(4.0146743,0,0,-3.0291483,2610.1177,1435.6561)"
         id="g1189">
        <path
           inkscape:connector-curvature="0"
           id="path1191"
           style="fill:#323200;fill-opacity:1;fill-rule:nonzero;stroke:none"
           d="M 0,0 V 0 C 0.057,-0.024 0.08,-0.034 0,0" />
      </g>
      <g
         transform="translate(1748.4964,990.8787)"
         id="g29788"
         style="fill:#323200;fill-opacity:1">
        <g
           id="g2433"
           transform="matrix(4.0146743,0,0,-3.0291483,866.15352,619.94973)"
           style="fill:#323200;fill-opacity:1">
          <path
             d="m 0,0 c -0.122,-0.099 -0.258,-0.185 -0.365,-0.298 -0.609,-0.64 -1.106,-1.364 -1.869,-1.885 -0.621,-0.423 -1.225,-0.88 -1.864,-1.284 l 0.013,0.003 c -0.106,-0.063 -0.212,-0.125 -0.318,-0.187 l 0.012,0.003 C -5.235,-4.399 -6.176,-4.97 -7.29,-5.225 l 0.01,0.002 c -0.348,-0.183 -0.701,-0.358 -1.044,-0.552 -0.577,-0.326 -1.155,-0.633 -1.823,-0.749 -0.253,-0.043 -0.489,-0.191 -0.729,-0.3 -0.456,-0.207 -0.899,-0.444 -1.365,-0.625 -1.045,-0.407 -2.164,-0.674 -2.883,-1.652 -0.055,-0.076 -0.197,-0.082 -0.275,-0.148 -0.155,-0.132 -0.297,-0.281 -0.439,-0.427 -0.107,-0.112 -0.185,-0.267 -0.312,-0.34 -0.379,-0.217 -0.556,-0.562 -0.638,-0.959 -0.098,-0.466 -0.156,-0.939 -0.234,-1.409 -0.104,-0.631 -0.27,-1.233 -0.781,-1.674 l 0.011,0.003 c -0.471,-0.271 -0.905,-0.153 -1.349,0.092 -0.344,0.189 -0.707,0.436 -1.078,0.467 -0.584,0.05 -0.918,0.34 -1.191,0.798 -0.558,0.933 -1.12,1.864 -1.691,2.789 -0.237,0.382 -0.506,0.744 -0.752,1.121 -0.172,0.263 -0.36,0.522 -0.485,0.808 -0.287,0.656 -0.455,1.379 -0.824,1.981 -0.842,1.372 -1.073,2.928 -1.401,4.44 -0.229,1.052 -0.181,2.162 -0.273,3.244 -0.112,1.302 -0.001,2.588 0.157,3.881 0.107,0.879 0.301,1.72 0.593,2.548 0.061,0.174 0.128,0.353 0.143,0.534 0.087,1.081 0.603,2.018 0.987,2.999 h -0.009 c -0.033,-0.334 0.025,-0.717 -0.12,-0.992 -0.279,-0.532 -0.348,-1.104 -0.495,-1.663 -0.128,-0.486 -0.291,-0.963 -0.428,-1.447 -0.087,-0.306 -0.178,-0.614 -0.228,-0.927 -0.123,-0.788 -0.287,-1.577 -0.317,-2.369 -0.037,-1.007 0.029,-2.018 0.077,-3.026 0.027,-0.583 0.114,-1.162 0.159,-1.744 0.144,-1.832 0.742,-3.523 1.597,-5.132 0.069,-0.131 0.192,-0.29 0.32,-0.324 0.572,-0.151 0.844,-0.635 1.176,-1.034 0.518,-0.623 1.141,-1.019 1.945,-1.134 0.578,-0.083 1.153,-0.212 1.734,-0.256 0.444,-0.033 0.896,0.058 1.345,0.054 0.704,-0.006 1.36,0.135 1.974,0.491 0.491,0.285 1.042,0.155 1.563,0.151 0.355,-0.002 0.669,0.027 0.996,0.18 1.079,0.508 2.171,0.988 3.259,1.479 0.072,0.033 0.144,0.079 0.22,0.091 0.943,0.148 1.686,0.748 2.533,1.111 0.097,0.042 0.184,0.124 0.284,0.141 1.158,0.194 1.963,0.997 2.866,1.636 0.346,0.245 0.7,0.486 1.074,0.683 0.838,0.44 1.521,1.049 2.121,1.775 0.354,0.429 0.76,0.816 1.153,1.212 0.345,0.345 0.564,0.749 0.744,1.206 0.646,1.642 0.653,3.318 0.348,5.018 -0.033,0.18 -0.088,0.374 -0.193,0.518 -0.374,0.511 -0.715,1.07 -1.179,1.488 -0.707,0.635 -1.479,1.208 -2.274,1.732 -0.685,0.451 -1.438,0.8 -2.166,1.184 -0.303,0.161 -0.605,0.262 -0.979,0.256 -0.606,-0.01 -1.242,0.038 -1.768,0.388 -0.677,0.451 -1.45,0.65 -2.192,0.935 -0.419,0.161 -0.865,0.265 -1.263,0.465 -0.376,0.188 -0.71,0.461 -1.052,0.71 -0.192,0.14 -0.361,0.313 -0.547,0.461 -0.644,0.508 -1.287,1.016 -1.937,1.516 -0.397,0.306 -0.647,0.704 -0.751,1.186 -0.102,0.475 -0.389,0.772 -0.772,1.053 -0.63,0.463 -1.286,0.833 -2.048,1.028 -0.249,0.063 -0.472,0.234 -0.703,0.364 -0.325,0.181 -0.633,0.398 -0.971,0.548 -0.513,0.229 -1.057,0.226 -1.524,-0.089 -0.54,-0.363 -1.15,-0.691 -1.262,-1.449 -0.021,-0.146 -0.124,-0.295 -0.223,-0.414 -0.632,-0.761 -0.912,-1.674 -1.117,-2.612 -0.147,-0.675 -0.228,-1.364 -0.381,-2.037 -0.068,-0.297 -0.244,-0.569 -0.37,-0.852 l 0.016,0.004 c 0.16,0.942 0.273,1.895 0.493,2.823 0.243,1.027 0.47,2.077 1.206,2.913 0.117,0.132 0.181,0.33 0.217,0.509 0.103,0.508 0.434,0.831 0.837,1.105 0.176,0.119 0.356,0.233 0.525,0.363 0.418,0.322 0.894,0.352 1.362,0.205 0.372,-0.117 0.718,-0.324 1.066,-0.51 0.278,-0.15 0.522,-0.391 0.815,-0.481 0.739,-0.225 1.487,-0.408 2.065,-0.97 0.044,-0.042 0.165,-0.056 0.215,-0.026 0.049,0.03 0.067,0.133 0.072,0.205 0.005,0.078 -0.004,0.165 -0.035,0.235 -0.337,0.749 -0.68,1.496 -1.022,2.243 -0.077,0.168 -0.216,0.331 -0.224,0.502 -0.03,0.58 -0.409,0.967 -0.708,1.401 -0.196,0.283 -0.41,0.555 -0.593,0.846 -0.042,0.068 -0.026,0.225 0.026,0.284 0.055,0.062 0.198,0.097 0.283,0.074 0.419,-0.114 0.816,-0.311 1.045,-0.684 0.385,-0.624 0.904,-1.097 1.464,-1.555 0.279,-0.228 0.47,-0.569 0.682,-0.872 0.121,-0.173 0.195,-0.378 0.31,-0.556 0.05,-0.076 0.152,-0.118 0.23,-0.175 0.02,0.076 0.053,0.15 0.057,0.227 0.081,1.378 -0.088,2.739 -0.283,4.099 -0.016,0.113 0.003,0.256 0.063,0.345 0.031,0.045 0.229,0.039 0.29,-0.014 0.256,-0.222 0.556,-0.434 0.714,-0.719 0.255,-0.459 0.427,-0.968 0.606,-1.466 0.236,-0.655 0.553,-1.252 1.052,-1.748 0.331,-0.33 0.366,-0.339 0.6,0.096 0.362,0.677 0.709,1.363 1.062,2.045 0.024,0.047 0.052,0.098 0.056,0.149 0.037,0.512 0.426,0.696 0.816,0.874 0.617,0.282 0.909,0.151 1.014,-0.507 0.084,-0.522 0.094,-1.056 0.142,-1.585 0.034,-0.369 0.046,-0.743 0.122,-1.104 0.151,-0.725 0.336,-1.443 0.517,-2.162 0.022,-0.089 0.105,-0.162 0.16,-0.242 0.056,0.049 0.126,0.09 0.166,0.15 0.529,0.793 1.049,1.591 1.582,2.382 0.147,0.218 0.312,0.428 0.496,0.616 0.571,0.583 1.195,1.11 1.696,1.769 0.258,0.338 0.537,0.731 1.057,0.787 0.199,0.021 0.388,0.207 0.584,0.011 0.199,-0.197 0.152,-0.441 0.089,-0.675 -0.027,-0.1 -0.094,-0.189 -0.136,-0.286 -0.263,-0.613 -0.747,-1.158 -0.568,-1.908 0.021,-0.089 -0.046,-0.206 -0.089,-0.302 -0.311,-0.702 -0.627,-1.401 -0.941,-2.101 -0.161,-0.362 -0.342,-0.717 -0.473,-1.089 -0.128,-0.362 0.008,-0.55 0.406,-0.563 0.368,-0.011 0.756,-0.028 1.105,0.068 0.686,0.189 1.363,0.168 2.055,0.1 0.258,-0.025 0.549,-0.043 0.781,0.048 0.739,0.29 1.503,0.322 2.276,0.312 C 2.867,18.694 3.056,18.67 3.231,18.617 3.477,18.542 3.528,18.279 3.312,18.13 2.728,17.73 2.249,17.173 1.504,17.002 1.217,16.936 0.955,16.702 0.716,16.503 0.436,16.27 0.216,15.963 -0.071,15.74 -0.489,15.416 -0.945,15.141 -1.378,14.835 -1.425,14.801 -1.435,14.7 -1.437,14.63 -1.438,14.61 -1.351,14.572 -1.302,14.569 -0.604,14.516 0.059,14.34 0.687,14.028 1.252,13.748 1.821,13.477 2.381,13.186 2.479,13.134 2.603,12.994 2.593,12.909 2.582,12.822 2.435,12.723 2.327,12.679 1.67,12.412 0.96,12.355 0.282,12.112 -0.683,11.766 -1.749,11.775 -2.786,11.94 c -0.209,0.034 -0.424,0.068 -0.634,0.056 -0.243,-0.015 -0.519,0.157 -0.728,-0.103 0.201,-0.164 0.393,-0.341 0.606,-0.488 0.105,-0.073 0.257,-0.074 0.373,-0.135 0.47,-0.245 0.964,-0.459 1.394,-0.762 C -0.973,9.942 -0.22,9.309 0.572,8.73 1.119,8.33 1.488,7.849 1.515,7.151 1.418,7.214 1.321,7.277 1.224,7.34 1.259,7.986 0.708,8.219 0.345,8.585 0.331,8.599 0.277,8.603 0.275,8.599 0.259,8.558 0.228,8.501 0.243,8.472 0.32,8.334 0.392,8.186 0.498,8.072 0.734,7.82 0.99,7.586 1.237,7.345 1.329,7.285 1.421,7.225 1.513,7.165 1.867,6.7 1.83,6.156 1.766,5.634 1.648,4.66 1.467,3.695 1.334,2.722 1.188,1.659 0.67,0.789 -0.014,-0.003 Z"
             style="fill:#323200;fill-opacity:1;fill-rule:nonzero;stroke:none"
             id="path2435"
             inkscape:connector-curvature="0" />
        </g>
        <g
           id="g2437"
           transform="matrix(4.0146743,0,0,-3.0291483,766.90756,579.93619)"
           style="fill:#323200;fill-opacity:1">
          <path
             d="m 0,0 c -0.143,-0.267 -0.331,-0.525 -0.173,-0.853 l 0.014,0.001 c 0.229,0.252 0.245,0.54 0.143,0.848 z"
             style="fill:#323200;fill-opacity:1;fill-rule:nonzero;stroke:none"
             id="path2439"
             inkscape:connector-curvature="0" />
        </g>
        <g
           id="g2441"
           transform="matrix(4.0146743,0,0,-3.0291483,766.21382,582.51975)"
           style="fill:#323200;fill-opacity:1">
          <path
             d="m 0,0 c -0.021,-0.236 -0.042,-0.473 -0.062,-0.709 h -0.009 c 0.184,0.218 0.199,0.456 0.085,0.71 z"
             style="fill:#323200;fill-opacity:1;fill-rule:nonzero;stroke:none"
             id="path2443"
             inkscape:connector-curvature="0" />
        </g>
        <g
           id="g2445"
           transform="matrix(4.0146743,0,0,-3.0291483,794.72323,662.5241)"
           style="fill:#323200;fill-opacity:1">
          <path
             d="M 0,0 -0.011,-0.003 Z"
             style="fill:#323200;fill-opacity:1;fill-rule:nonzero;stroke:none"
             id="path2447"
             inkscape:connector-curvature="0" />
        </g>
        <g
           id="g2449"
           transform="matrix(4.0146743,0,0,-3.0291483,776.26095,581.05516)"
           style="fill:#323200;fill-opacity:1">
          <path
             d="m 0,0 c -0.144,0.022 -0.356,0.205 -0.374,0.34 -0.067,0.493 -0.083,0.996 -0.077,1.494 0.002,0.131 0.124,0.327 0.24,0.378 C 0.048,2.323 0.428,2.089 0.595,2.493 0.692,2.39 0.88,2.278 0.871,2.185 0.807,1.531 0.743,0.872 0.406,0.191 0.305,0.138 0.139,-0.021 0,0"
             style="fill:#323200;fill-opacity:1;fill-rule:nonzero;stroke:none"
             id="path2451"
             inkscape:connector-curvature="0" />
        </g>
        <g
           id="g2453"
           transform="matrix(4.0146743,0,0,-3.0291483,845.53295,589.11512)"
           style="fill:#323200;fill-opacity:1">
          <path
             d="m 0,0 c -0.076,0.007 -0.296,0.094 -0.414,0.02 -0.114,-0.072 -0.194,-0.324 -0.166,-0.473 0.089,-0.466 0.211,-0.93 0.373,-1.375 0.066,-0.18 0.247,-0.347 0.418,-0.451 0.23,-0.14 0.494,0.007 0.558,0.26 C 0.908,-1.47 0.525,-0.362 0,0"
             style="fill:#323200;fill-opacity:1;fill-rule:nonzero;stroke:none"
             id="path2455"
             inkscape:connector-curvature="0" />
        </g>
        <g
           id="g2457"
           transform="matrix(4.0146743,0,0,-3.0291483,829.65049,626.46724)"
           style="fill:#323200;fill-opacity:1">
          <path
             d="m 0,0 -0.037,-0.018 c -0.068,-0.014 -0.135,-0.027 -0.203,-0.041 0.067,0.019 0.133,0.037 0.199,0.056 z M 0.859,-0.924 C 0.773,-1 0.648,-1.034 0.541,-1.087 0.518,-0.989 0.46,-0.883 0.48,-0.794 c 0.079,0.356 -0.092,0.345 -0.343,0.265 -0.151,-0.047 -0.31,-0.074 -0.466,-0.102 -0.227,-0.041 -0.453,0.001 -0.553,0.216 -0.121,0.259 0.041,0.497 0.246,0.606 0.345,0.184 0.721,0.329 1.1,0.425 C 0.794,0.7 1.109,0.557 1.3,0.277 1.478,0.018 1.294,-0.23 1.174,-0.465 1.15,-0.512 1.117,-0.555 1.003,-0.736 1.019,-0.713 0.957,-0.838 0.859,-0.924"
             style="fill:#323200;fill-opacity:1;fill-rule:nonzero;stroke:none"
             id="path2459"
             inkscape:connector-curvature="0" />
        </g>
        <g
           id="g2461"
           transform="matrix(4.0146743,0,0,-3.0291483,790.40986,603.21187)"
           style="fill:#323200;fill-opacity:1">
          <path
             d="M 0,0 C 0.196,0.486 0.406,0.968 0.58,1.462 0.623,1.584 0.601,1.807 0.518,1.877 0.425,1.955 0.215,1.957 0.084,1.912 -0.051,1.866 -0.196,1.745 -0.263,1.618 -0.532,1.108 -0.8,0.587 -0.807,-0.007 c -0.002,-0.161 0.072,-0.409 0.187,-0.466 0.218,-0.11 0.375,0.086 0.485,0.274 0.04,0.068 0.071,0.141 0.106,0.211 C -0.019,0.008 -0.01,0.004 0,0"
             style="fill:#323200;fill-opacity:1;fill-rule:nonzero;stroke:none"
             id="path2463"
             inkscape:connector-curvature="0" />
        </g>
        <g
           id="g2465"
           transform="matrix(4.0146743,0,0,-3.0291483,845.6305,618.36064)"
           style="fill:#323200;fill-opacity:1">
          <path
             d="M 0,0 C -0.084,-0.141 0.061,-0.416 0.266,-0.503 0.734,-0.704 1.547,-0.555 1.893,-0.181 1.941,-0.129 1.914,0.091 1.859,0.123 1.678,0.226 1.601,0.308 1.64,0.55 1.685,0.827 1.51,0.903 1.266,0.762 0.883,0.541 0.498,0.323 0.115,0.101 0.072,0.076 0.038,0.034 0,0"
             style="fill:#323200;fill-opacity:1;fill-rule:nonzero;stroke:none"
             id="path2467"
             inkscape:connector-curvature="0" />
        </g>
        <g
           id="g2469"
           transform="matrix(4.0146743,0,0,-3.0291483,776.24529,631.71282)"
           style="fill:#323200;fill-opacity:1">
          <path
             d="M 0,0 C -0.028,0.003 -0.146,0.053 -0.22,0.016 -0.299,-0.023 -0.394,-0.156 -0.38,-0.23 -0.285,-0.745 -0.361,-1.301 -0.033,-1.762 0.042,-1.868 0.109,-1.988 0.205,-2.071 0.4,-2.239 0.632,-2.157 0.696,-1.914 0.855,-1.312 0.54,-0.379 0,0"
             style="fill:#323200;fill-opacity:1;fill-rule:nonzero;stroke:none"
             id="path2471"
             inkscape:connector-curvature="0" />
        </g>
        <g
           id="g2473"
           transform="matrix(4.0146743,0,0,-3.0291483,789.78117,614.42002)"
           style="fill:#323200;fill-opacity:1">
          <path
             d="m 0,0 c -0.113,-0.232 -0.256,-0.456 -0.325,-0.701 -0.033,-0.118 0.031,-0.335 0.125,-0.398 0.083,-0.057 0.301,-0.005 0.403,0.073 0.479,0.366 0.693,0.913 0.905,1.448 C 1.195,0.643 0.98,0.811 0.74,0.759 0.317,0.666 0.181,0.322 0,0"
             style="fill:#323200;fill-opacity:1;fill-rule:nonzero;stroke:none"
             id="path2475"
             inkscape:connector-curvature="0" />
        </g>
        <g
           id="g2477"
           transform="matrix(4.0146743,0,0,-3.0291483,795.96858,621.97441)"
           style="fill:#323200;fill-opacity:1">
          <path
             d="m 0,0 c 0.06,0.178 0.106,0.275 0.124,0.376 0.048,0.271 -0.185,0.465 -0.445,0.367 -0.095,-0.036 -0.19,-0.097 -0.26,-0.17 -0.31,-0.327 -0.611,-0.663 -0.915,-0.996 -0.135,-0.148 -0.222,-0.303 -0.07,-0.491 0.149,-0.183 0.345,-0.173 0.495,-0.048 C -0.686,-0.643 -0.325,-0.295 0,0"
             style="fill:#323200;fill-opacity:1;fill-rule:nonzero;stroke:none"
             id="path2479"
             inkscape:connector-curvature="0" />
        </g>
        <g
           id="g2481"
           transform="matrix(4.0146743,0,0,-3.0291483,824.93165,585.36897)"
           style="fill:#323200;fill-opacity:1">
          <path
             d="m 0,0 c -0.166,-0.413 -0.177,-0.857 0.024,-1.281 0.126,-0.265 0.527,-0.272 0.642,-0.008 0.158,0.36 0.277,0.742 0.361,1.126 C 1.05,-0.059 0.918,0.136 0.806,0.2 0.595,0.322 0.119,0.187 0,0"
             style="fill:#323200;fill-opacity:1;fill-rule:nonzero;stroke:none"
             id="path2483"
             inkscape:connector-curvature="0" />
        </g>
        <g
           id="g2485"
           transform="matrix(4.0146743,0,0,-3.0291483,775.7836,590.82901)"
           style="fill:#323200;fill-opacity:1">
          <path
             d="M 0,0 C 0.117,0.288 0.264,0.569 0.338,0.867 0.367,0.985 0.268,1.202 0.162,1.266 0.077,1.316 -0.147,1.246 -0.239,1.157 -0.65,0.759 -0.895,0.273 -0.838,-0.316 c 0.01,-0.105 0.116,-0.257 0.207,-0.283 0.091,-0.025 0.251,0.054 0.322,0.137 0.118,0.136 0.188,0.313 0.278,0.473 C -0.021,0.008 -0.01,0.004 0,0"
             style="fill:#323200;fill-opacity:1;fill-rule:nonzero;stroke:none"
             id="path2487"
             inkscape:connector-curvature="0" />
        </g>
        <g
           id="g2489"
           transform="matrix(4.0146743,0,0,-3.0291483,802.84853,600.99817)"
           style="fill:#323200;fill-opacity:1">
          <path
             d="m 0,0 c -0.071,-0.186 -0.225,-0.525 -0.321,-0.879 -0.032,-0.116 0.046,-0.331 0.144,-0.394 0.1,-0.065 0.341,-0.058 0.422,0.02 0.244,0.235 0.461,0.507 0.647,0.791 C 1.076,-0.181 0.756,-0.038 0.644,0.143 0.428,0.493 0.281,0.479 0,0"
             style="fill:#323200;fill-opacity:1;fill-rule:nonzero;stroke:none"
             id="path2491"
             inkscape:connector-curvature="0" />
        </g>
        <g
           id="g2493"
           transform="matrix(4.0146743,0,0,-3.0291483,774.40777,603.75408)"
           style="fill:#323200;fill-opacity:1">
          <path
             d="M 0,0 C 0.38,0.554 0.028,1.035 -0.134,1.514 -0.2,1.71 -0.531,1.688 -0.559,1.491 -0.64,0.918 -0.68,0.339 -0.713,-0.239 -0.715,-0.276 -0.474,-0.389 -0.405,-0.354 -0.25,-0.274 -0.133,-0.122 0,0"
             style="fill:#323200;fill-opacity:1;fill-rule:nonzero;stroke:none"
             id="path2495"
             inkscape:connector-curvature="0" />
        </g>
        <g
           id="g2497"
           transform="matrix(4.0146743,0,0,-3.0291483,795.28769,587.37366)"
           style="fill:#323200;fill-opacity:1">
          <path
             d="m 0,0 c -0.247,-0.504 -0.297,-0.8 -0.08,-0.893 0.34,-0.147 0.558,0.117 0.748,0.316 0.212,0.224 0.408,0.49 0.521,0.774 C 1.302,0.481 0.99,0.746 0.719,0.595 0.451,0.447 0.237,0.202 0,0"
             style="fill:#323200;fill-opacity:1;fill-rule:nonzero;stroke:none"
             id="path2499"
             inkscape:connector-curvature="0" />
        </g>
        <g
           id="g2501"
           transform="matrix(4.0146743,0,0,-3.0291483,832.6326,599.3082)"
           style="fill:#323200;fill-opacity:1">
          <path
             d="m 0,0 c -0.07,-0.14 -0.13,-0.286 -0.211,-0.42 -0.086,-0.143 -0.177,-0.31 0.013,-0.395 0.145,-0.065 0.432,-0.098 0.494,-0.018 0.301,0.384 0.568,0.801 0.802,1.23 C 1.185,0.556 0.921,0.76 0.75,0.656 0.468,0.485 0.213,0.269 -0.053,0.072 -0.035,0.048 -0.018,0.024 0,0"
             style="fill:#323200;fill-opacity:1;fill-rule:nonzero;stroke:none"
             id="path2503"
             inkscape:connector-curvature="0" />
        </g>
        <g
           id="g2505"
           transform="matrix(4.0146743,0,0,-3.0291483,805.08912,631.10063)"
           style="fill:#323200;fill-opacity:1">
          <path
             d="m 0,0 c -0.044,0.002 -0.161,0.039 -0.246,0.003 -0.386,-0.164 -0.774,-0.331 -1.138,-0.537 -0.103,-0.058 -0.212,-0.324 -0.171,-0.373 0.101,-0.122 0.287,-0.235 0.438,-0.235 0.168,10e-4 0.342,0.121 0.502,0.208 0.254,0.138 0.508,0.279 0.745,0.445 C 0.285,-0.381 0.231,-0.116 0,0"
             style="fill:#323200;fill-opacity:1;fill-rule:nonzero;stroke:none"
             id="path2507"
             inkscape:connector-curvature="0" />
        </g>
        <g
           id="g2509"
           transform="matrix(4.0146743,0,0,-3.0291483,818.44996,617.10263)"
           style="fill:#323200;fill-opacity:1">
          <path
             d="M 0,0 C 0.01,0.052 0.077,0.227 0.07,0.398 0.058,0.682 -0.288,0.852 -0.503,0.671 -0.799,0.422 -1.076,0.145 -1.33,-0.147 -1.494,-0.336 -1.38,-0.557 -1.13,-0.606 -0.699,-0.689 -0.315,-0.51 0,0"
             style="fill:#323200;fill-opacity:1;fill-rule:nonzero;stroke:none"
             id="path2511"
             inkscape:connector-curvature="0" />
        </g>
        <g
           id="g2513"
           transform="matrix(4.0146743,0,0,-3.0291483,810.8562,637.02625)"
           style="fill:#323200;fill-opacity:1">
          <path
             d="M 0,0 C 0.108,-0.145 0.155,-0.272 0.219,-0.281 0.395,-0.306 0.601,-0.333 0.755,-0.267 1.119,-0.111 1.467,0.089 1.807,0.296 1.902,0.354 2.026,0.548 1.998,0.592 1.921,0.712 1.722,0.891 1.658,0.861 1.114,0.608 0.589,0.313 0,0"
             style="fill:#323200;fill-opacity:1;fill-rule:nonzero;stroke:none"
             id="path2515"
             inkscape:connector-curvature="0" />
        </g>
        <g
           id="g2517"
           transform="matrix(4.0146743,0,0,-3.0291483,864.39549,604.88426)"
           style="fill:#323200;fill-opacity:1">
          <path
             d="M 0,0 C 0.186,0.59 0.222,1.186 0.068,1.779 0.042,1.878 -0.164,1.957 -0.3,1.986 -0.34,1.994 -0.488,1.79 -0.476,1.697 -0.408,1.155 -0.62,0.595 -0.372,0.069 -0.341,0.003 -0.274,-0.072 -0.21,-0.088 -0.155,-0.101 -0.081,-0.037 0,0"
             style="fill:#323200;fill-opacity:1;fill-rule:nonzero;stroke:none"
             id="path2519"
             inkscape:connector-curvature="0" />
        </g>
        <g
           id="g2521"
           transform="matrix(4.0146743,0,0,-3.0291483,786.92593,575.27403)"
           style="fill:#323200;fill-opacity:1">
          <path
             d="m 0,0 c -0.02,-0.07 -0.088,-0.177 -0.068,-0.264 0.026,-0.115 0.102,-0.24 0.196,-0.308 0.055,-0.04 0.225,-0.015 0.274,0.041 0.271,0.314 0.533,0.637 0.767,0.978 C 1.215,0.514 1.161,0.727 1.088,0.777 1.009,0.83 0.814,0.817 0.739,0.753 0.485,0.53 0.261,0.272 0,0"
             style="fill:#323200;fill-opacity:1;fill-rule:nonzero;stroke:none"
             id="path2523"
             inkscape:connector-curvature="0" />
        </g>
        <g
           id="g2525"
           transform="matrix(4.0146743,0,0,-3.0291483,854.04085,606.47971)"
           style="fill:#323200;fill-opacity:1">
          <path
             d="m 0,0 c -0.294,0.163 -0.513,0.149 -0.721,-0.026 -0.222,-0.187 -0.458,-0.359 -0.667,-0.559 -0.08,-0.078 -0.17,-0.284 -0.139,-0.315 0.102,-0.101 0.251,-0.177 0.393,-0.207 0.086,-0.017 0.209,0.05 0.287,0.114 0.266,0.218 0.531,0.441 0.773,0.686 C -0.007,-0.239 -0.02,-0.092 0,0"
             style="fill:#323200;fill-opacity:1;fill-rule:nonzero;stroke:none"
             id="path2527"
             inkscape:connector-curvature="0" />
        </g>
        <g
           id="g2529"
           transform="matrix(4.0146743,0,0,-3.0291483,780.25996,564.0989)"
           style="fill:#323200;fill-opacity:1">
          <path
             d="M 0,0 C -0.011,-0.099 -0.076,-0.258 -0.033,-0.38 0.041,-0.593 0.264,-0.611 0.431,-0.53 0.657,-0.421 0.879,-0.277 1.055,-0.1 1.212,0.057 1.235,0.282 1.043,0.458 0.867,0.618 0.647,0.635 0.466,0.502 0.302,0.383 0.183,0.202 0,0"
             style="fill:#323200;fill-opacity:1;fill-rule:nonzero;stroke:none"
             id="path2531"
             inkscape:connector-curvature="0" />
        </g>
        <g
           id="g2533"
           transform="matrix(4.0146743,0,0,-3.0291483,773.45389,619.92883)"
           style="fill:#323200;fill-opacity:1">
          <path
             d="m 0,0 c -0.075,-0.042 -0.217,-0.079 -0.222,-0.129 -0.041,-0.412 -0.086,-0.829 -0.06,-1.239 0.006,-0.101 0.262,-0.204 0.419,-0.262 0.03,-0.012 0.179,0.172 0.199,0.279 0.071,0.388 0.118,0.782 -0.15,1.129 C 0.138,-0.161 0.087,-0.104 0,0"
             style="fill:#323200;fill-opacity:1;fill-rule:nonzero;stroke:none"
             id="path2535"
             inkscape:connector-curvature="0" />
        </g>
        <g
           id="g2537"
           transform="matrix(4.0146743,0,0,-3.0291483,816.52853,580.73104)"
           style="fill:#323200;fill-opacity:1">
          <path
             d="M 0,0 C -0.042,0.186 -0.042,0.369 -0.123,0.504 -0.233,0.688 -0.406,0.596 -0.531,0.493 -0.736,0.326 -0.944,0.157 -1.115,-0.043 -1.174,-0.113 -1.172,-0.31 -1.114,-0.385 -1.051,-0.467 -0.858,-0.544 -0.781,-0.506 -0.525,-0.379 -0.297,-0.199 0,0"
             style="fill:#323200;fill-opacity:1;fill-rule:nonzero;stroke:none"
             id="path2539"
             inkscape:connector-curvature="0" />
        </g>
        <g
           id="g2541"
           transform="matrix(4.0146743,0,0,-3.0291483,821.49147,607.03283)"
           style="fill:#323200;fill-opacity:1">
          <path
             d="m 0,0 c -0.028,-0.044 -0.081,-0.089 -0.079,-0.132 0.004,-0.119 0.002,-0.256 0.062,-0.347 C 0.015,-0.528 0.209,-0.543 0.261,-0.496 0.51,-0.273 0.75,-0.035 0.963,0.223 1.07,0.353 0.906,0.573 0.744,0.508 0.468,0.396 0.215,0.227 -0.048,0.082 -0.032,0.055 -0.016,0.027 0,0"
             style="fill:#323200;fill-opacity:1;fill-rule:nonzero;stroke:none"
             id="path2543"
             inkscape:connector-curvature="0" />
        </g>
        <g
           id="g2545"
           transform="matrix(4.0146743,0,0,-3.0291483,815.96768,594.37493)"
           style="fill:#323200;fill-opacity:1">
          <path
             d="m 0,0 c -0.087,-0.192 -0.192,-0.377 -0.249,-0.575 -0.022,-0.077 0.041,-0.219 0.11,-0.267 0.055,-0.039 0.226,-0.012 0.263,0.043 0.221,0.323 0.428,0.658 0.616,1.002 C 0.776,0.269 0.725,0.464 0.686,0.473 0.577,0.498 0.42,0.495 0.343,0.431 0.205,0.316 0.113,0.148 0,0"
             style="fill:#323200;fill-opacity:1;fill-rule:nonzero;stroke:none"
             id="path2547"
             inkscape:connector-curvature="0" />
        </g>
      </g>
      <g
         transform="translate(205.33165,6.7952821)"
         id="g29728"
         style="fill:#323200;fill-opacity:1">
        <g
           id="g1109"
           transform="matrix(4.0146743,0,0,-3.0291483,2329.2709,1622.6412)"
           style="fill:#323200;fill-opacity:1">
          <path
             d="M 0,0 C 0,0 0.001,0 0.002,0 -0.08,0.029 -0.118,0.043 0,0"
             style="fill:#323200;fill-opacity:1;fill-rule:nonzero;stroke:none"
             id="path1111"
             inkscape:connector-curvature="0" />
        </g>
        <g
           id="g1113"
           transform="matrix(4.0146743,0,0,-3.0291483,2329.2717,1622.6415)"
           style="fill:#323200;fill-opacity:1">
          <path
             d="M 0,0 V 0 C -0.079,0.011 -0.113,0.016 0,0"
             style="fill:#323200;fill-opacity:1;fill-rule:nonzero;stroke:none"
             id="path1115"
             inkscape:connector-curvature="0" />
        </g>
        <g
           id="g3137"
           transform="matrix(4.0146743,0,0,-3.0291483,2151.3369,1625.2808)"
           style="fill:#323200;fill-opacity:1">
          <path
             d="M 0,0 C -0.009,0.03 -0.027,0.061 -0.025,0.09 -0.021,0.143 -0.009,0.195 0.001,0.247 0.024,0.2 0.051,0.153 0.06,0.103 0.065,0.073 0.021,0.035 0,0 M -1.604,0.949 C -1.738,0.965 -1.863,1.062 -1.99,1.136 -1.525,1.087 -1.06,1.021 -0.593,1.001 -0.106,0.98 -0.019,0.678 -0.014,0.292 -0.499,0.617 -1.008,0.877 -1.604,0.949 m -3.387,0.653 c -0.046,0.017 -0.07,0.095 -0.105,0.145 0.049,0.028 0.105,0.087 0.147,0.078 C -4.169,1.661 -3.351,1.63 -2.64,1.211 -3.458,1.13 -4.23,1.337 -4.991,1.602 m 1.686,0.909 C -2.529,2.405 -1.76,2.245 -0.992,2.089 -0.806,2.051 -0.631,1.945 -0.46,1.854 -0.421,1.833 -0.393,1.733 -0.408,1.685 -0.422,1.641 -0.513,1.579 -0.55,1.59 c -1.27,0.387 -2.657,0.269 -3.871,0.892 0.373,0.017 0.752,0.078 1.116,0.029 m 1.529,0.465 c -0.254,0.022 -0.507,0.045 -0.761,0.067 0.269,0.164 0.52,0.11 0.761,-0.067 m 43.183,9.385 c 0.142,-0.001 0.315,0.046 0.415,0.136 0.049,0.045 0.009,0.288 -0.067,0.355 -0.316,0.278 -0.627,0.613 -1.005,0.761 -0.61,0.238 -1.266,0.365 -1.911,0.503 -0.847,0.182 -1.637,0.474 -2.332,1.007 -0.462,0.353 -0.48,0.395 0.019,0.756 0.775,0.56 1.563,1.103 2.346,1.651 0.054,0.038 0.112,0.081 0.174,0.094 0.625,0.132 0.788,0.643 0.943,1.153 0.245,0.809 0.034,1.148 -0.795,1.168 -0.659,0.016 -1.32,-0.061 -1.98,-0.09 -0.46,-0.02 -0.924,-0.067 -1.382,-0.034 -0.92,0.066 -1.837,0.174 -2.754,0.277 -0.113,0.013 -0.218,0.103 -0.326,0.158 0.052,0.077 0.09,0.17 0.158,0.229 0.89,0.785 1.788,1.561 2.675,2.35 0.244,0.218 0.476,0.457 0.677,0.714 0.625,0.803 1.171,1.66 1.9,2.389 0.375,0.375 0.813,0.785 0.795,1.436 -0.007,0.248 0.191,0.512 -0.083,0.722 -0.277,0.212 -0.57,0.114 -0.848,-0.003 -0.119,-0.05 -0.218,-0.148 -0.33,-0.215 -0.713,-0.428 -1.305,-1.116 -2.261,-1.02 -0.113,0.012 -0.246,-0.09 -0.357,-0.159 -0.814,-0.502 -1.624,-1.009 -2.436,-1.512 -0.419,-0.26 -0.827,-0.542 -1.265,-0.766 -0.424,-0.218 -0.68,-0.081 -0.762,0.407 -0.075,0.453 -0.16,0.928 -0.1,1.375 0.118,0.878 -0.021,1.71 -0.219,2.553 -0.074,0.314 -0.145,0.67 -0.072,0.971 0.235,0.96 0.147,1.908 0.006,2.861 -0.034,0.225 -0.094,0.455 -0.189,0.662 -0.133,0.29 -0.467,0.31 -0.614,0.018 -0.397,-0.787 -1.004,-1.471 -1.091,-2.418 -0.033,-0.366 -0.279,-0.728 -0.484,-1.056 -0.241,-0.385 -0.583,-0.708 -0.81,-1.099 -0.331,-0.569 -0.594,-1.179 -0.9,-1.764 -0.033,-0.063 -0.156,-0.092 -0.243,-0.107 -0.024,-0.004 -0.085,0.097 -0.098,0.157 -0.181,0.852 -0.509,1.641 -0.998,2.364 -0.441,0.65 -0.87,1.308 -1.322,1.949 -0.08,0.113 -0.274,0.242 -0.377,0.216 -0.106,-0.028 -0.203,-0.226 -0.239,-0.367 -0.221,-0.854 -0.173,-1.741 -0.36,-2.617 -0.266,-1.25 -0.077,-2.563 0.3,-3.815 0.077,-0.253 0.155,-0.512 0.175,-0.773 0.022,-0.302 0.281,-0.614 -0.005,-0.915 -0.237,0.221 -0.487,0.428 -0.704,0.667 -0.107,0.117 -0.134,0.304 -0.228,0.437 -0.381,0.539 -0.727,1.113 -1.173,1.593 -0.832,0.895 -1.74,1.718 -2.586,2.6 -0.58,0.603 -1.231,0.975 -2.087,0.899 0,0 0,0 -10e-4,10e-4 -0.633,0.359 -1.297,0.222 -1.931,0.057 -1.182,-0.308 -2.344,-0.694 -3.521,-1.02 C 9.457,27.9 8.469,27.116 7.606,26.139 l 0.001,0.018 C 7.506,25.99 7.422,25.808 7.301,25.657 6.613,24.799 5.802,24.065 5.286,23.036 4.867,22.2 4.404,21.378 4.012,20.522 l 0.002,0.016 C 3.955,20.397 3.895,20.256 3.836,20.115 l 0.002,0.016 C 3.052,18.964 2.504,17.707 2.375,16.29 l 0.002,0.013 C 2.209,15.842 2.052,15.378 1.87,14.923 1.563,14.157 1.281,13.392 1.25,12.548 1.238,12.229 1.095,11.912 1.001,11.598 0.822,11.001 0.603,10.415 0.457,9.81 0.129,8.453 -0.013,7.028 -1.1,5.977 -1.184,5.896 -1.168,5.72 -1.237,5.612 -1.374,5.399 -1.534,5.199 -1.691,5 -1.81,4.849 -1.989,4.727 -2.058,4.558 -2.263,4.054 -2.659,3.778 -3.135,3.61 -3.693,3.413 -4.268,3.262 -4.835,3.088 -5.596,2.854 -6.311,2.548 -6.77,1.844 l 0.002,0.014 C -7.024,1.232 -6.806,0.716 -6.43,0.209 c 0.291,-0.393 0.656,-0.8 0.757,-1.252 0.159,-0.713 0.572,-1.076 1.182,-1.337 1.245,-0.533 2.488,-1.071 3.724,-1.622 0.512,-0.227 1.003,-0.5 1.509,-0.74 0.353,-0.168 0.704,-0.357 1.078,-0.463 0.857,-0.245 1.777,-0.332 2.582,-0.687 1.834,-0.81 3.791,-0.836 5.713,-0.989 1.335,-0.106 2.697,0.138 4.048,0.204 1.625,0.08 3.193,0.431 4.763,0.842 1.066,0.279 2.072,0.658 3.045,1.156 0.204,0.105 0.414,0.218 0.634,0.266 1.309,0.285 2.372,1.067 3.508,1.702 -0.401,-0.09 -0.866,-0.089 -1.174,-0.308 -0.61,-0.434 -1.304,-0.613 -1.969,-0.888 -0.579,-0.24 -1.14,-0.52 -1.715,-0.771 C 20.892,-4.836 20.528,-5 20.15,-5.112 19.198,-5.396 18.252,-5.731 17.279,-5.899 16.044,-6.113 14.784,-6.2 13.533,-6.309 12.809,-6.373 12.08,-6.362 11.354,-6.403 9.069,-6.532 6.884,-6.075 4.755,-5.29 4.582,-5.226 4.365,-5.101 4.302,-4.949 4.021,-4.268 3.378,-4.013 2.83,-3.67 1.975,-3.135 1.382,-2.431 1.106,-1.459 0.907,-0.759 0.652,-0.072 0.501,0.638 0.386,1.181 0.423,1.754 0.343,2.306 0.218,3.175 0.283,4.008 0.62,4.825 0.889,5.478 0.637,6.136 0.545,6.779 0.483,7.217 0.467,7.609 0.602,8.037 c 0.446,1.417 0.857,2.845 1.281,4.268 0.028,0.095 0.073,0.191 0.075,0.287 0.025,1.188 0.643,2.205 0.949,3.311 0.035,0.127 0.122,0.249 0.126,0.374 0.047,1.461 0.903,2.589 1.541,3.809 0.245,0.468 0.483,0.945 0.663,1.44 0.404,1.107 1.042,2.052 1.837,2.913 0.471,0.509 0.881,1.074 1.303,1.626 0.369,0.482 0.83,0.819 1.365,1.118 1.918,1.072 3.984,1.36 6.134,1.266 0.227,-0.009 0.476,-0.045 0.67,-0.15 0.694,-0.377 1.441,-0.705 2.034,-1.208 0.902,-0.766 1.738,-1.624 2.516,-2.517 0.67,-0.77 1.227,-1.64 1.823,-2.474 0.248,-0.348 0.424,-0.704 0.478,-1.166 0.089,-0.75 0.254,-1.527 0.774,-2.118 0.669,-0.76 1.045,-1.68 1.519,-2.548 0.269,-0.491 0.473,-1.023 0.786,-1.482 0.294,-0.431 0.687,-0.798 1.051,-1.179 0.205,-0.214 0.446,-0.392 0.659,-0.598 0.735,-0.709 1.469,-1.419 2.195,-2.137 0.444,-0.438 0.977,-0.681 1.588,-0.729 0.603,-0.046 1.018,-0.351 1.429,-0.777 0.676,-0.7 1.242,-1.448 1.609,-2.356 0.12,-0.297 0.369,-0.543 0.567,-0.807 C 35.852,5.833 36.17,5.489 36.412,5.097 36.78,4.502 36.868,3.831 36.557,3.201 36.198,2.474 35.896,1.667 34.98,1.403 34.802,1.352 34.636,1.201 34.505,1.058 33.672,0.151 32.592,-0.346 31.468,-0.756 30.66,-1.05 29.823,-1.264 29.019,-1.566 c -0.335,-0.126 -0.628,-0.365 -0.936,-0.562 1.119,0.347 2.258,0.644 3.349,1.063 1.228,0.472 2.486,0.926 3.394,1.975 0.143,0.165 0.378,0.277 0.592,0.352 0.61,0.212 0.952,0.674 1.223,1.217 0.119,0.237 0.229,0.479 0.361,0.708 0.328,0.57 0.285,1.163 0.026,1.716 -0.207,0.439 -0.52,0.832 -0.808,1.229 -0.23,0.319 -0.569,0.58 -0.728,0.927 -0.401,0.874 -0.752,1.766 -1.542,2.386 -0.06,0.047 -0.097,0.194 -0.068,0.26 0.029,0.066 0.152,0.105 0.241,0.123 0.095,0.02 0.204,0.024 0.295,-0.004 0.981,-0.291 1.96,-0.59 2.939,-0.887 0.22,-0.067 0.444,-0.21 0.656,-0.193 0.721,0.06 1.262,-0.342 1.847,-0.639 0.383,-0.194 0.754,-0.413 1.144,-0.59 0.09,-0.041 0.281,0.004 0.345,0.079 0.068,0.078 0.087,0.26 0.044,0.361 -0.21,0.499 -0.52,0.955 -1.017,1.176 -0.835,0.37 -1.505,0.933 -2.163,1.547 -0.328,0.306 -0.781,0.485 -1.191,0.696 -0.233,0.121 -0.499,0.177 -0.737,0.29 -0.102,0.049 -0.171,0.168 -0.255,0.255 0.09,0.037 0.177,0.089 0.271,0.108 1.687,0.329 3.395,0.348 5.106,0.334"
             style="fill:#323200;fill-opacity:1;fill-rule:nonzero;stroke:none"
             id="path3139"
             inkscape:connector-curvature="0" />
        </g>
        <g
           id="g3141"
           transform="matrix(4.0146743,0,0,-3.0291483,2256.289,1633.4423)"
           style="fill:#323200;fill-opacity:1">
          <path
             d="m 0,0 c -0.01,-0.005 -0.019,-0.012 -0.029,-0.017 0.01,0.002 0.021,0.003 0.031,0.006 0.006,0.006 0.013,0.009 0.019,0.016 C 0.014,0.003 0.007,0.001 0,0 Z"
             style="fill:#323200;fill-opacity:1;fill-rule:nonzero;stroke:none"
             id="path3143"
             inkscape:connector-curvature="0" />
        </g>
        <g
           id="g3145"
           transform="matrix(4.0146743,0,0,-3.0291483,2263.7703,1631.8308)"
           style="fill:#323200;fill-opacity:1">
          <path
             d="M 0,0 C 0.008,-0.001 0.015,-0.001 0.023,-0.002 0.041,0.009 0.059,0.022 0.077,0.034 0.06,0.029 0.042,0.024 0.025,0.019 0.017,0.012 0.008,0.006 0,0"
             style="fill:#323200;fill-opacity:1;fill-rule:nonzero;stroke:none"
             id="path3147"
             inkscape:connector-curvature="0" />
        </g>
        <g
           id="g3149"
           transform="matrix(4.0146743,0,0,-3.0291483,2259.758,1632.7989)"
           style="fill:#323200;fill-opacity:1">
          <path
             d="M 0,0 0.001,-0.017 C 0.42,-0.154 0.703,0.102 0.999,0.32 0.612,0.387 0.267,0.318 0,0"
             style="fill:#323200;fill-opacity:1;fill-rule:nonzero;stroke:none"
             id="path3151"
             inkscape:connector-curvature="0" />
        </g>
        <g
           id="g3153"
           transform="matrix(4.0146743,0,0,-3.0291483,2256.3717,1633.4283)"
           style="fill:#323200;fill-opacity:1">
          <path
             d="M 0,0 C 0.281,0.063 0.563,0.127 0.844,0.19 V 0.208 C 0.519,0.304 0.235,0.247 0,0"
             style="fill:#323200;fill-opacity:1;fill-rule:nonzero;stroke:none"
             id="path3155"
             inkscape:connector-curvature="0" />
        </g>
        <g
           id="g3157"
           transform="matrix(4.0146743,0,0,-3.0291483,2271.578,1622.9223)"
           style="fill:#323200;fill-opacity:1">
          <path
             d="M 0,0 C 0.094,0.338 -0.258,0.768 0.213,1.041 0.07,1.143 -0.1,1.357 -0.213,1.331 -1.009,1.142 -1.812,0.953 -2.596,0.424 -2.644,0.29 -2.813,0.058 -2.764,-0.109 c 0.051,-0.174 0.313,-0.405 0.482,-0.405 0.62,0 1.243,0.064 1.856,0.154 C -0.264,-0.336 -0.043,-0.152 0,0"
             style="fill:#323200;fill-opacity:1;fill-rule:nonzero;stroke:none"
             id="path3159"
             inkscape:connector-curvature="0" />
        </g>
        <g
           id="g3161"
           transform="matrix(4.0146743,0,0,-3.0291483,2225.2294,1558.2455)"
           style="fill:#323200;fill-opacity:1">
          <path
             d="m 0,0 c -0.302,-0.122 -0.439,-0.472 -0.228,-0.732 0.156,-0.194 0.393,-0.39 0.625,-0.441 0.577,-0.126 1.17,-0.199 1.76,-0.231 0.189,-0.01 0.486,0.131 0.556,0.283 C 2.785,-0.962 2.64,-0.705 2.619,-0.613 2.084,-0.025 0.653,0.263 0,0"
             style="fill:#323200;fill-opacity:1;fill-rule:nonzero;stroke:none"
             id="path3163"
             inkscape:connector-curvature="0" />
        </g>
        <g
           id="g3165"
           transform="matrix(4.0146743,0,0,-3.0291483,2177.8081,1576.1199)"
           style="fill:#323200;fill-opacity:1">
          <path
             d="m 0,0 c -0.35,0.176 -0.625,-0.092 -0.895,-0.28 -0.054,-0.038 -0.101,-0.084 -0.305,-0.255 0.025,0.023 -0.118,-0.075 -0.208,-0.209 -0.08,-0.12 -0.101,-0.279 -0.148,-0.421 0.125,-0.011 0.265,-0.065 0.372,-0.026 0.426,0.157 0.44,-0.055 0.384,-0.379 -0.033,-0.195 -0.04,-0.394 -0.049,-0.592 -0.012,-0.287 0.078,-0.559 0.359,-0.646 0.339,-0.106 0.607,0.133 0.707,0.404 0.169,0.457 0.286,0.945 0.342,1.429 C 0.607,-0.554 0.377,-0.19 0,0"
             style="fill:#323200;fill-opacity:1;fill-rule:nonzero;stroke:none"
             id="path3167"
             inkscape:connector-curvature="0" />
        </g>
        <g
           id="g3169"
           transform="matrix(4.0146743,0,0,-3.0291483,2230.0771,1613.9403)"
           style="fill:#323200;fill-opacity:1">
          <path
             d="M 0,0 C 0.146,0.104 0.271,0.302 0.305,0.477 0.339,0.647 0.302,0.906 0.189,1.007 0.089,1.097 -0.19,1.088 -0.334,1.014 -0.914,0.717 -1.473,0.378 -2.04,0.054 -2.034,0.043 -2.027,0.032 -2.021,0.021 -2.102,-0.034 -2.187,-0.085 -2.264,-0.145 -2.478,-0.312 -2.692,-0.539 -2.521,-0.79 -2.431,-0.922 -2.113,-0.971 -1.915,-0.942 -1.183,-0.835 -0.585,-0.418 0,0"
             style="fill:#323200;fill-opacity:1;fill-rule:nonzero;stroke:none"
             id="path3171"
             inkscape:connector-curvature="0" />
        </g>
        <g
           id="g3173"
           transform="matrix(4.0146743,0,0,-3.0291483,2187.8994,1564.8893)"
           style="fill:#323200;fill-opacity:1">
          <path
             d="M 0,0 C 0.036,0.053 0.081,0.101 0.105,0.158 0.315,0.668 0.52,1.179 0.729,1.689 0.862,2.013 0.739,2.217 0.405,2.116 0.113,2.026 -0.001,2.108 -0.159,2.315 -0.206,2.378 -0.483,2.374 -0.539,2.305 -0.943,1.816 -0.991,0.789 -0.665,0.244 -0.523,0.006 -0.161,-0.127 0,0"
             style="fill:#323200;fill-opacity:1;fill-rule:nonzero;stroke:none"
             id="path3175"
             inkscape:connector-curvature="0" />
        </g>
        <g
           id="g3177"
           transform="matrix(4.0146743,0,0,-3.0291483,2167.6883,1630.0826)"
           style="fill:#323200;fill-opacity:1">
          <path
             d="M 0,0 C -0.289,-0.119 -0.351,-0.42 -0.112,-0.632 0.007,-0.737 0.166,-0.799 0.309,-0.874 0.933,-1.202 1.607,-1.015 2.258,-1.047 2.351,-1.052 2.499,-0.912 2.535,-0.809 2.568,-0.711 2.487,-0.574 2.478,-0.54 1.92,0.064 0.717,0.296 0,0"
             style="fill:#323200;fill-opacity:1;fill-rule:nonzero;stroke:none"
             id="path3179"
             inkscape:connector-curvature="0" />
        </g>
        <g
           id="g3181"
           transform="matrix(4.0146743,0,0,-3.0291483,2205.0107,1611.8756)"
           style="fill:#323200;fill-opacity:1">
          <path
             d="m 0,0 c -0.626,-0.352 -1.265,-0.707 -1.637,-1.358 -0.079,-0.139 -0.106,-0.416 -0.023,-0.51 0.094,-0.105 0.373,-0.149 0.513,-0.087 0.291,0.126 0.543,0.34 0.811,0.517 0.366,0.278 0.769,0.503 0.812,1.04 C 0.501,-0.093 0.257,0.145 0,0"
             style="fill:#323200;fill-opacity:1;fill-rule:nonzero;stroke:none"
             id="path3183"
             inkscape:connector-curvature="0" />
        </g>
        <g
           id="g3185"
           transform="matrix(4.0146743,0,0,-3.0291483,2194.1687,1612.5533)"
           style="fill:#323200;fill-opacity:1">
          <path
             d="M 0,0 C 0.078,0.337 -0.201,0.592 -0.527,0.487 -0.649,0.448 -0.76,0.376 -0.97,0.272 c -0.31,-0.45 -0.679,-0.954 -1.009,-1.483 -0.128,-0.205 -0.109,-0.449 0.141,-0.602 0.259,-0.157 0.436,-0.023 0.595,0.168 0.361,0.431 0.724,0.858 1.076,1.296 C -0.088,-0.251 -0.029,-0.123 0,0"
             style="fill:#323200;fill-opacity:1;fill-rule:nonzero;stroke:none"
             id="path3187"
             inkscape:connector-curvature="0" />
        </g>
        <g
           id="g3189"
           transform="matrix(4.0146743,0,0,-3.0291483,2245.7601,1575.5443)"
           style="fill:#323200;fill-opacity:1">
          <path
             d="m 0,0 c -0.099,0.127 -0.361,0.258 -0.485,0.212 -0.46,-0.168 -0.912,-0.378 -1.33,-0.633 -0.306,-0.187 -0.231,-0.68 0.118,-0.791 0.556,-0.177 1.102,-0.09 1.584,0.184 C 0.098,-0.85 0.185,-0.24 0,0"
             style="fill:#323200;fill-opacity:1;fill-rule:nonzero;stroke:none"
             id="path3191"
             inkscape:connector-curvature="0" />
        </g>
        <g
           id="g3193"
           transform="matrix(4.0146743,0,0,-3.0291483,2248.6466,1623.6266)"
           style="fill:#323200;fill-opacity:1">
          <path
             d="m 0,0 c -0.356,-0.141 -0.678,-0.369 -1.014,-0.562 l 0.019,-0.036 c -0.182,-0.138 -0.389,-0.254 -0.538,-0.421 -0.09,-0.102 -0.161,-0.313 -0.114,-0.421 0.047,-0.108 0.252,-0.214 0.384,-0.209 0.736,0.029 1.294,0.412 1.716,0.986 0.095,0.128 0.145,0.416 0.068,0.512 C 0.425,-0.031 0.141,0.056 0,0"
             style="fill:#323200;fill-opacity:1;fill-rule:nonzero;stroke:none"
             id="path3195"
             inkscape:connector-curvature="0" />
        </g>
        <g
           id="g3197"
           transform="matrix(4.0146743,0,0,-3.0291483,2223.7087,1599.345)"
           style="fill:#323200;fill-opacity:1">
          <path
             d="m 0,0 c -0.242,0.108 -0.472,0.479 -0.788,0.205 -0.32,-0.277 -0.618,-0.591 -0.869,-0.931 -0.082,-0.112 -0.051,-0.411 0.046,-0.524 0.094,-0.11 0.373,-0.17 0.511,-0.112 0.421,0.178 0.813,0.425 1.031,0.543 C 0.475,-0.393 0.468,-0.208 0,0"
             style="fill:#323200;fill-opacity:1;fill-rule:nonzero;stroke:none"
             id="path3199"
             inkscape:connector-curvature="0" />
        </g>
        <g
           id="g3201"
           transform="matrix(4.0146743,0,0,-3.0291483,2231.2579,1628.4987)"
           style="fill:#323200;fill-opacity:1">
          <path
             d="m 0,0 c -0.619,0.12 -1.271,0.473 -1.891,-0.088 -0.128,-0.184 -0.296,-0.354 -0.368,-0.558 -0.033,-0.091 0.148,-0.369 0.193,-0.361 0.707,0.136 1.415,0.283 2.109,0.479 C 0.281,-0.461 0.253,-0.049 0,0"
             style="fill:#323200;fill-opacity:1;fill-rule:nonzero;stroke:none"
             id="path3203"
             inkscape:connector-curvature="0" />
        </g>
        <g
           id="g3205"
           transform="matrix(4.0146743,0,0,-3.0291483,2243.6692,1604.3885)"
           style="fill:#323200;fill-opacity:1">
          <path
             d="m 0,0 c -0.214,-0.267 -0.504,-0.581 -0.266,-0.975 0.152,-0.252 0.509,-0.142 1.089,0.247 0.21,0.327 0.476,0.632 0.615,0.987 C 1.579,0.618 1.2,0.96 0.868,0.773 0.537,0.586 0.241,0.299 0,0"
             style="fill:#323200;fill-opacity:1;fill-rule:nonzero;stroke:none"
             id="path3207"
             inkscape:connector-curvature="0" />
        </g>
        <g
           id="g3209"
           transform="matrix(4.0146743,0,0,-3.0291483,2219.2877,1574.8137)"
           style="fill:#323200;fill-opacity:1">
          <path
             d="M 0,0 C 0.151,0.122 0.321,0.221 0.483,0.33 0.515,0.313 0.548,0.295 0.58,0.277 0.779,0.638 1.004,0.988 1.167,1.365 1.267,1.593 0.971,1.885 0.79,1.752 0.299,1.391 -0.17,0.992 -0.595,0.557 -0.682,0.467 -0.594,0.118 -0.489,-0.05 -0.353,-0.27 -0.162,-0.13 0,0"
             style="fill:#323200;fill-opacity:1;fill-rule:nonzero;stroke:none"
             id="path3211"
             inkscape:connector-curvature="0" />
        </g>
        <g
           id="g3213"
           transform="matrix(4.0146743,0,0,-3.0291483,2170.3725,1611.0305)"
           style="fill:#323200;fill-opacity:1">
          <path
             d="M 0,0 C 0.067,-0.042 0.378,0.136 0.432,0.273 0.626,0.756 0.768,1.263 0.906,1.767 0.936,1.878 0.87,2.016 0.86,2.07 0.679,2.336 0.343,2.358 0.235,2.148 0.07,1.829 -0.061,1.492 -0.189,1.156 -0.27,0.943 -0.389,0.709 -0.362,0.501 -0.338,0.314 -0.166,0.104 0,0"
             style="fill:#323200;fill-opacity:1;fill-rule:nonzero;stroke:none"
             id="path3215"
             inkscape:connector-curvature="0" />
        </g>
        <g
           id="g3217"
           transform="matrix(4.0146743,0,0,-3.0291483,2194.6529,1595.0327)"
           style="fill:#323200;fill-opacity:1">
          <path
             d="M 0,0 C 0.318,0.362 0.614,0.751 0.872,1.158 1.059,1.453 0.791,1.852 0.439,1.819 0.227,1.798 0.023,1.687 -0.04,1.666 -0.617,1.192 -0.774,0.688 -0.599,0.171 -0.498,-0.13 -0.205,-0.234 0,0"
             style="fill:#323200;fill-opacity:1;fill-rule:nonzero;stroke:none"
             id="path3219"
             inkscape:connector-curvature="0" />
        </g>
        <g
           id="g3221"
           transform="matrix(4.0146743,0,0,-3.0291483,2164.766,1592.6124)"
           style="fill:#323200;fill-opacity:1">
          <path
             d="m 0,0 c -0.058,0.027 -0.277,-0.158 -0.333,-0.285 -0.198,-0.454 -0.387,-0.917 -0.519,-1.393 -0.056,-0.201 0.012,-0.45 0.072,-0.663 0.022,-0.077 0.186,-0.114 0.383,-0.223 0.289,0.779 0.564,1.476 0.786,2.189 C 0.415,-0.29 0.161,-0.075 0,0"
             style="fill:#323200;fill-opacity:1;fill-rule:nonzero;stroke:none"
             id="path3223"
             inkscape:connector-curvature="0" />
        </g>
        <g
           id="g3225"
           transform="matrix(4.0146743,0,0,-3.0291483,2215.5757,1544.0173)"
           style="fill:#323200;fill-opacity:1">
          <path
             d="m 0,0 c -0.757,0.091 -1.486,-0.052 -2.184,-0.381 -0.032,-0.105 -0.099,-0.208 -0.073,-0.274 0.03,-0.076 0.134,-0.146 0.22,-0.173 0.691,-0.219 1.347,0.137 2.027,0.143 0.117,0.001 0.344,0.217 0.326,0.266 C 0.259,-0.257 0.127,-0.015 0,0"
             style="fill:#323200;fill-opacity:1;fill-rule:nonzero;stroke:none"
             id="path3227"
             inkscape:connector-curvature="0" />
        </g>
        <g
           id="g3229"
           transform="matrix(4.0146743,0,0,-3.0291483,2266.8929,1612.7471)"
           style="fill:#323200;fill-opacity:1">
          <path
             d="M 0,0 C 0.111,-0.01 0.232,0.091 0.315,0.128 0.606,0.496 0.888,0.815 1.12,1.166 1.188,1.268 1.171,1.512 1.091,1.601 1.018,1.682 0.747,1.713 0.672,1.645 0.29,1.299 -0.066,0.922 -0.407,0.536 -0.468,0.466 -0.471,0.252 -0.412,0.19 -0.313,0.087 -0.146,0.014 0,0"
             style="fill:#323200;fill-opacity:1;fill-rule:nonzero;stroke:none"
             id="path3231"
             inkscape:connector-curvature="0" />
        </g>
        <g
           id="g3233"
           transform="matrix(4.0146743,0,0,-3.0291483,2203.9565,1560.56)"
           style="fill:#323200;fill-opacity:1">
          <path
             d="M 0,0 C 0.213,0.291 0.385,0.611 0.579,0.916 0.761,1.202 0.741,1.474 0.491,1.81 0.381,1.77 0.197,1.761 0.124,1.667 -0.137,1.328 -0.369,0.964 -0.593,0.599 -0.659,0.492 -0.722,0.329 -0.686,0.227 -0.626,0.056 -0.507,-0.115 -0.365,-0.224 -0.322,-0.257 -0.082,-0.112 0,0"
             style="fill:#323200;fill-opacity:1;fill-rule:nonzero;stroke:none"
             id="path3235"
             inkscape:connector-curvature="0" />
        </g>
        <g
           id="g3237"
           transform="matrix(4.0146743,0,0,-3.0291483,2285.6836,1617.0173)"
           style="fill:#323200;fill-opacity:1">
          <path
             d="M 0,0 C 0.158,-0.032 0.343,0.074 0.464,0.104 0.682,0.363 0.885,0.541 1.005,0.763 1.139,1.009 1.081,1.278 0.854,1.467 0.606,1.675 0.331,1.609 0.164,1.389 -0.025,1.142 -0.165,0.844 -0.262,0.548 -0.334,0.328 -0.275,0.056 0,0"
             style="fill:#323200;fill-opacity:1;fill-rule:nonzero;stroke:none"
             id="path3239"
             inkscape:connector-curvature="0" />
        </g>
        <g
           id="g3241"
           transform="matrix(4.0146743,0,0,-3.0291483,2190.4567,1631.778)"
           style="fill:#323200;fill-opacity:1">
          <path
             d="m 0,0 c -0.129,-0.042 -0.33,-0.257 -0.311,-0.292 0.098,-0.184 0.267,-0.482 0.393,-0.473 0.511,0.036 1.017,0.161 1.519,0.28 0.061,0.015 0.083,0.196 0.122,0.296 C 1.581,-0.099 1.501,-0.045 1.418,0.003 0.946,0.276 0.466,0.153 0,0"
             style="fill:#323200;fill-opacity:1;fill-rule:nonzero;stroke:none"
             id="path3243"
             inkscape:connector-curvature="0" />
        </g>
        <g
           id="g3245"
           transform="matrix(4.0146743,0,0,-3.0291483,2256.8719,1585.9116)"
           style="fill:#323200;fill-opacity:1">
          <path
             d="m 0,0 c -0.18,0.077 -0.406,0.047 -0.642,0.067 -0.196,-0.399 -0.38,-0.711 -0.494,-1.047 -0.035,-0.103 0.093,-0.327 0.205,-0.392 0.102,-0.058 0.346,-0.028 0.422,0.057 0.218,0.243 0.392,0.528 0.564,0.809 C 0.161,-0.334 0.246,-0.105 0,0"
             style="fill:#323200;fill-opacity:1;fill-rule:nonzero;stroke:none"
             id="path3247"
             inkscape:connector-curvature="0" />
        </g>
        <g
           id="g3249"
           transform="matrix(4.0146743,0,0,-3.0291483,2210.9115,1581.7632)"
           style="fill:#323200;fill-opacity:1">
          <path
             d="m 0,0 c -0.283,-0.306 -0.536,-0.642 -0.77,-0.986 -0.049,-0.072 0.001,-0.308 0.068,-0.34 0.122,-0.059 0.291,-0.033 0.438,-0.019 0.053,0.005 0.1,0.078 0.15,0.12 0.036,-0.015 0.073,-0.031 0.109,-0.046 0.135,0.349 0.301,0.689 0.393,1.049 C 0.442,-0.011 0.143,0.154 0,0"
             style="fill:#323200;fill-opacity:1;fill-rule:nonzero;stroke:none"
             id="path3251"
             inkscape:connector-curvature="0" />
        </g>
        <g
           id="g3253"
           transform="matrix(4.0146743,0,0,-3.0291483,2232.5855,1585.6356)"
           style="fill:#323200;fill-opacity:1">
          <path
             d="m 0,0 c -0.393,-0.29 -0.772,-0.601 -1.134,-0.928 -0.061,-0.055 -0.066,-0.27 -0.01,-0.331 0.072,-0.078 0.258,-0.132 0.348,-0.092 0.236,0.104 0.446,0.264 0.669,0.403 0.163,0.164 0.355,0.307 0.474,0.495 0.067,0.106 0.044,0.301 -0.005,0.43 C 0.324,0.025 0.075,0.055 0,0"
             style="fill:#323200;fill-opacity:1;fill-rule:nonzero;stroke:none"
             id="path3255"
             inkscape:connector-curvature="0" />
        </g>
      </g>
    </g>
  </g>
</svg>
