<?xml version="1.0" encoding="UTF-8" standalone="no"?>
<!-- Created with Inkscape (http://www.inkscape.org/) -->

<svg
   xmlns:dc="http://purl.org/dc/elements/1.1/"
   xmlns:cc="http://creativecommons.org/ns#"
   xmlns:rdf="http://www.w3.org/1999/02/22-rdf-syntax-ns#"
   xmlns:svg="http://www.w3.org/2000/svg"
   xmlns="http://www.w3.org/2000/svg"
   xmlns:sodipodi="http://sodipodi.sourceforge.net/DTD/sodipodi-0.dtd"
   xmlns:inkscape="http://www.inkscape.org/namespaces/inkscape"
   width="108.09463mm"
   height="105.1274mm"
   viewBox="0 0 108.09463 105.1274"
   version="1.1"
   id="svg34064"
   inkscape:version="0.92.3 (2405546, 2018-03-11)"
   sodipodi:docname="cocktail3.svg">
  <defs
     id="defs34058" />
  <sodipodi:namedview
     id="base"
     pagecolor="#ffffff"
     bordercolor="#666666"
     borderopacity="1.0"
     inkscape:pageopacity="0.0"
     inkscape:pageshadow="2"
     inkscape:zoom="0.35"
     inkscape:cx="-248.58384"
     inkscape:cy="192.95166"
     inkscape:document-units="mm"
     inkscape:current-layer="layer1"
     showgrid="false"
     inkscape:window-width="1920"
     inkscape:window-height="1017"
     inkscape:window-x="-8"
     inkscape:window-y="-8"
     inkscape:window-maximized="1"
     fit-margin-top="0"
     fit-margin-left="0"
     fit-margin-right="0"
     fit-margin-bottom="0" />
  <metadata
     id="metadata34061">
    <rdf:RDF>
      <cc:Work
         rdf:about="">
        <dc:format>image/svg+xml</dc:format>
        <dc:type
           rdf:resource="http://purl.org/dc/dcmitype/StillImage" />
        <dc:title></dc:title>
      </cc:Work>
    </rdf:RDF>
  </metadata>
  <g
     inkscape:label="Layer 1"
     inkscape:groupmode="layer"
     id="layer1"
     transform="translate(-48.762212,-94.75773)">
    <g
       id="g30621"
       style="fill:#323200;fill-opacity:1"
       transform="matrix(0.26458333,0,0,0.26458333,-580.91423,-227.1446)">
      <g
         id="g30467"
         style="fill:#323200;fill-opacity:1">
        <g
           id="g2261"
           transform="matrix(4.0146743,0,0,-3.0291483,2711.5089,1247.8622)"
           style="fill:#323200;fill-opacity:1">
          <path
             d="M 0,0 C 0.018,-0.005 0.039,-0.008 0.057,-0.013 0.047,0 0.036,0.013 0.025,0.026 Z"
             style="fill:#323200;fill-opacity:1;fill-rule:nonzero;stroke:none"
             id="path2263"
             inkscape:connector-curvature="0" />
        </g>
        <g
           id="g2265"
           transform="matrix(4.0146743,0,0,-3.0291483,2577.0575,1576.4717)"
           style="fill:#323200;fill-opacity:1">
          <path
             d="m 0,0 0.007,-0.021 c 0.004,0 0.008,0.002 0.013,0.002 z"
             style="fill:#323200;fill-opacity:1;fill-rule:nonzero;stroke:none"
             id="path2267"
             inkscape:connector-curvature="0" />
        </g>
        <g
           id="g2269"
           transform="matrix(4.0146743,0,0,-3.0291483,2651.4856,1602.078)"
           style="fill:#323200;fill-opacity:1">
          <path
             d="m 0,0 c 0.006,0 0.012,0 0.018,0 0,0.007 0,0.017 0.001,0.024 z"
             style="fill:#323200;fill-opacity:1;fill-rule:nonzero;stroke:none"
             id="path2271"
             inkscape:connector-curvature="0" />
        </g>
        <g
           id="g2273"
           transform="matrix(4.0146743,0,0,-3.0291483,2737.4851,1284.8814)"
           style="fill:#323200;fill-opacity:1">
          <path
             d="M 0,0 C 0,0.001 0,0.002 0,0.003 -0.003,0.009 -0.006,0.015 -0.009,0.021 Z"
             style="fill:#323200;fill-opacity:1;fill-rule:nonzero;stroke:none"
             id="path2275"
             inkscape:connector-curvature="0" />
        </g>
        <g
           id="g2277"
           transform="matrix(4.0146743,0,0,-3.0291483,2736.2767,1284.858)"
           style="fill:#323200;fill-opacity:1">
          <path
             d="m 0,0 -0.006,-0.024 c 0.102,0.006 0.205,0.011 0.307,0.016 L 0.292,0.013 C 0.195,0.009 0.097,0.004 0,0"
             style="fill:#323200;fill-opacity:1;fill-rule:nonzero;stroke:none"
             id="path2279"
             inkscape:connector-curvature="0" />
        </g>
        <g
           id="g2281"
           transform="matrix(4.0146743,0,0,-3.0291483,2645.8345,1404.4761)"
           style="fill:#323200;fill-opacity:1">
          <path
             d="M 0,0 C -0.025,-0.013 -0.06,-0.006 -0.091,-0.007 -0.047,0.006 -0.003,0.019 0.041,0.032 0.028,0.021 0.015,0.008 0,0 M 1.976,-0.543 C 1.394,-0.25 0.728,-0.123 0.101,0.079 0.1,0.079 0.099,0.078 0.098,0.077 -0.266,0.39 -0.639,0.61 -1.16,0.391 -1.345,0.313 -1.613,0.323 -1.805,0.394 c -0.71,0.263 -1.294,0.04 -1.833,-0.405 -0.15,-0.124 -0.273,-0.282 -0.409,-0.424 0.2,-0.01 0.4,-0.012 0.599,-0.033 1.584,-0.17 3.25,0.4 4.751,-0.523 l -0.028,0.025 c 0.09,-0.015 0.18,-0.017 0.27,-0.007 l 0.005,0.004 c 0.928,-0.733 1.927,-0.942 3.039,-0.416 0.5,0.236 0.966,0.23 1.451,-0.125 0.359,-0.263 0.794,-0.365 0.984,0.246 L 7.029,-1.276 C 7.244,-1.127 7.46,-0.978 7.676,-0.829 7.478,-0.746 7.288,-0.634 7.082,-0.586 6.819,-0.524 6.509,-0.584 6.281,-0.468 5.76,-0.203 5.308,-0.228 4.805,-0.52 3.878,-1.057 2.948,-1.034 1.976,-0.543"
             style="fill:#323200;fill-opacity:1;fill-rule:nonzero;stroke:none"
             id="path2283"
             inkscape:connector-curvature="0" />
        </g>
        <g
           id="g2285"
           transform="matrix(4.0146743,0,0,-3.0291483,2702.6213,1375.811)"
           style="fill:#323200;fill-opacity:1">
          <path
             d="M 0,0 C -0.015,0.007 -0.031,0.014 -0.046,0.021 -0.038,0.003 -0.03,-0.012 -0.022,-0.03 Z"
             style="fill:#323200;fill-opacity:1;fill-rule:nonzero;stroke:none"
             id="path2287"
             inkscape:connector-curvature="0" />
        </g>
        <g
           id="g2289"
           transform="matrix(4.0146743,0,0,-3.0291483,2663.6259,1375.4956)"
           style="fill:#323200;fill-opacity:1">
          <path
             d="M 0,0 C 1.055,0.176 2.104,-0.562 3.18,0.007 3.411,0.129 3.815,-0.118 4.141,-0.123 4.518,-0.129 4.988,-0.451 5.244,0.159 5.282,0.249 5.637,0.212 5.845,0.222 6.724,0.262 7.635,-0.477 8.5,0.349 8.58,0.425 8.927,0.221 9.151,0.147 L 9.123,0.172 C 9.304,0.087 9.486,0.002 9.667,-0.083 9.206,1.042 8.533,1.405 7.628,0.848 6.978,0.448 6.551,0.999 6.03,1.057 5.75,1.088 5.413,1.348 5.195,1.077 4.723,0.491 4.205,0.691 3.596,0.737 2.302,0.835 1.002,0.703 -0.246,0.275 -0.161,0.167 -0.065,-0.011 0,0"
             style="fill:#323200;fill-opacity:1;fill-rule:nonzero;stroke:none"
             id="path2291"
             inkscape:connector-curvature="0" />
        </g>
        <g
           id="g2293"
           transform="matrix(4.0146743,0,0,-3.0291483,2634.5199,1358.9374)"
           style="fill:#323200;fill-opacity:1">
          <path
             d="m 0,0 c -0.003,0.001 -0.007,0.002 -0.01,0.003 -0.005,-0.007 -0.009,-0.014 -0.013,-0.021 0,-0.001 0,-0.002 0,-0.002 C -0.015,-0.013 -0.008,-0.008 0,0"
             style="fill:#323200;fill-opacity:1;fill-rule:nonzero;stroke:none"
             id="path2295"
             inkscape:connector-curvature="0" />
        </g>
        <g
           id="g2297"
           transform="matrix(4.0146743,0,0,-3.0291483,2682.6161,1366.9734)"
           style="fill:#323200;fill-opacity:1">
          <path
             d="M 0,0 -0.027,-0.032 C 0.001,-0.033 0.02,-0.034 0.047,-0.036 0.031,-0.023 0.016,-0.014 0,0"
             style="fill:#323200;fill-opacity:1;fill-rule:nonzero;stroke:none"
             id="path2299"
             inkscape:connector-curvature="0" />
        </g>
        <g
           id="g2301"
           transform="matrix(4.0146743,0,0,-3.0291483,2689.9377,1366.4176)"
           style="fill:#323200;fill-opacity:1">
          <path
             d="M 0,0 C 0.197,0.581 0.401,0.636 0.875,0.459 1.017,0.406 1.176,0.401 1.328,0.375 1.237,0.53 1.181,0.734 1.048,0.829 0.821,0.988 0.55,1.086 0.29,1.193 -0.146,1.372 -0.399,1.302 -0.462,0.749 -0.578,-0.277 -0.614,-0.296 -1.777,-0.22 -0.95,-0.913 -0.3,-0.883 0,0"
             style="fill:#323200;fill-opacity:1;fill-rule:nonzero;stroke:none"
             id="path2303"
             inkscape:connector-curvature="0" />
        </g>
        <g
           id="g2305"
           transform="matrix(4.0146743,0,0,-3.0291483,2674.0621,1392.1078)"
           style="fill:#323200;fill-opacity:1">
          <path
             d="M 0,0 C -0.729,-0.691 -1.357,-0.297 -2.031,0.004 L -2.01,0.03 C -2.017,0.022 -2.025,0.014 -2.032,0.005 c -0.093,0.107 -0.187,0.214 -0.281,0.321 0.01,-0.2 0.02,-0.401 0.03,-0.601 -0.009,-0.01 -0.017,-0.019 -0.026,-0.029 l 0.026,0.016 c 0.829,-0.938 1.524,-1.139 2.363,-0.444 0.454,0.377 0.872,0.396 1.356,0.396 C 0.802,0.668 0.749,0.71 0,0"
             style="fill:#323200;fill-opacity:1;fill-rule:nonzero;stroke:none"
             id="path2307"
             inkscape:connector-curvature="0" />
        </g>
        <g
           id="g2309"
           transform="matrix(4.0146743,0,0,-3.0291483,2675.3512,1383.4468)"
           style="fill:#323200;fill-opacity:1">
          <path
             d="m 0,0 c -0.274,-0.016 -0.611,0.022 -0.808,-0.121 -0.656,-0.475 -1.286,-0.476 -1.979,-0.113 -0.078,0.041 -0.282,-0.161 -0.428,-0.25 v 0 c -0.178,0.158 -0.338,0.347 -0.54,0.462 -0.148,0.084 -0.352,0.082 -0.531,0.086 -0.038,0.001 -0.078,-0.141 -0.117,-0.217 0.162,-0.068 0.319,-0.157 0.488,-0.201 0.224,-0.059 0.457,-0.084 0.686,-0.124 1.07,-0.723 2.328,-0.689 3.346,0.099 0.054,0.042 0.101,0.161 0.08,0.214 C 0.168,-0.092 0.065,0.004 0,0"
             style="fill:#323200;fill-opacity:1;fill-rule:nonzero;stroke:none"
             id="path2311"
             inkscape:connector-curvature="0" />
        </g>
        <g
           id="g2313"
           transform="matrix(4.0146743,0,0,-3.0291483,2654.0545,1393.1307)"
           style="fill:#323200;fill-opacity:1">
          <path
             d="M 0,0 C 0.551,0.611 1.18,0.496 1.839,0.246 1.88,0.23 1.966,0.334 2.031,0.382 2,0.468 1.988,0.567 1.937,0.638 1.24,1.617 0.237,1.554 -0.362,0.488 -0.417,0.388 -0.424,0.192 -0.361,0.114 -0.292,0.028 -0.039,-0.043 0,0"
             style="fill:#323200;fill-opacity:1;fill-rule:nonzero;stroke:none"
             id="path2315"
             inkscape:connector-curvature="0" />
        </g>
        <g
           id="g2317"
           transform="matrix(4.0146743,0,0,-3.0291483,2679.6248,1383.4686)"
           style="fill:#323200;fill-opacity:1">
          <path
             d="m 0,0 c -0.137,-0.056 -0.226,-0.227 -0.338,-0.346 0.144,-0.082 0.281,-0.184 0.435,-0.239 0.075,-0.026 0.182,0.037 0.274,0.059 0.026,-0.049 0.052,-0.097 0.079,-0.146 0.427,0.245 0.863,0.475 1.274,0.745 C 1.805,0.126 1.787,0.33 1.815,0.464 1.695,0.481 1.562,0.54 1.458,0.508 0.967,0.356 0.477,0.193 0,0"
             style="fill:#323200;fill-opacity:1;fill-rule:nonzero;stroke:none"
             id="path2319"
             inkscape:connector-curvature="0" />
        </g>
        <g
           id="g2321"
           transform="matrix(4.0146743,0,0,-3.0291483,2646.5603,1393.164)"
           style="fill:#323200;fill-opacity:1">
          <path
             d="M 0,0 C 0.337,0.114 0.663,-0.677 0.912,-0.044 0.966,0.093 0.484,0.466 0.216,0.691 0.138,0.756 -0.053,0.687 -0.275,0.674 -0.321,0.647 -0.509,0.596 -0.519,0.521 -0.534,0.405 -0.455,0.246 -0.364,0.156 -0.274,0.067 -0.096,-0.033 0,0"
             style="fill:#323200;fill-opacity:1;fill-rule:nonzero;stroke:none"
             id="path2323"
             inkscape:connector-curvature="0" />
        </g>
        <g
           id="g2325"
           transform="matrix(4.0146743,0,0,-3.0291483,2711.4038,1381.8059)"
           style="fill:#323200;fill-opacity:1">
          <path
             d="M 0,0 C 0.228,-0.024 0.459,-0.06 0.69,-0.068 0.774,-0.072 0.859,-0.011 0.944,0.021 0.907,0.098 0.892,0.211 0.831,0.247 0.397,0.506 -0.043,0.856 -0.525,0.335 -0.63,0.222 -0.705,0.08 -0.794,-0.048 -0.669,-0.051 -0.544,-0.062 -0.42,-0.054 -0.281,-0.045 -0.144,-0.019 0,0"
             style="fill:#323200;fill-opacity:1;fill-rule:nonzero;stroke:none"
             id="path2327"
             inkscape:connector-curvature="0" />
        </g>
        <g
           id="g2329"
           transform="matrix(4.0146743,0,0,-3.0291483,2662.4051,1374.6768)"
           style="fill:#323200;fill-opacity:1">
          <path
             d="M 0,0 0.021,-0.006 C 0.033,-0.002 0.046,0.001 0.058,0.005 0.053,0.012 0.047,0.021 0.041,0.027 0.026,0.017 0.015,0.01 0,0"
             style="fill:#323200;fill-opacity:1;fill-rule:nonzero;stroke:none"
             id="path2331"
             inkscape:connector-curvature="0" />
        </g>
        <g
           id="g2333"
           transform="matrix(4.0146743,0,0,-3.0291483,2656.597,1374.2837)"
           style="fill:#323200;fill-opacity:1">
          <path
             d="M 0,0 -0.026,0.028 -0.028,0.025 C -0.023,0.02 -0.018,0.016 -0.013,0.012 0.544,-0.712 0.567,-0.719 1.447,-0.13 0.961,0.009 0.474,0.148 -0.012,0.287 -0.008,0.191 -0.004,0.096 0,0"
             style="fill:#323200;fill-opacity:1;fill-rule:nonzero;stroke:none"
             id="path2335"
             inkscape:connector-curvature="0" />
        </g>
        <g
           id="g2337"
           transform="matrix(4.0146743,0,0,-3.0291483,2722.184,1381.8368)"
           style="fill:#323200;fill-opacity:1">
          <path
             d="M 0,0 C 0.072,0.023 0.117,0.132 0.167,0.206 0.17,0.211 0.098,0.292 0.071,0.287 -0.334,0.209 -0.738,0.124 -1.141,0.033 -1.153,0.03 -1.148,-0.052 -1.151,-0.098 -1.076,-0.147 -0.99,-0.25 -0.926,-0.238 -0.614,-0.177 -0.304,-0.096 0,0"
             style="fill:#323200;fill-opacity:1;fill-rule:nonzero;stroke:none"
             id="path2339"
             inkscape:connector-curvature="0" />
        </g>
        <g
           id="g2341"
           transform="matrix(4.0146743,0,0,-3.0291483,2656.4794,1373.3988)"
           style="fill:#323200;fill-opacity:1">
          <path
             d="m 0,0 c 0.006,-0.002 0.012,-0.003 0.017,-0.005 0,0.012 0,0.023 -0.001,0.035 C -0.09,0.022 -0.196,0.014 -0.303,0.006 l 0.02,-0.023 c -0.272,-0.241 -0.248,-0.46 0.05,-0.657 0.078,0.135 0.156,0.271 0.235,0.407 -0.093,0.083 -0.186,0.167 -0.279,0.25 C -0.185,-0.011 -0.092,-0.006 0,0"
             style="fill:#323200;fill-opacity:1;fill-rule:nonzero;stroke:none"
             id="path2343"
             inkscape:connector-curvature="0" />
        </g>
        <g
           id="g2345"
           transform="matrix(4.0146743,0,0,-3.0291483,2577.1117,1370.8634)"
           style="fill:#323200;fill-opacity:1">
          <path
             d="m 0,0 c -0.631,-1.602 -1.718,-1.174 -2.844,-0.679 -0.251,0.11 -0.546,0.121 -0.789,0.171 -0.262,-0.099 -0.479,-0.17 -0.688,-0.26 -0.377,-0.163 -0.736,-0.388 -1.129,-0.493 -0.455,-0.122 -0.993,-0.005 -1.284,-0.523 0.444,-0.092 0.888,-0.186 1.334,-0.274 0.092,-0.018 0.215,-0.056 0.278,-0.015 1.349,0.877 2.668,0.122 3.997,-0.062 1.026,-0.141 2.04,1.117 1.653,2.081 C 0.495,0.027 0.019,0.049 0,0"
             style="fill:#323200;fill-opacity:1;fill-rule:nonzero;stroke:none"
             id="path2347"
             inkscape:connector-curvature="0" />
        </g>
        <g
           id="g2349"
           transform="matrix(4.0146743,0,0,-3.0291483,2596.4584,1357.013)"
           style="fill:#323200;fill-opacity:1">
          <path
             d="M 0,0 C 0.538,0.02 0.74,-0.312 0.933,-0.696 1.625,-0.935 2.318,-1.174 3.01,-1.413 3.128,-1.178 3.268,-0.95 3.342,-0.701 3.38,-0.575 3.316,-0.296 3.246,-0.277 1.835,0.113 0.416,0.476 -1.002,0.838 -1.09,0.86 -1.205,0.856 -1.283,0.816 -1.467,0.721 -1.637,0.596 -1.812,0.483 -1.632,0.371 -1.464,0.201 -1.269,0.158 -0.853,0.066 -0.421,-0.016 0,0"
             style="fill:#323200;fill-opacity:1;fill-rule:nonzero;stroke:none"
             id="path2351"
             inkscape:connector-curvature="0" />
        </g>
        <g
           id="g2353"
           transform="matrix(4.0146743,0,0,-3.0291483,2600.2431,1359.1752)"
           style="fill:#323200;fill-opacity:1">
          <path
             d="M 0,0 C -0.003,0.006 -0.007,0.012 -0.01,0.018 -0.015,0.02 -0.021,0.022 -0.026,0.024 Z"
             style="fill:#323200;fill-opacity:1;fill-rule:nonzero;stroke:none"
             id="path2355"
             inkscape:connector-curvature="0" />
        </g>
        <g
           id="g2357"
           transform="matrix(4.0146743,0,0,-3.0291483,2566.7542,1393.2237)"
           style="fill:#323200;fill-opacity:1">
          <path
             d="m 0,0 c -0.097,0.028 -0.362,-0.172 -0.371,-0.281 -0.012,-0.153 0.142,-0.32 0.224,-0.48 0.71,0.442 1.298,-0.532 2.009,-0.119 0.81,0.415 1.726,-0.188 2.55,0.179 0.179,0.079 0.334,0.21 0.5,0.317 C 4.727,-0.223 4.554,0.055 4.355,0.074 3.824,0.127 3.245,0.186 2.752,0.03 1.817,-0.268 0.926,-0.268 0,0"
             style="fill:#323200;fill-opacity:1;fill-rule:nonzero;stroke:none"
             id="path2359"
             inkscape:connector-curvature="0" />
        </g>
        <g
           id="g2361"
           transform="matrix(4.0146743,0,0,-3.0291483,2583.0454,1384.212)"
           style="fill:#323200;fill-opacity:1">
          <path
             d="m 0,0 c -0.356,0.395 -0.958,0.611 -1.49,0.782 -0.204,0.066 -0.587,-0.156 -0.769,-0.355 -0.273,-0.298 -0.019,-0.505 0.275,-0.622 0.7,-0.281 1.385,-0.627 2.111,-0.809 0.53,-0.133 1.272,-0.41 1.39,0.57 C 0.956,-0.507 0.469,-0.52 0,0"
             style="fill:#323200;fill-opacity:1;fill-rule:nonzero;stroke:none"
             id="path2363"
             inkscape:connector-curvature="0" />
        </g>
        <g
           id="g2365"
           transform="matrix(4.0146743,0,0,-3.0291483,2589.1369,1385.5279)"
           style="fill:#323200;fill-opacity:1">
          <path
             d="M 0,0 C 0.011,0.001 0.021,0.002 0.031,0.003 0.035,0.006 0.038,0.008 0.042,0.011 0.03,0.018 0.018,0.027 0.007,0.032 0.005,0.02 0.001,0.012 0,0"
             style="fill:#323200;fill-opacity:1;fill-rule:nonzero;stroke:none"
             id="path2367"
             inkscape:connector-curvature="0" />
        </g>
        <g
           id="g2369"
           transform="matrix(4.0146743,0,0,-3.0291483,2589.3051,1385.4936)"
           style="fill:#323200;fill-opacity:1">
          <path
             d="m 0,0 c 0.159,-0.091 0.335,-0.249 0.465,-0.218 0.843,0.203 1.561,-0.048 2.28,-0.464 0.219,-0.127 0.653,-0.373 0.756,0.207 C 3.303,-0.288 3.119,-0.081 2.9,0.076 1.493,1.08 1.304,1.072 0,0"
             style="fill:#323200;fill-opacity:1;fill-rule:nonzero;stroke:none"
             id="path2371"
             inkscape:connector-curvature="0" />
        </g>
        <g
           id="g2373"
           transform="matrix(4.0146743,0,0,-3.0291483,2603.3621,1386.9325)"
           style="fill:#323200;fill-opacity:1">
          <path
             d="M 0,0 C 0.008,-0.008 0.015,-0.016 0.023,-0.023 0.031,-0.014 0.037,-0.004 0.044,0.005 0.029,0.006 0.018,0.006 0.002,0.007 0.001,0.004 0,0.003 0,0"
             style="fill:#323200;fill-opacity:1;fill-rule:nonzero;stroke:none"
             id="path2375"
             inkscape:connector-curvature="0" />
        </g>
        <g
           id="g2377"
           transform="matrix(4.0146743,0,0,-3.0291483,2586.107,1371.0628)"
           style="fill:#323200;fill-opacity:1">
          <path
             d="m 0,0 -0.026,-0.042 c -0.188,-0.061 -0.473,-0.142 -0.468,-0.164 0.145,-0.722 1.389,-1.24 2.044,-0.85 0.146,0.087 0.222,0.288 0.33,0.437 -0.137,0.096 -0.262,0.238 -0.414,0.28 C 0.983,-0.206 0.489,-0.11 0,0"
             style="fill:#323200;fill-opacity:1;fill-rule:nonzero;stroke:none"
             id="path2379"
             inkscape:connector-curvature="0" />
        </g>
        <g
           id="g2381"
           transform="matrix(4.0146743,0,0,-3.0291483,2604.7174,1372.9266)"
           style="fill:#323200;fill-opacity:1">
          <path
             d="m 0,0 c 0.191,-0.167 0.367,-0.447 0.576,-0.474 0.288,-0.037 0.598,0.104 0.9,0.175 C 1.206,-0.151 0.945,0.033 0.655,0.112 0.462,0.165 0.22,0.043 0,0"
             style="fill:#323200;fill-opacity:1;fill-rule:nonzero;stroke:none"
             id="path2383"
             inkscape:connector-curvature="0" />
        </g>
        <g
           id="g2385"
           transform="matrix(4.0146743,0,0,-3.0291483,2610.7246,1373.8157)"
           style="fill:#323200;fill-opacity:1">
          <path
             d="m 0,0 c -0.007,-0.001 -0.013,-0.004 -0.02,-0.005 0.014,-0.008 0.027,-0.017 0.041,-0.024 0.003,0.011 0.005,0.024 0.008,0.035 C 0.019,0.004 0.01,0.002 0,0 Z"
             style="fill:#323200;fill-opacity:1;fill-rule:nonzero;stroke:none"
             id="path2387"
             inkscape:connector-curvature="0" />
        </g>
        <g
           id="g2389"
           transform="matrix(4.0146743,0,0,-3.0291483,2580.7313,1371.0894)"
           style="fill:#323200;fill-opacity:1">
          <path
             d="M 0,0 C 0.092,-0.176 0.257,-0.313 0.393,-0.466 0.443,-0.348 0.492,-0.23 0.572,-0.04 0.419,0.09 0.268,0.219 0.117,0.348 0.074,0.23 -0.039,0.075 0,0"
             style="fill:#323200;fill-opacity:1;fill-rule:nonzero;stroke:none"
             id="path2391"
             inkscape:connector-curvature="0" />
        </g>
        <g
           id="g2393"
           transform="matrix(4.0146743,0,0,-3.0291483,2597.9997,1580.479)"
           style="fill:#323200;fill-opacity:1">
          <path
             d="m 0,0 c -0.274,-0.001 -0.548,-0.088 -0.822,-0.138 0.234,-0.107 0.459,-0.265 0.704,-0.309 0.312,-0.054 0.64,-0.026 0.96,-0.009 0.063,0.004 0.121,0.116 0.181,0.179 C 0.954,-0.23 0.891,-0.157 0.816,-0.14 0.546,-0.079 0.272,0.001 0,0"
             style="fill:#323200;fill-opacity:1;fill-rule:nonzero;stroke:none"
             id="path2395"
             inkscape:connector-curvature="0" />
        </g>
        <g
           id="g2397"
           transform="matrix(4.0146743,0,0,-3.0291483,2651.0182,1581.4456)"
           style="fill:#323200;fill-opacity:1">
          <path
             d="M 0,0 C 0.451,0.052 0.898,0.135 1.347,0.206 0.942,0.323 0.538,0.439 0.133,0.556 0.127,0.518 0.122,0.48 0.116,0.442 -0.073,0.432 -0.265,0.44 -0.449,0.404 -0.56,0.382 -0.657,0.291 -0.761,0.231 -0.645,0.184 -0.532,0.127 -0.414,0.09 -0.278,0.049 -0.133,-0.015 0,0"
             style="fill:#323200;fill-opacity:1;fill-rule:nonzero;stroke:none"
             id="path2399"
             inkscape:connector-curvature="0" />
        </g>
        <g
           id="g2401"
           transform="matrix(4.0146743,0,0,-3.0291483,2753.5414,1285.8343)"
           style="fill:#323200;fill-opacity:1">
          <path
             d="m 0,0 0.015,-0.016 c 0.01,-0.004 0.015,-0.011 0.024,-0.015 0.002,0.013 0,0.025 0.002,0.039 C 0.026,0.002 0.014,0.005 0,0"
             style="fill:#323200;fill-opacity:1;fill-rule:nonzero;stroke:none"
             id="path2403"
             inkscape:connector-curvature="0" />
        </g>
        <g
           id="g2405"
           transform="matrix(4.0146743,0,0,-3.0291483,2740.4423,1276.1274)"
           style="fill:#323200;fill-opacity:1">
          <path
             d="m 0,0 c 0.13,-0.333 0.204,-0.711 0.422,-0.97 0.544,-0.648 1.163,-1.234 1.753,-1.843 0.3,-0.31 0.628,-0.546 1.088,-0.391 C 2.359,-2.242 1.461,-1.273 0.544,-0.323 0.403,-0.176 0.188,-0.101 0,0"
             style="fill:#323200;fill-opacity:1;fill-rule:nonzero;stroke:none"
             id="path2407"
             inkscape:connector-curvature="0" />
        </g>
        <g
           id="g2409"
           transform="matrix(4.0146743,0,0,-3.0291483,2753.6984,1285.9282)"
           style="fill:#323200;fill-opacity:1">
          <path
             d="M 0,0 C -0.088,-0.761 0.404,-1.203 0.91,-1.637 1.005,-0.873 0.698,-0.329 0,0"
             style="fill:#323200;fill-opacity:1;fill-rule:nonzero;stroke:none"
             id="path2411"
             inkscape:connector-curvature="0" />
        </g>
        <g
           id="g2413"
           transform="matrix(4.0146743,0,0,-3.0291483,2757.3493,1291.033)"
           style="fill:#323200;fill-opacity:1">
          <path
             d="M 0,0 C 0.01,0.012 0.018,0.014 0.027,0.025 0.018,0.033 0.01,0.041 0.001,0.048 -0.002,0.031 0.003,0.017 0,0"
             style="fill:#323200;fill-opacity:1;fill-rule:nonzero;stroke:none"
             id="path2415"
             inkscape:connector-curvature="0" />
        </g>
        <g
           id="g2417"
           transform="matrix(4.0146743,0,0,-3.0291483,2736.8439,1273.8389)"
           style="fill:#323200;fill-opacity:1">
          <path
             d="M 0,0 C 0.071,-0.157 0.101,-0.373 0.222,-0.458 0.395,-0.579 0.621,-0.625 0.83,-0.694 0.71,-0.506 0.607,-0.302 0.451,-0.151 0.349,-0.051 0.154,-0.047 0,0"
             style="fill:#323200;fill-opacity:1;fill-rule:nonzero;stroke:none"
             id="path2419"
             inkscape:connector-curvature="0" />
        </g>
        <g
           id="g2421"
           transform="matrix(4.0146743,0,0,-3.0291483,2740.1773,1275.9408)"
           style="fill:#323200;fill-opacity:1">
          <path
             d="M 0,0 C 0.009,-0.014 0.017,-0.028 0.026,-0.041 0.038,-0.049 0.053,-0.055 0.066,-0.062 0.06,-0.046 0.055,-0.03 0.049,-0.015 0.033,-0.01 0.016,-0.005 0,0"
             style="fill:#323200;fill-opacity:1;fill-rule:nonzero;stroke:none"
             id="path2423"
             inkscape:connector-curvature="0" />
        </g>
        <g
           id="g2425"
           transform="matrix(4.0146743,0,0,-3.0291483,2777.4014,1311.8996)"
           style="fill:#323200;fill-opacity:1">
          <path
             d="m 0,0 c -0.715,-0.297 -0.911,-0.171 -0.936,0.915 0.02,0.105 -0.025,0.607 0.2,0.903 0.511,0.673 1.146,1.255 1.76,1.843 C 1.085,3.719 1.47,3.602 1.5,3.504 1.883,2.25 1.099,0.457 0,0 m -2.297,4.008 c 0.32,-0.346 0.702,-0.646 0.958,-1.032 0.102,-0.153 0.021,-0.568 -0.126,-0.703 -0.124,-0.116 -0.493,-0.067 -0.696,0.03 -0.193,0.093 -0.302,0.351 -0.466,0.52 -0.94,0.972 -1.886,1.938 -2.83,2.906 l -0.044,-0.022 0.064,0.036 c -0.169,0.225 -0.315,0.475 -0.513,0.672 -1.8,1.789 -3.606,3.572 -5.418,5.35 -0.835,0.82 -1.699,1.61 -2.525,2.44 -0.625,0.628 -1.218,1.289 -1.81,1.949 -0.468,0.521 -0.913,1.062 -1.369,1.594 l 0.03,-0.02 c -0.237,0.249 -0.36,1.056 -0.823,0.197 0.017,0.69 -0.269,1.165 -0.827,1.644 -1.167,1.004 -2.217,2.147 -3.294,3.253 -0.149,0.153 -0.255,0.429 -0.246,0.642 0.042,0.994 0.038,2.003 0.23,2.972 0.198,1 0.625,1.094 1.463,0.524 2.389,-1.625 4.168,-3.877 6.133,-5.938 1.675,-1.757 3.343,-3.52 5.039,-5.257 1.13,-1.158 2.345,-2.234 3.445,-3.419 1.521,-1.637 2.98,-3.334 4.446,-5.023 C -0.854,6.606 -0.28,5.848 0.302,5.098 0.375,5.004 0.363,4.844 0.391,4.715 0.226,4.738 0.04,4.721 -0.099,4.793 c -0.163,0.085 -0.293,0.242 -0.426,0.378 -1.197,1.223 -2.386,2.454 -3.588,3.672 -0.832,0.844 -1.715,1.641 -2.516,2.513 -2.119,2.305 -4.184,4.66 -6.317,6.951 -0.87,0.935 -1.851,1.768 -2.806,2.621 -0.145,0.13 -0.391,0.146 -0.604,0.2 0.512,-0.597 0.986,-1.234 1.551,-1.777 1.43,-1.373 2.837,-2.759 4.154,-4.252 2.189,-2.481 4.527,-4.831 6.805,-7.233 1.142,-1.205 2.302,-2.393 3.419,-3.62 0.134,-0.148 0.051,-0.493 0.068,-0.747 -0.198,0.063 -0.453,0.069 -0.585,0.199 -1.042,1.025 -2.093,2.045 -3.072,3.129 -0.37,0.411 -0.61,0.483 -0.952,0.087 0.89,-0.969 1.778,-1.94 2.671,-2.906 M -3.234,1.3 C -3.347,1.746 -3.46,2.192 -3.573,2.639 -3.355,2.503 -3.115,2.391 -2.935,2.217 -2.413,1.712 -2.695,1.454 -3.234,1.3 m -19.698,23.343 c -0.079,-0.198 -0.238,-0.365 -0.363,-0.545 -0.159,0.191 -0.319,0.383 -0.401,0.481 0.081,1.487 0.171,2.808 1.048,3.916 0.251,0.317 0.463,0.616 0.906,0.24 0.459,-0.39 0.174,-0.633 -0.129,-0.898 -0.802,-0.699 -1.228,-1.54 -1.017,-2.636 0.034,-0.179 0.022,-0.391 -0.044,-0.558 m -1.314,2.46 c -0.05,-0.093 -0.183,-0.141 -0.277,-0.21 -0.029,0.084 -0.059,0.168 -0.13,0.367 0.106,0.537 0.211,1.182 0.372,1.813 0.053,0.207 0.216,0.444 0.397,0.545 0.178,0.099 0.442,0.043 0.668,0.055 -10e-4,-0.198 0.06,-0.426 -0.016,-0.59 -0.313,-0.672 -0.663,-1.327 -1.014,-1.98 m -1.133,1.348 c -0.065,-0.37 -0.02,-0.758 -0.068,-1.132 -0.022,-0.176 -0.148,-0.339 -0.227,-0.508 -0.12,0.184 -0.286,0.355 -0.348,0.557 -0.068,0.219 -0.039,0.467 -0.052,0.703 -0.057,0.011 -0.114,0.023 -0.172,0.035 0.174,0.771 0.277,1.567 0.544,2.305 0.23,0.637 0.83,0.816 1.387,0.533 0.142,-0.072 0.244,-0.269 0.301,-0.43 0.019,-0.053 -0.146,-0.228 -0.254,-0.261 -0.904,-0.277 -0.981,-1.065 -1.111,-1.802 m -0.131,-7.116 c -0.026,-0.071 -0.255,-0.119 -0.377,-0.097 -0.824,0.152 -2.146,1.626 -2.178,2.544 0.076,0.118 0.218,0.336 0.359,0.555 0.168,-0.145 0.357,-0.271 0.501,-0.437 0.274,-0.318 0.517,-0.663 0.785,-0.987 0.298,-0.36 0.631,-0.695 0.904,-1.073 0.083,-0.116 0.061,-0.353 0.006,-0.505 m -1.408,5.526 c 0.152,-0.192 0.36,-0.362 0.442,-0.58 0.163,-0.436 0.257,-0.899 0.357,-1.266 0.002,-0.378 0.004,-0.653 0.006,-0.928 -0.16,0.225 -0.351,0.435 -0.473,0.679 -0.209,0.421 -0.431,0.851 -0.537,1.304 -0.055,0.235 0.129,0.526 0.205,0.791 M -29.817,2.66 c 1.444,-0.575 2.921,-0.857 4.453,-1.02 0.525,-0.056 1.054,-0.363 1.512,-0.661 0.402,-0.263 0.371,-0.687 -0.081,-0.901 -0.596,-0.283 -1.234,-0.476 -1.849,-0.723 -0.158,-0.064 -0.295,-0.182 -0.442,-0.276 0.163,-0.059 0.326,-0.166 0.488,-0.166 0.233,0 0.466,0.107 0.7,0.112 0.14,0.003 0.283,-0.101 0.425,-0.157 -0.113,-0.069 -0.222,-0.191 -0.34,-0.199 -1.137,-0.077 -2.275,-0.135 -3.413,-0.199 0.003,-0.079 0.007,-0.158 0.011,-0.237 -1.088,-0.061 -2.175,-0.145 -3.264,-0.167 -0.274,-0.005 -0.551,0.186 -0.827,0.287 0.242,0.121 0.479,0.334 0.727,0.347 1.506,0.08 3.015,0.108 4.522,0.17 0.165,0.006 0.327,0.112 0.49,0.171 -0.124,0.11 -0.245,0.31 -0.374,0.316 -0.612,0.03 -1.227,0.021 -1.84,-0.001 -0.711,-0.025 -1.422,-0.133 -2.129,-0.104 -0.661,0.027 -0.815,0.318 -0.652,0.951 0.118,0.455 0.289,0.904 0.341,1.367 0.126,1.126 0.518,1.497 1.542,1.09 m 7.806,-4.453 c 0.436,0.545 0.644,0.302 0.924,-0.118 0.999,-1.495 2.034,-2.966 3.017,-4.472 0.616,-0.944 1.226,-1.901 1.725,-2.909 0.463,-0.935 1.339,-2.863 1.339,-2.863 0.49,-1.072 0.986,-2.141 1.54,-3.178 0.472,-0.885 0.189,-1.416 -0.299,-2.06 -0.252,-0.333 -0.416,-0.463 -0.767,-0.112 -0.463,0.463 -0.956,0.851 -1.492,0.018 -0.094,-0.146 -0.637,-0.223 -0.7,-0.135 -0.405,0.562 -1.365,0.138 -1.624,0.952 -0.037,0.117 -0.42,0.193 -0.625,0.163 -0.123,-0.018 -0.283,-0.271 -0.3,-0.431 -0.044,-0.433 0.48,-1.085 -0.487,-1.114 0.055,-0.111 0.094,-0.305 0.167,-0.319 0.408,-0.078 0.782,-0.04 0.789,0.513 0.006,0.459 0.08,0.388 0.466,0.198 0.955,-0.471 1.895,-1.356 3.085,-0.48 0.088,0.065 0.287,0.023 0.416,-0.022 0.579,-0.199 1.117,-0.383 1.785,-0.241 0.284,0.06 0.8,-0.433 1.03,-0.79 0.298,-0.463 -0.112,-0.761 -0.494,-1.007 -0.228,-0.149 -0.421,-0.353 -0.629,-0.532 l -0.004,-0.049 -0.003,0.079 c -0.189,0.023 -0.401,-0.003 -0.561,0.076 -0.66,0.328 -1.305,0.449 -1.998,0.086 -0.128,-0.067 -0.338,0.042 -0.509,0.035 -0.097,-0.004 -0.191,-0.079 -0.286,-0.122 0.04,-0.085 0.059,-0.214 0.126,-0.247 0.241,-0.121 0.516,-0.324 0.747,-0.289 0.837,0.124 1.656,0.38 2.404,-0.304 0.092,-0.084 0.5,0.021 0.629,0.161 0.314,0.342 0.586,0.144 0.901,0.062 0.141,-0.037 0.467,-0.303 0.443,0.15 0.92,-0.978 0.92,-0.988 0.113,-2.128 -0.291,-0.41 -0.045,-0.648 0.296,-0.735 0.7,-0.179 0.792,-0.671 0.854,-1.279 0.154,-1.501 0.178,-1.501 -1.216,-2.07 -0.212,-0.086 -0.438,-0.14 -0.657,-0.209 10e-4,0.007 0.002,0.015 0.004,0.022 -0.969,-0.562 -1.438,0.889 -2.344,0.581 -0.589,0.786 -1.116,0.496 -1.749,0 -0.243,-0.191 -0.947,-0.217 -1.085,-0.041 -0.42,0.54 -1.024,1.076 -0.788,1.911 l -0.024,-0.028 c -0.065,0.116 -0.102,0.276 -0.201,0.34 -0.973,0.627 -0.975,0.619 0.048,1.181 0.087,0.048 0.163,0.175 0.177,0.274 0.009,0.066 -0.086,0.188 -0.161,0.216 -0.161,0.059 -0.345,0.053 -0.508,0.11 -1.145,0.399 -2.378,-0.368 -3.508,0.262 -0.046,0.026 -0.202,-0.037 -0.213,-0.081 -0.031,-0.131 -0.073,-0.328 -0.005,-0.398 0.152,-0.158 0.355,-0.282 0.559,-0.373 0.951,-0.424 1.041,-0.625 0.614,-1.565 -0.116,-0.255 -0.286,-0.485 -0.428,-0.728 -0.687,-1.176 -0.687,-1.176 -1.891,-0.499 -0.694,0.391 -0.703,0.392 -0.911,-0.483 -0.008,0 -0.016,-0.001 -0.024,-0.001 0.006,-0.01 0.011,-0.017 0.017,-0.027 l 0.025,0.028 c 0.024,-0.041 0.037,-0.104 0.073,-0.121 0.57,-0.277 1.514,-0.45 1.62,-0.848 0.129,-0.481 -0.421,-1.168 -0.728,-1.738 -0.628,-1.167 -1.175,-2.401 -1.965,-3.45 -1.078,-1.433 -2.327,-2.74 -3.545,-4.061 -2.281,-2.473 -4.979,-4.38 -8.044,-5.763 -0.137,-0.062 -0.333,0.005 -0.502,0.012 0.06,0.217 0.119,0.434 0.179,0.651 l -0.018,-0.025 c 0.042,0.7 -0.028,1.428 0.148,2.093 0.402,1.523 0.287,3.082 0.468,4.617 0.048,0.413 0.239,0.873 -0.423,1.011 -0.061,0.012 -0.137,0.391 -0.065,0.522 0.228,0.413 0.548,0.776 0.784,1.185 0.189,0.327 0.393,0.762 -0.08,0.97 -0.17,0.074 -0.548,-0.206 -0.766,-0.398 -0.164,-0.145 -0.198,-0.428 -0.338,-0.612 -0.222,-0.293 -0.467,-0.574 -0.734,-0.825 -0.299,-0.281 -0.632,-0.524 -0.953,-0.781 -0.106,-0.085 -0.219,-0.161 -0.328,-0.242 -0.042,0.16 -0.136,0.327 -0.118,0.479 0.25,2.067 0.516,4.131 0.777,6.196 l -0.022,-0.023 c 0.071,0.595 0.142,1.191 0.213,1.786 l -0.003,-0.001 c 0.093,0.147 0.204,0.287 0.265,0.445 0.694,1.798 0.391,3.89 1.627,5.532 0.044,0.058 0.04,0.183 0.012,0.261 -0.598,1.714 1.103,4.615 1.103,4.615 -0.158,1.872 0.808,3.543 1.02,5.353 0.113,0.974 0.204,2.069 0.708,2.849 0.592,0.916 0.585,1.86 0.761,2.812 0.198,1.077 0.257,1.109 1.392,1.144 1.564,0.049 3.13,0.097 4.686,0.236 1.181,0.105 2.345,0.408 3.526,0.509 0.61,0.053 1.155,0.175 1.521,0.631 m 10.753,-19.254 c -0.097,0.666 -0.194,1.332 -0.292,1.997 0.568,-0.594 0.617,-1.267 0.292,-1.997 m 2.254,-8.449 c -0.124,-1.155 -0.542,-2.282 -0.63,-3.436 -0.162,-2.135 -1.089,-4.003 -1.86,-5.927 -0.385,-0.957 -0.817,-1.922 -1.395,-2.769 -0.717,-1.048 -1.651,-1.946 -2.41,-2.968 -0.501,-0.675 -1.107,-1.108 -1.895,-1.321 0.069,0.254 0.107,0.524 0.224,0.754 0.814,1.602 1.65,3.176 2.115,4.944 0.498,1.897 0.794,3.775 0.68,5.742 -0.119,2.062 -0.618,4.025 -1.224,5.979 -0.084,0.269 -0.057,0.734 0.114,0.878 0.192,0.162 0.635,0.153 0.914,0.058 0.487,-0.168 0.913,-0.514 1.401,-0.676 0.277,-0.092 0.656,-0.035 0.93,0.089 0.123,0.056 0.124,0.383 0.17,0.612 0.437,-0.875 0.511,-0.934 1.076,-0.295 0.491,0.556 0.78,0.334 1.299,0.074 0.877,-0.437 0.552,-1.167 0.491,-1.738 m -7.24,-18.691 c 0.007,-0.097 0.015,-0.194 0.022,-0.29 -0.093,0 -0.187,10e-4 -0.28,10e-4 0.086,0.096 0.172,0.192 0.258,0.289 m -1.777,1.381 c 0.261,0.272 0.523,0.545 0.784,0.818 0.002,-0.525 -0.237,-0.82 -0.784,-0.818 m -0.786,-0.906 c -0.027,0.486 0.308,0.676 0.678,0.838 -0.226,-0.279 -0.452,-0.559 -0.678,-0.838 m -5.562,13.788 c 0.378,0.628 0.758,1.255 1.133,1.884 0.073,0.122 0.134,0.252 0.195,0.381 0.629,1.317 1.25,2.639 1.893,3.949 0.096,0.197 0.293,0.343 0.444,0.513 0.165,-0.147 0.403,-0.262 0.482,-0.445 0.889,-2.042 1.92,-4.035 2.193,-6.175 0.185,-0.659 0.013,-0.938 -0.593,-0.862 -1.223,0.154 -2.448,0.302 -3.671,0.46 -0.693,0.09 -1.384,0.196 -2.076,0.295 m 4.167,-8.947 c -0.266,0.388 -0.477,0.814 -0.735,1.207 -1.033,1.571 -2.074,3.136 -3.113,4.703 -0.104,0.157 -0.23,0.459 -0.311,0.448 -1.196,-0.17 -0.579,0.751 -0.676,1.173 -0.102,0.44 0.082,0.711 0.652,0.488 1.621,-0.633 3.326,-0.63 5.037,-0.614 1.481,0.013 1.75,-0.302 1.693,-1.867 0.007,-1.796 -0.312,-3.648 -1.156,-5.391 -0.333,-0.687 -0.966,-0.768 -1.391,-0.147 m 1.257,-5.122 c -0.099,-0.07 -0.231,-0.093 -0.35,-0.135 0.071,0.102 0.126,0.222 0.217,0.299 0.055,0.046 0.15,0.044 0.234,0.055 -0.028,-0.081 -0.044,-0.178 -0.101,-0.219 m -1.926,1.746 c -0.834,-1.163 -1.849,-2.132 -3.308,-2.475 -0.474,-0.111 -0.698,0.167 -0.811,0.582 -0.287,1.053 -0.637,2.093 -0.847,3.161 -0.428,2.17 -0.799,4.353 -1.148,6.538 -0.063,0.39 0.017,0.843 0.159,1.217 0.219,0.573 0.6,0.641 0.945,0.16 0.866,-1.208 1.979,-2.237 2.618,-3.611 0.118,-0.252 0.311,-0.468 0.46,-0.707 0.764,-1.233 1.714,-2.382 1.837,-3.92 0.04,-0.321 0.234,-0.752 0.095,-0.945 m -6.422,-3.353 c -0.661,-0.024 -1.323,-0.047 -1.984,-0.043 -1.732,0.013 -2.311,1.021 -1.574,2.63 0.16,0.349 0.107,0.795 0.153,1.197 l 0.024,-0.022 c 0.323,0.989 0.645,1.977 0.968,2.965 l -0.008,-0.025 c 0.112,0.724 0.157,1.468 0.358,2.167 0.157,0.551 0.2,1.405 0.966,1.387 0.72,-0.017 0.656,-0.844 0.771,-1.36 0.544,-2.449 1.044,-4.909 1.555,-7.366 0.232,-1.118 -0.068,-1.489 -1.229,-1.53 m -1.64,-6.805 c -0.906,-1.081 -1.818,-2.157 -2.729,-3.233 -0.365,-0.291 -0.531,-0.612 -0.32,-1.103 0.147,-0.343 0.227,-0.738 0.231,-1.111 0.003,-0.313 -0.146,-0.628 -0.228,-0.942 -0.035,0.275 -0.065,0.551 -0.107,0.825 -0.043,0.277 -0.063,0.565 -0.159,0.825 -0.146,0.394 -0.312,0.708 -0.751,0.174 -0.722,-0.877 -1.49,-1.71 -2.518,-2.267 -1.359,-0.736 -3.593,-0.672 -4.579,0.213 -0.625,0.561 -1.052,1.357 -1.975,1.559 -0.138,0.03 -0.266,0.279 -0.32,0.451 -0.025,0.081 0.13,0.31 0.213,0.315 0.179,0.012 0.39,-0.038 0.545,-0.133 1.757,-1.072 3.516,-0.275 5.245,0.047 0.906,0.169 1.834,0.527 2.604,1.027 0.806,0.522 1.405,1.353 2.149,1.985 0.753,0.641 1.451,1.395 2.482,1.618 0.087,0.018 0.183,-0.005 0.275,-0.009 -0.018,-0.081 -0.01,-0.184 -0.058,-0.241 m -3.007,-26.377 c 0.186,0.376 0.481,0.696 0.715,1.049 0.245,0.369 0.531,0.372 0.816,0.078 0.523,-0.539 1.026,-1.096 1.538,-1.646 l -0.027,0.024 -0.065,-0.058 c 0.029,0.011 0.057,0.021 0.086,0.032 0.318,-0.388 0.637,-0.776 0.955,-1.164 -0.005,0.009 -0.009,0.017 -0.014,0.026 0.293,-0.061 0.586,-0.121 0.878,-0.182 -0.178,-0.207 -0.321,-0.472 -0.543,-0.607 -0.394,-0.241 -0.819,-0.459 -1.26,-0.589 -1.084,-0.319 -2.186,-0.578 -3.277,-0.876 -0.111,-0.03 -0.196,-0.157 -0.293,-0.239 0.115,-0.037 0.239,-0.124 0.342,-0.104 0.882,0.174 1.761,0.36 2.637,0.558 1.006,0.228 2.009,0.474 3.013,0.712 0.003,0.003 0.005,0.007 0.008,0.011 0.277,-0.081 0.553,-0.162 0.829,-0.243 0.136,-1.009 -0.057,-1.444 -1.054,-1.797 -0.845,-0.299 -1.753,-0.415 -2.627,-0.637 -0.129,-0.033 -0.223,-0.206 -0.334,-0.314 0.125,-0.051 0.251,-0.148 0.375,-0.146 1.554,0.019 3.049,0.269 4.207,1.418 0.51,0.507 0.799,0.541 1.368,-0.001 0.742,-0.707 0.888,-0.842 -0.016,-1.654 -0.735,-0.66 -1.452,-1.339 -2.177,-2.01 -0.017,-10e-4 -0.033,-0.002 -0.05,-0.003 -0.059,0.02 -0.117,0.044 -0.178,0.051 -0.023,0.003 -0.052,-0.038 -0.079,-0.07 l -0.01,-0.001 c -0.417,-0.292 -0.824,-0.811 -1.255,-0.831 -0.948,-0.044 -1.728,-0.715 -2.69,-0.601 -0.126,0.015 -0.266,-0.079 -0.399,-0.123 0.133,-0.034 0.265,-0.076 0.4,-0.1 0.716,-0.125 1.523,0.248 2.149,-0.398 0.036,-0.036 0.204,-0.001 0.265,0.053 0.661,0.586 1.455,0.319 2.193,0.331 1.921,0.03 3.765,0.464 5.597,0.983 0.434,0.123 0.852,0.282 0.458,0.887 -0.151,0.23 -0.113,0.543 0.271,0.303 0.615,-0.384 1.591,-0.514 1.568,-1.45 -0.021,-0.82 -0.808,-1.153 -1.475,-1.382 -2.94,-1.011 -5.922,-1.85 -9.071,-1.854 -0.236,0 -0.507,0.009 -0.701,-0.097 -0.79,-0.431 -1.633,-0.377 -2.479,-0.353 -0.017,-0.242 0.091,-0.723 -0.315,-0.478 -0.526,0.32 -0.954,0.191 -1.47,0.136 -1.578,-0.169 -3.163,-0.319 -4.748,-0.374 -1.87,-0.065 -3.739,0.115 -5.61,-0.265 -0.911,-0.185 -1.936,-0.177 -2.838,0.041 -1.217,0.293 -2.46,0.265 -3.678,0.438 -0.77,0.11 -1.505,0.523 -2.227,0.455 -1.71,-0.161 -2.86,0.631 -3.854,1.843 0.002,0 0.003,0.001 0.005,0.001 -0.027,0.377 -0.053,0.755 -0.08,1.132 0.736,0.434 1.454,0.636 2.365,0.374 1.687,-0.486 3.417,-0.826 5.139,-1.178 0.768,-0.157 1.584,-0.428 2.253,0.342 0.116,0.133 0.448,0.129 0.674,0.109 0.883,-0.077 1.763,-0.184 2.644,-0.283 0.327,-0.037 0.655,-0.127 0.979,-0.113 1.322,0.057 2.643,0.129 3.962,0.227 0.703,0.053 1.401,0.165 2.099,0.267 0.122,0.018 0.232,0.122 0.347,0.186 -0.111,0.04 -0.223,0.113 -0.335,0.115 -1.422,0.03 -2.844,0.042 -4.265,0.077 -0.329,0.009 -0.681,0.027 -0.979,0.148 -2.579,1.045 -5.148,2.114 -7.72,3.176 -0.044,0.018 -0.101,0.023 -0.13,0.055 -0.09,0.094 -0.168,0.198 -0.251,0.298 0.102,0.084 0.202,0.237 0.306,0.239 0.379,0.01 0.759,-0.023 1.138,-0.055 0.474,-0.039 0.946,-0.114 1.421,-0.126 0.135,-0.003 0.274,0.164 0.411,0.252 -0.12,0.123 -0.222,0.324 -0.361,0.354 -0.508,0.11 -1.027,0.17 -1.543,0.234 -0.46,0.057 -0.441,0.308 -0.194,0.557 0.448,0.451 0.956,0.697 1.656,0.596 2.402,-0.346 4.819,-0.468 7.245,-0.331 0.176,0.01 0.349,0.064 0.523,0.097 -0.191,0.073 -0.376,0.186 -0.573,0.209 -0.318,0.037 -0.646,-0.01 -0.966,0.021 -1.738,0.17 -3.478,0.33 -5.211,0.543 -0.831,0.103 -0.966,0.512 -0.421,1.124 0.148,0.168 0.4,0.238 0.573,0.389 1.067,0.93 2.165,1.83 3.167,2.826 0.394,0.391 0.45,0.051 0.611,-0.108 0.832,-0.824 1.641,-1.718 2.885,-1.85 1.406,-0.15 2.825,-0.17 4.232,-0.306 1.3,-0.125 2.014,0.556 2.54,1.62 m -12.257,26.742 c -2.469,0.118 -4.902,0.436 -7.233,1.289 -0.739,0.271 -1.429,0.672 -2.151,0.992 -1.631,0.723 -3.338,1.314 -4.538,2.754 -0.147,0.177 -0.396,0.266 -0.571,0.424 -1.111,1.007 -2.22,2.016 -3.309,3.046 -0.102,0.096 -0.126,0.376 -0.061,0.512 0.041,0.085 0.357,0.137 0.475,0.071 0.741,-0.416 1.491,-0.829 2.18,-1.324 0.6,-0.431 1.192,-0.843 1.673,-1.482 0.409,-0.543 1.279,-0.757 1.967,-1.068 1.941,-0.877 3.853,-1.852 6.064,-1.871 0.264,-0.003 0.545,-0.112 0.786,-0.236 1.354,-0.695 2.749,-0.98 4.25,-0.549 0.41,0.118 0.865,0.287 1.258,0.213 1.992,-0.373 3.971,-0.815 6.014,-0.793 1.669,-0.968 3.216,0.045 4.81,0.296 0.401,0.681 0.999,0.39 1.523,0.264 0.288,-0.069 0.535,-0.308 0.801,-0.47 -0.263,-0.189 -0.499,-0.455 -0.792,-0.551 -1.01,-0.328 -2.077,-0.505 -3.054,-0.907 -2.365,-0.972 -4.887,-0.361 -7.195,-0.893 -1.035,0.104 -1.964,0.238 -2.897,0.283 m -18.839,10.004 c -0.032,-0.03 -0.316,0.126 -0.4,0.251 -0.833,1.23 -1.939,2.299 -2.283,3.826 -0.033,0.147 -0.209,0.283 -0.349,0.38 -0.539,0.377 -0.685,0.712 -0.39,1.066 0.366,0.436 0.559,-0.057 0.811,-0.192 0.828,-0.445 1.617,-0.984 2.483,-1.335 1.927,-0.779 3.89,-1.469 5.841,-2.186 0.171,-0.063 0.364,-0.067 0.548,-0.089 1.386,-0.168 2.77,-0.359 4.16,-0.487 0.785,-0.073 1.424,-0.426 2.062,-0.828 0.797,-0.503 1.591,-1.011 2.41,-1.476 0.159,-0.09 0.414,-0.009 0.63,0.001 0.104,-0.24 0.242,-0.474 0.291,-0.726 0.057,-0.289 0.023,-0.596 0.028,-0.895 -0.132,0.212 -0.262,0.425 -0.398,0.634 -0.023,0.036 -0.063,0.075 -0.103,0.085 -1.211,0.325 -2.426,0.634 -3.634,0.973 -0.496,0.139 -0.612,-0.258 -0.838,-0.508 -0.096,0.501 -0.497,0.41 -0.861,0.416 -1.325,0.022 -2.664,-0.055 -3.971,0.111 -1.423,0.181 -2.899,0.163 -4.247,0.774 -0.573,0.26 -1.102,0.849 -1.79,0.205 m -4.953,10.671 c -0.045,0.081 -0.09,0.191 -0.07,0.272 0.025,0.101 0.116,0.187 0.403,0.612 0.364,-0.476 0.615,-0.886 0.946,-1.214 0.251,-0.248 0.684,-0.617 0.899,-0.541 0.808,0.284 1.242,-0.227 1.766,-0.613 0.259,-0.191 0.55,-0.488 0.822,-0.483 0.831,0.014 1.269,-0.512 1.764,-1.028 0.324,-0.336 0.742,-0.87 1.084,-0.845 1.041,0.076 1.519,-0.558 2.047,-1.225 0.339,-0.427 0.645,-1.102 1.274,-0.259 0.037,0.048 0.406,-0.08 0.559,-0.203 0.441,-0.353 0.847,-1.061 1.274,-1.066 1.518,-0.018 2.079,-1.364 3.132,-1.996 0.07,-0.042 0.059,-0.25 0.046,-0.377 -0.004,-0.033 -0.168,-0.089 -0.241,-0.07 -1.23,0.322 -2.473,0.603 -3.679,1.001 -1.019,0.336 -1.956,0.963 -3.108,0.736 -0.081,-0.016 -0.181,0.044 -0.267,0.081 -1.567,0.665 -3.163,1.272 -4.686,2.026 -0.705,0.348 -1.417,0.878 -1.861,1.511 -0.807,1.154 -1.417,2.445 -2.104,3.681 m -0.683,4.848 c 0.074,-0.146 0.112,-0.341 0.23,-0.428 0.299,-0.22 0.621,-0.529 0.956,-0.558 1.135,-0.098 2.28,-0.11 3.421,-0.107 0.265,0 0.538,0.17 0.789,0.298 0.096,0.048 0.141,0.196 0.209,0.299 -0.115,0.062 -0.228,0.175 -0.344,0.178 -0.81,0.018 -1.62,0 -2.43,0.021 -0.488,0.013 -1.075,-0.178 -1.31,0.456 -0.014,0.039 0.641,0.324 0.984,0.497 0.128,0.064 0.259,0.203 0.377,0.191 0.927,-0.093 1.96,-0.002 2.738,-0.401 0.563,-0.289 1.155,-1.291 1.074,-1.886 -0.129,-0.958 0.429,-1.386 0.835,-1.966 0.679,-0.969 1.405,-1.904 2.112,-2.853 0.405,-0.545 0.81,-1.089 1.215,-1.633 -1.023,0.489 -2.214,0.653 -2.996,1.614 -0.126,0.154 -0.485,0.277 -0.653,0.208 -0.522,-0.211 -0.778,0.09 -1.107,0.382 -0.317,0.281 -0.687,0.656 -1.062,0.691 -1.056,0.098 -1.655,0.82 -2.356,1.44 -0.28,0.246 -0.613,0.45 -0.954,0.605 -1.048,0.476 -1.44,1.422 -1.773,2.409 -0.053,0.158 0.027,0.361 0.045,0.543 m -0.29,2.139 c 0.026,1.223 0.08,2.454 1.152,3.317 0.459,0.044 0.919,0.083 1.378,0.134 0.365,0.04 0.756,0.022 1.086,0.153 1.326,0.525 1.892,0.248 2.125,-1.104 0.186,-1.08 0.016,-1.159 -1.097,-0.952 -0.965,0.179 -1.969,0.16 -2.956,0.211 -0.132,0.007 -0.308,-0.049 -0.394,-0.141 -0.119,-0.128 -0.242,-0.323 -0.23,-0.48 0.008,-0.102 0.246,-0.251 0.392,-0.265 0.279,-0.026 0.583,-0.025 0.846,0.059 1.068,0.342 1.999,0.016 3.009,-0.347 0.656,-0.235 0.585,-0.623 0.699,-1.044 -0.294,-0.059 -0.604,-0.209 -0.878,-0.16 -0.825,0.146 -1.562,0.113 -2.324,-0.346 -0.629,-0.379 -1.359,-0.27 -2.062,0.032 -0.451,0.195 -0.755,0.467 -0.746,0.933 m 1.041,4.293 c 0.228,1.526 0.492,1.646 2.031,1.328 0.613,-0.126 1.304,-0.137 1.9,0.021 0.4,0.105 0.561,0 0.598,-0.26 0.029,-0.207 -0.183,-0.647 -0.264,-0.641 -0.813,0.058 -1.467,-0.223 -2.051,-0.761 -0.066,-0.061 -0.272,0.015 -0.409,0.048 -0.728,0.174 -1.276,-0.072 -1.674,-0.682 -0.05,0.316 -0.176,0.644 -0.131,0.947 m 0.951,3.87 0.008,0.025 c 0.002,0.007 0.004,0.013 0.006,0.02 0.459,1.222 0.907,2.449 1.368,3.67 0.164,0.435 0.456,0.709 0.963,0.635 1.277,-0.187 1.894,-0.858 1.987,-2.666 -0.062,-0.253 -0.145,-0.617 -0.243,-1.026 l -0.006,-0.024 c -0.12,-0.503 -0.265,-1.077 -0.434,-1.653 -0.055,-0.186 -0.445,-0.411 -0.656,-0.389 -0.832,0.089 -1.653,0.274 -2.48,0.414 -0.646,0.109 -0.692,0.49 -0.513,0.994 m 13.215,-17.432 c 0.131,-0.111 0.32,-0.195 0.382,-0.336 0.169,-0.384 0.139,-0.72 -0.364,-0.813 -0.085,0.203 -0.21,0.403 -0.223,0.611 -0.01,0.174 0.131,0.358 0.205,0.538 m -7.193,10.158 c -0.817,1.198 -0.69,2.532 -0.855,3.832 -0.026,0.205 0.096,0.429 0.149,0.645 0.221,-0.155 0.503,-0.267 0.644,-0.474 0.152,-0.222 0.15,-0.542 0.252,-0.805 0.274,-0.705 0.539,-1.417 0.872,-2.094 0.094,-0.193 0.409,-0.278 0.622,-0.413 -0.587,1.489 -1.168,2.98 -1.765,4.464 -0.159,0.395 -0.459,0.755 -0.522,1.158 -0.033,0.215 0.302,0.487 0.471,0.733 0.187,-0.135 0.486,-0.237 0.538,-0.412 0.129,-0.434 0.221,-0.774 0.778,-0.864 0.216,-0.036 0.42,-0.442 0.538,-0.718 0.203,-0.479 0.292,-1.009 0.517,-1.474 0.091,-0.186 0.519,-0.419 0.619,-0.355 0.642,0.409 0.588,-0.109 0.676,-0.453 0.156,-0.607 -0.125,-1.596 1.116,-1.258 0.08,0.021 0.268,-0.131 0.314,-0.241 0.451,-1.086 0.919,-2.168 1.308,-3.277 0.294,-0.84 0.609,-1.707 0.681,-2.581 0.107,-1.289 0.017,-2.595 -0.019,-3.894 -0.004,-0.151 -0.195,-0.297 -0.299,-0.446 -0.12,0.141 -0.285,0.262 -0.354,0.424 -0.726,1.701 -1.403,3.425 -2.167,5.108 -0.301,0.664 -0.781,1.246 -1.182,1.864 0.007,-0.003 0.011,-0.009 0.018,-0.012 -0.327,0.569 -0.654,1.137 -0.981,1.705 0.016,-0.736 0.247,-1.35 0.956,-1.688 0.212,-0.554 0.402,-1.118 0.643,-1.659 0.325,-0.73 0.703,-1.435 1.026,-2.164 0.065,-0.146 -0.011,-0.354 -0.022,-0.533 -0.182,0.013 -0.378,-0.014 -0.545,0.045 -0.48,0.168 -0.948,0.37 -1.421,0.56 -0.521,0.828 -1.457,0.953 -2.242,1.344 -0.255,0.127 -0.516,0.207 -0.345,0.804 0.28,0.979 0.632,2.173 -0.019,3.129 m 3.768,-11.521 c -0.064,-0.04 -0.127,-0.079 -0.19,-0.118 -0.112,0.2 -0.223,0.4 -0.335,0.6 0.175,-0.16 0.35,-0.321 0.525,-0.482 m -1.001,2.432 c -0.726,1.194 -1.248,2.512 -1.849,3.781 -0.073,0.154 -0.088,0.335 -0.129,0.504 0.168,-0.017 0.345,-0.009 0.504,-0.056 0.445,-0.134 0.883,-0.29 1.324,-0.438 0.298,-0.266 0.561,-0.627 0.91,-0.758 1.534,-0.576 2.19,-1.789 2.555,-3.261 0.09,-0.366 0.195,-0.744 0.381,-1.067 0.195,-0.338 0.485,-0.621 0.738,-0.926 -0.004,-10e-4 -0.005,-0.003 -0.008,-0.003 0.074,-0.649 0.026,-1.313 0.581,-1.84 0.214,-0.203 0.253,-0.603 0.336,-0.922 0.029,-0.111 -0.05,-0.25 -0.079,-0.376 -0.123,0.05 -0.274,0.07 -0.365,0.154 -0.932,0.862 -1.892,1.698 -2.766,2.616 -0.772,0.809 -1.557,1.645 -2.133,2.592 m 15.416,3.01 c 0.043,0.364 0.137,0.721 0.234,1.195 0.099,-0.188 0.185,-0.281 0.195,-0.382 0.026,-0.276 0.058,-0.561 0.012,-0.829 -0.025,-0.15 -0.2,-0.274 -0.308,-0.41 -0.048,0.142 -0.15,0.291 -0.133,0.426 m 4.378,-7.127 c -0.221,-0.429 -0.132,-1.015 -0.194,-1.528 -0.033,-0.278 -0.024,-0.582 -0.139,-0.826 -0.683,-1.451 -1.384,-2.894 -2.109,-4.325 -0.226,-0.446 -0.543,-0.845 -0.819,-1.266 -0.239,0.428 -0.477,0.855 -0.716,1.283 0.004,0.002 0.008,0.003 0.012,0.005 -0.05,0.407 0.003,0.866 -0.17,1.211 -0.466,0.931 -0.399,1.786 0.003,2.722 0.611,1.424 1.182,2.86 1.609,4.367 0.255,0.903 0.959,1.735 1.621,2.452 0.58,0.628 1.181,0.36 1.177,-0.495 -0.006,-1.197 0.334,-2.417 -0.275,-3.6 m 3.96,-9.201 c -0.059,0.005 -0.369,-0.042 -0.618,0.06 -1.183,0.484 -2.353,0.998 -3.511,1.538 -0.097,0.045 -0.161,0.42 -0.084,0.545 1.171,1.898 2.395,3.75 4.298,5.032 1.018,0.686 1.982,1.45 2.985,2.157 0.207,0.147 0.481,0.199 0.724,0.295 0.057,-0.271 0.208,-0.563 0.156,-0.811 -0.294,-1.387 -0.469,-2.834 -1.016,-4.12 -0.415,-0.974 -0.73,-1.917 -0.882,-2.954 -0.185,-1.261 -0.618,-1.62 -2.052,-1.742 m -12.241,-2.673 c 0.531,0.148 1.061,0.34 1.604,0.395 0.797,0.082 1.711,-0.174 2.384,0.133 1.49,0.68 2.852,0.774 4.321,0.025 0.538,-0.276 1.188,-0.33 1.787,-0.489 0.64,-0.171 1.284,-0.333 1.918,-0.528 0.169,-0.052 0.306,-0.209 0.492,-0.342 -0.096,-0.135 -0.158,-0.319 -0.249,-0.335 -0.453,-0.081 -0.97,-0.277 -1.36,-0.138 -1.196,0.427 -2.399,0.513 -3.648,0.444 -0.463,-0.026 -0.989,0.031 -1.395,0.234 -1.376,0.686 -2.773,0.55 -4.169,0.197 -0.623,-0.157 -1.194,-0.355 -1.724,0.158 -0.036,0.035 0.003,0.236 0.039,0.246 m -1.163,7.512 c 0.46,0.62 0.798,1.413 1.398,1.827 0.813,0.561 0.381,1.767 1.33,2.158 0.027,0.011 0.021,0.19 -0.019,0.265 -0.559,1.042 0.247,1.602 0.783,2.257 0.369,-0.938 0.112,-1.859 -0.184,-2.737 -0.224,-0.667 -0.428,-1.345 -0.73,-2.001 -0.489,-1.059 -0.813,-2.207 -0.562,-3.455 0.171,-0.851 -0.088,-0.963 -0.926,-0.587 -0.244,0.109 -0.509,0.17 -0.765,0.251 -0.041,0.074 -0.073,0.158 -0.132,0.214 -0.305,0.29 -0.803,0.533 -0.871,0.867 -0.052,0.257 0.439,0.619 0.678,0.941 m 3.477,10.879 c -0.367,-1.242 -1.464,-2.2 -1.429,-3.606 -0.999,-0.79 -0.719,-2.337 -1.816,-3.083 -0.075,-0.052 0.039,-0.346 0.014,-0.52 -0.024,-0.164 -0.075,-0.362 -0.186,-0.469 -0.768,-0.731 -1.57,-1.425 -2.327,-2.165 -0.346,-0.339 -0.62,-0.269 -0.776,0.096 -0.135,0.317 -0.262,0.753 -0.149,1.041 0.461,1.172 0.939,2.35 1.555,3.444 0.843,1.498 1.876,2.889 2.717,4.389 0.748,1.334 1.954,2.211 2.958,3.289 -0.182,-0.807 -0.327,-1.624 -0.561,-2.416 m 0.981,-0.757 c 0.021,0.031 0.081,0.035 0.123,0.052 0.042,-0.422 0.085,-0.843 0.123,-1.266 0.003,-0.038 -0.023,-0.079 -0.04,-0.118 -0.378,0.392 -0.562,0.818 -0.206,1.332 m 0.193,-1.37 c -0.203,-0.626 -0.44,-1.243 -0.593,-1.88 -0.09,-0.372 -0.27,-0.399 -0.547,-0.328 0.054,0.242 0.18,0.499 0.133,0.719 -0.214,0.991 -0.033,1.288 1.007,1.489 m -9.127,-11.827 c 0.05,0.18 0.1,0.359 0.149,0.539 0.073,-0.039 0.153,-0.071 0.208,-0.128 0.113,-0.118 0.207,-0.254 0.31,-0.383 -0.223,-0.009 -0.445,-0.018 -0.667,-0.028 m 2.069,-1.151 c 0.158,-0.036 0.35,0.106 0.531,0.131 0.343,0.047 0.723,0.175 1.029,0.079 0.675,-0.211 1.304,-0.567 1.971,-0.81 0.364,-0.133 0.845,-1.15 1.144,0.076 0.007,0.031 0.252,0.04 0.367,0.001 0.496,-0.164 0.998,-0.321 1.47,-0.54 0.209,-0.097 0.353,-0.334 0.526,-0.507 -0.203,-0.078 -0.4,-0.196 -0.61,-0.225 -0.794,-0.113 -1.595,-0.175 -2.388,-0.296 -0.931,-0.143 -1.857,-0.329 -2.785,-0.496 -2.683,-0.086 -4.936,0.98 -7.068,2.397 -0.348,0.231 -0.627,0.569 -0.925,0.871 -0.056,0.056 -0.095,0.222 -0.061,0.256 0.088,0.089 0.23,0.195 0.336,0.181 0.23,-0.031 0.457,-0.116 0.674,-0.207 0.944,-0.392 1.882,-0.321 2.895,-0.247 0.942,0.07 1.923,-0.44 2.894,-0.664 m -14.002,35.814 c 0.556,1.227 1.061,2.476 1.589,3.715 0.289,0.678 0.584,1.354 0.876,2.032 0.372,0.338 0.924,0.619 1.056,1.033 0.454,1.431 1.422,2.533 2.164,3.778 0.493,0.827 1.18,1.017 2.064,0.809 0.731,-0.173 1.472,-0.301 2.206,-0.463 1.935,-0.426 3.948,-0.522 5.65,-1.797 0.89,-0.667 2.019,-0.829 3.109,-0.25 0.251,0.134 0.511,0.254 0.759,0.393 0.38,0.215 0.691,0.203 1,-0.16 1.252,-1.474 2.836,-1.548 4.547,-1.033 0.75,0.226 0.868,0.196 0.825,-0.582 -0.08,-1.471 -0.201,-2.945 -0.419,-4.401 -0.201,-1.344 -0.54,-2.668 -0.854,-3.993 -0.04,-0.17 -0.27,-0.345 -0.453,-0.418 -0.206,-0.083 -0.464,-0.03 -0.688,-0.083 -0.112,-0.027 -0.28,-0.16 -0.279,-0.244 10e-4,-0.106 0.126,-0.251 0.236,-0.309 0.162,-0.085 0.356,-0.148 0.537,-0.15 0.383,-0.004 0.589,-0.155 0.67,-0.359 l 0.008,-0.024 c 0.062,-0.182 0.033,-0.4 -0.067,-0.595 -0.588,-1.149 -0.482,-2.627 -1.651,-3.502 -0.086,-0.065 -0.097,-0.23 -0.133,-0.362 0.15,0.031 0.301,0.061 0.451,0.092 0.366,-1.923 -0.15,-3.014 -1.778,-3.854 -0.207,-0.106 -0.333,-0.368 -0.492,-0.569 1.694,-0.037 1.753,-0.129 1.214,-1.777 -0.101,-0.308 -0.219,-0.63 -0.409,-0.886 -1.003,-1.356 -2.03,-2.693 -3.049,-4.037 -0.678,-0.653 -1.311,-1.332 -1.647,-2.246 -0.129,-0.352 -0.298,-0.753 -0.575,-0.976 -1.502,-1.211 -2.044,-3.061 -3.099,-4.566 -0.288,-0.411 -0.338,-1.011 -0.978,-1.104 -0.057,0.5 -0.116,1.001 -0.17,1.502 -0.005,0.045 0.006,0.096 0.024,0.14 0.184,0.464 0.259,0.864 -0.201,1.278 -0.179,0.162 -0.103,0.616 -0.128,0.938 -0.018,0.23 0.088,0.569 -0.028,0.674 -0.76,0.682 -0.374,1.472 -0.299,2.245 0.029,0.298 -0.026,0.612 -0.089,0.909 -0.106,0.494 -0.269,0.975 -0.372,1.469 -0.086,0.412 0.03,0.981 -0.207,1.226 -0.717,0.742 -0.605,1.666 -0.778,2.533 -0.063,0.314 -0.085,0.818 -0.27,0.897 -1.023,0.436 -1.011,1.419 -1.318,2.238 -0.098,0.26 -0.178,0.708 -0.331,0.738 -0.945,0.187 -1.069,1.174 -1.702,1.636 -0.996,0.726 -1.334,1.993 -2.214,2.811 l -0.025,0.02 c -0.113,0.102 -0.23,0.199 -0.362,0.285 -0.069,0.044 -0.101,0.161 -0.131,0.25 -0.238,0.7 -0.33,1.464 -1.209,1.78 -0.165,0.059 -0.221,0.692 -0.145,1.017 0.028,0.124 0.568,0.138 0.878,0.181 0.086,0.012 0.181,-0.051 0.272,-0.079 1.012,-0.306 2.094,-0.145 2.985,0.156 0.878,0.296 1.632,0.152 2.461,0.17 1.716,0.037 3.429,0.255 5.142,0.406 0.088,0.008 0.183,0.066 0.253,0.127 0.531,0.462 1.103,0.465 1.735,0.222 0.171,-0.066 0.407,0.041 0.614,0.068 -0.126,0.233 -0.196,0.571 -0.391,0.675 -0.272,0.144 -0.74,0.267 -0.944,0.131 -1.043,-0.695 -2.171,-0.714 -3.346,-0.638 -0.267,0.017 -0.541,-0.185 -0.821,-0.229 -0.783,-0.122 -1.535,-0.369 -2.356,0.071 -0.391,0.21 -1.103,0.181 -1.494,-0.044 -1.033,-0.594 -2.185,-0.362 -3.166,-0.294 -0.97,0.068 -1.755,0.266 -2.646,-0.334 -0.532,-0.357 -1.214,-0.018 -1.684,0.423 -0.451,0.424 -0.127,0.846 0.073,1.29 m 1.759,10.807 c -0.284,0.43 -0.234,0.918 0.345,1.178 0.91,0.409 1.818,0.825 2.73,1.23 0.082,0.036 0.188,0.015 0.439,0.029 0.074,-0.056 0.352,-0.158 0.398,-0.326 0.069,-0.246 0.079,-0.675 -0.069,-0.79 -0.846,-0.655 -1.336,-1.566 -1.923,-2.414 -0.103,-0.148 -0.59,-0.224 -0.732,-0.116 -0.445,0.343 -0.88,0.744 -1.188,1.209 m -0.536,2.543 c -0.082,0.747 -0.097,1.502 -0.139,2.254 -0.024,-0.002 -0.047,-0.003 -0.071,-0.004 0.006,0.332 -0.005,0.666 0.022,0.996 0.065,0.787 0.307,0.895 0.972,0.43 0.849,-0.594 1.692,-1.196 2.529,-1.808 0.187,-0.137 0.437,-0.308 0.474,-0.499 0.047,-0.238 -0.023,-0.68 -0.171,-0.746 -0.968,-0.433 -1.965,-0.805 -2.965,-1.161 -0.45,-0.161 -0.616,0.213 -0.651,0.538 m 1.958,6.802 c 0.178,-0.273 0.374,-0.536 0.533,-0.82 0.614,-1.102 1.221,-2.208 1.819,-3.319 0.053,-0.098 0.024,-0.24 0.033,-0.362 -0.127,0.037 -0.275,0.044 -0.378,0.115 -1.161,0.813 -2.32,1.629 -3.465,2.464 -0.127,0.092 -0.235,0.313 -0.226,0.468 0.024,0.422 1.02,1.212 1.684,1.454 m 1.233,1.079 c 0.351,0.365 1.474,0.526 1.719,0.191 0.549,-0.751 1.006,-1.571 1.382,-2.174 -0.119,-1.13 -0.201,-1.981 -0.305,-2.828 -0.015,-0.124 -0.113,-0.286 -0.217,-0.335 -0.076,-0.035 -0.262,0.058 -0.334,0.146 -0.177,0.219 -0.337,0.458 -0.467,0.707 -0.55,1.051 -1.07,2.117 -1.637,3.158 -0.207,0.38 -0.539,0.719 -0.141,1.135 m 3.763,-1.932 c 0.147,0.663 0.453,1.291 0.689,1.935 0.672,-0.48 1.478,-0.85 1.987,-1.466 0.818,-0.99 0.78,-1.694 0.022,-2.23 -0.685,-0.483 -1.474,-0.825 -2.231,-1.2 -0.584,-0.29 -0.769,0.018 -0.773,0.567 0.096,0.799 0.132,1.612 0.306,2.394 m 3.248,-5.809 c -0.045,-0.884 -0.592,-1.195 -1.489,-1.093 -0.792,0.09 -1.127,0.712 -1.64,1.186 -0.376,0.347 -0.385,0.564 -0.272,0.915 0.311,0.973 2.13,1.977 3.128,1.72 0.018,-0.005 -0.047,-0.332 -0.074,-0.509 l -0.03,0.021 c 0.873,-0.614 0.416,-1.492 0.377,-2.24 m 7.632,2.898 c 0.282,0.03 0.569,0.008 0.853,0.013 1.8,0.033 3.6,0.068 5.399,0.102 0,-0.009 0,-0.017 10e-4,-0.026 0.474,0.027 0.947,0.057 1.422,0.077 0.141,0.006 0.286,-0.006 0.426,-0.028 0.904,-0.139 1.004,-0.299 0.768,-1.23 -0.152,-0.598 -0.294,-1.2 -0.475,-1.79 -0.063,-0.208 -0.227,-0.385 -0.345,-0.576 -0.168,0.159 -0.396,0.288 -0.493,0.483 -0.462,0.929 -1.35,1.403 -2.207,1.69 -0.956,0.32 -2.169,0.625 -3.028,0.299 -1.085,-0.413 -1.711,0.031 -2.478,0.449 -0.096,0.052 -0.191,0.246 -0.165,0.34 0.025,0.092 0.203,0.185 0.322,0.197 M 2.409,4.338 C 2.313,4.551 2.207,4.794 2.033,4.934 0.084,6.508 -1.38,8.532 -3.06,10.356 c -1.929,2.095 -3.944,4.11 -5.911,6.171 -2.619,2.743 -5.204,5.519 -7.847,8.238 -1.946,2.002 -3.925,3.976 -5.961,5.886 -1.482,1.392 -3.857,0.895 -4.705,-0.979 -0.461,-1.019 -0.664,-2.153 -1.014,-3.225 -0.279,-0.852 -0.614,-1.684 -0.905,-2.532 -0.167,-0.488 -0.42,-0.991 -0.41,-1.483 0.011,-0.619 -0.192,-1.062 -0.567,-1.509 -0.429,-0.51 -0.814,-1.008 -0.658,-1.807 0.075,-0.387 -0.342,-0.854 -0.478,-1.301 -0.718,-2.349 -1.638,-4.643 -1.942,-7.106 -0.034,-0.278 -0.09,-0.598 -0.253,-0.809 -0.893,-1.16 -1.106,-2.56 -1.448,-3.916 -0.105,-0.415 -0.16,-0.848 -0.306,-1.247 -0.21,-0.572 -0.585,-0.964 -1.269,-0.961 -0.569,0.003 -1.143,-0.101 -1.709,-0.063 -2.987,0.205 -5.962,0.067 -8.932,-0.265 -0.611,-0.068 -0.924,0.055 -1.053,0.772 -0.365,2.034 -0.982,4.013 -2.572,5.446 -0.986,0.888 -1.803,2.08 -3.276,2.295 -0.205,0.029 -0.411,0.049 -0.617,0.073 0.067,-0.164 0.157,-0.323 0.194,-0.494 0.034,-0.159 0.011,-0.331 0.014,-0.497 -0.13,0.05 -0.29,0.069 -0.383,0.158 -0.164,0.156 -0.271,0.371 -0.432,0.532 -0.174,0.175 -0.37,0.436 -0.576,0.455 -2.915,0.273 -5.561,-0.321 -7.597,-2.595 -0.457,-0.511 -0.705,-1.205 -1.131,-1.75 -1.127,-1.438 -1.315,-3.184 -1.412,-4.864 -0.068,-1.188 0.408,-2.412 0.674,-3.613 0.134,-0.602 0.296,-1.205 0.525,-1.775 0.244,-0.608 0.509,-1.233 0.898,-1.751 0.504,-0.671 1.214,-1.19 1.691,-1.876 0.323,-0.465 0.422,-1.084 0.609,-1.644 -0.474,0.297 -0.77,0.04 -0.946,-0.394 -0.335,-0.822 -0.695,-1.606 -1.274,-2.311 -0.3,-0.365 -0.319,-0.963 -0.453,-1.459 -0.062,-0.229 0.255,-0.899 -0.434,-0.35 -0.007,0.007 -0.098,-0.057 -0.094,-0.074 0.231,-0.922 -0.694,-1.265 -0.965,-1.934 -0.141,-0.347 -0.361,-0.685 -0.404,-1.044 -0.083,-0.698 0.072,-1.449 -0.13,-2.099 -0.19,-0.614 -0.958,-0.954 -0.865,-1.813 0.042,-0.378 -0.365,-0.804 -0.568,-1.209 l 0.016,0.003 c -0.093,-0.345 -0.181,-0.69 -0.278,-1.033 -0.237,-0.831 -0.478,-1.661 -0.717,-2.491 l 0.048,-0.048 -0.039,0.039 c -0.087,-0.013 -0.174,-0.026 -0.261,-0.038 0.063,-0.451 0.262,-0.939 -0.187,-1.296 -0.567,-0.452 -0.517,-1.086 -0.545,-1.689 -0.054,-1.179 0,-2.357 -0.441,-3.502 -0.156,-0.404 -0.041,-0.93 0.013,-1.393 0.103,-0.887 0.247,-1.77 0.384,-2.654 0.035,-0.229 0.045,-0.501 0.174,-0.672 1.025,-1.365 1.144,-3.081 1.812,-4.581 0.395,-0.889 0.845,-1.754 1.27,-2.63 -0.268,-0.356 -0.127,-0.681 0.064,-1.025 0.416,-0.748 0.752,-1.546 1.224,-2.255 0.371,-0.556 0.989,-0.952 1.338,-1.517 1.329,-2.159 3.065,-3.928 5.014,-5.52 1.211,-0.988 2.37,-2.04 3.565,-3.047 0.68,-0.573 1.337,-1.121 2.292,-1.319 0.587,-0.123 1.126,-0.681 1.59,-1.142 0.966,-0.959 1.94,-1.925 2.779,-2.993 1.457,-1.855 3.434,-3.321 4.27,-5.651 0.062,-0.172 0.361,-0.246 0.503,-0.408 0.242,-0.274 0.566,-0.553 0.644,-0.88 0.24,-1.012 0.402,-2.045 0.551,-3.076 0.108,-0.747 0.061,-1.524 0.234,-2.251 0.489,-2.068 -0.009,-3.935 -0.996,-5.731 -0.068,-0.125 -0.137,-0.255 -0.172,-0.391 -0.496,-1.923 -1.545,-3.534 -2.823,-5.016 l 0.019,0.015 c -0.673,-0.722 -1.326,-1.464 -2.027,-2.158 -0.35,-0.346 -0.784,-0.608 -1.182,-0.906 -0.027,0.087 -0.054,0.173 -0.08,0.259 -1.077,-0.112 -1.529,-1.092 -2.167,-1.725 -0.599,-0.593 -1.584,-0.803 -1.833,-1.748 -1.061,0.337 -1.239,-1.041 -2.109,-1.098 -0.072,-0.004 -0.129,-0.233 -0.193,-0.358 l 0.021,0.027 c -0.004,-0.198 -0.008,-0.395 -0.012,-0.593 -1.291,-0.471 -1.364,-0.583 -1.304,-1.924 0.02,-0.433 -0.123,-1.02 0.103,-1.263 0.426,-0.457 1.024,-0.87 1.622,-1.028 2.096,-0.554 4.202,-1.151 6.343,-1.428 2.191,-0.284 4.429,-0.215 6.646,-0.291 2.289,-0.079 4.577,-0.158 6.866,-0.214 0.543,-0.013 1.182,-0.253 1.53,0.446 l -0.002,0.054 0.012,-0.082 c 0.542,-0.305 1.054,-0.522 1.72,-0.218 0.317,0.145 0.786,-0.086 1.181,-0.065 2.098,0.109 4.24,0.025 6.275,0.447 1.355,0.28 2.957,0.15 4.067,1.383 0.227,0.252 0.814,0.173 1.233,0.261 0.599,0.126 1.189,0.317 1.793,0.387 1.554,0.181 2.146,1.447 2.894,2.523 0.133,0.191 0.151,0.618 0.027,0.805 -0.428,0.64 -0.826,1.408 -1.443,1.799 -4.728,2.997 -8.944,6.617 -12.965,10.481 -0.368,0.353 -0.651,0.815 -0.9,1.266 -1.003,1.818 -1.442,3.785 -1.59,5.849 -0.147,2.052 -0.184,4.087 0.269,6.108 0.207,0.922 0.574,1.742 1.142,2.526 0.973,1.343 1.771,2.81 2.714,4.176 0.833,1.206 1.724,2.377 2.66,3.504 1.169,1.407 2.398,2.766 3.625,4.124 1.236,1.37 2.648,2.534 4.221,3.506 0.201,0.124 0.32,0.384 0.469,0.587 0.16,0.218 0.31,0.442 0.465,0.664 l -0.007,-0.022 h 0.001 c 0.107,0.004 0.215,0.009 0.323,0.014 -0.008,0.107 -0.016,0.214 -0.023,0.321 l -0.023,-0.011 c 0.676,0.668 1.405,1.293 2.004,2.024 0.248,0.302 0.319,0.618 0.823,0.667 0.441,0.043 0.74,0.368 0.965,0.888 0.44,1.019 1.151,1.917 1.682,2.902 0.453,0.84 0.853,1.715 1.204,2.603 0.78,1.977 0.973,4.112 1.6,6.134 0.248,0.801 0.401,1.638 0.528,2.469 0.257,1.69 -0.343,3.251 -0.838,4.817 -0.048,0.152 -0.347,0.229 -0.534,0.333 -0.403,0.226 -0.403,0.224 -0.204,0.861 0.024,0.077 0.073,0.181 0.043,0.234 -0.681,1.198 -0.735,2.545 -0.99,3.853 -0.158,0.812 -0.552,1.609 -0.978,2.331 -0.527,0.893 -0.566,1.961 -1.289,2.82 -0.483,0.573 -0.442,1.576 -0.68,2.373 -0.101,0.337 -0.305,0.644 -0.467,0.963 l 0.014,0.002 c -0.359,0.555 -0.595,1.303 -1.102,1.624 -1.089,0.69 -0.984,2.225 -2.162,2.782 -0.039,0.019 -0.078,0.065 -0.091,0.107 -0.904,2.788 -3.177,4.711 -4.598,7.182 -0.364,0.632 -0.758,1.363 -1.416,1.929 -1.099,0.947 -2.412,0.891 -3.637,1.227 -1.187,0.325 -2.41,0.521 -3.623,0.745 -0.552,0.102 -0.726,0.391 -0.576,0.906 0.227,0.775 0.424,1.561 0.701,2.318 1.085,2.97 2.197,5.93 3.298,8.893 0.723,0.417 0.779,1.194 1.023,1.873 0.381,1.061 0.776,2.116 1.158,3.176 0.063,0.174 0.048,0.382 0.135,0.538 0.652,1.179 1.342,1.32 2.376,0.39 0.731,-0.657 1.341,-1.447 2.043,-2.138 0.625,-0.615 1.302,-1.178 1.957,-1.763 0.14,-0.236 0.251,-0.499 0.428,-0.704 1.929,-2.237 3.87,-4.465 5.806,-6.696 0.367,-0.423 0.728,-0.852 1.092,-1.278 l -0.012,-0.029 c 0.104,-0.093 0.208,-0.186 0.312,-0.279 l 0.006,0.024 c -0.102,0.095 -0.204,0.189 -0.305,0.283 0.074,0.174 0.148,0.347 0.222,0.52 0.108,-0.135 0.238,-0.259 0.315,-0.41 0.058,-0.115 0.049,-0.264 0.069,-0.398 0.509,-1.378 1.365,-2.444 2.656,-3.197 0.338,-0.197 0.353,-0.114 0.452,0.126 0.086,-0.124 0.258,-0.258 0.244,-0.369 -0.093,-0.749 0.215,-1.155 0.955,-1.24 0.795,-0.983 1.591,-1.965 2.387,-2.947 -0.004,-10e-4 -0.006,-0.002 -0.01,-0.003 0.3,-0.307 0.607,-0.606 0.897,-0.921 0.345,-0.375 0.677,-1.081 1.012,-1.079 0.814,0.004 1.717,0.173 2.42,0.568 1.573,0.88 2.085,2.826 1.339,4.478"
             style="fill:#323200;fill-opacity:1;fill-rule:nonzero;stroke:none"
             id="path2427"
             inkscape:connector-curvature="0" />
        </g>
      </g>
      <g
         transform="matrix(0.85127132,0,0,0.91002191,626.04824,478.51094)"
         id="g30381"
         style="fill:#323200;fill-opacity:1">
        <g
           id="g2681"
           transform="matrix(4.0146743,0,0,-3.0291483,2272.4556,1154.7538)"
           style="fill:#323200;fill-opacity:1">
          <path
             d="m 0,0 c -0.03,0.002 -0.06,0.003 -0.09,0.004 0,0.76 0.114,1.541 -0.024,2.274 -0.268,1.423 -0.659,2.829 -1.46,4.068 -0.66,1.021 -1.272,2.066 -1.854,3.135 -1.117,2.048 -2.523,3.893 -4.197,5.528 -0.9,0.879 -1.757,1.801 -2.78,2.548 -0.367,0.269 -0.726,0.558 -1.05,0.877 -1.088,1.069 -2.399,1.754 -3.825,2.227 -2.059,0.683 -4.137,1.309 -6.189,2.009 -1.192,0.406 -2.412,0.585 -3.653,0.731 -1.188,0.141 -2.343,-0.067 -3.506,-0.181 -0.753,-0.075 -1.519,-0.185 -2.238,-0.412 -0.929,-0.293 -1.751,-0.401 -2.925,-0.166 -0.109,0.022 -0.229,0.013 -0.34,-0.005 -0.849,-0.144 -1.583,-0.491 -2.15,-1.167 -0.16,-0.192 -0.391,-0.329 -0.601,-0.473 -0.835,-0.572 -1.681,-1.127 -2.508,-1.71 -0.434,-0.305 -0.816,-0.685 -1.255,-0.98 -1.27,-0.851 -2.369,-1.877 -3.253,-3.122 -0.816,-1.15 -1.583,-2.336 -2.392,-3.492 -0.919,-1.314 -1.714,-2.696 -2.256,-4.206 -0.333,-0.93 -0.511,-1.922 -0.904,-2.823 -0.387,-0.891 -0.583,-1.796 -0.729,-2.744 -0.599,-3.911 -0.484,-7.761 0.847,-11.526 0.19,-0.536 0.437,-1.053 0.602,-1.596 0.734,-2.411 1.588,-4.773 2.818,-6.981 0.351,-0.629 0.739,-1.257 1.212,-1.797 1.909,-2.176 4.164,-3.875 6.882,-4.953 1.339,-0.531 2.635,-1.149 4.099,-1.268 1.213,-0.098 2.424,-0.229 3.634,-0.355 0.719,-0.074 1.435,-0.169 2.153,-0.251 0.64,-0.073 1.28,-0.151 1.921,-0.211 0.493,-0.046 0.995,-0.023 1.479,-0.111 0.58,-0.105 1.135,-0.071 1.699,0.071 0.96,0.243 1.935,0.436 2.884,0.717 0.712,0.211 1.523,0.275 1.978,1.014 0.022,0.036 0.139,0.052 0.19,0.029 0.459,-0.208 0.812,0.098 1.179,0.259 1.412,0.622 2.824,1.245 4.206,1.937 1.091,0.546 2.225,1.005 3.32,1.544 1.427,0.701 2.903,1.347 3.889,2.687 0.791,1.075 1.614,2.131 2.337,3.252 0.769,1.192 1.266,2.536 1.603,3.9 0.429,1.736 0.705,3.51 1.008,5.275 0.18,1.05 0.297,2.112 0.412,3.171 0.028,0.256 -0.073,0.524 -0.097,0.788 -0.049,0.53 -0.099,1.059 -0.121,1.59 C -0.058,-0.598 -0.017,-0.298 0,0 m -52.796,-5.041 c 0,1.641 -0.052,3.285 0.019,4.923 0.043,1.022 0.265,2.036 0.421,3.052 0.022,0.144 0.102,0.29 0.186,0.414 0.282,0.419 0.586,0.814 0.186,1.345 -0.065,0.086 0.058,0.342 0.135,0.5 0.867,1.777 1.714,3.564 2.624,5.319 0.753,1.452 1.269,3.026 2.247,4.362 0.224,0.305 0.456,0.605 0.669,0.918 0.255,0.374 0.482,0.769 0.744,1.137 0.219,0.308 0.418,0.679 0.721,0.867 0.853,0.531 1.446,1.333 2.194,1.968 0.52,0.442 1.053,0.871 1.551,1.338 0.466,0.437 1.042,0.731 1.441,1.271 0.224,0.303 0.667,0.482 1.046,0.622 0.622,0.229 1.234,0.402 1.386,1.191 0.03,0.158 0.307,0.32 0.502,0.386 1.985,0.665 4,1.216 6.091,1.438 0.114,0.012 0.243,-0.004 0.338,0.045 0.831,0.423 1.68,0.202 2.552,0.192 2.044,-0.022 3.933,-0.71 5.892,-1.091 0.969,-0.188 1.942,-0.354 2.915,-0.516 0.797,-0.133 1.499,-0.426 2.188,-0.883 0.539,-0.358 1.25,-0.493 1.905,-0.632 0.724,-0.154 1.413,-0.389 1.93,-0.896 1.206,-1.183 2.652,-1.975 4.14,-2.715 0.067,-0.034 0.146,-0.056 0.201,-0.105 0.753,-0.679 1.566,-1.307 2.231,-2.065 0.386,-0.44 0.599,-1.033 1.163,-1.331 0.06,-0.032 0.079,-0.138 0.139,-0.178 0.383,-0.254 0.081,-0.914 0.747,-1.086 0.35,-0.09 0.636,-0.621 0.847,-1.01 0.246,-0.451 0.65,-0.733 0.956,-1.109 0.572,-0.704 1.086,-1.453 1.632,-2.178 C -0.463,9.927 -0.203,9.355 -0.021,8.717 0.143,8.141 0.457,7.605 0.731,7.064 1.006,6.523 1.309,5.995 1.606,5.465 1.774,5.166 1.885,4.774 2.141,4.599 2.987,4.02 2.883,3.198 2.9,2.352 2.928,0.971 2.784,-0.388 2.562,-1.745 2.538,-1.895 2.491,-2.047 2.497,-2.197 2.591,-4.588 1.844,-6.875 1.616,-9.228 1.537,-10.047 1.161,-10.837 0.929,-11.643 0.74,-12.299 0.532,-12.947 0.584,-13.655 c 0.06,-0.819 -0.491,-1.419 -0.85,-2.081 -0.125,-0.232 -0.318,-0.428 -0.488,-0.634 -0.179,-0.215 -0.296,-0.372 -0.029,-0.661 0.279,-0.302 0.029,-0.66 -0.169,-0.927 -0.202,-0.273 -0.472,-0.497 -0.723,-0.732 -0.365,-0.342 -0.722,-0.673 -0.739,-1.236 -0.005,-0.163 -0.137,-0.35 -0.262,-0.475 -0.728,-0.723 -1.464,-1.436 -2.21,-2.14 -0.501,-0.473 -1.084,-0.783 -1.725,-1.072 -1.028,-0.463 -2.141,-0.772 -3.053,-1.492 -0.32,-0.252 -0.731,-0.397 -1.113,-0.562 -0.758,-0.326 -1.398,-0.85 -2.119,-1.242 -1.541,-0.837 -3.222,-1.307 -4.823,-1.982 -0.644,-0.271 -1.346,-0.268 -1.98,-0.64 -0.569,-0.333 -1.301,-0.387 -1.962,-0.564 -0.036,-0.01 -0.089,-0.011 -0.107,-0.036 -0.55,-0.744 -1.322,-0.545 -2.072,-0.518 -1.596,0.059 -3.194,0.098 -4.791,0.111 -0.641,0.005 -1.284,-0.07 -1.925,-0.123 -1.179,-0.097 -2.222,0.219 -3.225,0.86 -0.652,0.417 -1.417,0.662 -2.14,0.965 -1.084,0.454 -2.174,0.893 -3.263,1.335 -0.135,0.054 -0.345,0.165 -0.409,0.113 -0.621,-0.508 -0.749,0.093 -0.991,0.422 -0.339,0.463 -0.747,0.837 -1.195,1.205 -0.906,0.746 -1.885,1.426 -2.6,2.39 -0.12,0.162 -0.388,0.352 -0.548,0.322 -0.648,-0.124 -0.941,0.31 -1.151,0.738 -0.374,0.762 -0.958,1.36 -1.423,2.046 -0.853,1.26 -1.617,2.582 -2.402,3.888 -0.314,0.522 -0.619,1.057 -0.86,1.615 -0.173,0.401 -0.279,0.38 -0.519,0.07 -0.162,-0.21 -0.381,-0.101 -0.451,0.084 -0.106,0.278 -0.149,0.585 -0.19,0.883 -0.083,0.604 -0.138,1.211 -0.224,1.814 -0.026,0.18 -0.068,0.44 -0.191,0.511 -0.595,0.344 -0.499,0.919 -0.506,1.432 -0.024,1.642 -0.009,3.285 -0.009,4.927 0.019,0 0.038,0 0.057,0"
             style="fill:#323200;fill-opacity:1;fill-rule:nonzero;stroke:none"
             id="path2683"
             inkscape:connector-curvature="0" />
        </g>
        <g
           id="g2685"
           transform="matrix(4.0146743,0,0,-3.0291483,2132.0853,1165.7657)"
           style="fill:#323200;fill-opacity:1">
          <path
             d="m 0,0 c 0.151,-0.291 0.26,-0.618 0.465,-0.864 0.221,-0.263 0.381,-0.463 0.426,-0.858 0.037,-0.322 0.505,-0.607 0.806,-0.883 0.426,-0.389 0.886,-0.594 1.436,-0.191 0.111,0.082 0.325,0.144 0.432,0.092 0.845,-0.409 1.839,-0.491 2.549,-1.206 0.426,-0.43 0.942,-0.771 1.371,-1.199 0.199,-0.198 0.336,-0.495 0.414,-0.772 0.18,-0.634 0.334,-1.257 1.064,-1.503 0.13,-0.044 0.256,-0.186 0.325,-0.315 0.378,-0.708 0.972,-0.628 1.585,-0.439 0.289,0.089 0.565,0.228 0.84,0.358 0.445,0.21 0.687,0.508 0.689,1.06 0.001,0.661 0.104,0.69 0.681,0.283 0.205,-0.144 0.367,-0.134 0.501,0.003 0.397,0.405 0.79,0.817 1.142,1.26 0.254,0.322 0.44,0.697 0.657,1.049 l -0.018,0.02 c 0.083,-0.164 0.165,-0.328 0.248,-0.492 l -0.016,0.014 c 0.069,-0.372 -0.058,-0.677 -0.323,-0.93 -0.465,-0.445 -0.939,-0.879 -1.4,-1.328 -0.275,-0.268 -0.522,-0.546 -0.305,-0.985 0.1,-0.202 0.191,-0.44 0.181,-0.657 -0.043,-0.916 0.324,-1.676 0.727,-2.472 0.277,-0.549 0.334,-1.244 0.357,-1.879 0.029,-0.804 0.087,-1.566 0.47,-2.305 0.484,-0.934 0.592,-1.963 0.523,-3.006 -0.007,-0.099 -0.078,-0.194 -0.119,-0.291 -0.089,0.108 -0.232,0.206 -0.255,0.326 -0.058,0.298 -0.062,0.607 -0.087,0.911 l 0.034,0.031 -0.017,-0.048 c -0.078,0.21 -0.201,0.414 -0.224,0.629 -0.044,0.42 -0.089,0.817 -0.353,1.179 -0.151,0.207 -0.235,0.483 -0.283,0.741 -0.388,2.057 -1.161,4.008 -1.664,6.034 -0.036,0.146 -0.068,0.312 -0.16,0.421 -0.071,0.085 -0.274,0.168 -0.347,0.126 C 11.581,-8.525 10.776,-8.83 9.873,-8.806 9.65,-8.8 9.515,-8.887 9.478,-9.115 9.352,-9.904 9.063,-10.641 8.813,-11.396 8.434,-12.538 8.266,-13.748 7.975,-14.92 c -0.2,-0.808 -0.446,-1.605 -0.696,-2.398 -0.048,-0.151 -0.214,-0.264 -0.325,-0.394 0.023,0.137 0.038,0.277 0.072,0.411 0.085,0.326 -0.037,0.513 -0.363,0.575 l 0.013,-0.014 c 0.5,0.549 0.777,1.183 0.9,1.925 0.136,0.821 0.423,1.617 0.569,2.438 0.207,1.156 0.337,2.326 0.647,3.462 0.062,0.228 0.089,0.383 -0.2,0.545 C 8.243,-8.175 7.977,-7.833 7.675,-7.555 7.482,-7.963 7.293,-8.373 7.097,-8.779 6.652,-9.701 6.203,-10.621 5.756,-11.542 5.674,-11.711 5.592,-11.881 5.52,-12.055 5.434,-12.264 5.383,-12.491 5.276,-12.687 4.621,-13.884 4.196,-15.175 3.732,-16.45 3.635,-16.715 3.479,-16.812 3.211,-16.71 l 0.004,-0.014 c 0.293,0.824 0.567,1.654 0.882,2.469 0.798,2.063 1.633,4.111 2.411,6.18 0.253,0.672 0.401,1.389 0.54,2.096 0.034,0.176 -0.109,0.439 -0.25,0.586 C 6.591,-5.177 6.305,-5.038 6.067,-4.849 5.834,-4.664 5.719,-4.811 5.631,-4.992 5.33,-5.608 4.994,-6.212 4.757,-6.852 4.248,-8.231 3.274,-9.33 2.579,-10.595 2.398,-10.924 2.212,-11.251 2.019,-11.573 1.747,-12.026 1.456,-12.468 1.19,-12.925 0.943,-13.35 0.717,-13.788 0.481,-14.221 l 0.016,-0.018 c -0.067,0.718 0.175,1.295 0.609,1.89 0.508,0.694 0.833,1.523 1.235,2.294 0.474,0.91 0.975,1.808 1.408,2.737 0.384,0.825 0.711,1.678 1.019,2.536 0.127,0.356 0.126,0.723 -0.232,1.035 -0.511,0.446 -0.582,0.448 -1.112,-0.017 -2.367,-2.079 -4.526,-4.371 -6.782,-6.564 -0.592,-0.575 -1.283,-1.048 -1.929,-1.567 l 0.019,-0.016 c 0.043,0.636 0.525,0.979 0.921,1.379 l 0.052,-0.062 -0.069,0.044 c 1.22,1.517 2.644,2.841 3.985,4.243 0.711,0.744 1.415,1.496 2.109,2.255 0.366,0.4 0.34,0.578 -0.076,0.947 -1.029,0.914 -1.108,0.938 -2.24,0.177 -1.01,-0.678 -1.978,-1.418 -2.987,-2.099 -0.438,-0.296 -0.927,-0.516 -1.403,-0.751 -0.047,-0.023 -0.183,0.079 -0.242,0.152 -0.032,0.039 -0.012,0.16 0.028,0.209 0.069,0.086 0.171,0.146 0.26,0.217 1.365,1.09 2.701,2.218 4.107,3.252 0.596,0.438 0.877,0.909 0.802,1.623 -0.012,0.111 0.023,0.227 0.036,0.34 z"
             style="fill:#323200;fill-opacity:1;fill-rule:nonzero;stroke:none"
             id="path2687"
             inkscape:connector-curvature="0" />
        </g>
        <g
           id="g2689"
           transform="matrix(4.0146743,0,0,-3.0291483,2167.1655,1110.9199)"
           style="fill:#323200;fill-opacity:1">
          <path
             d="M 0,0 C 0.191,-0.696 0.262,-1.395 0.212,-2.124 0.111,-3.591 0.065,-5.062 0.005,-6.531 -0.012,-6.946 0,-7.362 -0.002,-7.777 l -0.011,0.012 c 0.252,0.225 0.471,0.532 0.766,0.654 0.364,0.151 0.875,0.315 1.171,0.168 0.37,-0.184 1.044,-0.162 1.033,-0.854 l 0.017,0.024 C 2.627,-7.641 2.277,-7.516 1.933,-7.376 1.47,-7.188 1.271,-7.218 0.916,-7.594 0.579,-7.953 0.264,-8.333 -0.074,-8.691 c -0.7,-0.741 -1.432,-1.41 -2.471,-1.689 -0.459,-0.123 -0.88,-0.439 -1.277,-0.723 -0.439,-0.314 -0.859,-0.607 -1.43,-0.62 -0.294,-0.007 -0.427,-0.253 -0.56,-0.505 -0.059,-0.112 -0.413,-0.212 -0.438,-0.176 -0.343,0.473 -0.605,0.112 -0.947,-0.012 -0.937,-0.34 -1.339,-1.039 -1.508,-1.946 -0.014,-0.074 -0.034,-0.147 -0.054,-0.22 -0.166,-0.603 -0.671,-1.112 -0.426,-1.829 0.189,-0.551 0.301,-1.129 0.447,-1.695 l 0.016,0.015 c -0.432,0.022 -0.521,0.383 -0.684,0.68 -0.37,0.674 -0.561,0.778 -1.274,0.588 -0.624,-0.167 -1.238,-0.378 -1.846,-0.6 -0.202,-0.073 -0.11,-0.224 0.013,-0.34 0.505,-0.475 0.476,-0.451 0.067,-0.895 -0.619,-0.671 -1.371,-0.773 -2.196,-0.588 -0.475,0.106 -0.571,0.512 -0.231,0.851 0.027,0.027 0.052,0.058 0.083,0.079 0.34,0.23 0.682,0.459 1.024,0.688 -0.046,0.039 -0.097,0.115 -0.137,0.109 -0.411,-0.052 -0.821,-0.175 -1.23,-0.169 -0.927,0.014 -1.801,-0.22 -2.689,-0.429 -0.918,-0.216 -1.853,-0.362 -2.783,-0.521 -0.11,-0.018 -0.24,0.081 -0.361,0.125 0.082,0.061 0.155,0.154 0.246,0.177 1.029,0.267 2.055,0.554 3.095,0.775 1.077,0.229 2.17,0.38 3.252,0.589 0.367,0.071 0.721,0.213 1.08,0.327 0.108,0.034 0.241,0.146 0.313,0.113 0.871,-0.401 1.621,0.292 2.445,0.258 0.526,-0.023 0.721,0.282 0.859,0.732 0.239,0.783 0.214,0.865 -0.591,1.161 -0.107,0.039 -0.213,0.087 -0.324,0.114 -1.883,0.451 -3.509,1.442 -5.129,2.445 -0.087,0.053 -0.137,0.167 -0.204,0.252 0.141,0.011 0.31,0.078 0.42,0.025 0.751,-0.367 1.516,-0.714 2.226,-1.152 1.099,-0.677 2.347,-0.875 3.552,-1.213 0.3,-0.085 0.553,0.017 0.655,0.305 0.297,0.838 0.909,1.371 1.623,1.847 0.495,0.329 0.513,0.547 0.177,1.051 -0.613,0.919 -1.233,1.834 -1.883,2.727 -0.254,0.348 -0.495,0.676 -0.485,1.126 L -9.66,-6.872 c 0.766,-0.299 1.084,-1.044 1.563,-1.615 0.585,-0.697 1.073,-1.473 1.634,-2.191 0.153,-0.196 0.435,-0.45 0.627,-0.426 0.438,0.053 0.857,0.261 1.283,0.41 0.031,0.011 0.07,0.051 0.074,0.082 0.085,0.619 0.234,1.238 0.232,1.856 -0.007,1.555 -0.083,3.109 -0.13,4.664 -0.002,0.076 -0.003,0.155 0.016,0.227 0.032,0.125 0.081,0.246 0.123,0.368 0.041,-0.101 0.101,-0.198 0.121,-0.302 0.217,-1.126 0.296,-2.261 0.237,-3.408 -0.044,-0.846 0.064,-1.669 0.454,-2.443 0.11,-0.218 0.249,-0.261 0.451,-0.224 0.871,0.161 1.473,0.775 2.077,1.333 0.403,0.371 0.388,0.969 0.41,1.508 0.079,1.978 0.155,3.957 0.259,5.934 0.019,0.365 0.161,0.722 0.247,1.083 z"
             style="fill:#323200;fill-opacity:1;fill-rule:nonzero;stroke:none"
             id="path2691"
             inkscape:connector-curvature="0" />
        </g>
        <g
           id="g2693"
           transform="matrix(4.0146743,0,0,-3.0291483,2236.1236,1140.0324)"
           style="fill:#323200;fill-opacity:1">
          <path
             d="M 0,0 C -0.052,-0.383 -0.334,-0.573 -0.627,-0.762 -1.966,-1.625 -3.304,-2.488 -4.632,-3.367 -4.815,-3.488 -4.955,-3.685 -5.093,-3.864 -5.6,-4.522 -6.096,-5.188 -6.6,-5.848 c -0.068,-0.09 -0.167,-0.158 -0.23,-0.251 -0.711,-1.045 -0.597,-1.397 0.639,-1.669 0.662,-0.146 1.354,-0.193 2.034,-0.216 1.478,-0.05 2.958,-0.051 4.436,-0.091 0.103,-0.003 0.202,-0.165 0.303,-0.253 -0.086,-0.053 -0.17,-0.148 -0.258,-0.152 -1.977,-0.089 -3.953,-0.208 -5.931,-0.224 -0.582,-0.004 -1.171,0.277 -1.749,0.452 -0.455,0.138 -0.602,0.108 -0.86,-0.287 -0.247,-0.379 -0.487,-0.764 -0.73,-1.146 -0.02,-0.032 -0.053,-0.065 -0.056,-0.099 -0.063,-0.673 -0.172,-1.346 -0.162,-2.018 0.004,-0.314 0.196,-0.652 0.377,-0.931 0.947,-1.459 2.359,-2.439 3.68,-3.512 0.678,-0.551 1.354,-1.106 2.018,-1.675 0.106,-0.09 0.155,-0.256 0.209,-0.396 0.022,-0.056 0.008,-0.162 -0.032,-0.197 -0.036,-0.032 -0.15,-0.027 -0.196,0.007 -1.79,1.35 -3.729,2.511 -5.356,4.065 -0.625,0.598 -1.087,1.368 -1.623,2.06 l 0.019,-0.018 c -0.085,0.084 -0.17,0.169 -0.255,0.254 l 0.02,-0.011 c -0.097,0.405 -0.198,0.809 -0.29,1.216 -0.093,0.411 0.09,0.578 0.497,0.449 0.101,-0.032 0.186,-0.115 0.283,-0.164 0.329,-0.169 0.458,-0.115 0.363,0.187 -0.175,0.56 0.066,0.944 0.378,1.35 0.207,0.269 0.348,0.589 0.532,0.877 0.22,0.346 -0.45,0.632 -0.089,0.924 0.211,0.171 0.553,0.176 0.831,0.272 0.059,0.021 0.112,0.109 0.137,0.177 0.305,0.842 0.946,1.461 1.431,2.184 0.108,0.161 0.088,0.407 0.127,0.615 -0.327,0.025 -0.485,0.526 -0.899,0.316 -0.237,-0.12 -0.474,-0.247 -0.724,-0.335 -0.613,-0.215 -1.229,-0.407 -1.893,-0.184 -0.212,0.071 -0.453,0.12 -0.672,0.095 -0.88,-0.102 -1.316,0.495 -1.47,1.147 -0.236,1.005 -0.747,1.897 -0.996,2.885 -0.037,0.147 -0.074,0.297 -0.081,0.448 -0.006,0.106 0.039,0.214 0.062,0.322 0.083,-0.052 0.187,-0.087 0.244,-0.159 0.187,-0.236 0.356,-0.487 0.532,-0.732 0.268,0.205 0.57,0.377 0.799,0.619 1.152,1.216 2.277,2.458 3.429,3.674 0.245,0.259 0.446,0.657 0.926,0.529 l -0.019,0.017 c -1.25,-1.384 -2.501,-2.767 -3.748,-4.153 -1.15,-1.278 -1.378,-1.173 -0.669,-2.995 0.083,-0.213 0.142,-0.436 0.234,-0.645 0.142,-0.325 0.343,-0.386 0.622,-0.193 0.156,0.108 0.3,0.236 0.44,0.365 0.813,0.749 1.619,1.504 2.434,2.25 1.293,1.182 2.592,2.359 3.888,3.538 L -3.68,2.756 C -3.822,2.496 -3.913,2.185 -4.114,1.984 -5.46,0.644 -6.829,-0.671 -8.19,-1.997 c -0.3,-0.292 -0.601,-0.584 -0.886,-0.891 -0.245,-0.263 -0.659,-0.418 -0.598,-0.889 0.372,-0.048 0.752,-0.166 1.114,-0.124 0.405,0.047 0.793,0.24 1.189,0.366 0.431,0.137 0.87,0.4 1.291,0.375 0.584,-0.035 1.055,0.161 1.511,0.42 0.794,0.45 1.55,0.967 2.334,1.436 0.741,0.444 1.497,0.863 2.246,1.293 z"
             style="fill:#323200;fill-opacity:1;fill-rule:nonzero;stroke:none"
             id="path2695"
             inkscape:connector-curvature="0" />
        </g>
        <g
           id="g2697"
           transform="matrix(4.0146743,0,0,-3.0291483,2235.4776,1150.3458)"
           style="fill:#323200;fill-opacity:1">
          <path
             d="M 0,0 C 0.41,-0.02 0.563,-0.015 0.712,-0.037 1.147,-0.104 1.31,-0.467 0.999,-0.755 0.701,-1.031 0.354,-1.321 -0.023,-1.431 -0.78,-1.653 -1.571,-1.766 -2.352,-1.903 c -0.137,-0.024 -0.296,0.04 -0.438,0.086 -0.192,0.062 -0.278,0.365 -0.119,0.454 C -1.902,-0.801 -1.026,0.077 0,0"
             style="fill:#323200;fill-opacity:1;fill-rule:nonzero;stroke:none"
             id="path2699"
             inkscape:connector-curvature="0" />
        </g>
        <g
           id="g2701"
           transform="matrix(4.0146743,0,0,-3.0291483,2144.2257,1129.3986)"
           style="fill:#323200;fill-opacity:1">
          <path
             d="m 0,0 c -0.015,-0.374 -0.319,-0.762 -0.768,-1.007 -0.149,-0.082 -0.455,-0.019 -0.615,0.088 -0.609,0.407 -0.86,1.626 -0.508,2.28 0.196,0.364 0.603,0.49 0.974,0.301 C -0.384,1.39 -0.003,0.773 0,0"
             style="fill:#323200;fill-opacity:1;fill-rule:nonzero;stroke:none"
             id="path2703"
             inkscape:connector-curvature="0" />
        </g>
        <g
           id="g2705"
           transform="matrix(4.0146743,0,0,-3.0291483,2141.562,1183.2893)"
           style="fill:#323200;fill-opacity:1">
          <path
             d="m 0,0 c 0.404,-0.03 0.607,-0.336 0.449,-0.696 -0.364,-0.833 -0.789,-1.641 -1.192,-2.457 -0.033,-0.067 -0.084,-0.129 -0.14,-0.18 -0.22,-0.203 -0.507,-0.277 -0.724,-0.089 -0.135,0.115 -0.24,0.443 -0.171,0.586 0.425,0.892 0.891,1.765 1.376,2.625 C -0.328,-0.079 -0.086,-0.042 0,0"
             style="fill:#323200;fill-opacity:1;fill-rule:nonzero;stroke:none"
             id="path2707"
             inkscape:connector-curvature="0" />
        </g>
        <g
           id="g2709"
           transform="matrix(4.0146743,0,0,-3.0291483,2225.8488,1172.2786)"
           style="fill:#323200;fill-opacity:1">
          <path
             d="M 0,0 C 0.445,0 0.908,0.075 1.329,-0.026 1.61,-0.093 1.845,-0.397 2.065,-0.629 2.103,-0.668 2,-0.929 1.901,-0.999 1.152,-1.521 -0.313,-1.547 -1.119,-1.01 c -0.287,0.19 -0.274,0.59 0.041,0.739 0.338,0.159 0.705,0.255 1.059,0.379 C -0.013,0.072 -0.006,0.036 0,0"
             style="fill:#323200;fill-opacity:1;fill-rule:nonzero;stroke:none"
             id="path2711"
             inkscape:connector-curvature="0" />
        </g>
        <g
           id="g2713"
           transform="matrix(4.0146743,0,0,-3.0291483,2100.8544,1150.2467)"
           style="fill:#323200;fill-opacity:1">
          <path
             d="m 0,0 c 0.387,-0.082 0.611,-0.117 0.828,-0.179 0.343,-0.098 0.651,-0.264 0.696,-0.66 0.035,-0.303 -0.438,-0.768 -0.831,-0.817 -0.797,-0.1 -1.486,0.203 -2.115,0.65 -0.208,0.148 -0.176,0.47 0.064,0.563 C -0.873,-0.254 -0.367,-0.117 0,0"
             style="fill:#323200;fill-opacity:1;fill-rule:nonzero;stroke:none"
             id="path2715"
             inkscape:connector-curvature="0" />
        </g>
        <g
           id="g2717"
           transform="matrix(4.0146743,0,0,-3.0291483,2194.5171,1188.8054)"
           style="fill:#323200;fill-opacity:1">
          <path
             d="M 0,0 C 0.298,-0.133 0.799,-0.307 1.245,-0.575 1.542,-0.753 1.466,-1.113 1.384,-1.413 1.288,-1.768 1.092,-2.028 0.691,-2.068 0.018,-2.136 -0.84,-1.357 -0.843,-0.674 -0.845,-0.28 -0.607,-0.027 0,0"
             style="fill:#323200;fill-opacity:1;fill-rule:nonzero;stroke:none"
             id="path2719"
             inkscape:connector-curvature="0" />
        </g>
        <g
           id="g2721"
           transform="matrix(4.0146743,0,0,-3.0291483,2179.0361,1134.5382)"
           style="fill:#323200;fill-opacity:1">
          <path
             d="M 0,0 C 0.238,0.337 0.524,0.65 0.707,1.014 1.509,2.604 2.279,4.211 3.068,5.807 3.109,5.889 3.22,5.936 3.299,5.999 3.298,5.896 3.325,5.783 3.292,5.693 3.026,4.986 2.782,4.268 2.466,3.584 2.055,2.69 1.58,1.825 1.14,0.944 0.903,0.468 0.638,-0.007 1.067,-0.533 1.123,-0.603 1.068,-0.854 0.985,-0.92 0.909,-0.979 0.696,-0.943 0.593,-0.874 0.274,-0.666 -0.039,-0.433 0.017,0.024 Z"
             style="fill:#323200;fill-opacity:1;fill-rule:nonzero;stroke:none"
             id="path2723"
             inkscape:connector-curvature="0" />
        </g>
        <g
           id="g2725"
           transform="matrix(4.0146743,0,0,-3.0291483,2125.6707,1147.164)"
           style="fill:#323200;fill-opacity:1">
          <path
             d="M 0,0 C -0.607,0.085 -1.265,0.475 -1.72,1.167 -1.954,1.523 -1.77,1.822 -1.335,1.866 -0.725,1.928 0.494,1.254 0.749,0.713 0.935,0.32 0.687,-0.017 0,0"
             style="fill:#323200;fill-opacity:1;fill-rule:nonzero;stroke:none"
             id="path2727"
             inkscape:connector-curvature="0" />
        </g>
        <g
           id="g2729"
           transform="matrix(4.0146743,0,0,-3.0291483,2175.5686,1120.1288)"
           style="fill:#323200;fill-opacity:1">
          <path
             d="M 0,0 C 0.183,0.879 0.216,1.737 0.833,2.376 0.942,2.489 1.178,2.575 1.316,2.536 1.449,2.499 1.634,2.27 1.62,2.146 1.526,1.323 1.444,0.487 0.831,-0.166 0.648,-0.36 0.446,-0.416 0.229,-0.287 0.118,-0.22 0.055,-0.072 0,0"
             style="fill:#323200;fill-opacity:1;fill-rule:nonzero;stroke:none"
             id="path2731"
             inkscape:connector-curvature="0" />
        </g>
        <g
           id="g2733"
           transform="matrix(4.0146743,0,0,-3.0291483,2202.9861,1206.7528)"
           style="fill:#323200;fill-opacity:1">
          <path
             d="M 0,0 C -0.495,0.265 -0.473,0.741 -0.458,1.193 -0.443,1.618 0.01,1.862 0.36,1.618 0.939,1.214 1.292,0.624 1.456,-0.05 1.495,-0.207 1.316,-0.475 1.161,-0.6 1.059,-0.683 0.785,-0.662 0.656,-0.58 0.407,-0.422 0.206,-0.187 -0.015,0.016 Z"
             style="fill:#323200;fill-opacity:1;fill-rule:nonzero;stroke:none"
             id="path2735"
             inkscape:connector-curvature="0" />
        </g>
        <g
           id="g2737"
           transform="matrix(4.0146743,0,0,-3.0291483,2172.6721,1201.6844)"
           style="fill:#323200;fill-opacity:1">
          <path
             d="M 0,0 C 0.004,0.088 -0.004,0.203 0.016,0.312 0.101,0.773 0.478,1.212 0.785,1.171 1.233,1.111 1.392,0.75 1.462,0.373 1.516,0.086 1.533,-0.225 1.48,-0.509 1.417,-0.849 1.239,-1.153 0.817,-1.157 0.433,-1.161 0.142,-0.902 0.05,-0.472 0.019,-0.326 0.018,-0.174 0,0"
             style="fill:#323200;fill-opacity:1;fill-rule:nonzero;stroke:none"
             id="path2739"
             inkscape:connector-curvature="0" />
        </g>
        <g
           id="g2741"
           transform="matrix(4.0146743,0,0,-3.0291483,2140.3604,1101.956)"
           style="fill:#323200;fill-opacity:1">
          <path
             d="M 0,0 C 0,0.188 -0.02,0.379 0.004,0.564 0.061,1.006 0.479,1.165 0.839,0.888 0.927,0.82 1.021,0.744 1.073,0.649 1.474,-0.073 1.363,-0.806 1.054,-1.517 0.997,-1.647 0.749,-1.769 0.597,-1.76 0.459,-1.752 0.249,-1.582 0.214,-1.446 0.094,-0.975 0.035,-0.489 -0.047,-0.008 -0.031,-0.005 -0.016,-0.003 0,0"
             style="fill:#323200;fill-opacity:1;fill-rule:nonzero;stroke:none"
             id="path2743"
             inkscape:connector-curvature="0" />
        </g>
        <g
           id="g2745"
           transform="matrix(4.0146743,0,0,-3.0291483,2177.1255,1218.4459)"
           style="fill:#323200;fill-opacity:1">
          <path
             d="m 0,0 c 0.145,-0.12 0.352,-0.211 0.421,-0.364 0.165,-0.365 0.263,-0.759 0.388,-1.142 -0.417,-0.118 -0.841,-0.173 -1.27,-0.101 -0.101,0.018 -0.212,0.088 -0.282,0.167 -0.246,0.273 -0.247,1.586 -0.013,1.842 0.218,0.239 0.545,0.063 0.774,-0.418 C 0.007,-0.072 -0.004,-0.128 -0.016,-0.184 -0.011,-0.123 -0.005,-0.061 0,0"
             style="fill:#323200;fill-opacity:1;fill-rule:nonzero;stroke:none"
             id="path2747"
             inkscape:connector-curvature="0" />
        </g>
        <g
           id="g2749"
           transform="matrix(4.0146743,0,0,-3.0291483,2207.6475,1110.3416)"
           style="fill:#323200;fill-opacity:1">
          <path
             d="M 0,0 C 0.125,-0.095 0.258,-0.162 0.34,-0.269 0.402,-0.35 0.426,-0.483 0.42,-0.59 0.392,-1.078 -0.397,-1.909 -0.889,-1.984 c -0.219,-0.033 -0.453,0.075 -0.363,0.272 0.233,0.507 0.539,0.983 0.842,1.455 C -0.339,-0.146 -0.167,-0.101 0,0"
             style="fill:#323200;fill-opacity:1;fill-rule:nonzero;stroke:none"
             id="path2751"
             inkscape:connector-curvature="0" />
        </g>
        <g
           id="g2753"
           transform="matrix(4.0146743,0,0,-3.0291483,2194.923,1123.4179)"
           style="fill:#323200;fill-opacity:1">
          <path
             d="m 0,0 c 0.247,0.034 0.533,-0.318 0.394,-0.543 -0.256,-0.416 -0.561,-0.805 -0.879,-1.177 -0.074,-0.086 -0.285,-0.086 -0.43,-0.076 -0.216,0.015 -0.413,0.188 -0.299,0.372 0.296,0.476 0.658,0.912 1.004,1.357 C -0.173,-0.019 -0.072,-0.021 0,0"
             style="fill:#323200;fill-opacity:1;fill-rule:nonzero;stroke:none"
             id="path2755"
             inkscape:connector-curvature="0" />
        </g>
        <g
           id="g2757"
           transform="matrix(4.0146743,0,0,-3.0291483,2128.7788,1201.9897)"
           style="fill:#323200;fill-opacity:1">
          <path
             d="m 0,0 c 0.008,-0.014 0.123,-0.12 0.102,-0.179 -0.112,-0.318 -0.23,-0.64 -0.4,-0.93 -0.254,-0.434 -0.659,-0.561 -1.17,-0.401 -0.092,0.028 -0.203,0.132 -0.222,0.219 -0.017,0.079 0.06,0.201 0.128,0.274 0.252,0.267 0.562,0.492 0.763,0.79 C -0.611,0.052 -0.393,0.036 0,0"
             style="fill:#323200;fill-opacity:1;fill-rule:nonzero;stroke:none"
             id="path2759"
             inkscape:connector-curvature="0" />
        </g>
        <g
           id="g2761"
           transform="matrix(4.0146743,0,0,-3.0291483,2204.217,1137.9911)"
           style="fill:#323200;fill-opacity:1">
          <path
             d="m 0,0 c -0.179,-0.316 -0.343,-0.693 -0.594,-0.997 -0.08,-0.097 -0.417,-0.062 -0.591,0.015 -0.231,0.103 -0.289,0.366 -0.124,0.565 0.235,0.285 0.514,0.536 0.794,0.779 0.062,0.053 0.231,0.046 0.31,-0.002 C -0.125,0.311 -0.096,0.178 0,0"
             style="fill:#323200;fill-opacity:1;fill-rule:nonzero;stroke:none"
             id="path2763"
             inkscape:connector-curvature="0" />
        </g>
        <g
           id="g2765"
           transform="matrix(4.0146743,0,0,-3.0291483,2198.8839,1227.4197)"
           style="fill:#323200;fill-opacity:1">
          <path
             d="m 0,0 c -0.025,-0.116 -0.053,-0.26 -0.087,-0.403 -0.009,-0.032 -0.047,-0.087 -0.061,-0.084 -0.058,0.014 -0.154,0.036 -0.162,0.071 -0.18,0.84 -0.5,1.667 -0.262,2.549 0.017,0.064 0.06,0.121 0.09,0.181 C -0.443,2.256 -0.38,2.202 -0.368,2.139 -0.243,1.44 -0.126,0.739 0,0"
             style="fill:#323200;fill-opacity:1;fill-rule:nonzero;stroke:none"
             id="path2767"
             inkscape:connector-curvature="0" />
        </g>
        <g
           id="g2769"
           transform="matrix(4.0146743,0,0,-3.0291483,2210.8022,1172.2544)"
           style="fill:#323200;fill-opacity:1">
          <path
             d="M 0,0 C 0.258,-0.177 0.504,-0.321 0.709,-0.509 0.751,-0.547 0.676,-0.799 0.588,-0.875 0.327,-1.102 0.018,-1.06 -0.23,-0.859 -0.352,-0.759 -0.467,-0.54 -0.441,-0.402 -0.416,-0.27 -0.203,-0.174 0,0"
             style="fill:#323200;fill-opacity:1;fill-rule:nonzero;stroke:none"
             id="path2771"
             inkscape:connector-curvature="0" />
        </g>
        <g
           id="g2773"
           transform="matrix(4.0146743,0,0,-3.0291483,2128.4669,1131.6814)"
           style="fill:#323200;fill-opacity:1">
          <path
             d="M 0,0 C -0.629,0.245 -0.861,0.83 -1.164,1.355 L -1.183,1.339 c 0.694,-0.19 1.03,-0.687 1.162,-1.358 z"
             style="fill:#323200;fill-opacity:1;fill-rule:nonzero;stroke:none"
             id="path2775"
             inkscape:connector-curvature="0" />
        </g>
        <g
           id="g2777"
           transform="matrix(4.0146743,0,0,-3.0291483,2193.843,1178.2615)"
           style="fill:#323200;fill-opacity:1">
          <path
             d="M 0,0 C 0.076,0.155 0.153,0.31 0.229,0.464 L 0.208,0.475 C 0.293,0.39 0.378,0.306 0.463,0.221 L 0.444,0.24 C 0.442,-0.018 0.502,-0.295 0.214,-0.458 L 0.23,-0.471 c -0.083,0.164 -0.165,0.328 -0.248,0.492 z"
             style="fill:#323200;fill-opacity:1;fill-rule:nonzero;stroke:none"
             id="path2779"
             inkscape:connector-curvature="0" />
        </g>
        <g
           id="g2781"
           transform="matrix(4.0146743,0,0,-3.0291483,2110.8609,1201.7977)"
           style="fill:#323200;fill-opacity:1">
          <path
             d="m 0,0 c -0.027,-0.082 -0.055,-0.163 -0.082,-0.245 -0.01,0.026 -0.037,0.062 -0.028,0.075 0.037,0.055 0.085,0.103 0.129,0.154 z"
             style="fill:#323200;fill-opacity:1;fill-rule:nonzero;stroke:none"
             id="path2783"
             inkscape:connector-curvature="0" />
        </g>
        <g
           id="g2785"
           transform="matrix(4.0146743,0,0,-3.0291483,2221.4134,1131.732)"
           style="fill:#323200;fill-opacity:1">
          <path
             d="M 0,0 -0.016,0.015 Z"
             style="fill:#323200;fill-opacity:1;fill-rule:nonzero;stroke:none"
             id="path2787"
             inkscape:connector-curvature="0" />
        </g>
        <g
           id="g2789"
           transform="matrix(4.0146743,0,0,-3.0291483,2236.1694,1140.067)"
           style="fill:#323200;fill-opacity:1">
          <path
             d="M 0,0 C 0.074,0.078 0.147,0.156 0.221,0.235 L 0.21,0.241 C 0.136,0.165 0.062,0.088 -0.011,0.011 Z"
             style="fill:#323200;fill-opacity:1;fill-rule:nonzero;stroke:none"
             id="path2791"
             inkscape:connector-curvature="0" />
        </g>
        <g
           id="g2793"
           transform="matrix(4.0146743,0,0,-3.0291483,2237.057,1139.356)"
           style="fill:#323200;fill-opacity:1">
          <path
             d="M 0,0 0.024,0.028 -0.011,0.006 Z"
             style="fill:#323200;fill-opacity:1;fill-rule:nonzero;stroke:none"
             id="path2795"
             inkscape:connector-curvature="0" />
        </g>
        <g
           id="g2797"
           transform="matrix(4.0146743,0,0,-3.0291483,2132.9882,1208.8286)"
           style="fill:#323200;fill-opacity:1">
          <path
             d="M 0,0 -0.017,-0.019 Z"
             style="fill:#323200;fill-opacity:1;fill-rule:nonzero;stroke:none"
             id="path2799"
             inkscape:connector-curvature="0" />
        </g>
        <g
           id="g2801"
           transform="matrix(4.0146743,0,0,-3.0291483,2134.0172,1208.8432)"
           style="fill:#323200;fill-opacity:1">
          <path
             d="m 0,0 c -0.085,0.002 -0.171,0.003 -0.256,0.005 l -0.017,-0.019 c 0.096,-10e-4 0.193,-0.003 0.289,-0.004 z"
             style="fill:#323200;fill-opacity:1;fill-rule:nonzero;stroke:none"
             id="path2803"
             inkscape:connector-curvature="0" />
        </g>
        <g
           id="g2805"
           transform="matrix(4.0146743,0,0,-3.0291483,2144.9768,1216.3818)"
           style="fill:#323200;fill-opacity:1">
          <path
             d="m 0,0 -0.017,-0.044 0.021,0.03 z"
             style="fill:#323200;fill-opacity:1;fill-rule:nonzero;stroke:none"
             id="path2807"
             inkscape:connector-curvature="0" />
        </g>
        <g
           id="g2809"
           transform="matrix(4.0146743,0,0,-3.0291483,2158.8347,1216.4309)"
           style="fill:#323200;fill-opacity:1">
          <path
             d="M 0,0 0.014,-0.014 Z"
             style="fill:#323200;fill-opacity:1;fill-rule:nonzero;stroke:none"
             id="path2811"
             inkscape:connector-curvature="0" />
        </g>
      </g>
    </g>
  </g>
</svg>
