<svg xmlns="http://www.w3.org/2000/svg" width="128.7" height="161.3" viewBox="0 0 34.1 42.7"><g stroke="#323200" stroke-width=".8" fill-rule="evenodd"><path d="M.1 8.3c0 4.2.3 8.5 1.3 11.8l1 3.3 1 3.4c.7 3.2 1 7.4.3 10.6-.2 1-.6 1.8-.5 2.6a3 3 0 0 0 1 1.6c1 .6 2.4.8 3.6 1 3 .1 6-.6 7.7-1.9.6-2.2-.3-4.3-.4-6.4v-4.6c.4-5.8 2.1-10.8 2.5-16.3.2-2.9.2-5.8 0-9-.3-.3-.4-.8-.8-1-.2-.3-.8-.5-1.2-.8l-1.1-.9-2.1-.9A9 9 0 0 0 10 .2a7 7 0 0 0-4.6 1l-.4.4c-1.4 0-3.2.1-4 1C.8 2.6.2 4 0 4.1c0 .3.2.6.1 1v3" fill="#19110f" stroke-width=".282224"/><path d="M8.6 4.1c.4.1.4-.3.1-.3V4zM9.7 4c-.3-1-.7.6 0 0zm-3-.3c.3 0 .5 0 .5-.3-.1-.5-1 0-.5.3zm-2-.3c0 .8.9-.5.1-.3-.2 0-.2.1-.2.3zm3.7 0l.4-.1V3c-.2-.2-.5 0-.4.3zm2.4-.1c0-.4-.1-.6-.5-.5-.4.3.2 1 .5.5zm.5 0c.5 0 .8-.8.2-.8-.2.1-.3.5-.2.7zm-4.1-.5c.1.2.4.2.6 0a.3.3 0 0 0-.6 0zm2.3-.5c.3.1.4-.3 0-.3v.3zm-1.3-.2c.2 0 .3 0 .2-.2-.1-.2-.4 0-.2.2zm2.2 0l.5-.2v-.3c-.3-.4-.8.1-.5.4zM16 4.2A44 44 0 0 1 2.3 4c.6.3 1.5.4 2.3.6 1.3.3 2.8.3 4.5.4H5c-.5 0-.9-.2-1.3-.3-1-.1-2.2 0-2.8-.8 1.1-1.8 4.6-1.2 6.2-2.5H7c2.5-1.3 5.5.5 7.6 1.2.4.5 1.1 1 1.3 1.6M1 4.8l.2.2c-.1 1 .2 2 .2 3 0 .2-.2-.2-.4-.3V4.8M12 8c.3.1.7-.2.6-.7-.4-.5-1.1.1-.7.6zm-6.2-.8v.1c.3 0 .4 0 .4-.3 0-.2-.5-.2-.4.2zm11 .2c-.2-.4.2-1.4-.2-1.8-.2.6 0 1.5-.1 2.3-2.7 1.6-7.7 1-11.4.6.2.3.7.3 1 .4 1.6.3 3.4.4 5.4.4-2.8.6-7 .3-9.3-.7v-.9c-.2.2 0 .7-.2.8-.4-.4-.2-1-.3-1.6 0-.6-.3-1.1-.2-1.7l2.4.7h2l1.4.2h6.3A12 12 0 0 0 17 5c.2.5.2 1.8 0 2.3M17 8.3c.1.1 0 .5-.1.4l.1-.4M16.6 8.8c-.4.6-1.3.7-2 1l2-1" fill="#fff" stroke-width=".282224"/><path d="M13.6 31c-.3 2.2.2 4.6-.7 6-.4.6-1.1 1.2-1.7 1.5-.2 0-.6 0-.7.4 1.6.2 2.8-1.2 3.1-2.5.4-1.6.2-4 .2-5.6h-.2v.2zm-6.1-4.5c0 .3 0 .5.4.5.3-.3-.1-.8-.4-.5zm-.7-.8h.4c.3-.6-.8-.8-.4 0zm6.2 5.7a9.2 9.2 0 0 1-2.3 5c3.2-1.6 2.6-7.2 3.1-11.5-.5 2-.5 4.4-.8 6.5zm-8.7-7.5c.4 1.4.6 3 1 4.2l1.1 4c.7 2.5 1.1 5 3.5 5.7-1.2-1-2-2.2-2.5-3.7-1.5-4.6-2.7-9.7-4.2-14.3 0 1.4.6 2.8 1 4.1zm2.2-8.2l.4.1c.5-.5-.5-1-.4-.1zm4 .2c.6-.2.5-1.4 0-1.7-.6 0-.9.2-1 .5.3.5.2 1.3 1 1.2zM8.9 13c.4 0 .4-.2.5-.4-.2-.5-.9 0-.5.4zm3.9-.6c.2.1.6 0 .7-.3-.1-.2-.2-.3-.5-.3a1 1 0 0 0-.2.6zM9.4 12h.6c.1-.6-.7-.5-.6 0zm-2.1.1c0 .3.7.5 1 .2.8-1.3-1.4-1.4-1-.2zM1.9 9.1H2c-.1 2.7.5 5 1.4 7.3.8 2 1.8 3.1 3.5 4.3 1 .6 1.8 1 3.3 1a9.3 9.3 0 0 1-4.9-2.8c-1.9-2.2-2.9-5.6-3-9.6 1 .6 2.6.5 3.5 1.2 3.4.5 8 .1 10.7-1.1.2.8 0 1.8 0 2.7-.2-.6 0-1.4-.3-1.8-.3.3-.2 1-.2 1.5-.2 4-2.3 7.4-4.6 9.6 2.8-1.5 4-4.7 4.8-8.2-.9 5.4-2.5 10.8-2.4 17.1.3-.3.2-.8.3-1.2l1-8.6c.7-3.6 1.7-6.6 1.8-10.5 0-.3-.1-.8.2-.9-.2 5.4-1.4 10.3-2.1 15.1-.7 4.3-1.4 9-.5 13.6-.4.6-1.2.8-2 1-.7.3-1.7.6-2.5.6-.2 0-.2-.2-.4-.3L8.2 39a5.6 5.6 0 0 1-2-2c-.4-.9-.5-2-.6-3.3 0-1.3-.2-2.5-.4-3.7-.3-2.3-1-4.3-1.6-6.4A55.2 55.2 0 0 1 2 9.3V9" fill="#fff" stroke-width=".282224"/><path d="M8 11.6v.3h-.3c0-.2 0-.4.3-.3M10 14.6h.4c.2.2.3.6 0 .9-.4 0-.4-.6-.4-.9M5 30.6c.7 2.1-.1 5.3 1 7.1.4.6 1 1 1.4 1.5a4.3 4.3 0 0 1-2.8-1.4c.3-2.2.5-4.7.3-7.2" fill="#fff" stroke-width=".282224"/><path d="M4.3 38.6c.5.3 1 1 1.6 1.2 1 .4 2.9.5 4.1.4.3 0 .8-.3 1 0-.2.2-.6.2-1 .3-2.2.1-4.7-.4-5.6-1.6v-.3" fill="#fff" stroke-width=".282224"/><path d="M4.1 39.4c1.5 1.5 4.7 1.9 7.4 1.5-1.4.8-4.7.6-6.3 0-.5 0-1-1-1-1.5M11.7 39.8c.2 0 .2.2.2.3-.2.2-.5 0-.5-.2l.3-.1M13.6 40.2c0 .4-1 .4-1.4.7.3-.5 1-.4 1.4-.7M1 8.7c.6 0 .4.8.5 1.4 0 2.4 0 5.9.5 8.1-.2.2-.1-.2-.2-.4-.7-2.5-.7-6-.8-9.1M14.3 39c-.2.6-1.3.8-2 1 0 0 0-.2-.2-.2.6-.4 1.5-.5 2.2-.8" fill="#fff" stroke-width=".282224"/><path d="M33.5 20.2c-.2-1-.5-2.2-.5-3.1 0-.7.4-1 .5-1.5a4 4 0 0 0-.6-2.5 5 5 0 0 0-2.7-2.2c-.8-.3-1.7 0-2.4.1-.5 0-1 .4-1.5.3-.4 0-.8-.4-1.3-.4h-1.3c-1.3.3-2.6 1-3.3 1.8a2 2 0 0 0-.5 1.9c.2.5.7.7.8 1.2l-.1 1.2-.4 3.6c-.1 1.5-.5 3.2-.3 4.8a7.8 7.8 0 0 0 4.2 6.5l.4 3.5c0 .4.2.9.1 1.3 0 .2-.5.5-.8.7-.8.5-2.6.8-2.6 1.9 0 .5.8 1.1 1.3 1.4l.9.2c2.3 1 5.9.8 7.8-.3l.6-.3c.2-.1.4-.5.4-.7 0-.8-.8-1.2-1.3-1.6l-.7-.8c-.3-.2-.6-.4-.7-.7-.7-1.2-.4-3.1 0-4.5 1.4-.9 2.7-1.3 3.4-2.7.8-1.5 1-3.8 1-6 0-1-.3-2.1-.4-3.1" fill="#19110f" stroke-width=".282224"/><path d="M29.4 16.3h.3v-.2c-.1-.2-.4 0-.3.2zm-.9-.1c.2.3.7 0 .5-.3-.2-.2-.6 0-.5.3zm1.9-.3v-.2c-.1-.4-.6.3 0 .2zm-4.3-.1c.6-.2 1.2.2 1.8 0-.4-.3-1.5-.6-1.8 0zm3.1-.2h.1c.2 0 .3-.1.4-.3-.1 0-.5 0-.5.3zm1.2-.1h.5c.1-.1 0-.2 0-.2-.1-.2-.7-.1-.5.2zm-7-.5l.2.1c.2 0 .2 0 .3-.2-.1-.3-.5-.2-.4.1zm.8-.2h.2c0-.3-.4-.2-.2 0zm7.4.3l.1-.6c-.4-.3-.7.7-.1.6zm1-.8c-.2-.3-.6.1-.4.3.2 0 .2-.2.3-.3zm-9.2 2.6v2.4c.1.7.2 1.6.5 2 0 .2.4.6.6.5.5-.2 0-2 0-2.7V17c-.3 1.2 0 3-.2 4.4-.7-1.1-.4-3.3-.6-5l-.2-.1c-.3-1-.9-2-1.8-2.2.7.7 1.6 1.4 1.7 3zm.2-2.6c.2-.1.5-.1.4-.5-.2-.2-.6.2-.4.5zm5.2-.6c-.4 0-.5.2-.5.5l.4.2c.3-.1.4-.5.1-.7zm-3.1 0c-1-.1.1 1 0 0zm6.1.6c.3 0 .4-.3.5-.7-.3 0-.7.4-.5.7zm-5-.2c.3 0 .3-.1.4-.3-.2-.4-.7 0-.4.3zm4.6-.1c.4 0 .6-.4.8-.7-.4.1-.6.4-.8.7zm-3.6-.6c.8.4.1-.9 0 0zm-1.6-.3c-.5.8 1 .2 0 0zm-3.7 0v-.5h-.1v.5zm2.8-.3c.2 0 .3 0 .3-.3-.2-.1-.4.1-.3.3zm-2.1.3v-.8H23c0 .3-.1.7.2.8zm.4 0V12c-.4 0-.4 1 0 1zm1-.2v-1c-.3 0-.3 1 0 1zm-.5 0c0-.1.1-1-.1-1.1-.1.2-.3 1 0 1.1zm7.4-.6c0 .4-.4.5-.5 1 .5-.1.5-.6.8-.8.3.5-.5.7-.7 1.1.5 0 .7-.4.9-.8.5.6 1 2 .6 3h-1.3c-1 .1-1.4 1-2.5.8-.6 0-.9-.4-1.4-.7 0 .2.3.4.5.6.3.2.8.4 1.6.3.8-.1 1.6-1 2.8-.7.1.1-.4.3-.6.4-.1.1 0-.2-.2-.1-1.1 0-1.5.6-2.4.7-1.3.3-2.4-1.6-3.7-.7l.2-1c-.3.2-.4.6-.5 1l-.3 1.1v3.7c0 .5-.2 1.2-.7 1.1-.5 0-.7-1.5-.7-2l-.3-2.7c0-.1.2 0 .1-.2 0-.2-.2-.1-.2-.3 0-.8-.3-1.3-.7-1.6-.5-.5-1.3-.4-1.6-1 0-1.5.7-2 1.7-2.5.7-.4 1.9-.9 3-.5.7.2 1.3.7 2.6.6l.7-.1c-.4-.3-1.1-.3-1.7-.4.8-.2 1.8-.5 2.8-.4.8.1 1.3.7 1.7 1" fill="#fff" stroke-width=".282224"/><path d="M21.3 15.8c.5 0 .6.4.9.8.1.1.4.3.4.5-.5 0-1 0-1.3-.3v-1M27.6 17.4h-2c.3-1.3 1.4-.4 2 0M32.2 17c-.5.2-1.1.3-1.7.3.3-.4 1-.2 1.7-.3" fill="#fff" stroke-width=".282224"/><path d="M28 26c-.3-1.1-1.6-.2-1 .4.2.2.8.2 1-.1h-.2l.1-.4zm.2-.7c.2.3.6 0 .4-.4-.3-.2-.4.1-.4.4zm-3.1-.8c.5-1.5-1.9-1.5-1.8 0 0 .4.3.4.3.7.6.4 1.3-.3 1.5-.7zm1.5-1c0 .3.3.5.7.3v-.6c-.4 0-.7 0-.7.4zm1.2-.7v.3c.2.4.8.1.7-.3-.1-.3-.6-.3-.7 0zm.5-1.7c-.3 0-.3.2-.5.2v.6h.7c.2-.3 0-.7-.2-.8zm3.5-.3c0-.8-.1-1.9-.3-2.7-.2.9 0 2 .3 2.7zm.4-3.5l.6 6.8-.1 1.7c-.1.4-.7.8-1 1.1-1 1-2.2 2.3-3.8 2.5-1.6.2-3.4-.3-4.3-1.2-.5-.5-1-1.6-1.3-2.3-.4-.9-.5-1.9-.7-3-.2 1.1.1 2.1.5 3 .3 1 .7 2.2 1.5 2.8 1 .8 2.7 1.3 4.2 1.2 2.3-.3 3.6-2 4.7-3.4-.7 2.3-2.4 4-4.6 5-.2 0 0-.3-.2-.3-4.3-.1-6.2-3.1-6.4-7.3l.1-2.7.1-3.8 1.1.2.3 3c0 .8 0 2.1.7 2.4.4.1 1 0 1.2-.2 1-.8.1-3.9.6-5.1a9 9 0 0 0 1.9.2h2l1.4-.3c.5 0 1.1 0 1.5-.3" fill="#fff" stroke-width=".282224"/><path d="M32.8 20.4c.6 2.5.8 6.1-.2 8.2-.2.4-.6.7-1 1l-.7.8a8 8 0 0 1-2.7 1 7 7 0 0 0 4.2-3.8c1-1.8.6-4.7.4-7.2M28.4 21.7h-.1c-.8.1.1-.8 0 0M28 22.8h.3v.2H28v-.2M27 23.4l.1.2H27v-.2h.2M24 24.8c-.9-.2.3-1.5.6-.8.1.4-.4.6-.5.8M27.6 25.9c0 .2-.1.3-.3.4-.4-.3.1-1 .3-.4M24.7 32l.1.1c.3 1.1.5 2.5.4 3.4-.2-1.2-.1-2.5-.5-3.4M25.1 32.3c.9.3 2.3.5 3.3.2-.6.9-3 1.2-3.3-.2M28.7 32.8c-.2 1-.2 2.7 0 3.8l-.3-.5V33c.2 0 .2-.1.3-.2" fill="#fff" stroke-width=".282224"/><path d="M25.3 33c.6.8 2.4.8 3 .2-.2.9-.2 2-.1 3-.8 0-.2-1.5-.5-2-.2.5-.1 1.3 0 2h-1.2c-.2 0-.7.1-.6.4.5 0 1.1-.3 1.8-.2.1.5.2 1 .4 1.3.2-.3-.1-.8-.1-1.2.4.1.3.7.4 1.1-.6.4-1.7.3-2.7.2l-.5-.4c.4-1 .4-3 .1-4.4M28.5 37c.2-.2.3 0 .4 0 0 .1 0 .4-.2.4 0-.1 0-.3-.2-.5M30 40.5c-2 .8-5.4.5-7.2-.3 0-.2 0-.5.2-.6.8.3 1.7.8 3 1h4M21.3 17.4c.3.2.1.5 0 .7v2.5c-.1 1.2-.3 2.3-.2 3.3.1 2.7 1 4.9 2.4 6.2-1.2-.4-1.9-1.4-2.4-2.7a9 9 0 0 1-.5-4.2c0-1 .3-1.9.4-2.9l.3-3M23.7 30.8c.4 0 .9.4 1.3.5-.4 0-1-.3-1.3-.5" fill="#fff" stroke-width=".282224"/><path d="M25.3 39.4c0-.5-.8 0-.2.3 0-.1.2-.1.2-.3zm-1 0c.2 0 .3 0 .4-.2-.2-.3-.6 0-.4.3zm5.7-1.2c.1.4.8.7 1 1.1-.6.4-1 .6-2 .6-1.9.1-4.4 0-5.8-.4.2-.6 1-.8 1.3-1.3-.6.1-1.3.6-1.7 1l-.6-.3 2-1 .6-.3c.2 0 .6.4.9.6 1.3.4 3.3.4 3.6-1 .3 0 .3.3.4.4l-1 .8c.4.1 1-.3 1.1-.7.5.4 1 1 1.5 1.3-.4-.1-.8-.7-1.3-.8M22 39c.3 0 .4.3.6.4 0 .2-.2.4 0 .6-.2-.2-.8-.6-.5-1" fill="#fff" stroke-width=".282224"/></g></svg>