<svg xmlns="http://www.w3.org/2000/svg" width="148.9" height="342.8" viewBox="0 0 39.4 90.7"><g stroke="#323200" fill-rule="evenodd"><g stroke-width=".3"><path d="M26.9 4.9c-.3-.3-.6.3-.3.5.1 0 .4-.2.3-.5" fill="#19110f" stroke-width=".105834"/><path d="M24.5 8.4c.1-.2.3-.2.5-.3.3.4.6.8 1 1 .3.6.6.9.6 1.5-.8.7-1.2 1.7-1 3.2-.6-1-.7-2.4-1.7-3l.6-2.4zm-13.3 14c0 .7.2 1.1.5 1.5a9 9 0 0 0 0 1.9 2 2 0 0 0 1.8-1v.8h.5v-.5c0-.1.2-.4.4-.4-.2.6 0 1.3.1 1.7 0-.1.2 0 .2 0 0-.2.1-.2 0-.4.6-.5 1.2-1 2-1.2h.6c1-.3 1.5-1 2.2-1.5 0 .3.2.6.6.6a3 3 0 0 1 1-1.7c0 .5 0 1.2.6 1-.4-.8.4-1.5.8-2 0-.2.2-.4.3-.5.3 0 0 .4.3.4.4-.2.4-.8.4-1.3.6-1 1.5-1.5 2-2.5.2 0 .2.2.5.1-.2-.7.1-1.4.5-1.8.4.5.6 1.8.2 2.5.4-.1.6-.3.7-.5.3.9 1.3 1.5 1 2.8h.3l.4-1.1c0 .6.5 1 .9 1.4.3.5.5 1 .9 1.4.3-.1.3-.8.2-1.2.6.4 1 1 1.3 1.7.3-.1.3-.5.4-.7.4.4.9.6 1.5.8.6.1 1 .4 1.6.4l-.1-.9c.4.2 1 .3 1.4 0 .4.3 1.4.3 1.6-.1-.2-.7-.4-1.2-.8-1.7.5-.2 1-.4 1.3-.9-.7-.2-1.1-.7-1.4-1.3l.2-.3c-.4-.5-.8-1-.7-2 .3 0 .3-.2.6-.1 0-.4-.3-.4-.6-.6-.7-.5-1-1.5-1.4-2.5.3.1.7.1.8-.1l-.3-.2c0-.1.1-.2 0-.2-1.6.4-1.9-1.5-3.2-1.7 0-.3.4-.3.4-.6-.4-.2-.7 0-1-.1-.7-.1-1.3-.6-2-.6-1.2-.2-1.7.4-2.6.5-.4-.7-1.4-1-1.7-1.6l1-.1c1.9-.2 2.7-2.3 4.3-2.9.5-.1 1.4-.3 2.2-.1.8.1.7 1 1.2 1.5h.4l.4-.4v-.7c-.1-.2-.4-.6-.3-.8-.6-.4-1.4-.7-2.4-.7-.7 0-1.7.2-2.1.4-.3.1-.6.5-.9.8-1 1-2 2.3-4.4 2-.2-1.2.4-2 .5-3 0-1.4-.5-2-1.3-2.5h-.4c0-.5-.5-1-.9-.4 0-.3-.2-.5-.5-.7l-.4.1-.7-.5h-.2c-.6 1-1.8 1.7-2.4 3-.4-.3-1 0-1.4 0-.8.3-1.8.7-2 1.3 0 .2.2.1.2.3-.7.5-1.3 1.2-1.9 1.8l.1.3c-1 1.1-1.3 3-2.5 4 .1.2 0 .3 0 .4.5.2 1-.2 1.4-.4 1.4-.7 2.6-2.1 4.4-2.2 2-.2 4.4 0 6.2-.3l-1 2c-.8 0-1.4-.7-2.2-.7-1-.1-1.9 0-2.4.6v.3c-1 .4-1.5 1.1-2.4 1.6 0 .2.1.1.2.2-.8.5-1.8 1.7-2.7 2.1-.2 0-.6 0-.6.3 0 .4.7.4.9.6-.6.8-.9 2-1.5 2.7-.1.1-.4.2-.4.5l.5.2c-.7.8-.8 2.2-1.4 3-.3.3-.6.4-.7.7h.9" fill="#19110f" stroke-width=".105834"/><path d="M22.7 5.8c0 .2.1.2.4.2.4-.5-.6-.7-.4-.2zm2 1.2c-1.9.5-2.6-1-3.4-1.9v-.6c.2 0 .3-.2.4-.1 1.3.2 2.5 1.5 3 2.6M35.1 4.7l.3.6-.5.1c-.3-.3-.5-.7-1-.7h-1.5c-2 .1-3 2.4-4.8 2.9-.4.1-1.2.1-1.6-.2 2.8.2 3.7-1.5 5.1-2.7 1.3-.3 2.8-.5 4 0" fill="#fff" stroke-width=".105834"/><path d="M21 5.1c.5.8 1 1.6 2 2a70 70 0 0 0-4.2.8c-.7-.3-1.6-.3-2.3-.6a3 3 0 0 1 2-.7c.2 0 .3-.2.3-.4.7 0 1.2.5 2 .4.2-.2 0-.6 0-.8l.1-.7M35.5 5.7v.1c0 .3-.4.3-.5 0 .2 0 .3-.2.5-.1M24.2 7.5c-1.5.4-3.3.5-5.2.6 1.6-.3 3.3-.8 5.2-.6M18.2 8c-.7.2-1.7 0-2.4 0 .3-.8 1.5 0 2.4 0M27.8 9.9l-.7.5c0-1.4-1.2-1.6-1.7-2.5.6-.1.9.7 1.4 1.1.4.3.8.5 1 .9M16.2 8.4h-1c.2-.4.6 0 1 0M23.9 9.2l-.2 1.2c-.1.1-.2 0-.3-.1l.5-1M23.6 12.4l.3-.1v-.2h-.3v.3zm.7-.6c-.3.8-1 1.1-1.4 2-.1-.6.1-1.1.2-1.6-.6 0-.8.7-1.5.8.4-.5.9-.8 1.2-1.4-.6.4-1 1-1.7 1.3l.2-.3.8-1.3c.3 0 1 .1 1-.2-.2-.2-.5 0-.8-.1-1-.1-1.3-.7-2.1-.8l-1.6.2c.5-.5 1.2-.5 1.8-.5 1 .1 1.7.8 2.5 1 .1 0 .3-.1.4 0 .2 0 .3.3.6.2l.4.7M32.6 10.5c-.5.5-2 .6-2.8.2.8-.4 1.8-.2 2.8-.2" fill="#fff" stroke-width=".105834"/><path d="M21.5 11c-.3.1-.8.2-1.2.1V11h-.8c0-.1-.1-.3-.4-.2.7-.6 1.7 0 2.4.3M18.7 10.8c-.4.4-.8 1-1.6 1 .5-.3 1-1.1 1.6-1M35.2 12.4h-.6c0 .2-.5 0-.7 0-.2-.6-.5-1.2-1-1.5 1.2-.1 1.4 1.2 2.3 1.5M33 13c0-.2-.1-.4-.4-.5-.1.3.3.4.4.5zm1 .4c-1.1.1-2-.2-2.5-.8.5-.4 1-.5 1.4-1-.5 0-1.5.2-2-.2.6 0 1.3-.2 1.7-.3.4.2.6.7.7 1.1l.6 1.2M21.8 11.2c.1 0 0 0 0 .1l-1 1.5c0-.6.5-1.2 1-1.6M19.8 11.4c-1 .5-1.5 1.5-2.2 2.3 0-.5.6-1.3 1-1.8.3-.3.8-.6 1.2-.5M21 11.5c-.2.5-.5 1.3-.9 1.8-.2-.7.4-1.4 1-1.8M28.3 12c.2.5.3.9.6 1.3.3.3.9.6 1 1 0 .6 0 1.2.2 1.8-.4-.5-1.1-.7-1.4-1.4-.2.6.5.9.8 1.2-.8 0-1.1-.8-1.3-1.4.3-.1 1 0 1.2-.2-.7-.5-1-1.2-1-2.2M16.5 13.2c-.4.6-1.3.6-1.6 1.2.7-.1 1.4-.6 1.8-1.2h-.2zm1.3-1.1a6 6 0 0 1-3.3 2.6c1.2.3 1.8-.7 2.5-1.2 0 .3-.4.6-.7.8-.6.5-1.4.8-2.3.4.5-.4 1-.7 1.4-1.2.4-.3 1-1 1.4-1.2.3-.1.7 0 1-.2M24 14.7c.3.1.4-.2.3-.4-.3 0-.4.2-.4.4zm.5-2.6c.4.5.3 1.5.1 2.2v.7c-.3.5-1 .7-1.3 1-.5-1.6 1.1-2.5 1.2-4M28.7 12c.5.6 1.4 1 2.5.8.2.5.4 1 .3 1.7-.1-.6-.2-1.2-.7-1.4 0 .2.3.5.3.9-.3-.3-.5-.6-.9-.8.2.5 1 .8 1.1 1.5-.9-.7-2.2-1.3-2.6-2.6M35.4 12.8h.3c.3 1.3 1 2.2 1.8 3-.8-.1-1.2-.7-1.7-1 0-.8-.2-1.6-.4-2" fill="#fff" stroke-width=".105834"/><path d="M34.2 13c0-.2.2-.1.3-.1.3.6.2 1.8.9 2.1l-.6-2.1c.3 0 .5.3.5.6.2.5 0 1.3.3 1.7-1.6.2-2.5-.5-2.9-1.5.7.2 1.5 0 1.9-.4l-.4-.4M31.6 16.1V16c-.7-.3-.2.7 0 .1zm-1-.6c0 .2.1.3.3.3l.1-.1v-.3h-.3zm1.1-2.2c1 .4 1.3 1.6 1.1 3-.3-.7 0-2-.6-2.5.1 1 .1 2.7.6 3.3-1 0-1.5-.5-2.2-.8l-.4-1.9 1.5 1.3c.4-.6.3-1.7 0-2.4M20 15.8c0-.9.2-1.6.7-2 .5-.1 1-.2 1.3-.4-.4 1-.8 2.1-2 2.4M26.5 13.9c.3 0 .7.4 1.1.4 0 .5.1 1.1 0 1.6-.1-.5-.2-1.1-.5-1.4.1.6.7 1.7.2 2.4a4 4 0 0 0-.8-1.9V14M25.2 13.9c.6.5.5 1.8.4 2.8-.8-.4-.1-1.8-.4-2.8M16.8 14c0 .2 0 .4.3.4-.5.5-1 .9-2.1.8.6-.2 1.6-.4 1.8-1.1M17.8 15.5c.7 0 1.3-.5 1.5-1.2h.5v.3c-.7.5-1.2 1.4-2.5 1.3 0-1 .6-2 1.8-1.6-.2.6-.8.8-1.3 1.2M22.4 14.6l.2.7c-.4.5-1 1-1.9 1 .7-.4 1.4-.9 1.7-1.7" fill="#fff" stroke-width=".105834"/><path d="M33.2 14.8c.4.4.8.8 1.7.7.4.4.6 1 .7 1.7-1.2.1-1.5-.8-2.3-1.2v-1.2M28 14.8c.2.7.8 1.6 1.7 1.2l.4.5c.1 0 0-.2.1 0-.9.2-1.8-.2-2.2-.7v-1M17 15v1.4c0 .3.7.2 1 .2-.4 1.2-1.8 1.5-2.7 2.2-.5-.8-.2-2.4.1-3l.6-.2c-.4.7-.9 1.5-.6 2.6.3-.4.2-.8.3-1.2.2-.9.8-1.4 1.4-2M36.5 15.8c-.3 0-.3.7 0 .6h.2c0-.3 0-.6-.2-.6zm-.6-.7c.3.3.7.7 1.2.9-.2.8.2 1.4.5 1.9-.3.2-.7-.1-.8-.4-.4 0-.6-.4-1-.6 0-.5-.2-1-.5-1.3.2-.2.4-.1.6-.2V15M19.2 18h.3l-.1-.2h-.2v.3zm.3-2.6c.2.4 0 1 .2 1.3.4.1.7.3 1.2.3-.2.4-.5.8-.9 1-.3.4-.8.5-1.1.9 1.6 0 1.8-1.9 3.2-2.3-.7 1.2-1.4 2.5-3.3 2.5-.4-1.3-.3-3.2.7-3.7M14.7 15.7c-.4.8-.8 1.7-1.7 2l1-2.2.7.2M24.5 15.7c0 1.9-1.4 2.6-1.5 4.5-.6-.8-.8-2.7-.3-3.7.1 0 0 .2.2.2l.8-.4c-.2 1-1 2-.8 3.2L24 16l.5-.4M20.3 16H20h.3M27.9 16.2c.4.3.7.6.8 1.3-.2-.3-.4-.6-.7-.7.2.7.9 1.3.7 2.4l-1.1-1.9c0-.4.2-.6.3-1M24.8 16.4l.2.5c-.1.4-.4.7-.6 1 0-.4.4-1 .4-1.5M14.4 16.8c.1 1-.7 1.6-1.8 1.5.8-.3 1.4-.8 1.8-1.5M31.5 18c-.3-.4-.5-.8-.9-1 .5-.5 1 .3 1 1M34.3 18.8c0-.3-.5-.5-.8-.6 0 .4.4.5.8.6zm.3-.3c-.2-.3-.3-.6-.7-.6 0 .3.3.5.7.6zm-1.1-1.7c.2.3.7.4 1 .7.4.5.3 1.2.6 1.8a3 3 0 0 1-3.2-1.2v-.8l.3.2c.4.7 1 2 2.3 1.6-1-.1-1.6-.8-2-1.6l1.2-.1c0-.3-.3-.3-.2-.6M28.9 16.9c.7.8 1.2 2.1 2.6 2-1 .3-1.8-.4-2.4-.9a4 4 0 0 0-.2-1.1" fill="#fff" stroke-width=".105834"/><path d="M29.3 17h.2c.6.6 1.2 1.3 2 1.7-1.1 0-1.7-1-2.2-1.7M30 17h.4l.9 1.1c-.5-.2-1-.7-1.4-1M35 17.7h.6c0 1.2.6 2 1.5 2.4-.6-.2-1.3-.4-1.7-1l-.4-1.4M36.3 17.7c.5.2.5.8.8 1.3l.6.7c-.8-.3-1.1-1-1.4-2M21.8 18c0 1.6-1.3 2-1.6 3.4.1-.9.5-1.6.9-2.3.2-.4.3-.8.7-1M14.4 18c.3 1.2-.6 1.8-1 2.5-.2-1.1.5-1.8 1-2.4M37.1 18.3h.5c.2.6.6 1 1.1 1.4-.2.2-.4-.1-.7-.2l-.9-1.2M32 18.5c.4.6 1 1 1.8 1.2.3.7.6 1.2.7 2.1-.3 0-.3-.3-.3-.5l-.8-1.5.7 1.9c-1.2-.3-1.5-1.6-2.2-2.5.2-.3 0-.4 0-.7M29.3 18.7c.3.8.8 1.3 1.3 1.8l.2 1c-.4-1-1.5-1.3-1.5-2.8" fill="#fff" stroke-width=".105834"/><path d="M14.5 19l.2.3c-.3.7-1 1.2-1.5 1.6v-.3c.6-.3 1.1-.8 1.3-1.5M18 19.1c0 .2.1.4.3.5-.5.6-1 1-1.2 2 0-1 .6-1.6.8-2.5" fill="#fff" stroke-width=".105834"/><path d="M18.9 19.5c-.2.6-.9 1-1.3 1.5 0-.6.8-1 1-1.5h.3M22.3 20.1c.4.7-.6 1.2-.8 1.8 0-.7.7-1 .8-1.8M13.6 22.4c.5 0 .8-.6 1-1 .2.1 0 .4-.1.6-.4.6-1 1.3-1.8 1.4 0-.8.1-1.4.5-2a3 3 0 0 0 1-.8c.5.8-.4 1.2-.6 1.8M16.8 20.7c0 .5-.2 1.2 0 1.7-.2.4-.7 1-1.3.8.1-.7.5-1.3.6-2 .3 0 .5-.3.7-.5M32.8 21.1c.3.5 1 1.3 2 .9-.2-.2 0-.3 0-.5.1-.1.4.3.6.4v.8l-1.5-.5c-.5-.2-1.1-.5-1.1-1M18.6 21.5v.1L18 23c-.3.4-.6.7-.8 1.2.6.1 1-.3 1.4-.7.3-.3.5-.6.5-1l.3.6c-.7.8-1.5 1.3-2.7 1.6 0-.9.4-1.5 1-1.8v-.4l1-1M12.3 22c0 .4-.3 1-.5 1.4-.2-.2-.3-.6-.2-1.1.2 0 .5-.1.7-.3M15.3 22.8s.2.6 0 .6v-.6M14.6 22.8c0 .3 0 .8.2 1.1l-1 .7c0-1 .3-1.4.8-1.8M12.1 23.4c.2.2.2.5.4.6l.5-.1c-.2.5-.5.8-.9 1.1v-1.6M16.4 23.5c.1.2-.3.7-.1 1a6 6 0 0 0-1.6 1c-.1-1.3.8-1.6 1.7-2M13.4 23.7h.2l-.2.8c-.4.3-.8.8-1.3.9 0-.3.2-.1.3-.2.5-.4.8-1 1-1.5M24.3 4.2c.2-.4.4-1.1.4-1.7-.4.3-.5 1-.4 1.7zM22 2.9c0-.2 0-.6-.2-.7-.1.3 0 .6.2.7zm.6-1.5c.1.8.2 2.2.5 3.1-.5-.3-1.3-.7-2-.3 0 .1-.2.3-.1.6h-.4c0 .3 0 .6-.2.7v.7c-.5-.2-1.7-.7-2.2-.2-2.2.7-3.3 2.5-4.8 3.8.1-.7.7-1.4.8-2 0-.3.5-.5.7-.9v-.3c.4-.8 1.3-1.2 1.8-2v-.3a4 4 0 0 1 2.6-1c.3.2.3.5.6.6l.4-1 .5-.9c.4-.5 1-.8 1.3-1.5.3.2.6.5 1.1.4.3.2.3.6.6.7.2 0 .2-.1.3-.2.1.3.2.6.4.7h.4c.5.3.9.7 1 1.3.2 1.2-.7 2.4-.5 3.5-.5-.2-.5-.8-.9-1.1V6l-1-1.1c-.5-1-.3-2.7-1-3.5" fill="#fff" stroke-width=".105834"/><path d="M15.8 8.7c-.7.7-1.5 1.3-2.4 1.8.4-.6 1.2-1.2 1.8-1.7h.6M27.8 10.8c-.7.6-.4 2.4.2 2.9-.6-.3-.8-1.4-.7-2.5-.3 0-.2.5-.3.8 0 .2-.1-.1-.3 0-.2 0-.2.3 0 .4h.3c0 .6.3 1 .6 1.4-.7 0-1-.6-1.4-.6v2c-.4-1.2-.6-3.3.3-4 .5-.3 1.1-.4 1.5-.8 0 0 0 .2.2.2V10c.8-.4 2-.7 3-.4-.7 0-1.4.2-1.9.4.6 0 1.9-.4 2.5 0-.8.1-1.7 0-2.2.4-.2-.1-.7-.3-1-.2 1.1.4 1.7 1.3 2.8 1.7-1.5.1-2-1-2.9-1.5.6.8 1.2 1.7 2.6 1.8-1.5.4-2.5-.6-2.8-1.6H28c0 .7-.2 2.2.2 2.9-.6-.3-.8-2-.4-2.8M20.2 11.5c.1.1-.3.4-.4.6-.1 0 .1-.2 0-.2-.4.5-.8 1-1.3 1.3l1-1.3.7-.4M19.6 12.5c0 .3-.5 1.4.3 1.2-.3.4-1.2 0-1.9.1.6-.3 1.2-.7 1.6-1.3M24 12.7c-.2.6-.8 1.2-1 2-.2-.8.6-1.4 1-2M22.3 13.2c.3 1.4-.6 2-1.3 2.6.5-.7 1-1.6 1.3-2.6M35.8 17.7h.3c0 1 .5 1.5 1 2-.7-.2-1.2-1-1.3-2M21 18.8c-.4.9-1.3 1.8-1 3.2l.1-.5 1.7-2.5c.2.6-.2 1.3-.5 1.8-.4.7-1.3 1.3-1.4 2.2-.7-.8-.5-2.7 0-3.6.4 0 .7-.3 1-.6M15.1 19.4c0 .3-.3.9-.1 1.4.3-.5.2-1.4.8-1.5-.2.5-.5 1-.6 1.6.6-.3.6-1.1.9-1.7l.5-.1c-.2.6-.6 1-.9 1.5.7-.3 1-1 1.2-1.6l.9-.6c-.6 1-1.1 2.6-3 2.7-.1-.6 0-1.3.3-1.7M13 18.8c-.6.8-.8 2.4-1.6 3.1l.3-.6c.3-.9.5-2 1.2-2.6h.4c-.4.6-.8 1.3-.6 2.5l-1 .7c.7-.6.9-2 1.3-3M29.8 19l.4.2c.3.9 1.3 1.2 1.7 2L30.8 20c-.6-.2-.8-.6-1-1M31.3 19.4c.1-.1.3 0 .4-.2.3.5.7 1.3.7 1.8-.2-.7-.6-1.2-1.1-1.6" fill="#fff" stroke-width=".105834"/><path d="M30.5 19.3c1 0 1.1.8 1.5 1.4l-1.5-1.4M19.3 19.5c0 1.4-1.4 1.9-2.1 2.7.4-1 1.5-1.7 2.1-2.7M34.7 19.8c0 1 1 1.7 1.7 2.2-.4 0-.9-.2-1-.6-.7-.3-.9-1-1.3-1.6.5 0 .8-.2 1.1-.1.5 0 .8.7 1 1.2.1.5.4.8.7 1.1a7 7 0 0 1-2.2-2.2M36.2 20.1c.4.1.8.5 1.4.4.3.4.7 1 .7 1.6-1.5.1-1.6-1.1-2-2M19 21.5v.6c-.4.8-.8 1.5-1.6 1.8.6-.6 1.2-1.4 1.6-2.4" fill="#fff" stroke-width=".105834"/></g><g stroke-width=".2"><path d="M36.5 77l-.7-16.3c-.1-2.7-.3-5.4-1.1-7.3-1-2.5-3.1-3.8-4.2-6.2-1-2.1-1-4.7-1-7.7 0-1.2-.3-2.6-.1-3.7 0-.4.4-.7.5-1.2.1-1.1-.3-2.3-.2-3.3-.6-1.1-2.6-1.7-4.4-1.4-.9.1-1.8.8-2 1.4.3 1-.3 2.3-.1 3.7 0 .5.3 1 .4 1.6.5 3 0 6.6-.7 9.1-.8 2.5-2.6 4.1-3.5 6.7-.7 1.9-.7 4-.6 6.5.3 6-.1 12 .4 17.8.2 1.3.2 2.5.2 3.6-.2 2.4-1.2 4.7-1.2 6.8 0 .7.3 1.1 0 1.6 2.1.7 4.5 1 7 1.3 2.3.3 5 .8 7.5.6 2.2-.1 3.7-1 4.1-2.7l.3-2c.2-1.9-.2-3.2-.4-5l-.2-4" fill="#19110f" stroke-width=".11742"/><path d="M27.7 30.8c0 .3.3.4.4.6-1 .3-2.5.2-3.2 0 .6-.6 1.8-.8 2.8-.6M27 32.4c-.2.4-1.2.2-1.5 0 .3-.3 1 .1 1.6 0M24.9 32.7c.6.3 2 1 2.7.2.4 0 .3.4.3.8-.8.5-2 .4-3 .3v-1.3M28.5 33h.2v.5h-.3l.1-.6M28.9 34c0 .3-.1.4-.2.5-.3 0-.2-.6.2-.5M28.1 34.7c-1 0-2.4.1-3.3-.1.1-.5.6-.1 1-.1.7 0 1.5 0 2-.3.3 0 .2.3.3.5M24.4 35.4c1.1.4 2.8.5 4 .4V37a10 10 0 0 1-3.8-.3l-.2-1.3M24.7 37.3c1 .2 2.4.6 3.7.4v1c-.9.3-1.7.5-2.7.5l-.1-.7c-.4 0 0 .6-.3.7l-.6-.2v-1.7M28.4 39.5c-.2.4-1.1.6-1.8.6-.3 0-.7.1-1-.1l2.8-.5M25.4 39.8c0 .4-.3.3-.5.3v-.3h.5M28.5 44.4c-.8.5-2.1.3-3.2.2.3-1 .5-2.4.4-4 1 0 1.9 0 2.5-.4.4 1.2 0 3 .3 4.2M25 40.5s0 .1.2 0c.3 1 0 2.4-.1 3.3-.1.3-.1 1-.6.8l.4-4M28.5 45c.1 0 .2 0 .2.2-.9.4-2.8.5-3.7 0 1-.1 2.7.4 3.5-.2M24.2 45l.5.1c0 .2-.6.3-.5 0M24.3 45.7c0 .3-.1.6-.4.6.2-.1 0-.6.4-.6M28.7 45.9c.2 0 .2.5.3.8-1.5.2-3.3 0-4.6-.2l.3-.6c1.2.2 2.9.4 4 0M31.2 53.9c.2-.1.3-.3.2-.5-.3-.5-.7.4-.2.5zm-.8-1.3c.1-.1.3 0 .3-.4-.3-.6-1 .4-.3.4zm-1-5c1.1 2.9 3.7 4.4 4.7 7.7l.4 1.7c0 .5.4 1.2-.3 1.4-.1-.7-.1-1.5-.4-2.1-.2.8 0 1.6 0 2.4-.6.7-1.7.9-2.8 1.1-.5-.9-.8-1.7-1.5-2.2-2.5-1.8-5.8-.1-6.8 2.2-1-.3-1.6-1-2.4-1.3 0-2.5.2-4.7.9-6.5 0-.4-.2 0-.2-.3l.6-1.4c1.3.7 3.7 1.3 5.6.6-.6-.5-1.6-.3-2.5-.4-1 0-2-.5-2.8-.6.3-.4.5-1 .9-.9l1.1-1.8c1.5.5 3.5.6 5.4.4M20.5 53.2l-.3 2.1c-.1-.6.1-1.5.3-2.1M34.7 59.2c.3 0 .2.6.2.7-.3-.1-.5.2-.6 0-.1-.5.2-.5.4-.7M35.1 77c-.3.4-.2-.3-.2-.6-.5-4.7-.4-10.4-.5-15.6.2 0 .3-.2.5-.3.1 5 .1 11 .3 15.8 0 .2.2.6 0 .8M29.2 63.8c.3.3 0 1.3.5 1.4 0 .3-.3.3-.2.8-1 .4-2.3 0-3.2-.2 0-.3-.2-.5 0-.8h.9c.3-.2 0-1 .7-1 .2.1.2.5.5.6.5 0 .1-.9.8-.8M19.8 64.3c.2 1.2.3 3.7.2 4.9l-.2-4.9M26.3 66.4h.1c.3 1.5.3 4 0 5.5-.5-.1-.1-.7-.1-1.1v-4.2-.2M29.4 66.6a20 20 0 0 0-.3 4.1c0 .5.4 1 0 1.2-.5-1.3-.3-3.3-.4-5.1l.7-.2M27 66.6l.5.2c0 1.8 0 3.7.3 5.1-.1.2-.6 0-.8.1v-5.4M28.4 66.8c-.2 1.6-.3 3.7.2 5.1l-.4.1c-.3-.3-.1-1-.2-1.5 0-1.2 0-2.4-.2-3.5v-.2h.6M30.4 67c.5 1 .6 3.4-.7 3.6-.1-1 0-2.5.1-3.5 0-.2.4-.1.6-.1M20.2 74l.1 3.3c-.3-.9 0-2.3-.1-3.3M20.9 77c3.6 1.6 9.5.6 13.4 0 .1.5-.4.5-.7.6-1.4.5-3.6.7-5.6.8-2.7.2-5.5-.1-7.1-1V77" fill="#fff" stroke-width=".11742"/><path d="M30.3 85c-1.1 1.2-3.5.5-5.4.7 1.5.8 5 1 5.6-.6l-.2-.1zm-4.2.4c.3 0 .4-.1.5-.3l-.2-.3c-.5-.2-.5.4-.3.6zm3-.5h.5v-.4c-.2-.1-.6 0-.5.4zm-1.3-.3h.3v-.4h-.3v.4zm-1.1-1c0 .1 0 .2.3.2v-.4l-.3.1zm3.8 0l.4.2h.2v-.4c-.2-.2-.6-.2-.6.2zm-1.8-.4s.1.2.3.2c0-.1.2-.3.1-.5-.2-.2-.5 0-.4.3zm1.4-2c.2.1.3 0 .4 0l-.2-.4c-.4 0-.4.3-.2.5zm-4.4-.3c0 .2.3.2.5.2.2-.2.2-.5 0-.6-.4-.1-.6 0-.5.4zm9.2 5c-.2-.3.4-1 0-1.2-.5.3-.5 1-.8 1.4-3.5 1-9.8 1-13.2 0-1.4-2-.4-5.2-.6-7.8.4 1.5.3 3.2.8 4.5.4 1.3 1 2.6 2.1 3.1.1-.6-.4-1-.7-1.5-.9-1.5-1.4-3.3-1.5-5.7 1.2.3 2.5.9 4 1 3.3.3 6.8-.3 9.3-1 0 3-.4 5.9-2.1 7.2.4.3.9 0 1.2-.2 1.6-1.1 1.5-4.7 1.5-7.5.2 0 .2-.2.4-.3l.1 3.8c0 1 .8 2.3.5 3.2-.2.4-.5.6-1 1M19.8 84.4l.4 1c-.4-.1-.6-.6-.4-1M19.5 85.7c.6.6 1.2 1 1.6 1.7-.6-.2-1.8-.6-1.6-1.7M36.1 85.8c0 .9-1.2 1.1-2 1.4.5-.7 1.6-.7 2-1.4" fill="#fff" stroke-width=".11742"/><path d="M21.4 87c3.3.6 8.5.8 12 0-.4.8-1.2.5-2 .6-2.9.1-6.9.5-9.1 0-.3 0-.6-.4-.9-.6M35.9 87.2c-.3.8-1.8 1-2.9 1.4-.2-.1.4-.4.5-.6.8-.2 1.7-.4 2.4-.8M32.4 88.2c-.8 1-4.2 1-6.6.8-.7 0-2.5-.3-2.6-.5 0 .2.2-.4 0-.2 2.9.1 6.3 0 9.2-.1M22 69.4c0 .2 0 .5.3.6.9-.5-.2-1.4-.4-.6zm.4-3h.6v-.2c0-.4-.7-.3-.6.2zm6-2.7c-.6-.6-1.4.2-1.6.8-.6 0-.8.2-1 .5 0 2 .4 5.1-.3 6.8.2.2.1.4 0 .6.2.2.3-.3.4 0 .7.4 2 .5 3 .3.5-.1.7-.5 1-.4l-.1-1.1c1.7-.2 1.6-2.9 1.2-4.5-.2-.3-.8-.4-1.1-.3.1-.6.7-1 .4-1.8-.4-.2-.5-.9-.8-1.2-.5 0-.8.2-1 .3zm-5.4 2c.6-.5 1.1-1.4 1.1-2.3-.8.3-1.1 1.4-1 2.4zm1.7 8.3c.4.5 1.3 1.1 2 1.3 1.6.5 3.5-.4 4.5-1.3.5-1.2 1.5-2.4 1.7-4.2.3-2.3-.6-5.1-2-6.5-.6-.7-1.7-1.4-2.9-1.1.3.4 1 .3 1.3.5 2 .9 3.3 4.1 3 7-.3 2-1.8 4.3-3.3 4.8-1.4.5-2.9 0-3.7-.8-1.9-2.1-2.2-7.2-.6-9.5.6-.9 1.4-1.1 2.1-2-4.2.8-4.8 8.5-2 11.8zM34 60c0 .6-.8.8-1.3 1-1 .3-2.1.2-3.2.3.3.7 1.5.6 2.4.5.9 0 1.6-.4 2.1-.6 0 5.2.1 10.1.3 15.2-1 .4-2.2.5-3.4.6-3.2.3-7.3.8-10.1-.4l-.5-14.9c.8.3 2.4.4 3.1-.1-.8-.4-2.4 0-3.1-.5v-1c1 0 1.6 1.4 2.8 1 .5-.1.7-.7 1-1.2.6-.6 1.7-1.8 2.5-2 1.5-.2 3.4 1.3 3.3 2.5-.6 0-.6-.7-.8-1.1-.6-.8-1.4-1.4-2.6-.8-.7.3-1.9 1.6-1.8 2.4.7-.4 1.7-2.3 3-2 1 .3.8 1.9 1.6 2.4.6-.3 1.7-.5 2.6-.6l2.1-.7M19.4 87c.4.8 1.7.9 2.6 1.1l.7.3c-1.4.1-2.1-.5-3.1-.8l-.2-.6" fill="#fff" stroke-width=".11742"/></g><path d="M12.3 65c.2 0 .4.6.7.9.7.6 1.6.4 2.2.6.4.1.7.3.8.7 0 .4-.3 1.1-.6 1.5-.6 1-1.4 1.3-2.1.4-.3-.4-.7-1.3-1.6-1.2l-.5.2a1 1 0 0 1-.6-.1c-1.2-.8.2-3.8 1.7-3zM7 78.6c.8 1.8-1.3 5.5-3.1 6.2-.5-.8.2-2.2.8-3.5C5.4 80.1 6 79 7 78.7zm8.5-6.7c.5-.5 1-1 1.3-1.5.9-1 2-2.3 2.3-3.6.4-1.7-1.5-3.8-3.2-4.6l-1.4-.6c-1-.3-1.7-.7-2.6-.6l-.6.2h-.6c-1 .3-1.5.7-2 1.8-.9 1.6-.6 3-1 4.5l-1 2.3-1 2C5 73.5 4.2 74.8 3.5 76c-1.2 2.1-2 4.2-2.6 6.2l-.7 2c-.1.8 0 2.2.3 3 .3.6 1 1.5 1.8 1.6.4.1.8-.2 1.3-.4l1.2-.5c.9-.5 1.5-1.3 2.2-2l2-2.7c2.2-3.2 3-7.3 5.3-10l1.3-1.2" fill="#19110f" stroke-width=".105834"/><path d="M11.5 69.3c.8.2 1.4 1 2 1.2.4.1 1.1 0 1.4-.3l.9-1c2-1.4 1.6-4-.3-5-1.5-.6-3.5-1.2-4.6-.5.1.1.3 0 .4 0 .7-.2 1.4-.1 2.3.2 1.5.5 2.5 1 3 2 .3.8.2 1.8-.5 2.7.7-1.2.5-2.1-.7-2.6-.6-.2-1.5 0-2-.5-.6-1.8-3.5-2-4 .2-.2.3 0 .7 0 1 .1.4.1.8.3 1.1.6 1.2 2.5.5 3.3 1.9-1.1-.8-2-.6-3-1.2.1.7 1 .7 1.5.8zm6.1-1.9c-.7 1.8-2 2.4-2.7 3 .7 0 1.8-.6 2.4-1.6.9-1.3 1.2-2.9.4-3.5.2.5.2 1.5 0 2.1zm-.9-2.8c.6.8.6-.8 0 0zm-.6-.6l.4.2.1-.3c0-.3-.6-.3-.5 0zm-1-.6c.1.1.1.3.4.4l.3-.3c0-.3-.5-.4-.6-.1zm-1-1c-.6-.3-1.4-.3-2-.3-.4 0-1 0-1.4.3-1 .5-1.6 2-2 3.3 0-1.3.6-3.1 1.8-3.6 1.4-.7 4.7 0 6.4 1.6.5.5 1 1.2 1.2 1.7.4.7.4 1.3-.2 2.4l-.4 1-.9.9c-.6.6-1 1-1.8 1.2a5 5 0 0 1-2.6 0c-1.5-.6-2.9-1.7-3.2-2.9a6 6 0 0 1 .4-3.4c.3-.7.8-1.7 1.4-2 1-.6 2 0 3.2-.2" fill="#fff" stroke-width=".105834"/><path d="M11.5 64.6c-.3.2-.9.3-1.2.8 0 .2 0 0 0 0 .3-.6.8-.8 1.2-.8M3 86.7c1.8.3 3.5-1 4.2-3.3-1 2.2-2.6 3-4.3 3.3zm1.4-7.5L3 81.6c-.4 1-1 3-.3 3.6.6.6 1.7.4 2.3 0 .5-.4 1.2-1.4 1.8-2.4 1-1.8 1.7-4 .2-4.8-1-.6-2 .3-2.6 1.2zm.4-1.4c.5-.6 1.3-.5 1.8-1-.6-.1-1.5.2-1.8 1zm7.9-4.8c.3 0 .5-.4.1-.5-.2 0-.4.4-.1.5zm-.2-1.3c-.3-.2-.7 0-1-.2-1-.3-1.5-1-2-1.5.1 1 2 2.2 3 1.7zm.8.2v.3c.4.2.4-.5 0-.3zm-4.9-4l.2.4a6 6 0 0 0 2.5 2.6c1.4.8 2.7.6 3.8.5a15.3 15.3 0 0 0-3.2 4.5l-1 2.3c0 .2 0 .5-.2.7-.3 1.1-1 2.2-1.6 3.2-.2.4 0 0 0-.1 1.3-2.9 2-5.8 3.6-8.6-1.5 1.7-2.2 4-2.9 6C9 81.8 8 84 6.3 85.7c-.7.6-1.5 1.4-2.4 1.6-.6 0-2 0-2.3-.8-.2-.6 0-2 0-2.7 0-1 .5-2 1-3C3.6 78 5.4 75.3 7 72.4c.7-1.3 1.6-2.4 1.5-3.6C7.2 71.5 5 75 3.5 78c-.8 1.5-1.6 3-2 4.3-.4 1.3-.3 2.8-.2 4.1 0 0 .1.4 0 .2v-.2C0 82.6 3.4 77.4 6 72.8c.7-1.4 1.8-3.4 2.3-5" fill="#fff" stroke-width=".105834"/><path d="M6.8 78.2l-.3.2A3 3 0 0 0 5 79.6a16 16 0 0 0-1.8 3.8c.1-1 .9-3 1.7-4.3.5-.7 1.3-1.5 2-.9M3.3 87.6c-.5.4-1.8-.3-1.8-.8.4.7 1.2.8 1.8.8" fill="#fff" stroke-width=".105834"/><g stroke-width=".6"><path d="M10.6 83c-.3.5-.6 1.2-.5 2l.1 1.2.3 1.3.3.6.3.1c.2.2.1.4.2.6.2.1.5.2.7.1.1.1.2.3.4.3.6-.2.7.5 1.2.6.4-.2.6 0 .8 0l.6.1c.3 0 .5.2.6.1.1 0 .2 0 .3-.2l.9-.1.7-.2h.3l.3-.3.5-.2.4-.3.4-.4h.3v-.4l.7-.7.1-.4c.5 0 .3-.4.3-.8v-.4-.5l.1-.2c0-.5-.2-.8-.3-1v-.1c0-.7-.2-1.3-.5-1.7l-.4-.3-.4-.6c-.6-.7-1.5-1-2.3-1.3h-.4c-.4-.1-1 0-1.5.2l-.8.2-2.2 1.1c-.6.4-1.1 1-1.5 1.5" fill="#19110f" stroke-width=".109992"/><path d="M17.3 81.2c.4 0 .7.2.7.7-.3-.2-.6-.3-.7-.7M17 81.3h.2c0 .2.1.3.3.4H17s-.1-.2 0-.4M17.8 82.2a.8.8 0 0 0-.5-.2c.1.2.3.3.5.2zm.1-.2v.5c-.3 0-.7-.1-.8-.6l.8.1M15.8 82.4c.3-.1.3.3.2.4l-.2-.4M18.3 82.6v-.5c-.2 0-.1.4 0 .5zm0-.8l.2.6-.2.4c-.4-.2-.2-.8 0-1M15.2 82.7l-.1.5c-.1-.2 0-.3.1-.5M14.5 83v.3l-.2-.2.2-.1M13.8 83.4v.6c-.2 0-.2-.1-.3-.2 0-.2.1-.5.3-.4M17.6 82.7l.6.2v.4l-.6-.6M18.6 83c.1 0 .2 0 .1-.1s-.2.1 0 .2zm.2-.6c.2.3 0 .6 0 .8-.2 0-.4.2-.4.3-.2-.5 0-.9.4-1M17.5 82.8l.5.5s.2 0 .2.2l-.3-.2-.3-.3v-.2M12.2 84.2c.3 0 .7.4.6.8 0 .1-.1 0-.2 0 0 0-.2 0-.3-.2v-.6M14.3 84.5L14 84c0-.1.2-.5.5-.2v.6M13 84.6l.4.6-.5-.2v-.4M17.9 83.5c.3 0 .4.6.1.7a.9.9 0 0 1-.1-.7M12.1 85c.4 0 .8.2.9.6-.3-.1-.7-.2-.9-.6M18.9 83.4c0 .4-.1.8-.5 1 0-.4-.1-1 .5-1M13 85.2l.4.2v.4l-.4-.4v-.2M17.5 84.4c.3.1.6.3.5.7-.2 0-.3-.3-.5-.4v-.3M20.1 83.8c.2 1.2-.4 2.3-1 3l.3-.7.4-.7c.2-.5.2-1 .3-1.6M18 84.4l.1.2-.2-.2M13.5 85.6c.4 0 .6.2.6.6h-.3l-.3-.6M12.4 85.9c.5-.2 1 0 1.2.3L13 86l-.6-.1M18.8 84.4c0 .1 0 0 .1 0 0 .3 0 .4-.2.5-.2-.1 0-.4 0-.5M12.5 86l.9.4c-.3.2-.7 0-1-.3M14.3 85.6c.2.2.5.4.6.8-.4 0-.7-.3-.6-.8M20.4 84.1c.2 0 .3.4.3.7l-.3-.2V84M10.6 87c0 .2.4.4.3.7-.2 0-.2-.4-.3-.8M15 85.8c.3.1.4.2.5.6-.2-.2-.4-.3-.4-.6M13.8 86.4h.7c-.3.3-.8.3-1 .2 0 0 .2-.2.3-.1v-.1M20.4 84.8l.3.2-.2.1-.2.5.2.5v.1c0 .1.2.2.1.3v-.1c-.2-.2-.4-.3-.7-.3l.5-1.3M14 86.9c-.3 0 .4-.1 0 0M15.4 86.6c0 .3-.4.6-.8.5 0-.1-.1-.1-.2 0 0-.4.7-.6 1-.5M11.3 88c.2 0 .6.1.6.6-.4 0-.5-.4-.6-.7M20.5 86.5c-.2 0-.2-.2-.6 0-.2 0-.3.2-.4.3V88l-.5-.7.8-1h.2c.2 0 .3.2.5.3M12.2 88.4l.2.1v.4c-.2 0-.2-.3-.2-.5" fill="#fff" stroke-width=".109992"/><path d="M20.2 86.7l-.5.9c0-.5 0-1 .5-1M18.9 87l-1.4 1.1 1.4-1M12.7 88.6l.3.2v.2c-.2 0-.2-.1-.4 0v-.4" fill="#fff" stroke-width=".109992"/><path d="M19.4 88c-.2.1-.3-.3-.5-.3-.4.3-.8.5-1 .9v.4s0 .2-.2.2-.3-.5-.6-.5l.3.4-.3-.2-1 .2H16c-.3 0-.5.2-.5.5-.2-.1-.3-.4-.3-.6l2.2-.6c.6-.2 1-.8 1.5-1.1l.5.8M13.4 89h.4c0 .2 0 .4-.2.6-.2 0-.1-.5-.2-.6M14.2 89h.3l-.3.5c-.2-.2 0-.3 0-.5M18.8 88v.5-.5M14.8 89l.1.2h-.2l.1-.1M19 88v0" fill="#fff" stroke-width=".109992"/><path d="M18.4 88.4l-.1.3-.2.1c0-.2 0-.4.3-.4M14.7 89.4l-.1.2h-.1c0-.1 0-.3.2-.2M15 89.4l-.1.3h-.2c0-.2.2-.2.2-.3M16.5 89.2h.1l-.2.3c-.2-.1 0-.2 0-.3M16.1 89.5H16s.2-.2.2 0M13.7 88.3c.2.1 1 0 1-.2l-1 .2zm3-1.7l.1-.2c0-.1-.2.2 0 .2zm-3.4-3h-.1c.2.6.7.8 1 1.2l.7.2-.4-.4c.3-.3.2-1.2-.5-1 .1-.7-.7-.4-.7 0zm1.3-.7c0-.2-.5 0-.4.2 0 .4.5.5.7.7.1 0 .3.2.5.1l-.8-.5c0-.1.2-.3 0-.5zm.8-.3c-.1-.2-.5.2-.5.3v.5c.2.3.7.6 1 .5-.2-.2-.6-.3-.7-.6 0-.1.4-.4.2-.7zm.2-.3c.1.5.4 1 .7 1.3l-.2-.5c.5 0 .7.6 1.1.6-.3-.3-.6-.7-1-.8.3-.4-.3-1-.6-.6zM13.7 87c-.3 0-.6-.2-.8-.3-.3-.2-.6-.4-.9-.4.7.5 1.4 1 2.4.9.5.2 1-.2 1.2-.5.2 0 .7 0 1-.2h-1c.2-.5-.2-.9-.6-1l-.1.1-.8-.4-.6-.5c.3.6.8.8 1.4 1v.2l-.6-.4-.2.1-.4-.3c-.3-.7-.9-.7-1-1.6-.1.2.2.6.2.8l-.4-.4c-.2-.4 0-.7-.1-1.1-.2.2 0 .7 0 1h-.2l-.2.2v-.8l.2-.8c-.4.6-.4 1.6 0 2.3h-.3c-.2-.5-.2-1.1-.2-1.6-.4.7.1 2 .7 2.5h-.2c-.4-.2-.6-.8-.7-1.5-.1.2 0 .3 0 .4 0 .7.4 1 .7 1.4.3.3.6.6 1 .5l.6.4zm-2-4.4c-.4.3-.7.8-.9 1.3-.2 1 0 2.2.7 2.8l.3.2a5 5 0 0 1-.9-1.9c-.1-.8.2-1.6.6-2l.2-.4zm8 .6c-.2-1.3-1-1.9-1.8-2.4.7.6 1.3 1.3 1.7 2.4zM17.4 81h-.1c-.4-.2-.8-.5-1.2-.4l1.1.4-.2.2c-.3-.1-.7-.5-1.1-.4l.9.4v.4c-.3-.3-.6-.4-1-.5.3.2 1 .4 1 .8-.4-.3-.8-.8-1.5-.7l.4.1 1.2.7c0 .3.2.5.5.6h-.1a3 3 0 0 0-1.3-.9c.4.5 1.2.7 1.3 1.4l.3.2s0 .2-.2.2a3 3 0 0 0-.5-.7s-.1-.2-.2-.1l.7 1 .2.6c-.3-.2-.4.2-.4.5.1.3.5.6.7.5 0 .3-.2.5-.4.7.5-.1.5-.4.6-.7.3 0 .7-.2.8-.4v-.6c.1-.3.3-.6.3-1v-.5c-.1.2 0 .6-.2.8-.3-.4.2-.9-.2-1.3h-.2c0-.3-.2-.5-.4-.7 0 0-.1.1-.2 0 0-.3-.3-.5-.6-.6zm-3-.2c-.8.3-1.8.6-2.1 1 .8-.3 1.8-.8 2.8-1l.5-.1h-1.1zm4.8 4.4a3 3 0 0 1-.9 1.8s0-.1 0 0c-.7.4-1.4 1-2.6 1 .3.2.8 0 1.2 0a9 9 0 0 1-2.3.6c-.4.1-.6 0-1-.1s-1-.2-1.3-.5l.8.2-.3-.2-1.2-.6a3 3 0 0 1-1.2-2l.1-1.6 1-1.4.7-.6c.4-.3.9-.8 1.6-1 .8-.4 1.8-.5 2.7-.5.4 0 .7 0 1 .2l1 .5c.2 0 .5.4.6.6.2.3.4.9.4 1.3.2 1-.2 1.6-.5 2.3-.6 1.1-1.6 2-3 2.6.8-.1 1.5-.6 2-1 .6-.5 1-1 1.2-1.6" fill="#fff" stroke-width=".109992"/><path d="M10.5 84v.6c-.2-.3 0-.5 0-.7M20.4 83.7c0-.4-.3-1.1-.4-1.4l.3.5c.2.3.2.6.1.9M17.9 84.3l-.2-.4c0-.2 0-.2 0 0l.2.4M12.1 85.3l.6.3-.6-.3M18.3 84.2v.4l-.2-.2.2-.2M18.5 84.6s-.1.3 0 .4l-.3.1c0-.2.2-.4.3-.5M14.2 87c0 .1-.3 0-.4 0h.4M14.7 89l-.2.2.2-.2M18.6 88.1c0 .2 0 .5-.2.6.1-.2 0-.4.2-.6M20.7 85.2v.6c-.3-.2 0-.5 0-.6" fill="#fff" stroke-width=".109992"/></g></g></svg>