<?xml version="1.0" encoding="UTF-8" standalone="no"?>
<svg
   xmlns:dc="http://purl.org/dc/elements/1.1/"
   xmlns:cc="http://creativecommons.org/ns#"
   xmlns:rdf="http://www.w3.org/1999/02/22-rdf-syntax-ns#"
   xmlns:svg="http://www.w3.org/2000/svg"
   xmlns="http://www.w3.org/2000/svg"
   xmlns:sodipodi="http://sodipodi.sourceforge.net/DTD/sodipodi-0.dtd"
   xmlns:inkscape="http://www.inkscape.org/namespaces/inkscape"
   width="295.26111"
   height="206.87581"
   viewBox="0 0 78.18807 54.726885"
   version="1.1"
   id="svg935"
   sodipodi:docname="piwo2.svg"
   inkscape:version="0.92.3 (2405546, 2018-03-11)">
  <metadata
     id="metadata941">
    <rdf:RDF>
      <cc:Work
         rdf:about="">
        <dc:format>image/svg+xml</dc:format>
        <dc:type
           rdf:resource="http://purl.org/dc/dcmitype/StillImage" />
        <dc:title></dc:title>
      </cc:Work>
    </rdf:RDF>
  </metadata>
  <defs
     id="defs939" />
  <sodipodi:namedview
     pagecolor="#ffffff"
     bordercolor="#666666"
     borderopacity="1"
     objecttolerance="10"
     gridtolerance="10"
     guidetolerance="10"
     inkscape:pageopacity="0"
     inkscape:pageshadow="2"
     inkscape:window-width="1920"
     inkscape:window-height="1017"
     id="namedview937"
     showgrid="false"
     fit-margin-top="0"
     fit-margin-left="0"
     fit-margin-right="0"
     fit-margin-bottom="0"
     inkscape:zoom="2.442123"
     inkscape:cx="42.351752"
     inkscape:cy="131.32442"
     inkscape:window-x="-8"
     inkscape:window-y="-8"
     inkscape:window-maximized="1"
     inkscape:current-layer="svg935" />
  <g
     id="g1111"
     transform="translate(-40.195121)">
    <g
       transform="rotate(-41.647256,30.414207,-27.27256)"
       id="g977">
      <path
         style="fill:#19110f;fill-rule:evenodd;stroke:#323200;stroke-width:0.141112"
         inkscape:connector-curvature="0"
         id="path879"
         d="m 8.1927773,15.855405 c -0.4,-0.5 -0.5,0.3 -0.3,0.3 0.2,0 0.2,-0.2 0.2,-0.3 m -0.9,25.2 c 0,-0.5 -0.2,-1.5 0,-1.7 0,-0.2 0.4,-0.4 0.6,-0.6 l 0.8,-1.3 0.5,-1.3 c 0.2,-1 0.6,-1.9 0.6,-2.7 l -0.1,-0.7 0.1,-1.6 c 0,-1.4 0.1,-2.7 0.3999997,-4 0,-0.2 0.3,-0.5 0,-0.7 l -0.5999997,1.8 c 0,-2 1.4999997,-4.1 0.5999997,-6.2 v 1.8 c 0,1.3 -0.6999997,2.7 -0.8999997,4 v -2.3 c 0,-0.8 0.3,-1.5 0.3,-2.2 -1,2.2 -0.3,4.5 -0.7,6.8 0,0.6 -0.3,1.2 -0.4,1.8 -0.1,0 -0.2,0.2 -0.3,0.1 0.6,-0.7 0.5,-1.6 0.5,-2.4 h -0.5 c 0.7,-0.7 1,-1.5 0.2,-2.3 0.2,-1.1 0.2,-2.2 0.2,-3.4 l 0.2,-3.3 c -0.7,1.4 -0.3,3 -0.4,4.4 l -0.3,-0.5 c 0.2,-1.4 -0.4,-3 -0.4,-4.4 0,-1.2 0.5,-2.4 0.3,-3.7 -0.2,0.6 -0.2,1.3 -0.3,2 l -0.2,2 c 0,1.3 0.6,2.6 0.4,4 l -0.3,-2 -0.2,-0.9 v -3.3 c 0.1,-0.5 0.4,-1 0.2,-1.6 l -0.3,2.1 -0.2,2.2 c 0,0.9 0.3,1.8 0,2.6 -0.3,-0.4 -0.2,-0.8 -0.3,-1.2 0,-0.9 -0.3,-1.6 -0.6,-2.5 l -0.1,-2 v -2.1 l -0.3,0.8 c -0.1,1 0,2.1 0.1,3 0.2,1.1 0.8,2.1 0.7,3.2 l -0.4,-0.3 c -0.1,0 -0.1,0.2 -0.3,0.2 0,-0.8 -0.2,-1.6 -0.4,-2.4 l -0.4,-2.3 c -0.2,1.7 0.3,3.5 0.4,5.2 -0.6,0.9 -0.8,1.8 -0.3,2.8 l -0.8,-0.4 c -0.2,-2 0.3,-4.2 0.2,-6.2 0,-0.7 0,-1.4 -0.4,-2 v 2 l -0.3,2 a 18,18 0 0 0 0,4.3 c -0.3,0.7 0,1.4 0.5,2.1 l -0.6,-0.3 -0.8,-2.5 -0.6,-2.6 c -0.2,1 0.1,2 0.3,3 l 0.6,2.2 c 0,0.3 0.3,0.5 0.3,0.8 0.2,0.6 0,1.2 0.6,1.7 -0.3,0 -0.6,-0.3 -0.8,-0.2 -0.2,0.2 -0.1,1.3 0,1.9 l 0.4,0.8 c 0,0.3 0,0.7 -0.2,0.9 -0.5,-1.7 -0.3,-3.4 -0.7,-5 -0.2,-1 -0.5,-1.7 -0.8,-2.6 -0.2,-0.9 -0.2,-1.7 -0.5,-2.6 -0.2,0.3 0,0.7 0,1 0.5,2.5 1.6,5 1.3,7.3 -0.2,-1.8 -0.3,-3.5 -1.3,-5.3 -0.1,0.4 0,0.8 0.2,1.1 l 0.3,1.2 c 0.5,2.4 0.4,4.8 1.8,7.2 -0.1,1 0.6,2.6 1.6,3.5 l 1,0.4 v 0.8 l 0.2,0.8 0.9,5 c 0.2,1.6 0.3,3.3 0.6,4.9 0,0.5 0,1.1 0.3,1.6 0.5,-0.4 0.3,-1.1 0.3,-1.6 l -0.1,-1.7 -0.5,-3.4 -0.8,-5" />
      <path
         style="fill:#ffffff;fill-rule:evenodd;stroke:#323200;stroke-width:0.141112"
         inkscape:connector-curvature="0"
         id="path881"
         d="m 5.8927773,23.055405 c 0.5,1 0,1.8 0.4,2.7 0,-0.8 0.3,-1.6 0,-2.4 1,1 0.2,2.2 -0.4,3.2 l 0.1,0.2 c -1.3,-1 -1,-2.6 -0.1,-3.7 m -1.6,3 c 0.5,0.1 1,0.4 1.3,0.9 0.3,0.4 0.2,1 0.5,1.2 -0.2,0.2 0.1,0.5 0.1,0.7 l -0.8,-1.2 c -0.4,-0.6 -1.1,-1.1 -1.1,-1.6 m -0.4,1.9 c 0.5,0.3 1.1,0.8 1.7,1.5 -0.4,0.1 -0.7,0.6 -0.8,1 -0.8,-0.7 -1.2,-1.8 -1,-2.5 m 3.7,-2.8 v 0.3 l 0.2,-0.3 c 0.4,0.9 0,2.1 -1.3,2.8 0,-0.2 0.3,-0.2 0.4,-0.4 0.4,-0.5 0.6,-1.3 0.5,-1.8 -0.5,0.5 -0.3,1.3 -1,1.9 -0.1,-0.9 0.2,-1.8 1.2,-2.5 m -2.8,2.6 c 0.5,0.3 1.4,1.1 1.5,1.7 l -1.5,-1.6 m -1.2,2.6 c 0.4,0 1.2,0.2 1.7,1 0.1,0.2 0.4,1 0,1.3 -0.3,0.1 -0.5,-0.4 -0.8,-0.8 -0.4,-0.6 -0.8,-1 -1,-1.5 m 4.5,-3.3 c 0.2,-0.1 0,0.3 0,0.4 l -0.4,0.1 0.4,-0.5 m -0.7,1.2 c -0.2,0.6 -0.5,1.2 -0.2,1.8 l -0.6,0.5 c -0.1,-0.8 0.2,-1.6 0.9,-2.3 m -1.5,1.3 c 0.2,0.7 0.2,1.2 0,1.8 l -0.7,-0.8 c 0,-0.3 0.3,-0.8 0.7,-1 m 2.4,-1.8 c 0.3,0.8 -0.4,1.5 -1.1,2.2 0.1,-0.7 0.3,-1.4 0.9,-2.1 0,-0.1 0,0.1 0.2,0 m -4.5,3.8 0.5,0.8 -0.5,-0.8 m 4.1,-1.5 c -0.1,0.5 -0.6,0.9 -0.8,1.3 l -0.3,1.2 -0.4,-0.6 a 3,3 0 0 1 1.5,-1.9 m -2.8,2.8 c 0.2,0 0.4,0 0.6,-0.2 0,0.4 0.2,0.8 0.1,1.1 l -0.7,-0.9 m 3.1,-2.6 c 0.1,0.7 -0.3,1.4 -1,2.1 -0.2,-0.6 0.7,-1.4 1,-2.1 m 0,2.1 c -0.1,0.4 0.2,1 -0.1,1.4 -0.3,0.4 -1.2,0.4 -1.6,1.1 -0.2,-0.9 0.7,-2 1.7,-2.5 m -0.2,1.8 -1.2,2 -0.2,-1 c 0.4,-0.4 1,-0.9 1.4,-1 m -3.1,2.6 c 0.6,0.1 1.3,1 1.5,1.5 l -1.5,-1.5 m -0.1,0.5 1.7,1.6 c -0.7,-0.1 -1.3,-1 -1.7,-1.6 m 3.1,-1.8 c -0.1,1 -0.4,2 -1.1,3 -0.2,-1 0.2,-2 1.1,-3 m -3.6,-16.3 c 0,2 -0.5,4.1 -0.2,6.2 -0.4,-2 -0.2,-4.2 0.2,-6.2 m 1,1 c 0.2,0.7 0.3,1.7 0.3,2.5 l -0.3,-2.5 m -2.3,5.8 c 0.2,0.5 0.5,1.3 0.6,2 -0.4,-0.6 -0.4,-1.4 -0.6,-2 m 1.1,0.3 0.6,0.8 c -0.3,-0.1 -0.6,-0.5 -0.6,-0.8 m 3.2,-2.1 c 0.1,0 0.2,0.3 0,0.4 v -0.4 m -0.7,4.1 0.3,-0.1 -0.4,0.6 v -0.5 m -3.6,4.1 1,2.8 c -0.6,-0.9 -0.9,-2 -1,-2.8 m 6.4,-4.1 v -0.1 1 -1 m -4.7,6.2 c -0.1,0.4 0.3,0.9 0.6,1.3 l 0.6,1.3 c -1.4,-0.8 -2.2,-2.7 -1.9,-4 0.4,0.8 1.3,1.8 2,2.6 0,-0.7 -1,-1.6 -1.5,-2.3 a 4,4 0 0 1 2,4.1 c -0.3,-0.8 -1.2,-2 -1.8,-3 m 4.8,-5 c 0,1.8 0.2,3.8 -0.8,5.5 -0.1,-0.1 0.1,-0.3 -0.1,-0.4 0.3,-0.5 0.2,-1.2 0.2,-1.8 0.2,-1 0.7,-2.2 0.7,-3.3 m -0.3,0.8 -0.4,2.2 -0.2,-0.2 c 0.3,-0.7 0.3,-1.4 0.6,-2 m -2.8,2.5 c 0.2,0 0.3,0.3 0.5,0.3 l -0.5,0.7 v -1 m 2.7,2 -0.2,0.7 c -0.1,-0.2 0,-0.5 0.2,-0.7 m -0.7,0.9 v 0.2 l 0.1,-0.1 c 0,1 -0.1,2 -1.1,3 l -0.2,-0.2 c 0.8,-1 1,-2 1.3,-3 m 0.4,0.6 -0.1,0.4 c -0.1,0 0,-0.3 0,-0.4" />
      <path
         style="fill:#19110f;fill-rule:evenodd;stroke:#323200;stroke-width:0.141112"
         inkscape:connector-curvature="0"
         id="path883"
         d="m 17.692777,16.155405 c 0.2,0 0.3,-0.3 0.2,-0.4 h -0.1 c -0.2,0 0,0.3 0,0.4 m 2.1,10.3 c 0,0.3 -0.3,0.6 -0.2,1 0.8,-1.4 0.7,-2.8 0.6,-4.2 l -0.1,0.1 v 1.1 c -0.1,0.7 -0.1,1.4 -0.3,2" />
      <path
         style="fill:#19110f;fill-rule:evenodd;stroke:#323200;stroke-width:0.141112"
         inkscape:connector-curvature="0"
         id="path885"
         d="m 13.192777,27.655405 c -0.1,1.7 0.1,3.2 0.4,4.9 0,-0.2 -0.3,0 -0.4,0 a 19,19 0 0 1 -0.4,-4 l -0.1,-4 c -0.2,0.4 -0.2,0.8 -0.2,1 v 1.3 a 17,17 0 0 0 0.6,6.4 c 0,0.7 -0.1,1.3 0.3,2 -0.2,0 -0.2,0.3 -0.3,0.3 -0.3,-1.8 -1,-3.5 -1.1,-5.3 -0.1,-1.8 -0.2,-3.5 0,-5.2 -0.3,1 -0.4,2.2 -0.4,3.3 0,1 0,2.3 0.3,3.4 l 0.9,3.4 c 0.3,1.4 0,3 1.6,4.1 0,0.3 0.4,0.5 0.5,0.8 l -0.2,1.3 c 0,1.3 -0.2,2.5 -0.4,3.9 l -0.2,3.5 c -0.1,1 0,2 0.3,2.9 v -0.3 c 0.1,0 0.2,0.2 0.3,0 l -0.2,-0.8 v 0.5 c -0.2,-2.6 0.1,-5 0.4,-7.6 0,1.5 -0.3,3.1 -0.2,4.5 0.3,-2.8 0.9,-5.6 0.9,-8.5 0.7,-0.8 1.6,-1.3 2.3,-2 1.1,-1 1.3,-2.6 1.7,-3.8 0.4,-1.4 1,-2.6 1.3,-3.9 -0.2,0 -0.1,0.3 -0.2,0.2 0,0 0.2,-0.3 0.1,-0.4 -1.1,2.3 -1.5,4.6 -3,6.8 v -1.3 c 0.8,-0.8 1,-1.7 1.4,-2.6 l 0.6,-2.2 c 0.3,-1.6 0.7,-3 1.2,-4.5 -1.6,2.4 -1.2,5 -2.3,7.4 l -0.3,-0.6 c 0,-0.7 0.2,-1.4 0.4,-2 0.3,-0.7 0.6,-1.3 0.7,-2 l -0.8,1.4 0.2,-1.8 c 0.6,-0.8 0.3,-1.7 0.4,-2.6 0.1,-0.1 0.2,0 0.3,-0.2 0,-0.2 -0.2,0 -0.3,-0.1 0.2,-1.3 -0.3,-2.6 -0.6,-4 l -0.9,-3.9 c 0,0.3 0.2,0.6 -0.1,0.8 0.2,2 0.9,4.4 0.8,6.5 0,0.5 0,1 -0.6,1.3 0.5,-1.2 0.3,-2.5 -0.6,-3.8 0,-0.2 -0.2,0 -0.3,0 0.2,-2.1 -0.3,-4.3 -0.1,-6.3 0,-0.3 0.1,-0.6 0,-0.8 -1,2.5 0.4,5.1 -0.4,7.6 0.1,-1 0.2,-1.8 0,-2.8 0,-0.9 0,-1.8 -0.3,-2.7 0,1.4 0.4,2.8 0.3,4.2 0,0.9 -0.3,1.7 -0.5,2.6 0.2,0 0.2,0.2 0.2,0.4 -0.3,-0.2 -0.5,-0.3 -0.8,-0.3 -0.7,0.7 -0.4,1.5 -0.3,2.2 -0.3,0.2 -0.3,0.4 -0.4,0.6 v -3.6 l 0.3,-3.1 c 0,-0.1 0.1,-0.3 0,-0.4 -0.5,1.8 -0.4,3.9 -0.6,5.6 0,-2 0,-3.8 0.5,-5.7 0.1,-0.6 0.5,-1.1 0.5,-1.8 -1.7,3.1 -1,6.8 -1.3,10.2 0,1 -0.4,2.5 -0.2,3.4 l 0.3,0.6 c 0,0.3 0,0.7 0.3,1.1 -0.7,-0.3 -0.6,-1 -0.7,-1.6 l -0.2,-1.2 c -0.4,-2.5 0.2,-5 -0.4,-7.4 -0.2,0.4 0,0.8 0,1.2 v 3.6" />
      <path
         style="fill:#ffffff;fill-rule:evenodd;stroke:#323200;stroke-width:0.141112"
         inkscape:connector-curvature="0"
         id="path887"
         d="m 15.192777,26.455405 c 1,1 1.4,2.1 1.2,3 -1,-0.8 -2,-2.1 -1.1,-3 m 2.6,1 c -0.1,0.3 -0.4,0.5 -0.2,0.8 0.5,-0.4 0.8,-1 0.8,-1.6 -0.3,0.1 -0.4,0.5 -0.6,0.8 z m 0.9,-1.7 c 0.1,0.4 0.2,1.5 -0.2,2 -0.4,0.6 -1.3,1 -1.6,0.6 -0.2,-0.3 0.3,-1 0.5,-1.4 0.3,-0.5 0.8,-1 1.3,-1.2 m -3.8,3.3 c 0.4,0.6 1,0.8 1.4,1 0,0.3 -0.3,0.6 -0.4,1 -0.7,-0.7 -0.8,-1.4 -1,-2 m 2.1,-0.2 0.6,-0.1 c 0,0.2 -0.4,0.4 -0.6,0.6 v -0.6 m -2.4,2.1 c 0.8,1.1 1.3,2.6 1,3.6 a 5.2,5.2 0 0 1 -1,-3.6 m 0.8,0.3 v 0.2 c -0.1,0 -0.1,-0.1 0,-0.2 m 2.4,-1.8 c -0.6,0.8 -0.6,1.7 -0.3,2.5 l -0.3,0.3 -0.6,-0.3 c -0.1,-0.9 0,-2 1.2,-2.5" />
      <path
         style="fill:#ffffff;fill-rule:evenodd;stroke:#323200;stroke-width:0.141112"
         inkscape:connector-curvature="0"
         id="path889"
         d="m 18.392777,29.255405 c 0,0.8 -0.1,1.6 -0.5,2.3 -0.3,-0.8 0,-1.5 0.5,-2.3 m -4.8,4.2 c 0.7,0.8 1.2,1.7 1.5,2.6 0,0.2 0.3,0.5 0.2,0.8 -0.8,-1.2 -1.7,-2.3 -1.7,-3.4 m 0.4,-0.1 h 0.1 c 0.8,0.5 1.4,1.5 1.4,2.3 l -0.1,0.3 c -0.2,-0.8 -0.8,-1.7 -1.4,-2.5 v -0.1 m 2,-1.5 -0.1,0.4 0.1,-0.4 m 0.2,0.3 v 0.2 l -0.2,0.3 0.2,-0.5 m -2.8,3.5 c 0.8,0.4 1.5,1.5 1.7,2.3 -1,-0.1 -1.7,-1.6 -1.7,-2.3 m 4.4,-3.2 c 0,0.9 0,2 -0.8,2.6 -1.5,-0.5 0,-1.8 0.8,-2.6" />
      <path
         style="fill:#ffffff;fill-rule:evenodd;stroke:#323200;stroke-width:0.141112"
         inkscape:connector-curvature="0"
         id="path891"
         d="m 13.492777,37.155405 c 0.4,0.5 1,1.2 1.5,0.9 l 0.1,1 c -0.6,-0.2 -1.4,-1.1 -1.6,-1.9 m 2.5,-2 c 0.2,0 0.3,0.4 0.4,0.4 l -0.4,0.4 v -0.8 m 1.4,0.2 v 1 a 3,3 0 0 1 -1.4,2 c 0.4,-1 1,-2 1.3,-3 h 0.1 m 0,-12.2 c -0.3,0.4 0,0.9 0,1.4 l -0.2,1.3 c -0.4,-0.9 -1,-2 -0.5,-3 0.3,-0.1 0.2,-0.3 0.4,-0.5 0.5,1 0.9,1.9 0.6,2.8 -0.1,-0.6 0,-1.3 -0.3,-2 m -0.5,3.7 c -0.3,-0.8 -0.6,-1.7 -1.3,-2.5 0,-0.2 0.3,0.1 0.5,0.3 0.7,0.6 0.8,1.5 0.8,2.1 m -1.5,-2.2 c 0.8,1 1.3,2.2 1.3,3.3 -0.7,-1 -1.7,-2.3 -1.3,-3.3 m 3.7,0.6 -0.5,0.2 v -3 c 0.2,0.1 0.3,0.9 0.4,1.3 v 1.5 m -4.5,3.1 c 0.1,0.3 0,0.9 0.2,1.3 l -0.2,0.3 h -0.1 l -0.1,0.3 0.2,-2 m 0.4,0.1 0.7,1 c -0.3,-0.2 -0.4,-0.6 -0.7,-1 m 0.8,3.3 c 0.2,0 0,0.2 0,0.3 v -0.3 m 0.6,1 c 0.2,0.3 0.2,0.8 0,1.1 -0.3,-0.3 -0.1,-0.8 0,-1.1 m 1.9,0.3 c 0.2,0.4 -0.1,1 -0.3,1.4 0,-0.3 0.3,-1 0.2,-1.3 m -1.1,2.7 c -0.2,0.8 -0.7,1.6 -1,2.4 -0.1,-0.7 0.3,-1.7 1,-2.4 m 0.7,1.5 c 0.3,-0.8 0.8,-1.5 1.2,-2.3 -0.3,0.8 -0.5,1.6 -1.2,2.3" />
    </g>
    <g
       transform="translate(58.653249,-38.9337)"
       id="g907"
       style="fill-rule:evenodd;stroke:#323200;stroke-width:0.2">
      <path
         d="m 12.7,48.9 c 0,0.2 0.3,0.5 0.2,0.7 -0.3,0 -0.2,-0.5 -0.2,-0.7"
         id="path893"
         inkscape:connector-curvature="0"
         style="fill:#ffffff;stroke-width:0.151118" />
      <path
         d="m 16.3,84.2 c 0.8,0 1.6,0.3 2.4,0.4 2.7,0.3 5.2,0.3 7.8,0.8 0.7,-0.4 1.6,-0.1 2.3,0 0.4,0 -0.3,-0.4 0.1,-0.4 l 2,-0.2 c -0.1,0.7 -1.2,1 -1.3,1.9 l 0.3,1.7 c 0.2,1.9 0,4.2 1,5.2 2,0.1 4,-0.4 6,-0.8 2,-0.5 4,-0.8 5.9,-1.4 l 5.7,-1.5 c 2.2,-0.6 5.4,-1.3 7,-2.5 -0.4,-3 0.3,-6 -0.2,-9 0.4,-0.6 0.9,-1 1.2,-1.6 0.6,0.7 1,1.6 1.9,2 0.8,-0.9 1.6,-1.8 1.1,-3.3 -0.3,-0.9 -1.6,-2.1 -1.7,-2.9 l 0.3,-1.8 C 58.5,68 58.9,65 58.7,61.9 58.2,53.4 55.7,46.1 49.4,43.3 a 43.5,43.5 0 0 0 -10,-3.4 c -1.9,-0.3 -4,-0.3 -6,-0.6 A 49.7,49.7 0 0 0 11,41.9 c -1.4,0.6 -3,1.3 -4.2,2 -3.1,2.3 -4.7,6 -5.5,10.3 -0.4,2.2 -0.8,4.4 -0.8,6.7 0,3.7 0.8,6.7 1.6,9.7 0.3,0.9 1,1.8 1,2.7 0.2,1 -0.2,2 -0.2,3 C 2.7,80 3,83 3,86 c 0.6,0.7 1.6,0.8 2.6,0.7 1.7,-0.2 3.5,-0.7 5.4,-1.2 1.7,-0.4 3.5,-1.2 5.2,-1.3"
         id="path895"
         inkscape:connector-curvature="0"
         style="fill:#19110f;stroke-width:0.151118" />
      <path
         d="m 41.7,41.8 c -0.4,1.6 -3.3,0.5 -5,0.3 -1.4,-0.2 -2.8,-0.6 -4,-0.7 -6,-0.5 -12.5,0.1 -17,1.5 -0.2,-0.3 0.6,-1 1,-1.4 a 58.1,58.1 0 0 1 25,0.3 m -26.7,0 c 0,0.4 -0.5,0.9 -0.9,1.4 -0.7,1 -1.5,2 -2,3.1 -0.3,0.6 -0.5,1.3 -1.1,1.5 0.3,-1.6 1.3,-3.4 2.4,-4.7 0.5,-0.6 1,-1.1 1.6,-1.3"
         id="path897"
         inkscape:connector-curvature="0"
         style="fill:#ffffff;stroke-width:0.151118" />
      <path
         d="m 39.4,43.5 c 0.1,0.2 -0.7,0.7 -1,1 L 37,45.7 C 29.7,43.9 20.2,45.6 13.3,46.6 l 1.4,-2.9 c 6.9,-2 17.5,-2.1 24.6,-0.2 M 13.2,42.3 c -0.7,1.7 -2.5,2.1 -4.3,2.6 0.8,-1.5 2.5,-2 4.3,-2.6 m 31.3,0.4 c -0.2,0.4 -0.6,0.1 -1.1,0.2 a 14.5,14.5 0 0 0 -7.7,8.8 c -0.2,0 -0.7,-0.2 -0.7,0 0.8,-4.1 4.5,-7.7 8.3,-9.3 0.3,-0.1 0.9,0.3 1.2,0.3 m 2,0.7 c -0.7,0.4 -1.8,1.2 -2.7,0.6 0.7,-0.3 1.7,-1 2.7,-0.6"
         id="path899"
         inkscape:connector-curvature="0"
         style="fill:#ffffff;stroke-width:0.151118" />
      <path
         d="m 42.5,44.4 c 0.2,0.2 0.5,0.5 0.9,0.5 -0.4,0.6 -1.1,1 -1.7,1.5 l -1.4,-0.2 c 0.6,-0.7 1.4,-1.3 2.2,-1.8 m -6.1,1.9 c -0.3,0.7 -1.3,1.5 -1.6,2.6 -8.2,-0.5 -16,0.2 -22.6,1.8 0,-0.8 0.2,-2 0.9,-2.4 -0.3,-0.4 0,-0.6 0,-1 7,-0.8 15.7,-2.4 23.3,-1 M 44.5,75 c 0.9,-0.3 1.3,-2 1,-3 -0.3,1 -0.9,1.8 -1,3 z m -0.6,-3.8 c 0.8,-1.4 1.3,-3 2,-4.6 0.7,-1.5 1.6,-3 1.6,-4.6 -1.2,3 -2.8,6 -3.6,9.2 z M 49.3,47 H 49.1 C 47,49.6 46,53.5 44.4,56.9 l -3,7.6 c -0.3,0.7 -1,1.6 -0.7,2.5 2.8,-6.7 5.6,-13.5 8.6,-20 z m 1.2,0.6 c -3.3,7.5 -6.6,15 -9.2,23.2 0.8,-0.4 0.9,-1.7 1.2,-2.7 2.6,-6.6 5.7,-13.5 8.6,-19.8 0.6,0.5 1.4,1.1 1.5,2 0,0.5 -0.6,1.4 -1,2.1 -0.8,2 -2.3,4.2 -2.5,6.5 0.6,-0.4 0.7,-1.2 1,-1.8 0.8,-1.9 2,-3.7 2.8,-5.7 0.4,0.8 0.6,1.8 0.8,2.8 0.1,1 0.4,2.2 0.3,3.1 0,1 -0.9,2.2 -1.4,3.2 -0.5,1.2 -1,2.3 -1.2,3.4 1.2,-1.3 1.8,-3.3 2.6,-5 0.4,2 0.3,4.6 0.3,7 -1.7,-0.3 -4.4,-0.5 -5.7,0.4 -0.1,0.6 0,1.3 0.3,1.6 0.6,0.2 1.2,0 2,0 0.2,1.4 -0.6,2 -0.2,3.4 -0.8,0.2 -2.4,0.4 -3.6,0.1 -0.7,0.8 -1,2.8 -0.2,3.6 0.6,0.7 1.8,0.3 3,0.4 0.8,0.1 1.4,0.5 2,0.3 0,0.9 -0.8,1.2 -1.4,1.8 -0.4,0.5 -1.1,1.4 -1.7,1.5 -1,0.2 -2.4,-0.2 -3.1,-0.6 -1.5,-0.8 -2.4,-2.7 -3.3,-3.7 0,-0.5 0.4,-0.8 0.3,-1.4 C 42.4,73 42.2,74 42,73.8 A 25.5,25.5 0 0 1 40,62.3 c 0.4,-5.8 1.8,-12.2 5,-14.7 -1.1,3.3 -2.8,6.8 -4.1,10.2 0.5,0 0.6,-0.8 0.8,-1.2 l 4.1,-9.7 c 1.1,-0.3 3.2,-1.4 4.2,-0.3 0.3,0.2 0.2,0.7 0.5,1 M 7,46.3 C 6.7,47.1 6.6,48.8 5.3,48.9 L 6.5,46.4 H 7 m 34,0.7 c -0.3,0.8 -0.8,1.3 -1.2,2 -0.6,0 -1,-0.1 -1.6,0 0.2,-1 0.9,-1.5 1.3,-2.2 l 1.6,0.2 m -30.5,1.2 c 0.7,0.1 0.4,0.9 0.2,1.3 h -0.6 c 0,-0.5 0.4,-0.8 0.4,-1.3 m -1.9,2.9 c -1,0 -1.7,0.3 -2.6,0.5 L 7,49 9.6,48.3 c 0.3,0.8 -0.5,2.1 -0.8,3 M 6,49.4 5.2,51.9 4.4,52.3 c -0.1,-0.9 0.4,-2 0.7,-2.7 l 0.8,-0.2"
         id="path901"
         inkscape:connector-curvature="0"
         style="fill:#ffffff;stroke-width:0.151118" />
      <path
         d="m 34.3,49.6 c -0.2,1 -0.7,1.8 -0.8,2.8 -7.2,0 -15.5,0.2 -22,1.3 0,-0.9 0.2,-1.7 0.4,-2.4 7,-1.3 14.6,-1.8 22.4,-1.7 m 5.1,0.2 -1.1,2.8 -1.5,-0.2 c 0.2,-1 0.6,-1.9 1,-2.8 l 1.6,0.2 m -29.4,0.6 0.7,0.1 -0.1,0.6 H 9.8 l 0.1,-0.7 m 0.5,1.3 -0.1,0.7 H 9.4 l 0.2,-0.6 h 0.8 M 8.6,52 c -0.2,0.8 -0.3,1.6 -0.6,2.2 -1,0 -1.8,0.2 -2.6,0.4 0,-0.6 0.3,-1.4 0.5,-2 l 2.7,-0.5 m 26.1,0.2 c 0.1,0.3 0.6,0.1 0.6,0.5 -0.2,0.1 -0.6,0 -0.8,0.2 l 0.2,-0.7 M 5,52.8 4.5,54.7 3.8,55 4,53 5,52.8 m 4.2,0.3 c 0.4,0 0.5,0.2 0.8,0.1 v 1 H 9 c 0.1,-0.4 0.3,-0.7 0.2,-1 m 23.9,0.2 -0.6,2.3 c -7.6,-0.3 -14.5,0.2 -21.4,0.8 0,-0.8 0,-1.5 0.2,-2.1 6.7,-0.9 14.4,-1.5 21.8,-1 m 3.4,0 c 0.6,0 1,0 1.4,0.2 l -0.8,2.3 H 36 l 0.5,-2.5 m -2.2,0.3 c 0.2,0 0.4,0 0.6,0.2 0,0.4 -0.5,0.1 -0.7,0.2 -0.1,-0.3 0,-0.2 0,-0.4 m 20.6,0 c 1.6,4.5 2.2,13.2 0.8,18 -1,0 -0.4,-1.1 -0.3,-1.7 0.6,-5 0.2,-11.6 -0.5,-16.3 M 34,54.9 c 0,0.2 0.6,0 0.5,0.5 h -0.7 l 0.1,-0.5 M 8,55 7.5,57 C 6.5,57 5.8,57.4 4.8,57.4 4.8,56.6 5,56 5.2,55.4 6,55.2 6.9,55 7.9,55 m 1,0 h 0.9 c 0,0.4 -0.2,0.7 -0.1,1.2 C 9.4,56 9.2,55.8 8.7,55.8 L 9,55 M 4,57.6 H 3.4 c 0,-0.7 0,-1.4 0.3,-2 1.2,-0.3 0.1,1.2 0.3,2 m 5.5,-1.3 c 0,1.4 -0.3,4.4 -0.2,6.6 0,1.2 0.4,2.5 0.3,3.3 -0.1,0.7 -0.8,1 -0.8,1.7 A 29,29 0 0 1 8.6,57 c 0.1,-0.4 0.9,-0.3 1,-0.8 m 24,0.1 h 0.7 c 0,0.4 -0.2,0.4 -0.1,0.7 h -0.7 v -0.7 m -1.2,0.2 -0.6,3 -6,-0.2 c -5,0 -10.2,0.6 -14.9,0.9 l 0.2,-3 c 6.7,-0.6 14,-1 21.3,-0.7 m 3.4,0.3 H 37 c -0.1,1 -0.4,1.8 -0.4,2.9 -0.5,0 -0.8,-0.2 -1.3,-0.1 0,-1 0.3,-1.9 0.4,-2.8 m -2.5,0.9 H 34 c 0,0.4 -0.2,0.6 0,1 h -1 c 0,-0.4 0.2,-0.6 0.1,-1 M 7.5,57.8 C 7.3,58.5 7.4,59.5 7.2,60.3 L 4.4,60.7 C 4.2,60 4.6,59 4.6,58.2 l 3,-0.4 M 3.3,58.3 H 4 v 2.5 c -0.3,0 -0.4,0.2 -0.7,0 l 0.1,-2.5 m 30.3,1 c -0.9,6.3 -1,14.3 1.3,19 -0.3,0.2 -0.7,-0.1 -1,0.2 -1.3,-5.6 -2.6,-13 -1,-19.2 h 0.7 m -2.1,1 -0.7,2.9 c -6.8,0 -14,0 -20.4,1 l 0.2,-3.3 c 6.9,-0.3 13.7,-1 20.9,-0.6 m 3.5,0.1 1.4,0.1 0.1,2.7 H 35 l 0.2,-2.8 m -28,0.7 0.1,3.1 c -1.4,0 -2.6,0.4 -4,0.4 -0.1,-1 -0.2,-2 -0.1,-3.1 h 0.5 c 0.3,0 0,0.6 0.2,0.7 0.3,-0.1 0.3,-0.4 0.3,-0.8 l 3,-0.3 m 23.5,2.8 c 0.2,1 -0.3,2.6 -0.1,4.1 -6.3,0.4 -13.3,-0.1 -19.8,0.2 0,-0.9 -0.3,-2.2 -0.2,-3.5 6.2,-0.7 13.2,-0.8 20,-0.8 m 6,0.1 c 0.2,1.1 0,2.5 0.2,3.6 h -2.1 c 0,-1.1 0,-2.4 0.2,-3.6 h 1.7 m -29.2,0.9 0.4,3.2 -4,0.2 c -0.3,-0.9 -0.4,-2 -0.5,-3 1.5,0 2.7,-0.3 4.1,-0.4 m 46.4,2.1 -4.4,0.2 v -0.6 c 1.3,0 3.5,-0.3 4.4,0.4 M 9.6,67.7 c 0.6,0.8 -0.3,1.4 -0.5,2.2 -0.6,-1 0.3,-1.5 0.5,-2.2 m 44.5,0 c 0.2,1 -0.3,2.4 -0.2,3.6 -0.4,0 -0.6,0.2 -1,0 0.2,-1.4 -0.9,-2.1 -0.6,-3.4 0.6,0 1.4,0.1 1.8,-0.2 M 37,68.5 c 0,1.2 0.4,1.9 0.6,3 -1,-0.1 -2,0.2 -2.8,0.1 l -0.1,-2.9 c 0.7,-0.1 1.6,0 2.3,-0.2 m -6.4,0.2 c 0,1.2 0.2,2 0.3,3 -6.6,0.5 -13.3,-0.2 -19.6,-0.4 -0.1,-0.9 -0.4,-1.6 -0.4,-2.5 H 30.6 M 4,68.9 h 3.9 l 0.4,2 h -4 c 0,-0.8 -0.3,-1.3 -0.4,-2 m 6,0.4 C 10.4,70 9.6,70.7 9.2,71.1 9.1,70.4 9.7,70 9.9,69.3 M 51.4,70 c 0.8,-0.1 0.7,0.6 0.7,1.3 h -0.7 v -1.4 m -41.3,0.9 c 0.5,0.6 -0.4,1.1 -0.5,1.7 -0.3,-0.7 0.4,-1 0.5,-1.7 m -5.6,0.9 c 1.4,0 2.8,0.2 4.1,0.3 L 9.1,74.3 7.3,74 C 7.1,73.5 7,73.3 7.3,72.8 7,72 5.4,72.4 4.8,72.6 4.6,72.4 4.6,72.1 4.5,71.6 M 52.6,72 c 0.1,0.7 -0.1,1.2 -0.2,1.8 -0.6,0 -1,-0.2 -1.8,-0.1 V 72 c 0.7,0.3 1.2,-0.4 2,0 m -41,0.2 c 6.2,0.3 13,1.2 19.4,0.4 l 1,3.4 c -4.2,0.1 -8.7,-0.2 -12.9,-0.5 -0.3,0 -0.3,-0.1 -0.4,-0.3 -1.2,0.5 -3,-0.3 -4.5,-0.3 C 13.9,75 13.9,74.8 14,74.6 13.6,75 13,74.7 12.2,74.7 12,73.9 11.7,73.2 11.6,72.2 m 27.6,3.1 c -1,0.4 -2.4,0.4 -3.6,0.6 L 35,72.6 37.8,72.2 c 0.4,1.1 0.9,2.1 1.4,3 m 14,-3 h 0.6 l 0.1,0.7 c 0.3,0 0.4,-0.3 0.6,-0.5 1.7,0.6 3,1.5 3.8,3 l -0.7,1 c -1,-1.3 -2.3,-2 -4.5,-1.7 L 53.2,74 c 2,-0.1 3.1,0.6 4.2,1.3 -0.6,-1.4 -2,-2 -4.2,-2 0.3,-0.3 0,-0.7 0,-1 m -42.9,0 c 0.6,0.5 -0.1,1.2 -0.4,1.7 -0.3,-0.7 0.3,-1.1 0.4,-1.7 m 37.1,0 a 8,8 0 0 0 2.2,0.2 v 1.3 h -2.2 c 0,-0.4 -0.2,-1 0,-1.5 m -36.8,1.9 c 0.5,0.4 0,1.1 -0.3,1.2 0,-0.5 0.3,-0.7 0.3,-1.2 M 52,74.3 c 0.4,0.6 -0.8,0.4 -1.2,0.3 0.2,-0.4 1,0 1.2,-0.3 M 4,74.4 c 0.5,0.1 0.3,1 0.3,1.3 0.1,3 0.2,6.5 0,9.6 C 3.9,84.9 4.1,83.6 4.1,82.8 l -0.3,-8 v -0.4 h 0.1 m 2.4,0.1 c 0.5,0.8 0.2,2 0.2,3 v 7 c 0,0.3 0.3,0.8 -0.2,0.8 C 5.8,85 6,84.3 5.9,83.9 c -0.2,-2.8 0,-6.4 0,-9.2 v -0.2 h 0.4 m 1.5,0.2 1.5,0.2 a 15,15 0 0 0 1.5,3.7 c -2,0 -2.3,-2.4 -3,-3.9 m 4.6,0.7 0.2,0.1 1.4,3.9 C 13,78.6 13,77 12.5,75.7 l -0.1,-0.3 m 0.6,0.1 0.8,0.2 c 0.3,1.5 1,2.6 1.5,4 L 14.5,79.4 C 14,78.1 13.3,77 12.9,75.5 m 1.2,0.3 c 0.4,-0.2 1,0 1.3,0 0.5,1.5 1,2.8 1.7,4 -0.3,0.2 -0.8,-0.1 -1.2,0 -0.7,-1.3 -1.2,-2.7 -1.8,-4 m -7.3,0 c 0.4,0.5 0.6,1.4 1,2 -0.2,1.7 -0.4,3.8 -0.4,6 0,0.4 0.3,1 -0.2,1.3 -0.5,-2.7 0,-6.5 -0.4,-9.3 m 4.2,0 c 0.4,0.3 0.4,1 0.2,1.5 -0.6,-0.2 -0.3,-1.1 -0.1,-1.5 m 4.7,0.1 1,0.1 c 0.5,1.6 1.3,2.7 1.9,4 h -1 c -0.7,-1.3 -1.5,-2.6 -2,-4.1 m 1.6,0.2 c 0.5,0 0.8,0.2 1.4,0.1 0.6,1.3 1.2,2.8 2,4 -0.4,0.2 -1,0 -1.3,0 -0.8,-1.3 -1.6,-2.6 -2.1,-4 M 42,79.4 C 41.1,79.7 40.5,78.6 40,78 l -0.9,-1.8 c 0.3,0 0.5,-0.2 0.6,0 0.6,1.2 1.5,2 2.2,3.2 m -22.7,-3 c 0.3,-0.2 0.9,0.1 1.4,0 0.5,1.4 1.2,2.6 1.9,4 l -1.2,-0.2 -2.1,-3.8 m 19.6,0 a 15,15 0 0 0 1.7,3.1 c -0.3,0.3 -0.9,0.3 -1.4,0.3 -0.6,-1 -1.5,-1.9 -1.8,-3.2 0.4,-0.2 1,-0.2 1.5,-0.2 M 21,76.6 c 3.6,-0.1 7.6,0.5 11.4,0.1 0.4,1 1.3,1.8 1.2,3 l -1.2,-1.4 c -0.3,-0.4 -0.4,-1.3 -1,-1.2 0,1.2 1.1,2.4 1.8,3.3 -2,0.9 -2.6,-2.6 -3.7,-3.5 0,1.4 1.2,2.4 1.7,3.7 H 30 L 27.5,77 c -0.2,1.2 1.2,2.4 1.7,3.6 h -1.5 l -2,-3.2 c -0.2,0.8 1,2.1 1.5,3 -0.5,0.3 -1.3,0.1 -2,0.2 -0.8,-1 -1.3,-2.3 -2,-3.4 -0.2,1 1,2.2 1.4,3.2 -0.4,0.3 -1,-0.1 -1.5,0 -0.7,-1.3 -1.5,-2.5 -2,-3.8 M 59,76.5 c -0.2,0.4 -0.5,0.5 -0.6,0.9 -0.2,0 -0.1,-0.3 -0.3,-0.3 0.3,-0.2 0.5,-0.5 0.8,-0.6 m -22,0.2 c 0,1.5 1.2,2.3 1.5,3.3 -1.8,-0.3 -2,-2.2 -2.5,-3.3 h 1 m -28.6,2 c 1,1 0,4.4 0,6.2 C 7.9,84.4 8.2,82.6 8.2,81.6 V 78.7 M 54.5,79 c 0,2 0,4.7 0.2,6.7 -0.5,0.2 -0.5,0.9 -0.8,1.2 0.2,-0.8 0.1,-2.4 0.1,-3.8 0,-1.8 -0.3,-3.5 0.5,-4 m -44.3,0.3 c 0.3,-0.1 1,0 1.2,0.1 0,1.5 1.7,1.8 2,2.8 a 13,13 0 0 1 -3.2,-2.9 m 3.9,0.6 c 1,0.4 1.1,1.6 1.7,2.3 A 5.6,5.6 0 0 1 14,80 m 32.6,2.7 c -0.4,0.1 -1,0 -1.4,0.3 -1.3,-0.7 -2.8,-1.7 -3.4,-3 1,-0.2 1.9,0.9 2.6,1.4 a 5,5 0 0 0 2.2,1.3 M 15,80.2 c 0,-0.2 0.3,0.2 0.6,0 L 17,82.6 C 15.7,82.4 15.7,81 15,80.2 m 38.4,0 V 87 c -0.5,-1.8 -0.2,-4.3 -0.4,-6.3 0.2,0 0.2,-0.3 0.4,-0.4 M 43.8,83 c -2,0.1 -3.3,-1.1 -4,-2.5 0.4,0 0.7,-0.3 1,-0.2 0.4,0.1 0.4,0.3 0.6,0.6 0.6,0.7 1.6,1.6 2.4,2 M 16.3,80.4 c 1.8,-0.2 1.7,1.6 2.6,2.3 -0.3,0.2 -1,0 -1.3,0 -0.4,-0.8 -1,-1.4 -1.3,-2.3 m 1.8,0.3 c 1.5,0 1.6,1.3 2.2,2.1 -1.4,0 -1.5,-1.3 -2.2,-2.1 m -8.8,0.1 c 0.2,0.8 0,2.7 0,3.9 -0.2,-1.2 0,-2.6 0,-3.9 m 10.5,0 c 0.4,0 0.8,0.2 1.3,0.1 0.4,0.7 0.7,1.3 1.2,1.9 -0.2,0.2 -0.8,0 -1.2,0 -0.5,-0.6 -1,-1.2 -1.3,-2 m 2.1,0.2 c 0.5,0 0.7,0.2 1.1,0.1 0.4,0.6 0.7,1.2 1.2,1.7 -0.2,0.2 -0.7,0 -1.1,0.1 -0.4,-0.6 -1,-1.1 -1.2,-1.9 m 30.6,0 c 0.2,1.8 0,4.5 0.1,6.1 C 52.4,86.4 52.4,85.4 52.3,84.3 52.1,83 51.5,81.5 52.5,81 m -28.8,0.2 h 1.4 c 0.3,0.7 0.8,1.2 1,1.8 H 25 c -0.4,-0.6 -0.9,-1.1 -1.2,-1.8 m 1.9,0.2 h 2.1 c 0.3,0.7 0.9,1.1 1.2,1.8 l -2.2,-0.2 -1,-1.6 m 7.5,6.1 c 1.4,-0.9 2.4,-2.3 2.7,-4.4 h -0.3 c -0.5,1.8 -1.5,3 -2.4,4.4 z m 2.4,-6.2 c 1.1,0.4 2,1.1 2.8,1.8 0,0.3 -0.4,0.1 -0.2,0.5 1,1.7 4.4,0.6 6.7,0.7 0,1.6 0.4,3 0.6,4.4 -4.3,0.8 -8.5,1.8 -12.5,3 -0.4,-1.2 0,-3.1 -0.4,-4.3 1.3,-1.8 2.7,-3.4 3,-6.1 m -7.3,0.1 c 1.8,-0.3 2,1 2.8,1.8 h -1.4 c -0.5,-0.6 -1,-1 -1.4,-1.8 m 2.2,0 h 1.3 l 0.5,0.7 c 0,0.4 -0.2,0.6 -0.4,0.8 -0.6,-0.3 -1.1,-0.8 -1.4,-1.5 M 51.2,82 c 0.4,1.6 0.4,4 0.7,5.3 -0.3,-0.1 -0.3,-0.6 -0.4,-1 l -0.6,-4 0.3,-0.2 m 0.1,5.4 c -0.5,0 -1.1,0.1 -1.6,0.3 -0.2,-1.4 0.2,-3.4 -0.1,-5 0.2,0 0.5,0 0.6,-0.2 0.5,1.4 0.5,3.8 1.1,4.9 M 49,83 c 0.5,1.4 0,3.3 0.2,4.9 L 48,88.1 c 0,-1.4 0,-2.8 -0.2,-4 -0.7,0.7 -0.3,3 -0.3,4.1 -0.5,0 -0.9,0.2 -1.3,0.3 L 45.5,84.3 C 46.7,83.9 48,83.6 49.1,83 m -18.6,4.5 c 0.2,0 0.3,0.2 0.6,0.1 v 4.8 C 30.7,91 30.8,89.1 30.5,87.5 M 8.2,44.4 c 0,0.4 -0.6,1.2 -1.1,1.4 0,-0.5 0.7,-1 1.1,-1.4 m 41,0.6 c -0.8,0.5 -1.6,0.1 -2.7,0.4 -0.7,0.1 -2.1,1 -2.7,1.5 -1.2,1.1 -2.2,3.1 -3,5.1 -1,2.4 -1.7,4.7 -1.8,7.2 0,2.8 -0.3,5.1 -0.1,7.5 A 28,28 0 0 0 42,77.1 c 0.3,0.6 0.7,1 1,1.4 -1.2,-1 -2.3,-3 -3.3,-5.3 -1,-2.5 -1.7,-4.4 -1.7,-7.3 0.1,-0.4 -0.3,-0.3 -0.3,-0.6 0,-4.2 0.2,-7.6 1.4,-11 0.8,-2 1.5,-4 2.4,-5.4 1.3,-2.2 4.5,-5 7.7,-3.9 m -38,-0.1 c -0.3,0.7 -1,1.7 -1.3,2.7 -1,0.1 -1.8,0.3 -2.7,0.7 0,-0.8 0.6,-1.6 1,-2.3 l 3,-1.1 m 39.1,1.3 c 1.7,0.4 2.8,2 3.4,3.9 -1.1,-1.3 -1.8,-3.1 -3.4,-4"
         id="path903"
         inkscape:connector-curvature="0"
         style="fill:#ffffff;stroke-width:0.151118" />
      <path
         d="m 5.3,47.2 c -2.1,4 -3.3,10.1 -3,16.5 0,1.2 0.4,2.3 0.2,3.5 C 2.2,65 1.2,62.7 1.3,60.4 c 0.1,-2.5 1,-5 1.4,-7.3 0.5,-2.3 1.5,-4.3 2.6,-5.9 M 53.7,48 c 3,4.2 5.1,13.5 3.8,21.4 -0.1,1 -0.1,2.2 -0.8,2.9 A 66,66 0 0 0 56.6,57.5 39,39 0 0 0 53.6,48 m -0.1,27.7 h 1 A 6.6,6.6 0 0 1 52,78.8 C 52.3,78 53.4,77 53.5,75.7 m 2,0.4 c 0.3,0.4 -0.3,1.2 -0.7,1.4 0.4,-0.3 0.5,-1 0.7,-1.4 m -3.5,4 c -0.8,0.8 -2.4,2 -4.3,1.7 -0.7,0 -1.2,-0.5 -2,-0.4 -0.8,-0.7 -1.5,-1.3 -2,-2.1 0.7,0.2 1,1 1.8,1.4 2,1 5,0.6 6.5,-0.6 M 34.6,79.3 c 0.6,1.5 -0.4,3.5 -1.3,4.8 -0.6,1 -1.3,1.8 -2,2.1 0.9,-1.1 1.6,-2.5 2.5,-3.6 -0.3,-0.4 0,-0.8 0.2,-1.2 0.2,0 0.3,0.2 0.5,0.1 -0.1,-0.6 -0.5,-1.4 0.1,-2.2 m 4,1.5 c 0,-0.2 0.3,0 0.4,-0.1 l 0.4,0.5 c -0.2,0.1 -0.5,-0.4 -0.8,-0.4 M 40,91.1 c -0.4,0.2 -1.5,0.4 -1.6,0.3 0.6,0 1,-0.2 1.5,-0.3"
         id="path905"
         inkscape:connector-curvature="0"
         style="fill:#ffffff;stroke-width:0.151118" />
    </g>
  </g>
</svg>
